<?xml version="1.0" encoding="utf-8"?>
<!-- Generator: Adobe Illustrator 21.1.0, SVG Export Plug-In . SVG Version: 6.00 Build 0)  -->
<svg version="1.1" id="Capa_1" xmlns="http://www.w3.org/2000/svg" xmlns:xlink="http://www.w3.org/1999/xlink" x="0px" y="0px"
	 viewBox="0 0 512 512" style="enable-background:new 0 0 512 512;" xml:space="preserve">
<style type="text/css">
	.st0{fill:#FFFFFF;}
</style>
<g>
	<path class="st0" d="M248.2,504.2l0-496.3c0-4.3,3.5-7.8,7.8-7.8c4.3,0,7.8,3.5,7.8,7.8l0,496.3c0,4.3-3.5,7.8-7.8,7.8
		C251.7,512,248.2,508.5,248.2,504.2z"/>
	<path class="st0" d="M51.5,307.5c0-2,0.8-4,2.3-5.6c3.1-3.1,8-3.1,11.1,0L256,493.1l191.1-191.2c3.1-3.1,8-3.1,11.1,0s3.1,8,0,11.1
		L261.6,509.7c-1.5,1.5-3.5,2.3-5.6,2.3c-2.1,0-4.1-0.8-5.6-2.3L53.8,313C52.3,311.5,51.5,309.5,51.5,307.5z"/>
</g>
</svg>
