<?xml version="1.0" encoding="utf-8"?>
<!-- Generator: Adobe Illustrator 21.1.0, SVG Export Plug-In . SVG Version: 6.00 Build 0)  -->
<svg version="1.1" id="Capa_1" xmlns="http://www.w3.org/2000/svg" xmlns:xlink="http://www.w3.org/1999/xlink" x="0px" y="0px"
	 viewBox="0 0 512 512" style="enable-background:new 0 0 512 512;" xml:space="preserve">
<g>
	<path d="M506.9,137.5l-25.6-25.6c-3.4-3.4-7.4-5.1-11.8-5.1c-4.4,0-8.4,1.7-11.8,5.1L256,313.5L54.4,111.8
		c-3.4-3.4-7.4-5.1-11.8-5.1c-4.4,0-8.4,1.7-11.8,5.1L5.1,137.5c-3.4,3.4-5.1,7.4-5.1,11.8c0,4.4,1.7,8.4,5.1,11.8l239.1,239.1
		c3.4,3.4,7.4,5.1,11.8,5.1s8.4-1.7,11.8-5.1l239.1-239.1c3.4-3.4,5.1-7.4,5.1-11.8C512,144.8,510.3,140.9,506.9,137.5z"/>
</g>
</svg>
