<?xml version="1.0" encoding="utf-8"?>
<!-- Generator: Adobe Illustrator 21.1.0, SVG Export Plug-In . SVG Version: 6.00 Build 0)  -->
<svg version="1.1" id="Capa_1" xmlns="http://www.w3.org/2000/svg" xmlns:xlink="http://www.w3.org/1999/xlink" x="0px" y="0px"
	 viewBox="0 0 512 512" style="enable-background:new 0 0 512 512;" xml:space="preserve">
<style type="text/css">
	.st0{fill:#FFFFFF;}
</style>
<g>
	<g>
		<path class="st0" d="M315.7,227.6H201.9c-31.4,0-56.9-25.5-56.9-56.9s25.5-56.9,56.9-56.9h113.8c31.4,0,56.9,25.5,56.9,56.9h56.9
			c0-62.8-50.9-113.8-113.8-113.8H201.9c-62.8,0-113.8,50.9-113.8,113.8s50.9,113.8,113.8,113.8h113.8c31.4,0,56.9,25.5,56.9,56.9
			s-25.5,56.9-56.9,56.9H201.9c-31.4,0-56.9-25.5-56.9-56.9H88.1c0,62.8,50.9,113.8,113.8,113.8h113.8
			c62.8,0,113.8-50.9,113.8-113.8S378.5,227.6,315.7,227.6z"/>
	</g>
</g>
<g>
	<g>
		<rect x="230.3" y="0" class="st0" width="56.9" height="85.3"/>
	</g>
</g>
<g>
	<g>
		<rect x="230.3" y="426.7" class="st0" width="56.9" height="85.3"/>
	</g>
</g>
</svg>
