<?xml version="1.0" encoding="iso-8859-1"?>
<!-- Generator: Adobe Illustrator 19.0.0, SVG Export Plug-In . SVG Version: 6.00 Build 0)  -->
<svg xmlns="http://www.w3.org/2000/svg" xmlns:xlink="http://www.w3.org/1999/xlink" version="1.1" id="Layer_1" x="0px" y="0px" viewBox="0 0 490.442 490.442" style="enable-background:new 0 0 490.442 490.442;" xml:space="preserve" width="512px" height="512px">
<g>
	<g>
		<path d="M270.421,245.342l42-42c7.3-7.1,7.3-18.5,0.2-25.5c-7-7-18.4-7-25.5,0l-42,42l-42-42c-7-7-18.4-7-25.5,0    c-7,7-7,18.4,0,25.5l42,42l-42,42c-7,7-7,18.4,0,25.5c3.5,3.5,8.1,5.3,12.7,5.3c4.6,0,9.2-1.8,12.7-5.3l42-42l42,42    c3.5,3.5,8.1,5.3,12.7,5.3c4.6,0,9.2-1.8,12.7-5.3c7-7,7-18.4,0-25.5L270.421,245.342z" fill="#FFFFFF"/>
	</g>
</g>
<g>
	<g>
		<path d="M418.621,71.842c-7-7-18.4-7-25.4,0l-56,55.9c-7,7-7,18.4,0,25.5c7,7,18.4,7,25.5,0l42.7-42.7    c69.2,82.1,65.1,205.3-12.2,282.6c-39.5,39.5-92.1,61.3-148,61.3c-55.9,0-108.4-21.7-148-61.2c-81.6-81.6-81.6-214.3,0-295.9    c50.1-50.1,121.6-71.4,191.1-56.8c9.7,2,19.3-4.2,21.3-13.9c2-9.7-4.2-19.3-13.9-21.3c-81.4-17.2-165.1,7.7-223.9,66.5    c-46.3,46.3-71.8,107.9-71.8,173.4s25.5,127.1,71.8,173.4c46.3,46.3,107.9,71.8,173.4,71.8s127.1-25.5,173.4-71.8    s71.8-107.9,71.8-173.4S464.921,118.142,418.621,71.842z" fill="#FFFFFF"/>
	</g>
</g>
<g>
</g>
<g>
</g>
<g>
</g>
<g>
</g>
<g>
</g>
<g>
</g>
<g>
</g>
<g>
</g>
<g>
</g>
<g>
</g>
<g>
</g>
<g>
</g>
<g>
</g>
<g>
</g>
<g>
</g>
</svg>
