<?xml version="1.0" encoding="utf-8"?>
<!-- Generator: Adobe Illustrator 20.0.0, SVG Export Plug-In . SVG Version: 6.00 Build 0)  -->
<svg version="1.1" id="Layer_1" xmlns="http://www.w3.org/2000/svg" xmlns:xlink="http://www.w3.org/1999/xlink" x="0px" y="0px"
	 viewBox="0 0 300 300" style="enable-background:new 0 0 300 300;" xml:space="preserve">
<style type="text/css">
	.st0{fill:#F0F0F0;}
</style>
<g>
	<path class="st0" d="M4,53.4c0.3-13.2,6.1-23.1,15.8-31.3c2.5-2.1,3.5-0.4,4.9,1c13.7,13.7,27.5,27.5,41.2,41.2
		c21.1,21.1,42.2,42.2,63.3,63.3c10.2,10.2,10.2,20.7,0.1,30.9c-16.9,17-33.8,33.8-50.8,50.8c-18.3,18.3-36.7,36.7-55,55
		c-4.6,4.6-5.1,9.7-1.2,13.5c3.9,3.8,8.9,3.3,13.5-1.3c35.6-35.6,71.2-71.2,106.8-106.7c9.6-9.6,19-9.6,28.7,0.1
		c28,28,56.1,56,84,84.1c13.2,13.3,8.4,34.7-8.9,40.5c-9.2,3.1-17.7,1.1-24.6-5.6c-23.9-23.6-47.5-47.4-71.2-71.2
		c-3.7-3.7-3.9-8.1-0.8-11.1c3.2-3.2,7.7-3,11.5,0.8c22.4,22.4,44.8,44.8,67.3,67.2c1.2,1.2,2.4,2.5,3.7,3.6
		c4.5,3.8,9.8,3.6,13.3-0.4c3.3-3.6,3-9.1-0.8-13c-9.4-9.5-18.9-18.9-28.3-28.4c-18.3-18.4-36.6-36.7-55-55.1
		c-4.5-4.5-4.6-4.6-9.1,0c-34.5,34.5-69,69-103.5,103.5c-3.2,3.2-6.3,6.5-10.5,8.4c-10.1,4.7-22.2,1.8-28.9-7
		c-7-9.2-6.6-21.8,1.5-30.4c8.1-8.6,16.6-16.8,25-25.1c26.9-26.9,53.8-53.8,80.8-80.8c0.8-0.8,1.5-1.5,2.3-2.4
		c3.8-4.4,3.8-5.1-0.3-9.2C87.5,107,56.4,76,25.3,44.8c-2.7-2.7-3.9-2.7-5.1,1c-3.2,9.5-0.2,17.6,6.1,24.5
		c7.2,7.9,14.9,15.4,22.5,23c14.2,14.2,28.3,28.3,42.5,42.5c0.7,0.7,1.3,1.3,1.9,2c3.1,3.6,3.1,7.9,0.1,10.9
		c-3,2.9-7.5,2.9-10.8-0.4c-8.1-8-16.1-16-24.1-24C45.4,111.1,32.3,98.1,19.3,85C10.5,76.1,4.2,66,4,53.4z"/>
	<path class="st0" d="M188.9,148.1c-2.8-0.4-5.6-0.6-8.3-1.2c-4.7-1.1-7-4.5-6.1-8.8c0.8-4,4.3-6.6,8.7-5.7c10,2,17.5-1.7,24-8.9
		c1.6-1.8,1.6-2.8-0.1-4.4c-8.6-8.5-17.2-17.1-25.7-25.7c-1.7-1.8-2.7-1.6-4.5,0c-7.1,6.5-11.1,14-8.9,24c1,4.3-1.9,7.9-5.8,8.7
		c-4.1,0.8-7.9-1.7-8.8-6.3c-2.6-12.4,0.1-23.7,9-32.8c16.1-16.6,32.7-32.8,49-49.2c10.1-10.1,20.2-20.3,30.3-30.3
		c4.1-4.1,8.1-4.2,11.4-0.7c3.1,3.3,2.6,7.4-1.4,11.4c-15.5,15.5-31,31-46.5,46.5c-3.2,3.2-6.4,6.3-9.5,9.6c-3.9,4-4.1,7.8-0.8,11
		c3.2,3.1,7.2,2.8,11-1c18.3-18.2,36.5-36.5,54.7-54.7c0.7-0.7,1.3-1.4,2-2c3.5-3.2,7.9-3.5,10.8-0.6c3,3,3,7.3-0.4,10.8
		c-10.7,10.8-21.5,21.6-32.3,32.3c-8,8-16.1,16-24,24.1c-4.4,4.5-4.8,8.5-1.3,11.7c3.3,3,7.2,2.5,11.4-1.7
		c18.6-18.5,37.2-37.1,55.8-55.6c3.6-3.6,7.1-4.2,10.3-1.8c3.9,2.8,4.1,7.8,0.3,11.7c-5.8,6-11.8,11.9-17.7,17.8
		c-20.2,20.2-40.5,40.4-60.7,60.6C207.7,144.1,199.1,147.8,188.9,148.1z"/>
</g>
</svg>
