<?xml version="1.0" encoding="utf-8"?>
<!-- Generator: Adobe Illustrator 21.1.0, SVG Export Plug-In . SVG Version: 6.00 Build 0)  -->
<svg version="1.1" id="Layer_1" xmlns="http://www.w3.org/2000/svg" xmlns:xlink="http://www.w3.org/1999/xlink" x="0px" y="0px"
	 viewBox="0 0 500 500" style="enable-background:new 0 0 500 500;" xml:space="preserve">
<style type="text/css">
	.st0{fill:#FFFFFF;}
	.st1{fill:none;stroke:#FFFFFF;stroke-width:25;stroke-miterlimit:10;}
</style>
<g>
	<path class="st0" d="M468,32v438H30V32H468 M486,2H12C5.4,2,0,7.4,0,14v474c0,6.6,5.4,12,12,12h474c6.6,0,12-5.4,12-12V14
		C498,7.4,492.6,2,486,2L486,2z"/>
</g>
<path class="st1" d="M410,153.1H93c-11,0-20-8.3-20-18.4V89.5c0-10.1,9-18.4,20-18.4h317c11,0,20,8.3,20,18.4v45.2
	C430,144.9,421,153.1,410,153.1z"/>
<path class="st1" d="M410,278.7H93c-11,0-20-8.3-20-18.4v-45.2c0-10.1,9-18.4,20-18.4h317c11,0,20,8.3,20,18.4v45.2
	C430,270.4,421,278.7,410,278.7z"/>
<path class="st1" d="M410,400H93c-11,0-20-8.3-20-18.4v-45.2c0-10.1,9-18.4,20-18.4h317c11,0,20,8.3,20,18.4v45.2
	C430,391.8,421,400,410,400z"/>
<circle class="st0" cx="378" cy="237.7" r="15"/>
<circle class="st0" cx="378" cy="112.1" r="15"/>
<circle class="st0" cx="393" cy="359" r="15"/>
</svg>
