<?xml version="1.0" encoding="utf-8"?>
<!-- Generator: Adobe Illustrator 21.1.0, SVG Export Plug-In . SVG Version: 6.00 Build 0)  -->
<svg version="1.1" id="Layer_1" xmlns="http://www.w3.org/2000/svg" xmlns:xlink="http://www.w3.org/1999/xlink" x="0px" y="0px"
	 viewBox="0 0 512 512" style="enable-background:new 0 0 512 512;" xml:space="preserve">
<style type="text/css">
	.st0{fill:url(#SVGID_1_);}
</style>
<g>
	<g>
		<linearGradient id="SVGID_1_" gradientUnits="userSpaceOnUse" x1="0.7815" y1="458.4519" x2="415.8241" y2="218.827">
			<stop  offset="0" style="stop-color:#523A83"/>
			<stop  offset="1" style="stop-color:#D9315F"/>
		</linearGradient>
		<path class="st0" d="M469.3,369.8v-28.6c0-61.2-49.8-110.9-110.9-110.9h-59.7v-76.8h34.9c9.7,0,18.4-5.3,22.8-13.9
			c4.4-8.6,3.6-18.8-2-26.6l-71.5-99c-6.3-8.7-16-13.7-26.8-13.7h0c-10.7,0-20.5,5-26.8,13.7l-71.5,99c-5.7,7.8-6.4,18-2,26.6
			c4.4,8.6,13.1,13.9,22.8,13.9h43.4v76.8h-68.3c-61.2,0-110.9,49.8-110.9,110.9v28.6c-25.6,12.5-41.7,36.9-42.6,65
			c-1.2,37.8,25.7,69.8,63.9,76c22.6,3.7,45.4-2.6,62.6-17.2s27.1-36,27.1-58.5c0-28.3-15.8-52.4-42.7-65.3v-28.6
			c0-23.5,19.1-42.7,42.7-42.7h68.3v71.3c-25.6,12.5-41.7,36.9-42.6,65c-1.2,37.8,25.7,69.8,63.9,76c22.6,3.7,45.4-2.6,62.6-17.2
			s27.1-36,27.1-58.5c0-28.3-15.8-52.4-42.7-65.3v-71.2h68.3c23.5,0,42.7,19.1,42.7,42.7v28.6c-25.6,12.5-41.7,36.9-42.6,65
			c-1.2,37.8,25.7,69.8,63.9,76c4.2,0.7,8.5,1,12.7,1c18.2,0,35.9-6.4,49.9-18.2c17.2-14.6,27.1-36,27.1-58.5
			C512,406.7,496.2,382.7,469.3,369.8z"/>
	</g>
</g>
</svg>
