<?xml version="1.0" encoding="utf-8"?>
<!-- Generator: Adobe Illustrator 20.0.0, SVG Export Plug-In . SVG Version: 6.00 Build 0)  -->
<svg version="1.1" id="Layer_1" xmlns="http://www.w3.org/2000/svg" xmlns:xlink="http://www.w3.org/1999/xlink" x="0px" y="0px"
	 viewBox="0 0 420 420" style="enable-background:new 0 0 420 420;" xml:space="preserve">
<style type="text/css">
	.st0{fill:none;stroke:#F0F0F0;stroke-width:15;stroke-miterlimit:10;}
</style>
<path class="st0" d="M380.8,129.3H39.2c-8.3,0-15.2-9-15.2-20v-20h356.8c8.3,0,15.2,9,15.2,20l0,0
	C396,120.3,389.2,129.3,380.8,129.3z"/>
<path class="st0" d="M380.8,227.7H39.2c-8.3,0-15.2-9-15.2-20l0,0c0-11,6.8-20,15.2-20h341.6c8.3,0,15.2,9,15.2,20l0,0
	C396,218.7,389.2,227.7,380.8,227.7z"/>
<path class="st0" d="M396,330.7H39.2c-8.3,0-15.2-9-15.2-20l0,0c0-11,6.8-20,15.2-20h341.6c8.3,0,15.2,9,15.2,20L396,330.7
	L396,330.7z"/>
</svg>
