<?xml version="1.0" encoding="utf-8"?>
<!-- Generator: Adobe Illustrator 21.1.0, SVG Export Plug-In . SVG Version: 6.00 Build 0)  -->
<svg version="1.1" id="Capa_1" xmlns="http://www.w3.org/2000/svg" xmlns:xlink="http://www.w3.org/1999/xlink" x="0px" y="0px"
	 viewBox="0 0 512 512" style="enable-background:new 0 0 512 512;" xml:space="preserve">
<style type="text/css">
	.st0{fill:#F0F0F0;}
</style>
<g>
	<g>
		<path class="st0" d="M451.1,33c7.1,0,14.3,2.7,19.7,8.2c10.9,10.9,10.9,28.6,0,39.5L295.5,256l175.2,175.3
			c10.9,10.9,10.9,28.6,0,39.5c-5.4,5.5-12.6,8.2-19.7,8.2c-7.1,0-14.2-2.7-19.7-8.2L256,295.5L80.6,470.8
			c-5.4,5.5-12.6,8.2-19.7,8.2s-14.2-2.7-19.7-8.2c-10.9-10.9-10.9-28.6,0-39.5L216.5,256L41.2,80.7c-10.9-10.9-10.9-28.6,0-39.5
			c5.5-5.5,12.6-8.2,19.7-8.2s14.3,2.7,19.7,8.2L256,216.5L431.3,41.2C436.8,35.7,443.9,33,451.1,33 M451.1,3c-15.4,0-30,6-40.9,17
			L256,174.1L101.9,20C90.9,9,76.4,3,60.9,3C45.5,3,31,9,20,20C9.1,30.8,3,45.3,3,60.8c0,15.5,6,30.1,17,41.1L174.1,256L20,410.1
			C9.1,421,3,435.5,3,450.9C3,466.4,9,481,20,492c11,11,25.5,17,40.9,17c15.3,0,30.2-6.2,41-17L256,337.9L410.1,492
			c11,11,25.5,17,40.9,17c15.3,0,30.2-6.2,40.9-17c10.9-10.9,16.9-25.3,16.9-40.7c0-15.5-6-30.1-17-41.1L337.9,256L492,101.9
			c10.9-10.9,17-25.4,17-40.8c0-15.5-6-30.1-17-41.1C481.1,9,466.5,3,451.1,3L451.1,3z"/>
	</g>
</g>
</svg>
