<?xml version="1.0" encoding="iso-8859-1"?>
<!-- Generator: Adobe Illustrator 19.0.0, SVG Export Plug-In . SVG Version: 6.00 Build 0)  -->
<svg xmlns="http://www.w3.org/2000/svg" xmlns:xlink="http://www.w3.org/1999/xlink" version="1.1" id="Layer_1" x="0px" y="0px" viewBox="0 0 512 512" style="enable-background:new 0 0 512 512;" xml:space="preserve" width="512px" height="512px">
<g transform="translate(1 1)">
	<g>
		<g>
			<path d="M199.533,24.6h-42.667c-5.12,0-8.533,3.413-8.533,8.533c0,5.12,3.413,8.533,8.533,8.533h42.667     c5.12,0,8.533-3.413,8.533-8.533C208.067,28.013,204.653,24.6,199.533,24.6z" fill="#f0f0f0"/>
			<path d="M131.267,24.6h-8.533c-5.12,0-8.533,3.413-8.533,8.533c0,5.12,3.413,8.533,8.533,8.533h8.533     c5.12,0,8.533-3.413,8.533-8.533C139.8,28.013,136.387,24.6,131.267,24.6z" fill="#f0f0f0"/>
			<path d="M464.067,109.933h-153.6V50.2V33.133C310.467,14.36,295.107-1,276.333-1H54.467C35.693-1,20.333,14.36,20.333,33.133     V50.2v25.6c-5.12,0-8.533,3.413-8.533,8.533v8.533c0,5.12,3.413,8.533,8.533,8.533v8.533c-5.12,0-8.533,3.413-8.533,8.533V127     c0,5.12,3.413,8.533,8.533,8.533v8.533c-5.12,0-8.533,3.413-8.533,8.533v8.533c0,5.12,3.413,8.533,8.533,8.533v273.067v34.133     c0,18.773,15.36,34.133,34.133,34.133h221.867c18.773,0,34.133-15.36,34.133-34.133v-34.133V383h153.6     c18.773,0,34.133-15.36,34.133-34.133V212.333v-51.2v-17.067C498.2,125.293,482.84,109.933,464.067,109.933z M464.067,127     c9.387,0,17.067,7.68,17.067,17.067v8.533h-332.8v-8.533c0-9.387,7.68-17.067,17.067-17.067h145.067H464.067z M481.133,203.8     h-332.8v-34.133h332.8V203.8z M37.4,33.133c0-9.387,7.68-17.067,17.067-17.067h221.867c9.387,0,17.067,7.68,17.067,17.067V50.2     h-256V33.133z M37.4,476.867v-34.133h105.497c-7.117,6.267-11.63,15.43-11.63,25.6s4.514,19.333,11.63,25.6h-88.43     C45.08,493.933,37.4,486.253,37.4,476.867z M165.4,485.4c-9.387,0-17.067-7.68-17.067-17.067s7.68-17.067,17.067-17.067     c9.387,0,17.067,7.68,17.067,17.067S174.787,485.4,165.4,485.4z M293.4,476.867c0,9.387-7.68,17.067-17.067,17.067h-88.43     c7.117-6.267,11.63-15.43,11.63-25.6s-4.514-19.333-11.63-25.6H293.4V476.867z M293.4,425.667h-256v-358.4h256v42.667h-128     c-18.773,0-34.133,15.36-34.133,34.133v17.067v51.2v136.533c0,18.773,15.36,34.133,34.133,34.133h128V425.667z M464.067,365.933     h-153.6H165.4c-9.387,0-17.067-7.68-17.067-17.067v-128h332.8v128C481.133,358.253,473.453,365.933,464.067,365.933z" fill="#f0f0f0"/>
			<path d="M455.533,272.067H344.6c-5.12,0-8.533,3.413-8.533,8.533v59.733c0,5.12,3.413,8.533,8.533,8.533h110.933     c5.12,0,8.533-3.413,8.533-8.533V280.6C464.067,275.48,460.653,272.067,455.533,272.067z M447,331.8h-93.867v-42.667H447V331.8z" fill="#f0f0f0"/>
			<path d="M173.933,263.533H216.6c5.12,0,8.533-3.413,8.533-8.533s-3.413-8.533-8.533-8.533h-42.667     c-5.12,0-8.533,3.413-8.533,8.533S168.813,263.533,173.933,263.533z" fill="#f0f0f0"/>
			<path d="M301.08,246.467h-55.467c-5.12,0-8.533,3.413-8.533,8.533s3.413,8.533,8.533,8.533h55.467     c5.12,0,8.533-3.413,8.533-8.533S306.2,246.467,301.08,246.467z" fill="#f0f0f0"/>
			<path d="M258.413,280.6h-84.48c-5.12,0-8.533,3.413-8.533,8.533s3.413,8.533,8.533,8.533h84.48c4.267,0,8.533-3.413,8.533-8.533     S263.533,280.6,258.413,280.6z" fill="#f0f0f0"/>
			<path d="M301.08,280.6h-16.213c-5.12,0-8.533,3.413-8.533,8.533s3.413,8.533,8.533,8.533h16.213c5.12,0,8.533-3.413,8.533-8.533     S306.2,280.6,301.08,280.6z" fill="#f0f0f0"/>
		</g>
	</g>
</g>
<g>
</g>
<g>
</g>
<g>
</g>
<g>
</g>
<g>
</g>
<g>
</g>
<g>
</g>
<g>
</g>
<g>
</g>
<g>
</g>
<g>
</g>
<g>
</g>
<g>
</g>
<g>
</g>
<g>
</g>
</svg>
