<?xml version="1.0" encoding="utf-8"?>
<!-- Generator: Adobe Illustrator 21.1.0, SVG Export Plug-In . SVG Version: 6.00 Build 0)  -->
<svg version="1.1" id="Capa_1" xmlns="http://www.w3.org/2000/svg" xmlns:xlink="http://www.w3.org/1999/xlink" x="0px" y="0px"
	 viewBox="0 0 512 512" style="enable-background:new 0 0 512 512;" xml:space="preserve">
<style type="text/css">
	.st0{fill:#F0F0F0;}
</style>
<g>
	<path class="st0" d="M451.8,186.2c-18.6-52.3-56.5-94.2-106.7-118c-50.2-23.7-106.6-26.6-158.9-8S92,116.7,68.2,167
		c-23.8,50.1-26.6,106.6-8,158.8c1.5,4.4,6.4,6.7,10.8,5.1c4.4-1.5,6.7-6.4,5.1-10.8c-17.1-48-14.5-99.8,7.3-146
		S143.8,93.2,191.8,76s99.8-14.5,146,7.3c46.1,21.9,80.9,60.4,98.1,108.4s14.5,99.8-7.3,146s-60.4,80.9-108.4,98.1
		c-53.9,19.2-112.9,13.4-162.1-15.9c-4-2.4-9.2-1.1-11.6,2.9c-2.4,4-1.1,9.2,2.9,11.6c32.7,19.5,69.5,29.5,106.5,29.5
		c23.5,0,47.1-4,69.9-12.1c52.3-18.6,94.2-56.5,118-106.7S470.5,238.5,451.8,186.2z"/>
	<path class="st0" d="M163,256c0,4.7,3.8,8.4,8.4,8.4h210.7c4.7,0,8.4-3.8,8.4-8.4c0-4.7-3.8-8.4-8.4-8.4H171.4
		C166.7,247.5,163,251.3,163,256z"/>
	<path class="st0" d="M230.3,167.4c3.3-3.3,3.3-8.7,0-11.9c-1.6-1.6-3.8-2.4-6-2.4c-2.2,0-4.3,0.8-6,2.4L123.9,250
		c-3.3,3.3-3.3,8.7,0,11.9l94.5,94.5c3.3,3.3,8.7,3.3,11.9,0c3.3-3.3,3.3-8.7,0-11.9L141.9,256L230.3,167.4z"/>
</g>
</svg>
