<?xml version="1.0" encoding="iso-8859-1"?>
<!-- Generator: Adobe Illustrator 19.0.0, SVG Export Plug-In . SVG Version: 6.00 Build 0)  -->
<svg xmlns="http://www.w3.org/2000/svg" xmlns:xlink="http://www.w3.org/1999/xlink" version="1.1" id="Layer_1" x="0px" y="0px" viewBox="0 0 469.338 469.338" style="enable-background:new 0 0 469.338 469.338;" xml:space="preserve" width="512px" height="512px">
<g>
	<g>
		<path d="M426.669,213.338H361.25c-4.193-28.115-16.009-96.512-33.706-114.208c-16.333-16.333-65.583-31.063-123.479-47.25    c-12.125-3.396-22.688-6.344-30.188-8.708c-31.5-9.958-70.917-40.594-71.313-40.906c-2.938-2.302-6.917-2.906-10.375-1.552    C91.273,1.068,0.003,37.172,0.003,138.672c0,3.802,2.021,7.323,5.313,9.229c33.854,19.625,47.5,42.104,60.667,63.854    c6.697,11.026,13.259,21.552,21.882,30.844c-1.503,4.361-2.527,8.811-2.527,13.406v170.667c0,23.531,19.146,42.667,42.667,42.667    h298.667c23.521,0,42.667-19.135,42.667-42.667V256.005C469.336,232.474,450.19,213.338,426.669,213.338z M84.232,200.693    c-12.563-20.729-28.062-46.281-62.771-67.979c2.854-70.146,55.875-101.417,73.125-109.75    c12.354,9.115,44.521,31.594,72.875,40.542c7.667,2.427,18.479,5.448,30.854,8.917c37.563,10.51,100.438,28.094,114.146,41.792    c10.033,10.042,21.168,60.358,27.182,99.125h-44.428l-18.65-46.625c-1.229-3.125-3.875-5.469-7.125-6.344    c-6.146-1.656-23.5-6.656-30-9.906c-4.688-2.344-9.854-1.646-12.896,2.729c-0.875,0.708-4.083,2.115-6.417,3.135    c-8.104,3.563-19.229,8.427-26.333,19.094c-1.979,2.958-2.333,6.719-0.979,10c11.979,28.854,60.292,50.969,80.521,59.135    c16.833,6.802,47.917,33.771,51.313,50.479c0.771,3.823-0.271,5.51-1.521,6.76c-15.292,15.26-47.917,4.531-71.729-11.906    c-26.813-18.5-58.104-31.781-79.708-33.833c-3.354-0.323-6.521-0.479-9.646-0.625c-13.938-0.646-24.958-1.156-49.104-18.719    C100.648,227.776,93.044,215.224,84.232,200.693z M272.246,213.338h-15.648c-17.146-8.956-33.283-19.797-40.887-30.469    c3.75-2.958,8.583-5.073,12.979-7.01c2.729-1.188,5.271-2.302,7.542-3.594c7.333,2.813,16.688,5.615,22.5,7.271L272.246,213.338z     M426.669,448.005H128.003c-11.771,0-21.333-9.573-21.333-21.333h341.333C448.003,438.432,438.44,448.005,426.669,448.005z     M448.003,405.338H106.669v-21.333h341.333V405.338z M448.003,362.672H106.669v-104.44c25.302,16.953,40.141,17.849,54.375,18.513    c2.792,0.135,5.625,0.26,8.604,0.542c17.979,1.719,45.958,13.833,69.625,30.167c18.354,12.656,42.104,23.115,63.625,23.115    c13.188,0,25.542-3.927,35.313-13.688c6.875-6.875,9.417-15.896,7.333-26.094c-4.131-20.348-27.237-42.798-46.775-56.115h127.9    c11.771,0,21.333,9.573,21.333,21.333V362.672z" fill="#f0f0f0"/>
	</g>
</g>
<g>
</g>
<g>
</g>
<g>
</g>
<g>
</g>
<g>
</g>
<g>
</g>
<g>
</g>
<g>
</g>
<g>
</g>
<g>
</g>
<g>
</g>
<g>
</g>
<g>
</g>
<g>
</g>
<g>
</g>
</svg>
