<?xml version="1.0" encoding="utf-8"?>
<!-- Generator: Adobe Illustrator 21.1.0, SVG Export Plug-In . SVG Version: 6.00 Build 0)  -->
<svg version="1.1" id="Capa_1" xmlns="http://www.w3.org/2000/svg" xmlns:xlink="http://www.w3.org/1999/xlink" x="0px" y="0px"
	 viewBox="0 0 512 512" style="enable-background:new 0 0 512 512;" xml:space="preserve">
<style type="text/css">
	.st0{fill:url(#SVGID_1_);}
</style>
<g>
	<g>
		<linearGradient id="SVGID_1_" gradientUnits="userSpaceOnUse" x1="511.9965" y1="255.9983" x2="-9.094947e-13" y2="255.9983">
			<stop  offset="0" style="stop-color:#5F3980"/>
			<stop  offset="1" style="stop-color:#D03262"/>
		</linearGradient>
		<path class="st0" d="M395,131.7c-72.6,0-120.7,59.4-163.1,111.8c-36.2,44.8-70.4,87-112.1,87c-43.3,0-69.9-44.5-69.9-76.4
			c0-29.6,29.2-72.6,74.9-72.6c44.4,0,67.5,35.5,68.6,37.3c7.2,11.6,22.5,15.3,34.1,8.2c11.7-7.2,15.5-22.5,8.3-34.2
			c-1.5-2.5-38.1-61.1-111.1-61.1C51.2,131.7,0,196.2,0,254.1c0,59.7,49.2,126.3,119.7,126.3c65.4,0,108.9-53.6,150.8-105.5
			c38.8-48,75.5-93.3,124.4-93.3c29.1,0,48.2,9.9,58.4,30.1c8.8,17.6,8.8,37.5,8.8,44.4c0,4-2.1,23.8-11.8,41.6
			c-11,20.3-26.7,29.8-49.3,29.8c-45.6,0-70.2-29.6-79.5-40.8c-2.4-2.9-4.1-5-6.5-7c-10.4-8.9-26.2-7.7-35.1,2.7
			c-8.6,10.1-7.8,25.1,1.6,34.1c0.4,0.5,1,1.2,1.6,2c12.1,14.5,48.8,58.8,117.8,58.8c83.8,0,110.9-81.7,110.9-121.6
			c0-25.4-4.8-47.8-14.2-66.4C484.6,163,456.1,131.7,395,131.7z"/>
	</g>
</g>
</svg>
