<?xml version="1.0" encoding="utf-8"?>
<!-- Generator: Adobe Illustrator 21.1.0, SVG Export Plug-In . SVG Version: 6.00 Build 0)  -->
<svg version="1.1" id="Capa_1" xmlns="http://www.w3.org/2000/svg" xmlns:xlink="http://www.w3.org/1999/xlink" x="0px" y="0px"
	 viewBox="0 0 488 488" style="enable-background:new 0 0 488 488;" xml:space="preserve">
<style type="text/css">
	.st0{fill:#FFFFFF;}
</style>
<g>
	<g>
		<circle class="st0" cx="179.2" cy="202.6" r="20.4"/>
		<circle class="st0" cx="308.8" cy="285.4" r="20.4"/>
		<path class="st0" d="M477,271l-7.4-10.1c-8-11-8.2-25.9-0.3-37.1l7.2-10.2c11-15.6,5.9-37.3-11-46.4l-11-5.9
			c-12-6.4-18.6-19.8-16.3-33.3l2.1-12.3c3.2-18.8-10.9-36.2-30-37l-12.5-0.5c-13.6-0.6-25.4-9.8-29.2-22.9l-3.5-12
			C359.8,24.9,339.6,15.4,322,23l-11.5,4.9c-12.5,5.4-27.1,2.2-36.2-8l-8.3-9.3C253.3-3.6,231-3.5,218.4,11l-8.2,9.4
			c-9,10.3-23.5,13.7-36.1,8.5l-11.6-4.8c-17.7-7.3-37.7,2.6-42.8,21l-3.3,12.1c-3.6,13.2-15.2,22.6-28.8,23.3l-12.5,0.7
			C56,82.3,42.2,99.9,45.7,118.7L48,131c2.5,13.4-3.9,26.9-15.8,33.5l-10.9,6.1c-16.7,9.3-21.5,31.1-10.2,46.5l7.4,10.1
			c8,11,8.2,25.9,0.3,37.1l-7.2,10.2c-11,15.6-5.9,37.3,11,46.4l11,5.9c12,6.4,18.6,19.8,16.3,33.3l-2.1,12.3
			c-3.2,18.8,10.9,36.2,30,37l12.5,0.5c13.6,0.6,25.4,9.8,29.2,22.9l3.5,12c5.3,18.4,25.5,27.9,43.1,20.3l11.5-4.9
			c12.5-5.4,27.1-2.2,36.2,8l8.3,9.3c12.8,14.2,35.1,14.1,47.6-0.4l8.2-9.4c9-10.3,23.5-13.7,36.1-8.5l11.6,4.8
			c17.7,7.3,37.7-2.6,42.8-21l3.3-12.1c3.6-13.2,15.2-22.6,28.8-23.3l12.5-0.7c19.1-1.1,32.9-18.7,29.4-37.5l-2.3-12.3
			c-2.5-13.4,3.9-26.9,15.8-33.5l10.9-6.1C483.5,308.3,488.3,286.5,477,271z M129.9,202.6c0-27.2,22-49.2,49.2-49.2
			s49.2,22,49.2,49.2s-22,49.2-49.2,49.2S129.9,229.7,129.9,202.6z M188.6,329.5c-4.2,5.1-11.8,5.8-16.9,1.6l0,0
			c-5.1-4.2-5.8-11.8-1.6-16.9l129.1-155.5c4.2-5.1,11.8-5.8,16.9-1.6s5.8,11.8,1.6,16.9L188.6,329.5z M308.8,334.6
			c-27.2,0-49.2-22-49.2-49.2s22-49.2,49.2-49.2s49.2,22,49.2,49.2S336,334.6,308.8,334.6z"/>
	</g>
</g>
</svg>
