<?xml version="1.0" encoding="iso-8859-1"?>
<!-- Generator: Adobe Illustrator 19.0.0, SVG Export Plug-In . SVG Version: 6.00 Build 0)  -->
<svg xmlns="http://www.w3.org/2000/svg" xmlns:xlink="http://www.w3.org/1999/xlink" version="1.1" id="Layer_1" x="0px" y="0px" viewBox="0 0 463.055 463.055" style="enable-background:new 0 0 463.055 463.055;" xml:space="preserve" width="512px" height="512px">
<g>
	<g>
		<g>
			<path d="M385.288,160.272c-1.921-0.516-3.968-0.246-5.691,0.749l-27.385,15.811c-0.093,0.048-0.188,0.09-0.279,0.143     c-0.092,0.053-0.177,0.115-0.266,0.172l-122.639,70.806l44.999-167.937c1.072-4.001-1.302-8.113-5.304-9.186     c-51.463-13.793-105.218-6.713-151.36,19.927C22.113,145.75-10.639,267.983,44.354,363.235     c26.64,46.142,69.654,79.147,121.118,92.937c17.185,4.605,34.623,6.883,51.95,6.883c34.563,0,68.676-9.065,99.41-26.81     c95.251-54.993,128.004-177.227,73.01-272.479C388.848,162.043,387.21,160.786,385.288,160.272z M209.856,261.559     c-0.787,2.931,0.27,6.045,2.677,7.891c2.407,1.846,5.688,2.062,8.316,0.545l131.937-76.174     c36.893,71.765,11.222,160.904-59.405,201.681c-23.953,13.829-50.127,20.399-75.98,20.397     c-52.732-0.004-104.095-27.35-132.302-76.207c-20.363-35.271-25.773-76.36-15.232-115.699     c10.541-39.34,35.771-72.22,71.041-92.583c33.015-19.062,71.296-25.019,108.375-16.994L209.856,261.559z M309.332,423.254     c-42.671,24.636-92.383,31.182-139.978,18.429c-47.594-12.753-87.373-43.276-112.01-85.948     c-50.858-88.089-20.568-201.13,67.52-251.988c28.425-16.411,59.967-24.794,91.934-24.794c13.578,0,27.24,1.515,40.761,4.568     l-4.392,16.39c-40.955-9.052-83.284-2.551-119.762,18.51c-38.741,22.366-66.452,58.48-78.03,101.69     c-11.578,43.21-5.636,88.342,16.731,127.082c30.985,53.668,87.392,83.705,145.318,83.704c28.391-0.001,57.15-7.218,83.455-22.404     c77.791-44.913,105.922-143.239,64.904-222.176l14.688-8.48C426.174,264.899,395.244,373.654,309.332,423.254z" fill="#da315f"/>
			<path d="M444.381,93.214c-26.646-46.152-69.67-79.165-121.145-92.958c-1.921-0.516-3.969-0.246-5.691,0.749     c-1.723,0.994-2.979,2.633-3.495,4.554l-49.696,185.47c-0.785,2.931,0.272,6.045,2.679,7.892c1.339,1.027,2.949,1.55,4.567,1.55     c1.289,0,2.584-0.332,3.749-1.005l166.288-96.006c1.723-0.994,2.979-2.633,3.495-4.554     C445.645,96.984,445.376,94.937,444.381,93.214z M283.529,177.421l34.305-128.03c33.143,10.91,61.136,32.667,79.894,62.097     L283.529,177.421z M410.726,103.985c-20.775-32.882-52-57.124-89.005-69.098l4.839-18.058     c42.027,13.07,77.451,40.251,100.953,77.464L410.726,103.985z" fill="#da315f"/>
			<path d="M168.599,271.5c0-12.958-10.542-23.5-23.5-23.5s-23.5,10.542-23.5,23.5s10.542,23.5,23.5,23.5     S168.599,284.458,168.599,271.5z M136.599,271.5c0-4.687,3.813-8.5,8.5-8.5s8.5,3.813,8.5,8.5s-3.813,8.5-8.5,8.5     S136.599,276.187,136.599,271.5z" fill="#da315f"/>
			<path d="M177.099,191c12.958,0,23.5-10.542,23.5-23.5s-10.542-23.5-23.5-23.5s-23.5,10.542-23.5,23.5S164.141,191,177.099,191z      M177.099,159c4.687,0,8.5,3.813,8.5,8.5s-3.813,8.5-8.5,8.5s-8.5-3.813-8.5-8.5S172.412,159,177.099,159z" fill="#da315f"/>
			<path d="M289.099,319c12.958,0,23.5-10.542,23.5-23.5s-10.542-23.5-23.5-23.5s-23.5,10.542-23.5,23.5S276.141,319,289.099,319z      M289.099,287c4.687,0,8.5,3.813,8.5,8.5s-3.813,8.5-8.5,8.5s-8.5-3.813-8.5-8.5S284.412,287,289.099,287z" fill="#da315f"/>
			<path d="M185.599,359.5c0,12.958,10.542,23.5,23.5,23.5s23.5-10.542,23.5-23.5s-10.542-23.5-23.5-23.5     S185.599,346.542,185.599,359.5z M217.599,359.5c0,4.687-3.813,8.5-8.5,8.5s-8.5-3.813-8.5-8.5s3.813-8.5,8.5-8.5     S217.599,354.814,217.599,359.5z" fill="#da315f"/>
			<path d="M277.099,367c6.341,0,11.5-5.159,11.5-11.5s-5.159-11.5-11.5-11.5s-11.5,5.159-11.5,11.5S270.757,367,277.099,367z" fill="#da315f"/>
			<path d="M229.099,311c6.341,0,11.5-5.159,11.5-11.5s-5.159-11.5-11.5-11.5s-11.5,5.159-11.5,11.5S222.757,311,229.099,311z" fill="#da315f"/>
			<path d="M325.099,112c-6.341,0-11.5,5.159-11.5,11.5c0,6.341,5.159,11.5,11.5,11.5s11.5-5.159,11.5-11.5     C336.599,117.159,331.44,112,325.099,112z" fill="#da315f"/>
			<path d="M141.099,344c-6.341,0-11.5,5.159-11.5,11.5s5.159,11.5,11.5,11.5s11.5-5.159,11.5-11.5S147.44,344,141.099,344z" fill="#da315f"/>
			<path d="M169.599,219.5c0,6.341,5.159,11.5,11.5,11.5s11.5-5.159,11.5-11.5s-5.159-11.5-11.5-11.5S169.599,213.159,169.599,219.5     z" fill="#da315f"/>
			<path d="M173.745,304.792l-16,8c-3.705,1.853-5.207,6.357-3.354,10.063c1.314,2.628,3.962,4.147,6.714,4.147     c1.127,0,2.271-0.256,3.348-0.794l16-8c3.705-1.853,5.207-6.357,3.354-10.063C181.954,304.442,177.451,302.94,173.745,304.792z" fill="#da315f"/>
			<path d="M338.391,258.855c1.314,2.628,3.962,4.147,6.714,4.147c1.127,0,2.271-0.256,3.348-0.794     c3.705-1.853,5.207-6.357,3.354-10.062l-8-16c-1.852-3.704-6.356-5.206-10.062-3.354c-3.705,1.853-5.207,6.357-3.354,10.063     L338.391,258.855z" fill="#da315f"/>
			<path d="M99.47,248.385c-3.928-1.309-8.176,0.813-9.487,4.743l-8,24c-1.31,3.93,0.814,8.178,4.744,9.487     c0.787,0.262,1.586,0.387,2.373,0.387c3.14,0,6.066-1.987,7.114-5.13l8-24C105.523,253.943,103.4,249.695,99.47,248.385z" fill="#da315f"/>
			<path d="M137.093,215.002c2.751,0,5.4-1.52,6.714-4.147c1.853-3.705,0.351-8.21-3.354-10.063l-16-8     c-3.703-1.854-8.209-0.351-10.062,3.354c-1.853,3.705-0.351,8.21,3.354,10.063l16,8     C134.821,214.747,135.965,215.002,137.093,215.002z" fill="#da315f"/>
			<path d="M209.599,135.5v16c0,4.143,3.357,7.5,7.5,7.5c4.142,0,7.5-3.357,7.5-7.5v-16c0-4.143-3.358-7.5-7.5-7.5     C212.957,128,209.599,131.357,209.599,135.5z" fill="#da315f"/>
			<path d="M342.402,74.197c-2.929-2.928-7.678-2.928-10.606,0c-2.929,2.93-2.929,7.678,0,10.607l16,16     c1.464,1.464,3.384,2.196,5.303,2.196s3.839-0.732,5.303-2.196c2.929-2.93,2.929-7.678,0-10.607L342.402,74.197z" fill="#da315f"/>
			<path d="M307.795,348.804c1.464,1.464,3.384,2.196,5.303,2.196s3.839-0.732,5.303-2.196l8-8c2.929-2.93,2.929-7.678,0-10.607     c-2.929-2.928-7.678-2.928-10.606,0l-8,8C304.866,341.126,304.866,345.874,307.795,348.804z" fill="#da315f"/>
			<path d="M289.099,263h8c4.142,0,7.5-3.357,7.5-7.5c0-4.143-3.358-7.5-7.5-7.5h-8c-4.142,0-7.5,3.357-7.5,7.5     C281.599,259.643,284.956,263,289.099,263z" fill="#da315f"/>
		</g>
	</g>
</g>
<g>
</g>
<g>
</g>
<g>
</g>
<g>
</g>
<g>
</g>
<g>
</g>
<g>
</g>
<g>
</g>
<g>
</g>
<g>
</g>
<g>
</g>
<g>
</g>
<g>
</g>
<g>
</g>
<g>
</g>
</svg>
