<?xml version="1.0" encoding="utf-8"?>
<!-- Generator: Adobe Illustrator 21.1.0, SVG Export Plug-In . SVG Version: 6.00 Build 0)  -->
<svg version="1.1" id="Capa_1" xmlns="http://www.w3.org/2000/svg" xmlns:xlink="http://www.w3.org/1999/xlink" x="0px" y="0px"
	 viewBox="0 0 512 512" style="enable-background:new 0 0 512 512;" xml:space="preserve">
<style type="text/css">
	.st0{fill:#F0F0F0;}
</style>
<g>
	<g>
		<path class="st0" d="M441.1,243.6c6.8,0,12.4,5.5,12.4,12.4c0,6.8-5.5,12.4-12.4,12.4H131.9c-6.8,0-12.4-5.5-12.4-12.4
			c0-6.9,5.5-12.4,12.4-12.4H441.1 M441.1,223.6H131.9c-8.7,0-16.8,3.4-22.9,9.5c-6.1,6.1-9.5,14.2-9.5,22.9
			c0,17.9,14.5,32.4,32.4,32.4h309.2c17.9,0,32.4-14.5,32.4-32.4S459,223.6,441.1,223.6L441.1,223.6z"/>
	</g>
	<g>
		<path class="st0" d="M209.5,105c3.2,0,6.4,1.2,8.8,3.6c4.9,4.8,4.9,12.6,0,17.5L88.5,256l129.8,129.8c4.9,4.8,4.9,12.6,0,17.5
			c-2.4,2.4-5.5,3.7-8.7,3.7s-6.4-1.2-8.8-3.7L62.2,264.7c-4.9-4.8-4.9-12.6,0-17.5l138.5-138.6C203.2,106.2,206.3,105,209.5,105
			 M209.5,85c-8.4,0-16.5,3.2-22.6,9.1l-0.2,0.2l-0.2,0.2L48,233c-6.2,6.2-9.6,14.4-9.5,23.1c0.1,8.6,3.5,16.7,9.6,22.7l138.6,138.6
			c6.1,6.1,14.3,9.5,22.9,9.5c8.7,0,16.9-3.4,23-9.6c6.1-6.2,9.5-14.4,9.4-23.1c-0.1-8.6-3.5-16.7-9.6-22.7L116.8,256l115.7-115.8
			c6.2-6.2,9.6-14.4,9.5-23.1c-0.1-8.6-3.5-16.7-9.6-22.8C226.3,88.3,218.2,85,209.5,85L209.5,85z"/>
	</g>
</g>
</svg>
