<?xml version="1.0" encoding="utf-8"?>
<!-- Generator: Adobe Illustrator 21.1.0, SVG Export Plug-In . SVG Version: 6.00 Build 0)  -->
<svg version="1.1" id="Capa_1" xmlns="http://www.w3.org/2000/svg" xmlns:xlink="http://www.w3.org/1999/xlink" x="0px" y="0px"
	 viewBox="0 0 512 512" style="enable-background:new 0 0 512 512;" xml:space="preserve">
<style type="text/css">
	.st0{fill:#F0F0F0;}
</style>
<g id="Settings">
	<g>
		<path class="st0" d="M510.4,227.6c-0.8-7.2-9.2-12.6-16.5-12.6c-23.5,0-44.3-13.8-53-35.1c-8.9-21.8-3.2-47.3,14.3-63.3
			c5.5-5,6.2-13.5,1.6-19.3c-12-15.2-25.7-29-40.6-41c-5.8-4.7-14.4-4-19.5,1.6c-15.3,16.9-42.7,23.2-63.8,14.3
			c-22-9.3-35.9-31.6-34.6-55.6c0.4-7.5-5.1-14.1-12.6-15c-19.1-2.2-38.4-2.3-57.6-0.2c-7.4,0.8-12.9,7.2-12.7,14.6
			c0.8,23.7-13.2,45.7-35.1,54.6c-20.9,8.5-48.1,2.3-63.4-14.4c-5-5.5-13.5-6.2-19.3-1.6c-15.3,12-29.3,25.8-41.4,40.9
			c-4.7,5.9-4,14.4,1.5,19.5C75.7,131.3,81.5,157,72.2,179c-8.8,21-30.7,34.6-55.7,34.6c-8.1-0.3-13.9,5.2-14.8,12.6
			c-2.3,19.2-2.3,38.8-0.1,58.2c0.8,7.2,9.5,12.6,16.8,12.6c22.3-0.6,43.7,13.2,52.7,35.1c8.9,21.8,3.2,47.3-14.3,63.3
			c-5.5,5-6.2,13.4-1.6,19.3c11.9,15.2,25.5,28.9,40.5,41c5.9,4.7,14.4,4.1,19.5-1.5c15.3-16.9,42.7-23.2,63.8-14.4
			c22.1,9.2,36,31.6,34.6,55.6c-0.4,7.5,5.1,14.1,12.6,15c9.8,1.1,19.6,1.7,29.5,1.7c9.4,0,18.7-0.5,28.1-1.6
			c7.4-0.8,12.9-7.2,12.7-14.7c-0.9-23.7,13.2-45.7,35-54.6c21.1-8.6,48.2-2.3,63.4,14.4c5.1,5.5,13.4,6.2,19.3,1.6
			c15.3-12,29.2-25.8,41.4-40.9c4.7-5.9,4.1-14.4-1.5-19.5c-17.8-16.1-23.6-41.8-14.3-63.9c8.7-20.8,29.7-34.7,52.4-34.7l3.2,0.1
			c7.3,0.6,14.1-5.1,15-12.6C512.5,266.5,512.6,247,510.4,227.6z M256.4,341.9c-47.1,0-85.4-38.3-85.4-85.4
			c0-47.1,38.3-85.4,85.4-85.4c47.1,0,85.4,38.3,85.4,85.4C341.8,303.6,303.5,341.9,256.4,341.9z"/>
	</g>
</g>
</svg>
