<?xml version="1.0" encoding="utf-8"?>
<!-- Generator: Adobe Illustrator 21.1.0, SVG Export Plug-In . SVG Version: 6.00 Build 0)  -->
<svg version="1.1" id="Capa_1" xmlns="http://www.w3.org/2000/svg" xmlns:xlink="http://www.w3.org/1999/xlink" x="0px" y="0px"
	 viewBox="0 0 512 512" style="enable-background:new 0 0 512 512;" xml:space="preserve">
<style type="text/css">
	.st0{fill:#FFFFFF;}
</style>
<g>
	<g>
		<path class="st0" d="M493.3,257.2l-25.6-4.3c-2.7-8.6-6.1-16.9-10.3-24.9l15.1-21.1c6.4-9,5.4-21.3-2.4-29.1l-22.7-22.7
			c-4.3-4.3-9.9-6.6-15.9-6.6c-4.7,0-9.2,1.4-13,4.2l-21.2,15.1c-8.2-4.3-16.9-7.9-25.8-10.6l-4.3-25.3
			c-1.8-10.9-11.2-18.8-22.3-18.8h-32.1c-11.1,0-20.4,7.9-22.3,18.8l-4.4,25.9c-8.5,2.7-16.9,6.2-24.8,10.4l-21-15.1
			c-3.8-2.7-8.4-4.2-13.1-4.2c-6,0-11.7,2.4-15.9,6.6l-22.8,22.7c-7.8,7.8-8.8,20.1-2.4,29.1l15.2,21.4c-4.2,8-7.5,16.3-10.1,24.9
			l-25.3,4.3c-10.9,1.8-18.8,11.2-18.8,22.3v32.1c0,11.1,7.9,20.4,18.8,22.3l25.9,4.4c2.7,8.5,6.2,16.9,10.4,24.8l-15,20.9
			c-6.4,9-5.4,21.3,2.4,29.1l22.7,22.7c4.3,4.3,9.9,6.6,15.9,6.6c4.7,0,9.2-1.4,13-4.2l21.4-15.2c7.7,4,15.8,7.3,24.1,9.9l4.3,25.6
			c1.8,10.9,11.2,18.8,22.3,18.8h32.2c11.1,0,20.4-7.9,22.3-18.8l4.3-25.6c8.6-2.7,16.9-6.1,24.9-10.3l21.1,15.1
			c3.8,2.7,8.4,4.2,13.1,4.2l0,0c6,0,11.7-2.4,15.9-6.6l22.7-22.7c7.8-7.8,8.8-20.1,2.4-29.1l-15.1-21.2c4.2-8,7.7-16.3,10.3-24.9
			l25.6-4.3c10.9-1.8,18.8-11.2,18.8-22.3v-32.1C512.2,268.4,504.2,259,493.3,257.2z M491.6,311.5c0,1-0.7,1.8-1.7,2l-32,5.3
			c-4,0.7-7.2,3.7-8.2,7.5c-2.9,11.2-7.3,22-13.3,31.9c-2.1,3.5-1.9,7.9,0.5,11.2l18.8,26.5c0.5,0.8,0.5,1.9-0.2,2.6l-22.7,22.7
			c-0.5,0.5-1.1,0.6-1.4,0.6c-0.5,0-0.8-0.2-1.1-0.4l-26.5-18.8c-3.3-2.4-7.7-2.5-11.2-0.5c-10,5.9-20.7,10.4-31.9,13.3
			c-4,1-6.9,4.3-7.5,8.2l-5.4,32c-0.2,1-1,1.7-2,1.7h-32.1c-1,0-1.8-0.7-2-1.7l-5.3-32c-0.7-4-3.7-7.2-7.5-8.2
			c-10.9-2.8-21.4-7.2-31.3-12.8c-1.6-0.9-3.4-1.4-5.2-1.4c-2.1,0-4.2,0.6-5.9,1.9l-26.7,19c-0.4,0.2-0.8,0.4-1.1,0.4
			c-0.3,0-0.9-0.1-1.4-0.6l-22.7-22.7c-0.7-0.7-0.8-1.8-0.2-2.6l18.8-26.3c2.4-3.4,2.5-7.8,0.5-11.3c-5.9-9.9-10.5-20.7-13.4-31.9
			c-1.1-3.9-4.3-6.9-8.2-7.5l-32.3-5.5c-1-0.2-1.7-1-1.7-2v-32.1c0-1,0.7-1.8,1.7-2l31.8-5.3c4-0.7,7.3-3.7,8.3-7.6
			c2.8-11.2,7.2-22,13-32c2.1-3.5,1.8-7.9-0.5-11.1l-19-26.7c-0.5-0.8-0.5-1.9,0.2-2.6l22.7-22.7c0.5-0.5,1.1-0.6,1.4-0.6
			c0.5,0,0.8,0.2,1.1,0.4l26.3,18.8c3.4,2.4,7.8,2.5,11.3,0.5c9.9-5.9,20.7-10.5,31.9-13.4c3.9-1.1,6.9-4.3,7.5-8.2l5.5-32.3
			c0.2-1,1-1.7,2-1.7H345c1,0,1.8,0.7,2,1.7l5.3,31.8c0.7,4,3.7,7.3,7.6,8.3c11.5,2.9,22.5,7.4,32.7,13.4c3.5,2.1,7.9,1.9,11.2-0.5
			l26.3-18.9c0.4-0.2,0.8-0.4,1.1-0.4c0.3,0,0.9,0.1,1.4,0.6l22.7,22.7c0.7,0.7,0.8,1.8,0.2,2.6l-18.8,26.5
			c-2.4,3.3-2.5,7.7-0.5,11.2c5.9,10,10.4,20.7,13.3,31.9c1,4,4.3,6.9,8.2,7.5l32,5.4c1,0.2,1.7,1,1.7,2L491.6,311.5L491.6,311.5z"
			/>
		<path class="st0" d="M329.5,216.7c-43.5,0-78.8,35.3-78.8,78.8s35.3,78.8,78.8,78.8s78.8-35.3,78.8-78.8S373,216.7,329.5,216.7z
			 M329.5,353.6c-32.1,0-58.2-26.1-58.2-58.2s26.1-58.2,58.2-58.2s58.2,26.1,58.2,58.2S361.6,353.6,329.5,353.6z"/>
	</g>
</g>
<g>
	<g>
		<path class="st0" d="M107.7,75.9v115.2c0,17.1-8.5,34.1-22.4,43.7L81,238v202.7c0,8.5-7.5,16-16,16s-16-7.5-16-16V238l-4.3-3.2
			c-13.9-9.6-22.4-26.7-22.4-43.7V75.9H1v115.2c0,22.4,9.6,43.7,26.7,57.6v192c0,20.3,17.1,37.3,37.3,37.3
			c20.3,0,37.3-17.1,37.3-37.3v-192c17.1-13.9,26.7-35.2,26.7-57.6V75.9H107.7z"/>
	</g>
</g>
<g>
	<g>
		<rect x="54.3" y="74.8" class="st0" width="21.3" height="130.1"/>
	</g>
</g>
</svg>
