<?xml version="1.0" encoding="utf-8"?>
<!-- Generator: Adobe Illustrator 20.0.0, SVG Export Plug-In . SVG Version: 6.00 Build 0)  -->
<svg version="1.1" id="Layer_1" xmlns="http://www.w3.org/2000/svg" xmlns:xlink="http://www.w3.org/1999/xlink" x="0px" y="0px"
	 viewBox="0 0 512 512" style="enable-background:new 0 0 512 512;" xml:space="preserve">
<style type="text/css">
	.st0{fill:#F0F0F0;}
	.st1{display:none;}
	.st2{display:inline;}
</style>
<g>
	<g>
		<path class="st0" d="M198.4,382.1c-21.3,0-38.7,17.4-38.7,38.7s17.4,38.7,38.7,38.7s38.7-17.4,38.7-38.7
			C237.1,399.5,219.7,382.1,198.4,382.1z M198.4,437.9c-9.4,0-17.1-7.7-17.1-17.1s7.7-17.1,17.1-17.1s17.1,7.7,17.1,17.1
			C215.5,430.3,207.8,437.9,198.4,437.9z"/>
	</g>
</g>
<g>
	<g>
		<path class="st0" d="M404.1,382.1c-21.3,0-38.7,17.4-38.7,38.7s17.4,38.7,38.7,38.7c21.3,0,38.7-17.4,38.7-38.7
			C442.8,399.5,425.4,382.1,404.1,382.1z M404.1,437.9c-9.4,0-17.1-7.7-17.1-17.1s7.7-17.1,17.1-17.1s17.1,7.7,17.1,17.1
			C421.2,430.3,413.5,437.9,404.1,437.9z"/>
	</g>
</g>
<g class="st1">
	<g class="st2">
		<path class="st0" d="M336.2,178.5H181.4c-6,0-10.8,4.8-10.8,10.8s4.8,10.8,10.8,10.8h154.8c6,0,10.8-4.8,10.8-10.8
			S342.2,178.5,336.2,178.5z"/>
	</g>
</g>
<g class="st1">
	<g class="st2">
		<path class="st0" d="M327.8,234.6H189.9c-6,0-10.8,4.8-10.8,10.8s4.8,10.8,10.8,10.8h137.9c6,0,10.8-4.8,10.8-10.8
			C338.6,239.4,333.8,234.6,327.8,234.6z"/>
	</g>
</g>
<g>
	<g>
		<path class="st0" d="M123.1,290.6L81.6,89.4c0-0.1,0-0.1,0-0.2c-1.9-9.2-9.9-15.8-19.3-15.7l-30.9,0.3c-3.1,0-14,0.1-14,0.1
			c-7.9-0.4-10.7,5.8-10.7,9.6c-0.1,4.3,1.7,10,8.1,10l16.4,0.2h19.6c5.7,0,10.6,4,11.8,9.6l50.3,244.1c2.1,10,11,17.2,21.2,17.2
			h360.4c6,0,11.1-4.7,11.2-10.6c0.1-6-4.8-11-10.8-11H150.8h-5c-6.9,0-12.8-4.8-14.2-11.6C128.7,317.8,125.9,304.2,123.1,290.6"/>
	</g>
</g>
<path class="st0" d="M367.5,107.2c0-14.1,11.5-25.6,25.6-25.6h32c4.7,0,8.5-3.8,8.5-8.5s3.8-8.6,8.6-8.6s8.6,3.8,8.6,8.6
	c0,14.1-11.5,25.6-25.6,25.6h-32c-4.7,0-8.5,3.8-8.5,8.5s3.8,8.5,8.5,8.5h77.5c14.1,0,25.6,11.5,25.6,25.6S484.8,167,470.7,167
	h-59.8c-4.7,0-8.5,3.8-8.5,8.5v17.1c0,4.7-3.8,8.6-8.6,8.6s-8.6-3.8-8.6-8.6v-17.1c0-14.1,11.5-25.6,25.6-25.6h59.8
	c4.7,0,8.5-3.8,8.5-8.5s-3.8-8.5-8.5-8.5h-77.5C379,132.8,367.5,121.3,367.5,107.2L367.5,107.2z M494.7,323.9c0,4.7-3.8,8.6-8.6,8.6
	h-19.7c-0.1,0-0.2,0-0.2,0H466H173.8c-0.2,0-0.3,0-0.5,0h-20.7c-4.7,0-8.6-3.8-8.6-8.6c0-4.7,3.8-8.6,8.6-8.6h12.3v-26.5
	c0-37.4,14.7-72.7,41.3-99.4c23-23,52.4-37.1,84.1-40.5v-13.1c0-16.3,13.2-29.5,29.5-29.5s29.5,13.2,29.5,29.5v13.1
	c5.3,0.6,10.7,1.5,15.9,2.7c4.6,1.1,7.5,5.7,6.5,10.3c-1.1,4.6-5.7,7.5-10.3,6.5c-8.9-2-18.1-3.1-27.3-3.1h-28.5
	c-68.1,0-123.5,55.4-123.5,123.5v26.5h275.4v-26.5c0-33.7-13.4-65.2-37.8-88.7c-3.4-3.3-3.5-8.7-0.2-12.1c3.3-3.4,8.7-3.5,12.1-0.2
	c27.8,26.8,43.1,62.7,43.1,101.1v26.5H486C490.8,315.3,494.7,319.1,494.7,323.9L494.7,323.9z M307.5,148.1h24.6v-12.3
	c0-6.8-5.5-12.3-12.3-12.3s-12.3,5.5-12.3,12.3L307.5,148.1L307.5,148.1z"/>
</svg>
