<?xml version="1.0" encoding="utf-8"?>
<!-- Generator: Adobe Illustrator 21.1.0, SVG Export Plug-In . SVG Version: 6.00 Build 0)  -->
<svg version="1.1" id="Capa_1" xmlns="http://www.w3.org/2000/svg" xmlns:xlink="http://www.w3.org/1999/xlink" x="0px" y="0px"
	 viewBox="0 0 932.2 932.2" style="enable-background:new 0 0 932.2 932.2;" xml:space="preserve">
<style type="text/css">
	.st0{fill:#FFFFFF;}
</style>
<g>
	<g>
		<path class="st0" d="M464.1,423.3c-211,24.3-268.1,202.5-270.4,210.1c-3.3,10.4,2.7,21.4,13,24.7c2,0.6,3.9,0.9,5.9,0.9
			c8.4,0,16.3-5.4,18.9-14c0.4-1.6,51.6-161.1,237.3-182.4c10.9-1.3,18.6-11,17.3-21.9C484.8,429.7,475,422,464.1,423.3z"/>
		<path class="st0" d="M799.4,793.9h-72.5v-56h101.5c8.6,0,16.2-5.6,18.9-13.7c7.9-24.3,11.6-48,11.6-72.5
			c0-158.4-145.4-285-339.4-304.7l32-81.2c21.7-10.7,36.6-31,36.6-54.5c0-34.6-32-62.7-71.3-62.7H416.2c-39.3,0-71.5,28.2-71.5,62.7
			c0,23,14.3,42.9,35.2,53.9l32.7,82.6C227.6,369.7,75.2,502.1,75.2,651.6c0,24.3,3.7,49.3,10.7,72.2c2.6,8.3,10.1,14,18.9,14h88.5
			v56h-60.5c-43.6,0-79,31-79,69.2v24.7c0,24.9,26,44.4,59.3,44.4h706c33.3,0,59.3-19.6,59.3-44.4V863
			C878.3,824.9,843,793.9,799.4,793.9z M416.2,187.9h100.5c17.3,0,31.9,10.7,31.9,23.3c0,12.6-14.6,23.3-31.9,23.3H416.2
			c-17.3,0-31.9-10.7-31.9-23.3C384.3,198.6,398.9,187.9,416.2,187.9z M426.1,274h79.6l-27.9,70.5c-3.7-0.1-7.4-0.4-11.3-0.4
			c-4.1,0-8.3,0.4-12.4,0.6L426.1,274z M116.4,678.9c-1.1-9-1.7-18.2-1.7-27.2c0-142.8,164.4-268.1,351.7-268.1
			c197.8,0,352.7,117.8,352.7,268.1c0,9.3-0.6,18.3-1.9,27.3c-1.6,10.7-12.7,19.3-23.6,19.3h-654
			C128.7,698.4,117.8,689.7,116.4,678.9z M232.7,737.8h454.6v56H232.7V737.8z M819.1,892.6h-706c-12.3,0-19.2-4.7-19.7-5v-24.7
			c0-16,18.2-29.6,39.4-29.6h666.6c21.4,0,39.4,13.6,39.4,29.6l0.3,23.2C838.1,887.8,831.4,892.6,819.1,892.6z"/>
	</g>
</g>
</svg>
