<?xml version="1.0" encoding="utf-8"?>
<!-- Generator: Adobe Illustrator 21.1.0, SVG Export Plug-In . SVG Version: 6.00 Build 0)  -->
<svg version="1.1" id="Layer_1" xmlns="http://www.w3.org/2000/svg" xmlns:xlink="http://www.w3.org/1999/xlink" x="0px" y="0px"
	 viewBox="0 0 512 512" style="enable-background:new 0 0 512 512;" xml:space="preserve">
<style type="text/css">
	.st0{fill:#F0F0F0;}
</style>
<g>
	<g>
		<g>
			<path class="st0" d="M455.7,93.1c5.7,0,11.4,2.2,15.7,6.5c8.7,8.7,8.7,22.6,0,31.3L189.9,412.5c-4.3,4.3-10,6.5-15.7,6.5
				s-11.4-2.2-15.7-6.5L40.6,294.6c-8.7-8.7-8.7-22.7,0-31.4c4.3-4.3,10-6.5,15.7-6.5s11.4,2.2,15.7,6.5l102.2,102.2L440,99.6
				C444.3,95.3,450,93.1,455.7,93.1 M455.7,63.1c-13.9,0-27.1,5.4-36.9,15.3L174.2,323l-81-81c-9.9-9.9-23-15.3-36.9-15.3
				s-27.1,5.4-36.9,15.3c-9.9,9.9-15.3,23-15.3,36.9c0,13.9,5.4,27.1,15.3,36.9l117.9,117.9c9.9,9.9,23,15.3,36.9,15.3
				c13.9,0,27.1-5.4,36.9-15.3l281.5-281.6c9.9-9.9,15.3-23,15.3-36.9c0-13.9-5.4-27-15.3-36.9C482.7,68.5,469.6,63.1,455.7,63.1
				L455.7,63.1z"/>
		</g>
	</g>
</g>
</svg>
