<svg version="1.1" id="el_2kTeV26wH" xmlns="http://www.w3.org/2000/svg" xmlns:xlink="http://www.w3.org/1999/xlink" x="0px" y="0px" viewBox="0 0 1000 1000" style="enable-background:new 0 0 1000 1000;" xml:space="preserve"><style>@-webkit-keyframes kf_el_m1ViaZcyNf_an_TGlWlBCun{0%{-webkit-transform: translate(500.01953125px, 499.974609375px) scale(1, 1) translate(-500.01953125px, -499.974609375px);transform: translate(500.01953125px, 499.974609375px) scale(1, 1) translate(-500.01953125px, -499.974609375px);}50%{-webkit-transform: translate(500.01953125px, 499.974609375px) scale(0, 0) translate(-500.01953125px, -499.974609375px);transform: translate(500.01953125px, 499.974609375px) scale(0, 0) translate(-500.01953125px, -499.974609375px);}100%{-webkit-transform: translate(500.01953125px, 499.974609375px) scale(1, 1) translate(-500.01953125px, -499.974609375px);transform: translate(500.01953125px, 499.974609375px) scale(1, 1) translate(-500.01953125px, -499.974609375px);}}@keyframes kf_el_m1ViaZcyNf_an_TGlWlBCun{0%{-webkit-transform: translate(500.01953125px, 499.974609375px) scale(1, 1) translate(-500.01953125px, -499.974609375px);transform: translate(500.01953125px, 499.974609375px) scale(1, 1) translate(-500.01953125px, -499.974609375px);}50%{-webkit-transform: translate(500.01953125px, 499.974609375px) scale(0, 0) translate(-500.01953125px, -499.974609375px);transform: translate(500.01953125px, 499.974609375px) scale(0, 0) translate(-500.01953125px, -499.974609375px);}100%{-webkit-transform: translate(500.01953125px, 499.974609375px) scale(1, 1) translate(-500.01953125px, -499.974609375px);transform: translate(500.01953125px, 499.974609375px) scale(1, 1) translate(-500.01953125px, -499.974609375px);}}#el_2kTeV26wH *{-webkit-animation-duration: 2s;animation-duration: 2s;-webkit-animation-iteration-count: infinite;animation-iteration-count: infinite;-webkit-animation-timing-function: cubic-bezier(0, 0, 1, 1);animation-timing-function: cubic-bezier(0, 0, 1, 1);}#el_9npxQ11sqp{fill: #FFFFFF;}#el_xd0HNONDsW{fill: url(#reza1_2_);}#el_m1ViaZcyNf{fill: #FFFFFF;}#el_m1ViaZcyNf_an_TGlWlBCun{-webkit-animation-fill-mode: backwards;animation-fill-mode: backwards;-webkit-transform: translate(500.01953125px, 499.974609375px) scale(1, 1) translate(-500.01953125px, -499.974609375px);transform: translate(500.01953125px, 499.974609375px) scale(1, 1) translate(-500.01953125px, -499.974609375px);-webkit-animation-name: kf_el_m1ViaZcyNf_an_TGlWlBCun;animation-name: kf_el_m1ViaZcyNf_an_TGlWlBCun;-webkit-animation-timing-function: cubic-bezier(0.42, 0, 0.58, 1);animation-timing-function: cubic-bezier(0.42, 0, 0.58, 1);}</style>

<g id="el_9npxQ11sqp">
	<linearGradient id="reza1_2_" gradientUnits="userSpaceOnUse" x1="344.5201" y1="537.085" x2="628.6863" y2="433.657">
		<stop offset="0" style="stop-color:#FF8400"/>
		<stop offset="1" style="stop-color:#FF005A"/>
	</linearGradient>
	<path id="el_xd0HNONDsW" d="M347.4,465.3c0.9-26,3.2-50.9,11.8-74.9c9.8-27.6,29.8-41.5,58-45.2c26.9-3.6,52.8,1.1,78.1,9.8&#xA;&#9;&#9;c49.8,17.2,92,45.5,125.5,86.4c8.6,10.5,16,21.7,22.2,33.8c15.6,30.5,11.7,59.6-7.4,87.2c-17.9,25.9-42.6,43.8-69.9,58.4&#xA;&#9;&#9;c-35.3,19-72.8,31.2-112.9,34.6c-14.7,1.2-29.3,0.6-43.7-2.8c-11.8-2.7-20.2-9.7-26.4-19.8c-10.9-17.5-17.2-36.8-22.2-56.5&#xA;&#9;&#9;C351.2,539.7,347.1,502.4,347.4,465.3z"/>
</g>
<g id="el_2w_gotfFWg">
	<g id="el_m1ViaZcyNf_an_TGlWlBCun" data-animator-group="true" data-animator-type="2"><path id="el_m1ViaZcyNf" d="M347.4,465.3c0.9-26,3.2-50.9,11.8-74.9c9.8-27.6,29.8-41.5,58-45.2c26.9-3.6,52.8,1.1,78.1,9.8&#xA;&#9;&#9;c49.8,17.2,92,45.5,125.5,86.4c8.6,10.5,16,21.7,22.2,33.8c15.6,30.5,11.7,59.6-7.4,87.2c-17.9,25.9-42.6,43.8-69.9,58.4&#xA;&#9;&#9;c-35.3,19-72.8,31.2-112.9,34.6c-14.7,1.2-29.3,0.6-43.7-2.8c-11.8-2.7-20.2-9.7-26.4-19.8c-10.9-17.5-17.2-36.8-22.2-56.5&#xA;&#9;&#9;C351.2,539.7,347.1,502.4,347.4,465.3z"/></g>
</g>
</svg>