<?xml version="1.0" encoding="utf-8"?>
<!-- Generator: Adobe Illustrator 21.1.0, SVG Export Plug-In . SVG Version: 6.00 Build 0)  -->
<svg version="1.1" id="Capa_1" xmlns="http://www.w3.org/2000/svg" xmlns:xlink="http://www.w3.org/1999/xlink" x="0px" y="0px"
	 viewBox="0 0 932.2 932.2" style="enable-background:new 0 0 932.2 932.2;" xml:space="preserve">
<style type="text/css">
	.st0{fill:#FFFFFF;}
</style>
<g>
	<path class="st0" d="M878.2,59.3L851.8,37c-8.1-6.9-20.1-6.5-27.8,0.8l-14.6,13.6c-12.3-5.9-25.4-10.1-38.8-12.6l-4.1-20.1
		C764.4,8.3,754.8,1.1,744.2,2l-34.3,3c-10.5,0.9-18.8,9.5-19.2,20.2L690,45.6c-13.2,4.8-25.7,11.3-37.1,19.5l-17.4-11.5
		c-8.9-5.9-20.7-4.2-27.5,3.9L585.8,84c-6.9,8.1-6.5,20.1,0.8,27.8l15.2,16.2c-5.3,11.9-9,24.4-11.2,37.2l-21.8,4.4
		c-10.4,2.1-17.6,11.7-16.7,22.3l2.9,34.4c0.9,10.5,9.5,18.8,20.2,19.2l23.5,0.8c4.3,11.2,9.9,21.8,16.7,31.8l-13.1,19.8
		c-5.9,8.9-4.2,20.7,3.9,27.5l26.4,22.3c8.1,6.9,20.1,6.5,27.8-0.8l17.2-16.2c11.3,5.3,23.2,9.2,35.4,11.5l4.8,23.6
		c2.1,10.4,11.7,17.6,22.3,16.7l34.4-2.9c10.5-0.9,18.8-9.5,19.2-20.2l0.8-23.1c12.6-4.4,24.4-10.5,35.4-17.9l19,12.6
		c8.9,5.9,20.7,4.2,27.5-3.9l22.3-26.4c6.9-8.1,6.5-20.1-0.8-27.8l-15.3-16.2c5.6-11.9,9.7-24.4,12.1-37.3l20.9-4.3
		c10.4-2.1,17.6-11.7,16.7-22.3l-2.9-34.4c-0.9-10.5-9.5-18.8-20.2-19.2l-21-0.7c-4.4-12.2-10.2-23.8-17.5-34.5L882,87
		C888,78.1,886.3,66.2,878.2,59.3z M748.6,258.2c-37.2,3.2-70-24.5-73.1-61.7c-3.2-37.2,24.5-70,61.7-73.1
		c37.2-3.2,70,24.5,73.1,61.7C813.4,222.3,785.7,255.1,748.6,258.2z"/>
</g>
<g>
	<g>
		<path class="st0" d="M526.1,583.2c-1.4-0.7-2.9-1.1-4.3-1.1c-3.1,0-5.9,1.2-8.3,3.6l-23.2,23.1c-2.2,2.2-3.3,4.8-3.3,8v91.9
			c0,15.9-5.7,29.5-17,40.9c-11.3,11.3-25,17-40.9,17h-301c-15.9,0-29.5-5.7-40.9-17c-11.3-11.3-17-25-17-40.9v-301
			c0-15.9,5.7-29.5,17-40.9c11.3-11.3,25-17,40.9-17h301c5.3,0,10.7,0.7,16.3,2.2c1.4,0.5,2.5,0.7,3.2,0.7c3.1,0,5.9-1.2,8.3-3.6
			l17.7-17.7c2.9-2.9,4-6.4,3.3-10.5c-0.7-3.9-2.9-6.6-6.5-8.3c-13-6-27.1-9-42.3-9H128.2c-28.7,0-53.2,10.2-73.6,30.6
			C34.2,354.5,24,379.1,24,407.8v301c0,28.7,10.2,53.2,30.6,73.6c20.4,20.4,44.9,30.6,73.6,30.6h301c28.7,0,53.2-10.2,73.6-30.6
			c20.4-20.4,30.6-44.9,30.6-73.6v-115C533.3,588.6,530.9,585.1,526.1,583.2z"/>
		<path class="st0" d="M616.9,375.6l-39.8-39.8c-5.8-5.8-12.7-8.7-20.6-8.7c-8,0-14.8,2.9-20.6,8.7l-234,234l-95.1-95.1
			c-5.8-5.8-12.7-8.7-20.6-8.7c-8,0-14.8,2.9-20.6,8.7l-39.8,39.8c-5.8,5.8-8.7,12.7-8.7,20.6c0,8,2.9,14.8,8.7,20.6l155.5,155.5
			c5.8,5.8,12.7,8.7,20.6,8.7c8,0,14.8-2.9,20.6-8.7l294.4-294.4c5.8-5.8,8.7-12.7,8.7-20.6C625.6,388.2,622.7,381.4,616.9,375.6z"
			/>
	</g>
</g>
</svg>
