<?xml version="1.0" encoding="iso-8859-1"?>
<!-- Generator: Adobe Illustrator 19.0.0, SVG Export Plug-In . SVG Version: 6.00 Build 0)  -->
<svg version="1.1" id="Layer_1" xmlns="http://www.w3.org/2000/svg" xmlns:xlink="http://www.w3.org/1999/xlink" x="0px" y="0px"
	 viewBox="0 0 511.984 511.984" style="enable-background:new 0 0 511.984 511.984;" xml:space="preserve">
<path style="fill:#434A54;" d="M234.657,260.238c-5.891,0-10.664-4.766-10.664-10.656V36.245c0-5.89,4.773-10.655,10.664-10.655
	c5.89,0,10.663,4.765,10.663,10.655v213.337C245.32,255.472,240.547,260.238,234.657,260.238z"/>
<path style="fill:#656D78;" d="M74.428,326.149c0,0,39.507-74.646,149.565-74.646c110.06,0,149.354,74.677,149.354,74.677
	c127.98,0,127.98,0,127.98,117.31H53.335c-19.703,0.125-42.671-21.093-42.671-21.093v-74.904L32,326.149L74.428,326.149
	L74.428,326.149z"/>
<path style="fill:#4FC2E9;" d="M366.254,315.525c-15.608-20.624-58.356-64.021-142.261-64.021
	c-83.942,0-126.84,43.397-142.472,64.021H366.254z"/>
<rect x="191.992" y="256.002" style="fill:#3BAFDA;" width="21.336" height="59.52"/>
<path style="fill:#656D78;" d="M53.132,454.145c-23.163,0-47.062-21.467-49.71-23.936c-2.18-2-3.422-4.844-3.422-7.813v-74.904
	c0-2.844,1.125-5.563,3.125-7.563l21.336-21.312c2-2,4.711-3.125,7.539-3.125h36.467c4.977-7.5,15.484-21.312,32.858-35.062
	c22.89-18.054,62.756-39.616,122.668-39.616c59.92,0,99.731,21.594,122.574,39.647c17.327,13.75,27.796,27.562,32.749,35.062
	c62.701,0.031,94.731,0.531,113.216,17.468c19.452,17.844,19.452,48.78,19.452,110.497c0,5.875-4.781,10.655-10.656,10.655H53.132
	V454.145z M21.336,417.46c7.297,5.875,21.288,15.344,31.788,15.344h0.125c0.031,0,0.055,0,0.086,0h437.307
	c-0.047-46.969-0.844-73.373-12.531-84.092c-12.938-11.844-45.561-11.844-104.763-11.844c-3.953,0-7.609-2.219-9.453-5.719
	c-0.063-0.125-9.515-17.53-31.404-34.592c-29.249-22.843-65.748-34.397-108.497-34.397c-42.757,0-79.302,11.555-108.613,34.366
	c-21.944,17.093-31.452,34.467-31.546,34.654c-1.844,3.5-5.453,5.625-9.406,5.625H36.421l-15.085,15.094
	C21.336,351.898,21.336,417.46,21.336,417.46z"/>
<g>
	<path style="fill:#434A54;" d="M117.333,379.711c-29.413,0-53.335,23.937-53.335,53.343c0,29.403,23.922,53.341,53.335,53.341
		c29.405,0,53.326-23.938,53.326-53.341C170.659,403.647,146.738,379.711,117.333,379.711z"/>
	<path style="fill:#434A54;" d="M394.644,379.711c-29.406,0-53.312,23.937-53.312,53.343c0,29.403,23.905,53.341,53.312,53.341
		c29.421,0,53.341-23.938,53.341-53.341C447.985,403.647,424.065,379.711,394.644,379.711z"/>
</g>
<g>
	<path style="fill:#F5F7FA;" d="M106.661,433.054c0,5.906,4.781,10.655,10.672,10.655c5.89,0,10.663-4.749,10.663-10.655
		s-4.773-10.656-10.663-10.656C111.442,422.397,106.661,427.147,106.661,433.054z"/>
	<path style="fill:#F5F7FA;" d="M383.988,433.054c0,5.906,4.781,10.655,10.656,10.655c5.906,0,10.688-4.749,10.688-10.655
		s-4.781-10.656-10.688-10.656C388.769,422.397,383.988,427.147,383.988,433.054z"/>
</g>
<path style="fill:#434A54;" d="M245.328,379.492h-21.335c-5.89,0-10.663-4.781-10.663-10.688c0-5.875,4.773-10.655,10.663-10.655
	h21.335c5.891,0,10.664,4.78,10.664,10.655C255.992,374.711,251.219,379.492,245.328,379.492z"/>
<path style="fill:#F5F7FA;" d="M509.047,368.461c-1.313-8.124-3.219-15.03-6-20.968h-33.874c-5.891,0-10.656,4.781-10.656,10.656
	c0,5.905,4.766,10.655,10.656,10.655h37.249C507.328,368.805,508.203,368.68,509.047,368.461z"/>
<g>
	<path style="fill:#ED5564;" d="M32,315.494c-2.828,0-5.539,1.125-7.539,3.125L3.125,339.93c-2,2-3.125,4.719-3.125,7.563h32
		c5.89,0,10.663-4.781,10.663-10.688v-21.312H32V315.494z"/>
	<path style="fill:#ED5564;" d="M338.193,164.678c-22.546,0-42.077,12.797-51.765,31.531c-9.687-18.734-29.232-31.531-51.771-31.531
		c-22.538,0-42.085,12.797-51.765,31.531c-9.687-18.734-29.232-31.531-51.771-31.531c-18.577,0-35.131,8.703-45.795,22.25v-1.344
		c0-82.482,66.857-149.339,149.331-149.339c82.475,0,149.331,66.857,149.331,149.339v1.344
		C373.332,173.381,356.77,164.678,338.193,164.678z"/>
</g>
<g>
</g>
<g>
</g>
<g>
</g>
<g>
</g>
<g>
</g>
<g>
</g>
<g>
</g>
<g>
</g>
<g>
</g>
<g>
</g>
<g>
</g>
<g>
</g>
<g>
</g>
<g>
</g>
<g>
</g>
</svg>
