<?xml version="1.0" encoding="iso-8859-1"?>
<!-- Generator: Adobe Illustrator 19.0.0, SVG Export Plug-In . SVG Version: 6.00 Build 0)  -->
<svg version="1.1" id="Layer_1" xmlns="http://www.w3.org/2000/svg" xmlns:xlink="http://www.w3.org/1999/xlink" x="0px" y="0px"
	 viewBox="0 0 512 512" style="enable-background:new 0 0 512 512;" xml:space="preserve">
<g transform="translate(1)">
	<path style="fill:#FFDD09;" d="M127,157.867c0-70.827,57.173-128,128-128s128,57.173,128,128V217.6
		c0,75.093-57.173,153.6-128,153.6s-128-78.507-128-153.6V157.867z"/>
	<path style="fill:#FD9808;" d="M357.4,217.6v-59.733c0-66.56-50.347-121.173-115.2-127.147c4.267-0.853,8.533-0.853,12.8-0.853
		c70.827,0,128,57.173,128,128V217.6c0,75.093-57.173,153.6-128,153.6c-4.267,0-8.533,0-12.8-0.853
		C307.053,361.813,357.4,288.427,357.4,217.6"/>
	<path style="fill:#1CD759;" d="M400.067,128.853c0,23.893-22.187,42.667-46.08,38.4c-66.56-11.947-133.973-11.947-198.827,0
		c-23.893,4.267-46.08-14.507-46.08-38.4c0.853-59.733,48.64-107.52,108.373-107.52H293.4
		C352.28,21.333,400.067,69.12,400.067,128.853"/>
	<g>
		<path style="fill:#15A143;" d="M292.547,20.48h-11.093c52.907,6.827,93.013,51.2,93.013,105.813l0,0
			c0,18.773-12.8,34.133-29.867,37.547c3.413,0.853,6.827,0.853,10.24,1.707c23.893,4.267,46.08-14.507,46.08-38.4
			C400.067,68.267,352.28,20.48,292.547,20.48"/>
		<path style="fill:#15A143;" d="M353.987,167.253c22.187,4.267,43.52-11.947,45.227-34.987l-45.227-7.68
			c-66.56-11.947-133.973-11.947-198.827,0l-45.227,7.68c1.707,22.187,23.04,38.4,45.227,34.987
			C220.013,154.453,287.427,154.453,353.987,167.253"/>
	</g>
	<polygon style="fill:#54C9FD;" points="237.933,89.6 272.067,89.6 272.067,46.933 237.933,46.933 	"/>
	<path style="fill:#1CD759;" d="M481.987,419.84c-46.933-24.747-92.16-43.52-133.12-48.64H344.6L289.133,448L255,371.2L220.867,448
		L165.4,371.2h-4.267c-40.96,5.12-86.187,23.893-133.12,48.64c-12.8,6.827-20.48,19.627-20.48,34.133v36.693h204.8h85.333H383
		h119.467v-36.693C502.467,439.467,494.787,426.667,481.987,419.84"/>
	<path style="fill:#15A143;" d="M481.987,419.84c-46.933-24.747-92.16-43.52-133.12-48.64H344.6l-2.56,3.413
		c35.84,7.68,73.387,23.893,113.493,45.227c12.8,6.827,20.48,19.627,20.48,34.133v36.693h25.6v-36.693
		C502.467,439.467,494.787,426.667,481.987,419.84"/>
	<g>
		<path style="fill:#FFDD09;" d="M163.693,320.853l-2.56-0.853l-8.533,34.133L220.867,448L255,371.2
			C219.16,371.2,186.733,350.72,163.693,320.853"/>
		<path style="fill:#FFDD09;" d="M346.307,320.853C323.267,350.72,290.84,371.2,255,371.2l34.133,76.8l68.267-93.867L348.867,320
			L346.307,320.853z"/>
	</g>
	<path style="fill:#FFFFFF;" d="M28.013,419.84c46.933-24.747,92.16-43.52,133.12-48.64h4.267l2.56,3.413
		c-35.84,7.68-73.387,23.893-113.493,45.227c-13.653,6.827-21.333,19.627-21.333,34.133v36.693h-25.6v-36.693
		C7.533,439.467,15.213,426.667,28.013,419.84"/>
	<path d="M220.867,456.533c-2.56,0-5.12-1.707-6.827-3.413l-68.267-93.867c-1.707-2.56-1.707-5.12-1.707-6.827l8.533-34.133
		c0.853-2.56,2.56-4.267,5.12-5.973c2.56-0.853,5.12-0.853,7.68,0l2.56,0.853c0.853,0.853,1.707,1.707,2.56,2.56
		c23.893,29.867,53.76,46.933,84.48,46.933c2.56,0,5.973,1.707,6.827,4.267s1.707,5.12,0.853,8.533l-34.133,76.8
		c-0.853,2.56-4.267,5.12-6.827,5.12C221.72,456.533,220.867,456.533,220.867,456.533z M161.987,352.427l57.173,78.507l23.04-52.053
		c-27.307-3.413-54.613-17.92-76.8-41.813L161.987,352.427z"/>
	<path d="M289.133,456.533h-0.853c-3.413,0-5.973-2.56-6.827-5.12l-34.133-76.8c-0.853-2.56-0.853-5.973,0.853-8.533
		c1.707-2.56,4.267-3.413,6.827-3.413c31.573,0,61.44-16.213,84.48-46.933c0.853-0.853,1.707-1.707,2.56-2.56l2.56-0.853
		c2.56-0.853,5.12-1.707,7.68,0c2.56,0.853,4.267,3.413,5.12,5.973l8.533,34.133c0.853,2.56,0,5.12-1.707,6.827L295.96,453.12
		C294.253,454.827,291.693,456.533,289.133,456.533z M267.8,378.88l23.04,52.053l57.173-78.507l-3.413-15.36
		C322.413,360.96,295.107,375.467,267.8,378.88z"/>
	<path d="M502.467,499.2H7.533c-5.12,0-8.533-3.413-8.533-8.533v-36.693c0-17.92,9.387-34.133,25.6-41.813
		c56.32-29.867,98.133-45.227,135.68-49.493h0.853h4.267c2.56,0,5.12,1.707,6.827,3.413l46.933,64.853l28.16-63.147
		c1.707-3.413,4.267-5.12,7.68-5.12s6.827,1.707,7.68,5.12l28.16,63.147l46.933-64.853c1.707-2.56,4.267-3.413,6.827-3.413h4.267
		h0.853c37.547,4.267,79.36,19.627,135.68,49.493l0,0c15.36,8.533,25.6,24.747,25.6,41.813v36.693
		C511,495.787,507.587,499.2,502.467,499.2z M297.667,482.133h196.267v-28.16c0-11.093-5.973-21.333-16.213-27.307
		c-53.76-28.16-93.867-42.667-128.853-47.787l-52.907,73.387c-1.707,2.56-5.12,3.413-7.68,3.413c-3.413,0-5.973-2.56-6.827-5.12
		L255,392.533l-26.453,58.88c-0.853,2.56-4.267,5.12-6.827,5.12c-3.413,0-5.973-0.853-7.68-3.413l-52.907-73.387
		C126.147,384,86.893,398.507,32.28,427.52c-10.24,5.12-16.213,15.36-16.213,26.453v28.16H297.667z"/>
	<path d="M360.813,175.787c-2.56,0-5.12,0-8.533-0.853c-65.707-11.947-131.413-11.947-195.413,0
		c-13.653,2.56-28.16-1.707-39.253-10.24c-11.093-9.387-17.067-22.187-17.067-36.693C101.4,64.853,153.453,12.8,217.453,12.8H293.4
		c63.147,0,115.2,52.053,115.2,116.053c0,13.653-5.973,27.307-17.067,36.693C383,172.373,371.907,175.787,360.813,175.787z
		 M254.147,149.333c33.28,0,67.413,3.413,101.547,9.387c8.533,1.707,17.92-0.853,24.747-6.827
		c6.827-5.973,11.093-14.507,11.093-23.04c0-54.613-44.373-98.987-98.987-98.987H216.6c-53.76,0-98.133,44.373-98.133,98.987
		c0,9.387,4.267,17.92,11.093,23.04c6.827,5.12,16.213,8.533,24.747,6.827C186.733,152.747,220.867,149.333,254.147,149.333z"/>
	<path d="M272.067,98.133h-34.133c-5.12,0-8.533-3.413-8.533-8.533V46.933c0-5.12,3.413-8.533,8.533-8.533h34.133
		c5.12,0,8.533,3.413,8.533,8.533V89.6C280.6,94.72,277.187,98.133,272.067,98.133z M246.467,81.067h17.067v-25.6h-17.067V81.067z"
		/>
	<path d="M361.667,175.787c-2.56,0-5.973,0-8.533-0.853l0,0c-65.707-11.947-131.413-11.947-195.413,0
		c-13.653,2.56-26.453-0.853-36.693-8.533s-17.067-20.48-18.773-33.28c0-4.267,2.56-8.533,6.827-9.387l45.227-7.68
		c65.707-11.947,133.973-11.947,201.387,0l45.227,7.68c4.267,0.853,7.68,5.12,6.827,9.387c-0.853,12.8-7.68,25.6-18.773,33.28
		C381.293,172.373,371.907,175.787,361.667,175.787z M355.693,158.72c8.533,1.707,17.067-0.853,23.893-5.973
		c4.267-3.413,8.533-8.533,10.24-13.653l-36.693-6.827c-65.707-11.947-131.413-11.947-195.413,0l-36.693,6.827
		c1.707,5.12,5.12,10.24,10.24,13.653c6.827,5.12,15.36,6.827,23.893,5.973C220.013,145.92,288.28,145.92,355.693,158.72z"/>
	<path d="M255,379.733c-78.507,0-136.533-85.333-136.533-162.133v-57.173c0-3.413,1.707-5.973,4.267-7.68
		c2.56-1.707,5.973-1.707,8.533,0.853c6.827,4.267,14.507,5.973,22.187,5.12c65.707-11.947,133.973-11.947,201.387,0
		c7.68,1.707,15.36,0,22.187-5.12c2.56-1.707,5.973-1.707,8.533-0.853c2.56,1.707,4.267,4.267,4.267,7.68V217.6
		C391.533,294.4,333.507,379.733,255,379.733z M135.533,174.08v43.52c0,82.773,63.147,145.067,119.467,145.067
		S374.467,300.373,374.467,217.6v-43.52c-6.827,1.707-14.507,2.56-21.333,0.853l0,0c-65.707-11.947-131.413-11.947-195.413,0
		C150.04,176.64,142.36,175.787,135.533,174.08z"/>
</g>
<g>
</g>
<g>
</g>
<g>
</g>
<g>
</g>
<g>
</g>
<g>
</g>
<g>
</g>
<g>
</g>
<g>
</g>
<g>
</g>
<g>
</g>
<g>
</g>
<g>
</g>
<g>
</g>
<g>
</g>
</svg>
