<?xml version="1.0" encoding="iso-8859-1"?>
<!-- Generator: Adobe Illustrator 19.0.0, SVG Export Plug-In . SVG Version: 6.00 Build 0)  -->
<svg version="1.1" id="Layer_1" xmlns="http://www.w3.org/2000/svg" xmlns:xlink="http://www.w3.org/1999/xlink" x="0px" y="0px"
	 viewBox="0 0 512 512" style="enable-background:new 0 0 512 512;" xml:space="preserve">
<path style="fill:#FFE49C;" d="M454.206,506.046H17.445C7.811,506.046,0,498.236,0,488.601V159.014
	c0-9.634,7.811-17.445,17.445-17.445h187.431c10.092,0,18.077,8.547,17.407,18.606c-5.184,77.768,72.584,182.552,127.143,238.966
	c19.703-20.824,59.727-65.834,89.712-117.243c3.971-6.808,12.012-10.108,19.621-8.052c7.608,2.056,12.893,8.959,12.893,16.841
	v197.916C471.651,498.236,463.84,506.046,454.206,506.046z"/>
<path style="fill:#8DC3E9;" d="M0,341.255h218.377v164.792h34.891V341.255h12.723c9.634,0,17.445-7.811,17.445-17.445
	c0-9.475-7.718-17.445-17.445-17.445h-12.723v-32.055c0-9.634-7.811-17.445-17.445-17.445s-17.445,7.811-17.445,17.445v32.055H0
	V341.255z"/>
<path style="fill:#FFD155;" d="M458.758,273.845c-7.61-2.056-15.651,1.242-19.621,8.052c-29.984,51.41-70.008,96.419-89.712,117.244
	c-38.896-40.218-89.578-105.02-113.599-167.091v273.997h218.38c9.634,0,17.445-7.811,17.445-17.445V290.686
	C471.651,282.805,466.367,275.902,458.758,273.845z"/>
<path style="fill:#48AEE2;" d="M265.991,306.364h-12.723v-32.055c0-9.633-7.809-17.443-17.442-17.445v249.183h17.442V341.255h12.723
	c9.634,0,17.445-7.811,17.445-17.445C283.436,314.334,275.718,306.364,265.991,306.364z"/>
<path style="fill:#FFBE00;" d="M349.567,5.953c-85.47,0-156.674,66.746-162.098,151.9c-6.602,99.054,91.161,221.759,149.969,278.646
	c6.759,6.541,17.495,6.544,24.258,0.001C426.424,373.885,512,259.565,512,168.4C512,78.826,439.133,5.953,349.567,5.953z
	 M349.564,259.307c-50.13,0-90.912-40.784-90.912-90.912c0-50.13,40.782-90.912,90.912-90.912c50.131,0,90.913,40.784,90.913,90.912
	C440.478,218.525,399.695,259.307,349.564,259.307z"/>
<path style="fill:#FFAF00;" d="M349.567,5.953h-0.001v71.529c50.13,0,90.912,40.784,90.912,90.912
	c0,50.13-40.783,90.912-90.912,90.912v182.099c4.374,0.001,8.749-1.634,12.13-4.907C426.424,373.884,512,259.564,512,168.398
	C512,78.826,439.133,5.953,349.567,5.953z"/>
<g>
</g>
<g>
</g>
<g>
</g>
<g>
</g>
<g>
</g>
<g>
</g>
<g>
</g>
<g>
</g>
<g>
</g>
<g>
</g>
<g>
</g>
<g>
</g>
<g>
</g>
<g>
</g>
<g>
</g>
</svg>
