<?xml version="1.0" encoding="iso-8859-1"?>
<!-- Generator: Adobe Illustrator 18.0.0, SVG Export Plug-In . SVG Version: 6.00 Build 0)  -->
<!DOCTYPE svg PUBLIC "-//W3C//DTD SVG 1.1//EN" "http://www.w3.org/Graphics/SVG/1.1/DTD/svg11.dtd">
<svg version="1.1" id="Capa_1" xmlns="http://www.w3.org/2000/svg" xmlns:xlink="http://www.w3.org/1999/xlink" x="0px" y="0px"
	 viewBox="0 0 60.006 60.006" style="enable-background:new 0 0 60.006 60.006;" xml:space="preserve">
<g>
	<g>
		<path style="fill:#52C306;" d="M58.543,41.377c-1.898-3.587-8.899-7.69-8.899-7.69c-1.584-0.903-3.495-1.004-4.399,0.606
			c0,0-2.274,2.728-2.853,3.12c-2.643,1.791-5.091,1.722-7.562-0.75l-5.743-5.743l-5.743-5.743c-2.472-2.472-2.541-4.919-0.75-7.562
			c0.392-0.579,3.12-2.853,3.12-2.853c1.609-0.904,1.509-2.815,0.606-4.399c0,0-4.103-7.001-7.69-8.899
			c-1.526-0.808-3.4-0.526-4.621,0.695l-2.537,2.537c-8.045,8.045-4.084,17.129,3.961,25.174l7.353,7.353l7.353,7.353
			c8.045,8.045,17.129,12.007,25.174,3.961l2.537-2.537C59.069,44.777,59.351,42.903,58.543,41.377z"/>
		<path style="fill:#388F04;" d="M45.722,53.943c-1.054,0-2.128-0.127-3.223-0.38c-4.132-0.956-8.529-3.742-13.069-8.282
			L14.725,30.576c-4.54-4.54-7.326-8.938-8.282-13.069C5.296,12.549,6.75,8.001,10.764,3.988L13.3,1.451
			c1.541-1.541,3.87-1.892,5.796-0.872c3.796,2.008,7.912,8.98,8.085,9.276c0.734,1.288,0.964,2.61,0.652,3.733
			c-0.233,0.844-0.767,1.531-1.545,1.994c-1.22,1.02-2.646,2.285-2.869,2.595c-1.603,2.364-1.414,4.247,0.631,6.292l11.486,11.486
			c2.042,2.043,3.924,2.232,6.295,0.629c0.307-0.222,1.572-1.647,2.592-2.867c0.463-0.778,1.15-1.312,1.994-1.545
			c1.124-0.313,2.444-0.082,3.723,0.646c0.307,0.18,7.279,4.296,9.287,8.092l0,0c1.02,1.925,0.669,4.254-0.872,5.796l-2.537,2.536
			C52.891,52.37,49.439,53.942,45.722,53.943z M16.784,2.003c-0.757,0-1.503,0.296-2.07,0.862l-2.536,2.537
			c-3.542,3.542-4.781,7.354-3.787,11.654c0.87,3.762,3.477,7.834,7.748,12.105l14.705,14.705c4.271,4.271,8.344,6.878,12.105,7.748
			c4.297,0.988,8.111-0.244,11.654-3.787l2.537-2.536c0.916-0.917,1.124-2.302,0.519-3.446l0,0
			c-1.448-2.737-6.642-6.194-8.521-7.296c-0.777-0.442-1.6-0.614-2.187-0.45c-0.36,0.1-0.633,0.323-0.835,0.683l-0.104,0.151
			c-0.712,0.853-2.434,2.883-3.062,3.308c-3.147,2.133-6.119,1.84-8.83-0.871L22.636,25.883c-2.711-2.711-3.004-5.682-0.871-8.83
			c0.425-0.628,2.455-2.35,3.308-3.062l0.151-0.104c0.359-0.202,0.583-0.475,0.683-0.835c0.163-0.588-0.008-1.409-0.457-2.197
			c-0.033-0.057-3.995-6.767-7.289-8.51C17.724,2.115,17.252,2.003,16.784,2.003z"/>
	</g>
	<path style="fill:#388F04;" d="M46.066,42.941c-0.034,0-0.069-0.002-0.104-0.005c-6.895-0.716-11.409-5.097-11.599-5.283
		c-0.393-0.387-0.397-1.019-0.011-1.412c0.386-0.395,1.019-0.4,1.414-0.013c0.041,0.04,4.227,4.077,10.402,4.718
		c0.549,0.058,0.948,0.549,0.892,1.099C47.006,42.558,46.572,42.941,46.066,42.941z"/>
	<path style="fill:#388F04;" d="M24.064,26.941c-0.224,0-0.448-0.075-0.635-0.229c-0.229-0.188-5.638-4.715-6.359-11.668
		c-0.057-0.55,0.343-1.041,0.892-1.099c0.557-0.051,1.041,0.343,1.099,0.892c0.635,6.12,5.592,10.291,5.642,10.332
		c0.425,0.353,0.485,0.982,0.134,1.408C24.637,26.817,24.352,26.941,24.064,26.941z"/>
	<path style="fill:#38454F;" d="M1,60.005c-0.095,0-0.191-0.014-0.287-0.042c-0.529-0.159-0.829-0.717-0.671-1.245l2.62-8.733
		C2.841,49.389,3.379,48.99,4,48.99s1.159,0.399,1.338,0.994L7,55.525l1.662-5.54C8.841,49.389,9.379,48.99,10,48.99
		s1.159,0.399,1.338,0.994L13,55.525l1.662-5.54c0.179-0.596,0.717-0.995,1.338-0.995c0.621,0,1.159,0.399,1.338,0.994L19,55.525
		l1.662-5.54c0.179-0.596,0.717-0.995,1.338-0.995s1.159,0.399,1.338,0.994L25,55.525l1.662-5.54
		c0.179-0.596,0.717-0.995,1.338-0.995s1.159,0.399,1.338,0.994l0.904,3.014c0.898,2.995,3.604,5.008,6.73,5.008
		c3.875,0,7.027-3.152,7.027-7.027v-1.973c0-0.553,0.447-1,1-1s1,0.447,1,1v1.973c0,4.978-4.05,9.027-9.027,9.027
		c-4.018,0-7.492-2.585-8.646-6.434L28,52.485l-1.662,5.541c-0.179,0.596-0.717,0.995-1.338,0.995s-1.159-0.399-1.338-0.994
		L22,52.486l-1.662,5.54c-0.179,0.596-0.717,0.995-1.338,0.995s-1.159-0.399-1.338-0.994L16,52.486l-1.662,5.54
		c-0.179,0.596-0.717,0.995-1.338,0.995s-1.159-0.399-1.338-0.994L10,52.486l-1.662,5.54C8.159,58.622,7.621,59.021,7,59.021
		s-1.159-0.399-1.338-0.994L4,52.486l-2.042,6.807C1.828,59.726,1.431,60.005,1,60.005z"/>
</g>
<g>
</g>
<g>
</g>
<g>
</g>
<g>
</g>
<g>
</g>
<g>
</g>
<g>
</g>
<g>
</g>
<g>
</g>
<g>
</g>
<g>
</g>
<g>
</g>
<g>
</g>
<g>
</g>
<g>
</g>
</svg>
