<?xml version="1.0" encoding="iso-8859-1"?>
<!-- Generator: Adobe Illustrator 19.0.0, SVG Export Plug-In . SVG Version: 6.00 Build 0)  -->
<svg version="1.1" id="Layer_1" xmlns="http://www.w3.org/2000/svg" xmlns:xlink="http://www.w3.org/1999/xlink" x="0px" y="0px"
	 viewBox="0 0 512 512" style="enable-background:new 0 0 512 512;" xml:space="preserve">
<g transform="translate(1 1)">
	<path style="fill:#FFE100;" d="M365.933,131.267h95.573c8.533,0,15.36-7.68,15.36-17.067c0-28.16-20.48-51.2-46.08-51.2H79.213
		c-25.6,0-46.08,23.04-46.08,51.2v254.293c0,15.36,11.093,27.307,24.747,27.307h29.013c0-28.16,20.48-51.2,46.08-51.2
		s46.08,23.04,46.08,51.2H331.8c0-28.16,20.48-51.2,46.08-51.2s46.08,23.04,46.08,51.2h29.013c13.653,0,24.747-11.947,24.747-27.307
		V267.8H365.933V131.267z"/>
	<path style="fill:#FFFFFF;" d="M33.133,368.493V114.2c0-28.16,20.48-51.2,46.08-51.2h-20.48c-28.16,0-51.2,23.04-51.2,51.2v254.293
		c0,15.36,11.947,27.307,27.307,27.307h23.04C44.227,395.8,33.133,383.853,33.133,368.493"/>
	<g>
		<path style="fill:#FFA800;" d="M476.867,114.2c0,9.387-6.827,17.067-15.36,17.067H485.4c9.387,0,17.067-7.68,17.067-17.067
			c0-28.16-23.04-51.2-51.2-51.2h-20.48C456.387,63,476.867,86.04,476.867,114.2"/>
		<path style="fill:#FFA800;" d="M476.867,267.8v100.693c0,15.36-11.093,27.307-24.747,27.307h23.04
			c15.36,0,27.307-11.947,27.307-27.307V267.8H476.867z"/>
	</g>
	<path style="fill:#FFE100;" d="M132.973,344.6c-2.56,0-4.267,0-6.827,0.853"/>
	<path style="fill:#FECC00;" d="M417.133,395.8c0,28.16-17.067,51.2-38.4,51.2c-21.333,0-38.4-23.04-38.4-51.2
		s17.067-51.2,38.4-51.2C400.067,344.6,417.133,367.64,417.133,395.8"/>
	<path style="fill:#FFA800;" d="M391.533,344.6c-2.56,0-5.12,0-7.68,0.853c18.773,3.413,33.28,24.747,33.28,50.347
		s-14.507,46.933-33.28,50.347c2.56,0,5.12,0.853,7.68,0.853c28.16,0,51.2-23.04,51.2-51.2S419.693,344.6,391.533,344.6"/>
	<path style="fill:#FECC00;" d="M144.067,395.8c0,28.16-17.067,51.2-38.4,51.2s-38.4-23.04-38.4-51.2s17.067-51.2,38.4-51.2
		S144.067,367.64,144.067,395.8"/>
	<path style="fill:#FFA800;" d="M118.467,344.6c-2.56,0-5.12,0-7.68,0.853c18.773,3.413,33.28,24.747,33.28,50.347
		s-14.507,46.933-33.28,50.347c2.56,0,5.12,0.853,7.68,0.853c28.16,0,51.2-23.04,51.2-51.2S146.627,344.6,118.467,344.6"/>
	<path style="fill:#63D3FD;" d="M476.867,267.8H365.933V131.267H383L476.867,267.8z"/>
	<path style="fill:#3DB9F9;" d="M408.6,131.267H383L476.867,267.8h25.6L408.6,131.267z"/>
	<g>
		<path style="fill:#63D3FD;" d="M33.133,353.133h-25.6v-51.2h25.6c5.12,0,8.533,3.413,8.533,8.533V344.6
			C41.667,349.72,38.253,353.133,33.133,353.133"/>
		<path style="fill:#63D3FD;" d="M476.867,301.933h25.6v51.2h-25.6c-5.12,0-8.533-3.413-8.533-8.533v-34.133
			C468.333,305.347,471.747,301.933,476.867,301.933"/>
		<path style="fill:#63D3FD;" d="M101.4,216.6H67.267c-9.387,0-17.067-7.68-17.067-17.067v-51.2c0-9.387,7.68-17.067,17.067-17.067
			H101.4c9.387,0,17.067,7.68,17.067,17.067v51.2C118.467,208.92,110.787,216.6,101.4,216.6"/>
		<path style="fill:#63D3FD;" d="M203.8,216.6h-34.133c-9.387,0-17.067-7.68-17.067-17.067v-51.2c0-9.387,7.68-17.067,17.067-17.067
			H203.8c9.387,0,17.067,7.68,17.067,17.067v51.2C220.867,208.92,213.187,216.6,203.8,216.6"/>
		<path style="fill:#63D3FD;" d="M306.2,216.6h-34.133c-9.387,0-17.067-7.68-17.067-17.067v-51.2c0-9.387,7.68-17.067,17.067-17.067
			H306.2c9.387,0,17.067,7.68,17.067,17.067v51.2C323.267,208.92,315.587,216.6,306.2,216.6"/>
	</g>
	<g>
		<path style="fill:#FECC00;" d="M101.4,131.267H67.267c-9.387,0-17.067,7.68-17.067,17.067v34.133h68.267v-34.133
			C118.467,138.947,110.787,131.267,101.4,131.267"/>
		<path style="fill:#FECC00;" d="M203.8,131.267h-34.133c-9.387,0-17.067,7.68-17.067,17.067v34.133h68.267v-34.133
			C220.867,138.947,213.187,131.267,203.8,131.267"/>
		<path style="fill:#FECC00;" d="M306.2,131.267h-34.133c-9.387,0-17.067,7.68-17.067,17.067V165.4h68.267v-17.067
			C323.267,138.947,315.587,131.267,306.2,131.267"/>
	</g>
	<path d="M118.467,455.533c-33.28,0-59.733-26.453-59.733-59.733s26.453-59.733,59.733-59.733S178.2,362.52,178.2,395.8
		S151.747,455.533,118.467,455.533z M118.467,353.133c-23.893,0-42.667,18.773-42.667,42.667c0,23.893,18.773,42.667,42.667,42.667
		s42.667-18.773,42.667-42.667C161.133,371.907,142.36,353.133,118.467,353.133z"/>
	<path d="M391.533,455.533c-33.28,0-59.733-26.453-59.733-59.733s26.453-59.733,59.733-59.733s59.733,26.453,59.733,59.733
		S424.813,455.533,391.533,455.533z M391.533,353.133c-23.893,0-42.667,18.773-42.667,42.667c0,23.893,18.773,42.667,42.667,42.667
		S434.2,419.693,434.2,395.8C434.2,371.907,415.427,353.133,391.533,353.133z"/>
	<path d="M408.6,395.8c0-9.387-7.68-17.067-17.067-17.067s-17.067,7.68-17.067,17.067s7.68,17.067,17.067,17.067
		S408.6,405.187,408.6,395.8"/>
	<path d="M135.533,395.8c0-9.387-7.68-17.067-17.067-17.067S101.4,386.413,101.4,395.8s7.68,17.067,17.067,17.067
		S135.533,405.187,135.533,395.8"/>
	<path d="M434.2,310.467H75.8c-5.12,0-8.533-3.413-8.533-8.533S70.68,293.4,75.8,293.4h358.4c5.12,0,8.533,3.413,8.533,8.533
		S439.32,310.467,434.2,310.467z"/>
	<path d="M502.467,276.333H365.933c-5.12,0-8.533-3.413-8.533-8.533V131.267c0-5.12,3.413-8.533,8.533-8.533H408.6
		c2.56,0,5.12,1.707,6.827,3.413l93.867,136.533c1.707,2.56,1.707,5.973,0.853,8.533C508.44,274.627,505.88,276.333,502.467,276.333
		z M374.467,259.267h111.787L404.333,139.8h-29.867V259.267z"/>
	<path d="M101.4,225.133H67.267c-14.507,0-25.6-11.093-25.6-25.6v-51.2c0-14.507,11.093-25.6,25.6-25.6H101.4
		c14.507,0,25.6,11.093,25.6,25.6v51.2C127,214.04,115.907,225.133,101.4,225.133z M67.267,139.8c-5.12,0-8.533,3.413-8.533,8.533
		v51.2c0,5.12,3.413,8.533,8.533,8.533H101.4c5.12,0,8.533-3.413,8.533-8.533v-51.2c0-5.12-3.413-8.533-8.533-8.533H67.267z"/>
	<path d="M203.8,225.133h-34.133c-14.507,0-25.6-11.093-25.6-25.6v-51.2c0-14.507,11.093-25.6,25.6-25.6H203.8
		c14.507,0,25.6,11.093,25.6,25.6v51.2C229.4,214.04,218.307,225.133,203.8,225.133z M169.667,139.8
		c-5.12,0-8.533,3.413-8.533,8.533v51.2c0,5.12,3.413,8.533,8.533,8.533H203.8c5.12,0,8.533-3.413,8.533-8.533v-51.2
		c0-5.12-3.413-8.533-8.533-8.533H169.667z"/>
	<path d="M306.2,225.133h-34.133c-14.507,0-25.6-11.093-25.6-25.6v-51.2c0-14.507,11.093-25.6,25.6-25.6H306.2
		c14.507,0,25.6,11.093,25.6,25.6v51.2C331.8,214.04,320.707,225.133,306.2,225.133z M272.067,139.8
		c-5.12,0-8.533,3.413-8.533,8.533v51.2c0,5.12,3.413,8.533,8.533,8.533H306.2c5.12,0,8.533-3.413,8.533-8.533v-51.2
		c0-5.12-3.413-8.533-8.533-8.533H272.067z"/>
	<path d="M425.667,276.333c-1.707,0-3.413-0.853-5.12-1.707c-4.267-2.56-5.12-7.68-2.56-11.947l17.067-25.6
		c2.56-4.267,7.68-5.12,11.947-2.56c4.267,2.56,5.12,7.68,2.56,11.947l-17.067,25.6
		C430.787,274.627,428.227,276.333,425.667,276.333z"/>
	<path d="M475.16,404.333h-32.427c-5.12,0-8.533-3.413-8.533-8.533c0-23.893-18.773-42.667-42.667-42.667
		s-42.667,18.773-42.667,42.667c0,5.12-3.413,8.533-8.533,8.533H169.667c-5.12,0-8.533-3.413-8.533-8.533
		c0-23.893-18.773-42.667-42.667-42.667S75.8,371.907,75.8,395.8c0,5.12-3.413,8.533-8.533,8.533H34.84
		C15.213,404.333-1,388.12-1,368.493V114.2c0-33.28,26.453-59.733,59.733-59.733h392.533C483.693,54.467,511,80.92,511,114.2
		c0,6.827-2.56,13.653-7.68,18.773c-4.267,4.267-11.093,6.827-17.92,6.827H374.467v119.467h128c5.12,0,8.533,3.413,8.533,8.533
		v100.693C511,388.12,494.787,404.333,475.16,404.333z M450.413,387.267h23.893c10.24,0,18.773-8.533,18.773-18.773v-92.16H365.933
		c-5.12,0-8.533-3.413-8.533-8.533V131.267c0-5.12,3.413-8.533,8.533-8.533H485.4c2.56,0,4.267-0.853,5.973-2.56
		c1.707-1.707,2.56-3.413,2.56-5.973c0-23.04-19.627-42.667-42.667-42.667H58.733c-23.893,0-42.667,18.773-42.667,42.667v254.293
		c0,10.24,8.533,18.773,18.773,18.773h23.893c4.267-29.013,29.013-51.2,58.88-51.2s54.613,22.187,58.88,51.2h154.453
		c4.267-29.013,29.013-51.2,58.88-51.2S446.147,358.253,450.413,387.267z"/>
	<path d="M109.933,276.333H7.533C2.413,276.333-1,272.92-1,267.8s3.413-8.533,8.533-8.533h102.4c5.12,0,8.533,3.413,8.533,8.533
		S115.053,276.333,109.933,276.333z"/>
	<path d="M118.467,191H50.2c-5.12,0-8.533-3.413-8.533-8.533v-34.133c0-14.507,11.093-25.6,25.6-25.6H101.4
		c14.507,0,25.6,11.093,25.6,25.6v34.133C127,187.587,123.587,191,118.467,191z M58.733,173.933h51.2v-25.6
		c0-5.12-3.413-8.533-8.533-8.533H67.267c-5.12,0-8.533,3.413-8.533,8.533V173.933z"/>
	<path d="M220.867,191H152.6c-5.12,0-8.533-3.413-8.533-8.533v-34.133c0-14.507,11.093-25.6,25.6-25.6H203.8
		c14.507,0,25.6,11.093,25.6,25.6v34.133C229.4,187.587,225.987,191,220.867,191z M161.133,173.933h51.2v-25.6
		c0-5.12-3.413-8.533-8.533-8.533h-34.133c-5.12,0-8.533,3.413-8.533,8.533V173.933z"/>
	<path d="M323.267,173.933H255c-5.12,0-8.533-3.413-8.533-8.533v-17.067c0-14.507,11.093-25.6,25.6-25.6H306.2
		c14.507,0,25.6,11.093,25.6,25.6V165.4C331.8,170.52,328.387,173.933,323.267,173.933z M263.533,156.867h51.2v-8.533
		c0-5.12-3.413-8.533-8.533-8.533h-34.133c-5.12,0-8.533,3.413-8.533,8.533V156.867z"/>
	<path d="M33.133,361.667H-1V293.4h34.133c9.387,0,17.067,7.68,17.067,17.067V344.6C50.2,353.987,42.52,361.667,33.133,361.667z
		 M33.133,344.6v8.533V344.6L33.133,344.6z M16.067,344.6h17.067v-34.133H16.067V344.6z"/>
	<path d="M511,361.667h-34.133c-9.387,0-17.067-7.68-17.067-17.067v-34.133c0-9.387,7.68-17.067,17.067-17.067H511V361.667z
		 M476.867,310.467V344.6h17.067v-34.133H476.867z M476.867,301.933v8.533l0,0V301.933z"/>
	<path d="M84.333,199.533c-5.12,0-8.533-3.413-8.533-8.533v-8.533c0-5.12,3.413-8.533,8.533-8.533s8.533,3.413,8.533,8.533V191
		C92.867,196.12,89.453,199.533,84.333,199.533z"/>
	<path d="M186.733,199.533c-5.12,0-8.533-3.413-8.533-8.533v-8.533c0-5.12,3.413-8.533,8.533-8.533c5.12,0,8.533,3.413,8.533,8.533
		V191C195.267,196.12,191.853,199.533,186.733,199.533z"/>
	<path d="M289.133,182.467c-5.12,0-8.533-3.413-8.533-8.533V165.4c0-5.12,3.413-8.533,8.533-8.533c5.12,0,8.533,3.413,8.533,8.533
		v8.533C297.667,179.053,294.253,182.467,289.133,182.467z"/>
</g>
<g>
</g>
<g>
</g>
<g>
</g>
<g>
</g>
<g>
</g>
<g>
</g>
<g>
</g>
<g>
</g>
<g>
</g>
<g>
</g>
<g>
</g>
<g>
</g>
<g>
</g>
<g>
</g>
<g>
</g>
</svg>
