<?xml version="1.0" encoding="iso-8859-1"?>
<!-- Generator: Adobe Illustrator 19.0.0, SVG Export Plug-In . SVG Version: 6.00 Build 0)  -->
<svg xmlns="http://www.w3.org/2000/svg" xmlns:xlink="http://www.w3.org/1999/xlink" version="1.1" id="Layer_1" x="0px" y="0px" viewBox="0 0 463.004 463.004" style="enable-background:new 0 0 463.004 463.004;" xml:space="preserve" width="512px" height="512px">
<g>
	<g>
		<g>
			<path d="M407.501,216.002h-352c-4.142,0-7.5,3.357-7.5,7.5s3.358,7.5,7.5,7.5h0.5v16.5c0,5.89,3.303,11.021,8.153,13.643     c1.722,34.386,19.146,66.42,49.525,90.723c4.332,3.466,8.865,6.709,13.565,9.74l-21.598,86.394H95.501     c-4.142,0-7.5,3.357-7.5,7.5s3.358,7.5,7.5,7.5h15.974c0.011,0,0.021,0.002,0.032,0.002c0.008,0,0.015-0.002,0.023-0.002h15.971     c4.142,0,7.5-3.357,7.5-7.5s-3.358-7.5-7.5-7.5h-6.394l19.635-78.541c26.81,14.015,58.081,21.541,90.759,21.541     c32.678,0,63.949-7.526,90.759-21.541l19.635,78.541h-6.394c-4.142,0-7.5,3.357-7.5,7.5s3.358,7.5,7.5,7.5h15.971     c0.008,0,0.015,0.002,0.023,0.002c0.01,0,0.021-0.002,0.032-0.002h15.974c4.142,0,7.5-3.357,7.5-7.5s-3.358-7.5-7.5-7.5h-10.144     l-21.598-86.394c4.7-3.031,9.233-6.275,13.565-9.74c30.379-24.303,47.803-56.337,49.525-90.723     c4.85-2.622,8.153-7.754,8.153-13.643v-16.5h0.5c4.142,0,7.5-3.357,7.5-7.5S411.643,216.002,407.501,216.002z M231.501,376.002     c-80.9,0-147.278-50.037-152.196-113h304.392C378.779,325.965,312.402,376.002,231.501,376.002z M392.001,247.502     c0,0.275-0.224,0.5-0.5,0.5h-320c-0.276,0-0.5-0.225-0.5-0.5v-16.5h321V247.502z" fill="#FFFFFF"/>
			<path d="M94.748,198.964c0.256,0.026,0.511,0.039,0.763,0.039c3.803,0,7.063-2.883,7.453-6.747     c3.734-36.972,22.46-58.116,42.286-80.503c11.598-13.096,23.529-26.568,32.472-43.46c6.332,6.737,15.687,17.732,23.277,30.945     c1.108,1.929,3.017,3.267,5.208,3.651c2.193,0.382,4.441-0.226,6.14-1.662c1.078-0.912,25.197-21.891,39.979-81.255     c10.211,7.503,27.913,21.739,45.551,41.74c24.691,27.998,54.125,73.243,54.125,129.789c0,4.143,3.358,7.5,7.5,7.5     c4.142,0,7.5-3.357,7.5-7.5c0-48.467-20.013-96.777-57.875-139.711c-28.396-32.199-56.469-49.911-57.65-50.649     c-2.077-1.298-4.654-1.501-6.907-0.543c-2.253,0.957-3.897,2.953-4.405,5.347c-9.127,43.029-23.53,66.605-31.574,77.077     c-12.945-19.5-27.403-32.499-28.097-33.118c-1.807-1.61-4.279-2.249-6.642-1.719c-2.362,0.532-4.321,2.172-5.262,4.403     c-8.193,19.435-21.005,33.902-34.57,49.219c-20.53,23.183-41.76,47.154-45.98,88.94     C87.623,194.869,90.626,198.548,94.748,198.964z" fill="#FFFFFF"/>
			<path d="M268.581,97.984c-1.686-1.552-3.989-2.249-6.251-1.889c-2.263,0.357-4.239,1.73-5.364,3.727     c-0.158,0.281-14.747,25.957-32.894,41.645l-11.268-11.269c-2.639-2.639-6.817-2.936-9.803-0.696     c-36.612,27.459-42.646,59.344-42.884,60.688c-0.722,4.063,1.978,7.929,6.038,8.671c4.056,0.745,7.96-1.952,8.724-6.009     c0.049-0.259,4.917-24.654,32.04-47.325l11.279,11.279c2.609,2.608,6.729,2.933,9.714,0.762     c15.902-11.564,29.54-30.494,36.726-41.577c9.134,11.401,25.712,36.825,31.439,76.581c0.539,3.737,3.746,6.432,7.414,6.432     c0.356,0,0.716-0.025,1.079-0.077c4.1-0.591,6.945-4.394,6.354-8.493C302.145,129.492,269.948,99.242,268.581,97.984z" fill="#FFFFFF"/>
			<path d="M339.045,307.966c1.342,0.993,2.905,1.472,4.456,1.472c2.296,0,4.563-1.051,6.035-3.038     c3.706-5.008,6.88-10.287,9.435-15.692c1.77-3.745,0.17-8.216-3.575-9.986c-3.744-1.772-8.216-0.171-9.986,3.575     c-2.138,4.521-4.807,8.956-7.932,13.179C335.014,300.806,335.716,305.502,339.045,307.966z" fill="#FFFFFF"/>
			<path d="M255.489,357.311c0.353,0,0.71-0.025,1.07-0.076c25.186-3.597,48.454-12.576,67.288-25.968     c3.375-2.4,4.167-7.082,1.766-10.458c-2.4-3.376-7.083-4.166-10.459-1.766c-16.893,12.011-37.888,20.083-60.717,23.343     c-4.1,0.586-6.95,4.385-6.364,8.485C248.607,354.612,251.816,357.311,255.489,357.311z" fill="#FFFFFF"/>
		</g>
	</g>
</g>
<g>
</g>
<g>
</g>
<g>
</g>
<g>
</g>
<g>
</g>
<g>
</g>
<g>
</g>
<g>
</g>
<g>
</g>
<g>
</g>
<g>
</g>
<g>
</g>
<g>
</g>
<g>
</g>
<g>
</g>
</svg>
