<?xml version="1.0" encoding="iso-8859-1"?>
<!-- Generator: Adobe Illustrator 19.0.0, SVG Export Plug-In . SVG Version: 6.00 Build 0)  -->
<svg xmlns="http://www.w3.org/2000/svg" xmlns:xlink="http://www.w3.org/1999/xlink" version="1.1" id="Layer_1" x="0px" y="0px" viewBox="0 0 463 463" style="enable-background:new 0 0 463 463;" xml:space="preserve" width="512px" height="512px">
<g>
	<g>
		<g>
			<path d="M335.055,47.472C335.04,30.116,320.916,16,303.556,16c-0.981,0-1.976,0.054-2.992,0.164     C294.797,10.932,287.351,8,279.556,8c-3.237,0-6.412,0.51-9.494,1.521C264.197,3.473,256.153,0,247.556,0     c-5.647,0-11.161,1.552-16,4.446c-4.84-2.894-10.353-4.446-16-4.446c-8.598,0-16.642,3.473-22.506,9.521     C189.968,8.51,186.793,8,183.556,8c-7.795,0-15.242,2.932-21.008,8.164c-1.017-0.11-2.011-0.164-2.992-0.164     c-17.109,0-31.065,13.713-31.48,30.723c-0.728,4.147-4.716,28.669-4.125,64.879c0.586,35.907,6.033,90.504,28.647,146.698     c13.761,34.195,21.275,65.174,22.971,94.708c1.502,26.153-1.415,51.679-9.18,80.33c-1.948,7.186-0.487,14.677,4.007,20.551     c4.43,5.791,11.158,9.111,18.459,9.111h85.29c7.301,0,14.029-3.32,18.459-9.111c4.494-5.874,5.955-13.365,4.007-20.551     c-7.765-28.651-10.682-54.177-9.18-80.33c1.696-29.534,9.21-60.513,22.971-94.708c22.615-56.194,28.061-110.792,28.647-146.698     C339.614,77.154,336.032,53.285,335.055,47.472z M159.556,31c1.159,0,2.387,0.166,3.864,0.523     c2.777,0.67,5.697-0.296,7.526-2.494c3.188-3.832,7.784-6.029,12.61-6.029c2.748,0,5.46,0.749,8.063,2.224     c3.479,1.973,7.892,0.868,10.034-2.508c3.063-4.832,8.26-7.716,13.903-7.716c4.002,0,7.901,1.527,10.98,4.301     c2.853,2.57,7.187,2.57,10.039,0c3.079-2.773,6.979-4.301,10.98-4.301c5.643,0,10.84,2.884,13.903,7.716     c2.141,3.378,6.556,4.482,10.034,2.508c2.603-1.476,5.316-2.224,8.063-2.224c4.826,0,9.422,2.197,12.61,6.029     c1.828,2.198,4.745,3.166,7.526,2.494c1.478-0.357,2.706-0.523,3.864-0.523c6.396,0,11.942,3.666,14.679,9h-46.677     c-4.142,0-7.5,3.358-7.5,7.5l-0.001,48c0,4.687-3.813,8.5-8.5,8.5c-4.687,0-8.5-3.813-8.5-8.5l-0.003-47.465     c-0.003-5.896-4.487-8.035-7.5-8.035h-31.997c-4.142,0-7.5,3.358-7.5,7.5v96c0,4.687-3.813,8.5-8.5,8.5s-8.5-3.813-8.5-8.5v-96     c0-4.142-3.358-7.5-7.5-7.5h-30.678C147.614,34.666,153.159,31,159.556,31z M142.002,55h26.053v81h-27.902     C137.305,97.322,140.346,67.338,142.002,55z M296.489,252.7c-26.963,66.999-31.256,122.195-14.354,184.562     c0.715,2.64,0.189,5.379-1.443,7.513c-0.921,1.205-2.997,3.226-6.545,3.226h-85.29c-3.548,0-5.624-2.021-6.545-3.226     c-1.633-2.134-2.159-4.873-1.443-7.513c16.902-62.367,12.609-117.563-14.354-184.562c-14.346-35.649-21.619-70.844-24.987-101.7     h27.764c3.138,9.29,11.93,16,22.266,16s19.128-6.71,22.266-16h107.677C318.129,181.833,310.849,217.017,296.489,252.7z      M322.877,136H215.056V55h16.999c0.001,10.348,0.001,29.056,0.001,40.5c0,12.958,10.542,23.5,23.5,23.5     c12.958,0,23.5-10.542,23.5-23.5l0.001-40.5h41.948C322.671,67.33,325.731,97.301,322.877,136z" fill="#FFFFFF"/>
			<path d="M255.556,416h-48c-4.142,0-7.5,3.358-7.5,7.5c0,4.142,3.358,7.5,7.5,7.5h48c4.142,0,7.5-3.358,7.5-7.5     C263.056,419.358,259.698,416,255.556,416z" fill="#FFFFFF"/>
			<path d="M253.013,310.812c0.556,0.125,1.111,0.186,1.658,0.186c3.428,0,6.522-2.366,7.309-5.85     c4.232-18.749,10.362-37.98,18.738-58.795c2.687-6.678,5.206-13.578,7.487-20.508c1.295-3.935-0.845-8.174-4.779-9.469     c-3.936-1.295-8.174,0.845-9.469,4.779c-2.18,6.625-4.587,13.218-7.154,19.598c-8.68,21.567-15.043,41.551-19.455,61.092     C246.436,305.885,248.972,309.9,253.013,310.812z" fill="#FFFFFF"/>
			<path d="M288.278,198.813c0.56,0.127,1.119,0.188,1.669,0.188c3.424,0,6.516-2.36,7.307-5.839     c1.218-5.359,2.338-10.851,3.331-16.324c0.739-4.077-1.965-7.98-6.041-8.719c-4.074-0.745-7.979,1.965-8.718,6.041     c-0.954,5.257-2.03,10.532-3.199,15.677C281.709,193.877,284.239,197.895,288.278,198.813z" fill="#FFFFFF"/>
		</g>
	</g>
</g>
<g>
</g>
<g>
</g>
<g>
</g>
<g>
</g>
<g>
</g>
<g>
</g>
<g>
</g>
<g>
</g>
<g>
</g>
<g>
</g>
<g>
</g>
<g>
</g>
<g>
</g>
<g>
</g>
<g>
</g>
</svg>
