<?xml version="1.0" encoding="iso-8859-1"?>
<!-- Generator: Adobe Illustrator 19.0.0, SVG Export Plug-In . SVG Version: 6.00 Build 0)  -->
<svg version="1.1" id="Layer_1" xmlns="http://www.w3.org/2000/svg" xmlns:xlink="http://www.w3.org/1999/xlink" x="0px" y="0px"
	 viewBox="0 0 463 463" style="enable-background:new 0 0 463 463;" xml:space="preserve">
<g>
	<g>
		<path d="M447.5,340H447V211.5v-8v-48c0-8.547-6.953-15.5-15.5-15.5h-82.097c1.027-2.638,1.597-5.503,1.597-8.5
			c0-12.958-10.542-23.5-23.5-23.5c-4.041,0-7.846,1.026-11.17,2.829C311.443,99.753,300.363,92,287.5,92
			c-7.602,0-14.583,2.707-20.031,7.207C261.251,85.535,247.472,76,231.5,76s-29.751,9.535-35.969,23.207
			C190.083,94.707,183.102,92,175.5,92c-12.863,0-23.943,7.754-28.83,18.829c-3.324-1.804-7.13-2.829-11.17-2.829
			c-12.958,0-23.5,10.542-23.5,23.5c0,2.997,0.57,5.862,1.597,8.5H31.5c-8.547,0-15.5,6.953-15.5,15.5v48v8V340h-0.5
			C6.953,340,0,346.953,0,355.5v16c0,8.547,6.953,15.5,15.5,15.5h432c8.547,0,15.5-6.953,15.5-15.5v-16
			C463,346.953,456.047,340,447.5,340z M327.5,123c4.687,0,8.5,3.813,8.5,8.5s-3.813,8.5-8.5,8.5s-8.5-3.813-8.5-8.5
			S322.813,123,327.5,123z M287.5,107c9.098,0,16.5,7.402,16.5,16.5c0,9.098-7.402,16.5-16.5,16.5c-9.098,0-16.5-7.402-16.5-16.5
			S278.402,107,287.5,107z M231.5,91c13.509,0,24.5,10.991,24.5,24.5c0,13.509-10.991,24.5-24.5,24.5
			c-13.509,0-24.5-10.991-24.5-24.5C207,101.991,217.991,91,231.5,91z M175.5,107c9.098,0,16.5,7.402,16.5,16.5
			c0,9.098-7.402,16.5-16.5,16.5s-16.5-7.402-16.5-16.5S166.402,107,175.5,107z M135.5,123c4.687,0,8.5,3.813,8.5,8.5
			s-3.813,8.5-8.5,8.5s-8.5-3.813-8.5-8.5S130.813,123,135.5,123z M31,155.5c0-0.276,0.224-0.5,0.5-0.5h400
			c0.276,0,0.5,0.224,0.5,0.5v26.097c-2.638-1.027-5.503-1.597-8.5-1.597c-12.958,0-23.5,10.542-23.5,23.5v8
			c0,4.687-3.813,8.5-8.5,8.5s-8.5-3.813-8.5-8.5v-8c0-12.958-10.542-23.5-23.5-23.5S336,190.542,336,203.5v48
			c0,4.687-3.813,8.5-8.5,8.5s-8.5-3.813-8.5-8.5v-48c0-12.958-10.542-23.5-23.5-23.5S272,190.542,272,203.5v88
			c0,4.687-3.813,8.5-8.5,8.5s-8.5-3.813-8.5-8.5v-88c0-12.958-10.542-23.5-23.5-23.5S208,190.542,208,203.5v8
			c0,4.687-3.813,8.5-8.5,8.5s-8.5-3.813-8.5-8.5v-8c0-12.958-10.542-23.5-23.5-23.5S144,190.542,144,203.5v48
			c0,4.687-3.813,8.5-8.5,8.5s-8.5-3.813-8.5-8.5v-48c0-12.958-10.542-23.5-23.5-23.5S80,190.542,80,203.5v8
			c0,4.687-3.813,8.5-8.5,8.5s-8.5-3.813-8.5-8.5v-8c0-12.958-10.542-23.5-23.5-23.5c-2.997,0-5.862,0.57-8.5,1.597V155.5z
			 M93.403,300c1.027-2.638,1.597-5.503,1.597-8.5V275h145v16.5c0,2.997,0.57,5.862,1.597,8.5H93.403z M208,315v16.5
			c0,4.687-3.813,8.5-8.5,8.5s-8.5-3.813-8.5-8.5V315H208z M177.597,220H159v-16.5c0-4.687,3.813-8.5,8.5-8.5s8.5,3.813,8.5,8.5v8
			C176,214.497,176.57,217.362,177.597,220z M240,235v25h-82.597c1.027-2.638,1.597-5.503,1.597-8.5V235H240z M221.403,220
			c1.027-2.638,1.597-5.503,1.597-8.5v-8c0-4.687,3.813-8.5,8.5-8.5s8.5,3.813,8.5,8.5V220H221.403z M223,331.5V315h209v25H221.403
			C222.43,337.362,223,334.497,223,331.5z M304,235v16.5c0,2.997,0.57,5.862,1.597,8.5H287v-25H304z M287,220v-16.5
			c0-4.687,3.813-8.5,8.5-8.5s8.5,3.813,8.5,8.5V220H287z M368,275v16.5c0,2.997,0.57,5.862,1.597,8.5h-84.195
			c1.028-2.638,1.598-5.503,1.598-8.5V275H368z M383,291.5V275h17v16.5c0,4.687-3.813,8.5-8.5,8.5S383,296.187,383,291.5z
			 M413.403,300c1.027-2.638,1.597-5.503,1.597-8.5V275h17v25H413.403z M349.403,260c1.027-2.638,1.597-5.503,1.597-8.5V235h81v25
			H349.403z M369.597,220H351v-16.5c0-4.687,3.813-8.5,8.5-8.5s8.5,3.813,8.5,8.5v8C368,214.497,368.57,217.362,369.597,220z
			 M413.403,220c1.027-2.638,1.597-5.503,1.597-8.5v-8c0-4.687,3.813-8.5,8.5-8.5s8.5,3.813,8.5,8.5v8v8.5H413.403z M112,203.5V220
			H93.403c1.027-2.638,1.597-5.503,1.597-8.5v-8c0-4.687,3.813-8.5,8.5-8.5S112,198.813,112,203.5z M31,211.5v-8
			c0-4.687,3.813-8.5,8.5-8.5s8.5,3.813,8.5,8.5v8c0,2.997,0.57,5.862,1.597,8.5H31V211.5z M31,235h81v16.5
			c0,2.997,0.57,5.862,1.597,8.5H31V235z M80,275v16.5c0,4.687-3.813,8.5-8.5,8.5s-8.5-3.813-8.5-8.5V275H80z M31,275h17v16.5
			c0,2.997,0.57,5.862,1.597,8.5H31V275z M31,315h145v16.5c0,2.997,0.57,5.862,1.597,8.5H31V315z M448,371.5
			c0,0.276-0.224,0.5-0.5,0.5h-432c-0.276,0-0.5-0.224-0.5-0.5v-16c0-0.276,0.224-0.5,0.5-0.5h432c0.276,0,0.5,0.224,0.5,0.5V371.5z
			"/>
	</g>
</g>
<g>
</g>
<g>
</g>
<g>
</g>
<g>
</g>
<g>
</g>
<g>
</g>
<g>
</g>
<g>
</g>
<g>
</g>
<g>
</g>
<g>
</g>
<g>
</g>
<g>
</g>
<g>
</g>
<g>
</g>
</svg>
