<?xml version="1.0" encoding="iso-8859-1"?>
<!-- Generator: Adobe Illustrator 19.0.0, SVG Export Plug-In . SVG Version: 6.00 Build 0)  -->
<svg version="1.1" id="Layer_1" xmlns="http://www.w3.org/2000/svg" xmlns:xlink="http://www.w3.org/1999/xlink" x="0px" y="0px"
	 viewBox="0 0 447 447" style="enable-background:new 0 0 447 447;" xml:space="preserve">
<g>
	<g>
		<g>
			<path d="M381.539,65.462C339.325,23.248,283.199,0,223.5,0c-38.379,0-76.179,9.885-109.429,28.586
				c-3.275,0.182-6.536,0.878-9.639,2.143c-13.495-9.962-32.66-8.837-44.871,3.375c-4.505,4.505-7.624,10.176-9.078,16.379
				c-6.203,1.454-11.874,4.573-16.378,9.077C27.589,66.077,24,74.741,24,83.956c0,7.47,2.358,14.577,6.728,20.479
				c-1.264,3.103-1.961,6.362-2.142,9.636C9.884,147.322,0,185.121,0,223.5c0,59.699,23.248,115.825,65.461,158.038
				C107.675,423.752,163.801,447,223.5,447c59.699,0,115.825-23.248,158.039-65.462C423.752,339.325,447,283.199,447,223.5
				C447,163.801,423.752,107.675,381.539,65.462z M44.711,70.168c3.348-3.348,7.883-5.332,12.771-5.587
				c3.834-0.201,6.898-3.265,7.099-7.099c0.255-4.888,2.24-9.424,5.587-12.771c7.512-7.515,19.677-7.603,27.312-0.26
				c0.131,0.159,0.285,0.336,0.467,0.523c2.517,2.599,6.53,3.029,9.542,1.025c5.915-3.938,13.861-3.143,18.895,1.893
				c2.833,2.833,4.393,6.6,4.393,10.606c0,4.006-1.56,7.773-4.393,10.607c-5.033,5.032-12.979,5.826-18.894,1.892
				c-3.022-2.011-7.05-1.569-9.565,1.05c-0.17,0.177-0.315,0.344-0.44,0.496c-3.32,3.192-7.748,5.082-12.509,5.33
				c-3.835,0.201-6.898,3.265-7.099,7.1c-0.249,4.763-2.14,9.192-5.323,12.502c-0.141,0.115-0.306,0.258-0.479,0.423
				c-2.639,2.512-3.092,6.556-1.074,9.588c3.937,5.916,3.141,13.862-1.892,18.895c-2.833,2.834-6.6,4.394-10.607,4.394
				s-7.773-1.561-10.606-4.394c-5.033-5.032-5.829-12.979-1.892-18.894c2.007-3.017,1.571-7.037-1.037-9.554
				c-0.184-0.177-0.357-0.328-0.516-0.458C40.932,93.826,39,89.039,39,83.956C39,78.747,41.028,73.851,44.711,70.168z
				 M112.19,112.189c-6.775-1.712-14.773-2.338-24.064-0.965c-0.351-2.313-0.96-4.599-1.86-6.804
				c2.712-3.705,4.65-7.936,5.708-12.446c4.514-1.059,8.746-2.998,12.447-5.708c2.206,0.9,4.491,1.51,6.804,1.86
				C109.852,97.417,110.479,105.414,112.19,112.189z M223.5,432C108.533,432,15,338.468,15,223.5
				c0-30.913,6.89-61.409,19.989-89.125c0.714,0.904,1.468,1.784,2.298,2.614c5.849,5.848,13.531,8.772,21.213,8.772
				c7.683,0,15.365-2.925,21.213-8.772c2.976-2.976,5.192-6.469,6.66-10.209c8.803-1.85,22.607-2.702,34.473,5.522
				c-5.345,7.826-8.092,17.255-7.649,26.845c0.57,12.324,6.339,23.912,15.83,31.794l97.991,81.383
				c-4.555,0.652-8.795,2.283-12.507,4.67C211.362,256.083,193.275,240,171.5,240c-23.986,0-43.5,19.514-43.5,43.5
				c0,23.986,19.514,43.5,43.5,43.5c11.863,0,22.628-4.779,30.483-12.506C206.454,326.457,217.997,335,231.5,335
				c17.369,0,31.5-14.131,31.5-31.5c0-0.443-0.015-0.882-0.034-1.321l67.781,56.292c3.752,3.116,8.196,4.658,12.616,4.658
				c5.004,0,9.979-1.977,13.884-5.882c7.354-7.354,7.869-18.5,1.224-26.501l-167.53-201.72c-7.882-9.49-19.47-15.261-31.794-15.83
				c-9.587-0.444-19.018,2.303-26.845,7.648c-8.223-11.866-7.372-25.669-5.523-34.472c3.741-1.468,7.233-3.684,10.209-6.66
				c11.697-11.697,11.697-30.73,0-42.427c-0.83-0.83-1.71-1.584-2.614-2.298C162.09,21.889,192.587,15,223.5,15
				C338.467,15,432,108.532,432,223.5S338.467,432,223.5,432z M165.627,153.606c1.464,1.464,3.384,2.196,5.303,2.196
				s3.839-0.732,5.303-2.196l8.535-8.535l51.972,62.579l-14.545,14.545c-2.929,2.93-2.929,7.678,0,10.607
				c1.464,1.464,3.384,2.196,5.303,2.196s3.839-0.732,5.303-2.196l13.563-13.563l31.44,37.856l-20.709,20.709l-13.142-10.915
				c0.053-0.05,0.11-0.095,0.163-0.147l11.313-11.313c2.929-2.93,2.929-7.678,0-10.607c-2.929-2.928-7.678-2.928-10.606,0
				l-11.313,11.313c-0.386,0.387-0.719,0.806-1.003,1.248l-37.989-31.551l15.657-15.658c2.929-2.93,2.929-7.678,0-10.607
				c-2.929-2.928-7.678-2.928-10.606,0l-16.64,16.641l-37.856-31.44l8.535-8.536c2.929-2.929,2.928-7.678,0-10.606
				c-2.93-2.928-7.678-2.929-10.607,0.001l-8.983,8.983c-3.521-4.615-5.558-10.171-5.834-16.155
				c-0.381-8.238,2.621-15.987,8.453-21.819c5.832-5.832,13.585-8.832,21.82-8.454c5.983,0.276,11.54,2.313,16.155,5.834
				l-8.983,8.983C162.698,145.929,162.698,150.677,165.627,153.606z M295.734,295.026c1.464,1.465,3.384,2.197,5.304,2.197
				c1.919,0,3.838-0.732,5.303-2.196l1.621-1.621l38.971,46.925c2.464,2.968,0.617,5.401-0.292,6.31s-3.341,2.76-6.31,0.292
				l-22.202-18.439l5.183-5.183c2.929-2.929,2.928-7.678,0-10.606c-2.93-2.928-7.678-2.929-10.607,0.001l-5.657,5.657
				c-0.17,0.17-0.329,0.348-0.479,0.53l-37.884-31.463l18.745-18.745l10.908,13.134l-2.602,2.602
				C292.806,287.349,292.805,292.098,295.734,295.026z M248,303.5c0,9.098-7.402,16.5-16.5,16.5s-16.5-7.402-16.5-16.5
				c0-9.098,7.402-16.5,16.5-16.5S248,294.402,248,303.5z M200,283.5c0,15.715-12.785,28.5-28.5,28.5
				c-15.715,0-28.5-12.785-28.5-28.5c0-15.715,12.785-28.5,28.5-28.5C187.215,255,200,267.785,200,283.5z"/>
			<path d="M176.587,195.4c1.919,0,3.839-0.732,5.303-2.196l11.314-11.313c2.929-2.929,2.929-7.678,0-10.606
				c-2.928-2.929-7.677-2.93-10.606-0.001l-11.314,11.313c-2.929,2.929-2.929,7.678,0,10.606
				C172.748,194.668,174.667,195.4,176.587,195.4z"/>
			<path d="M255.5,112c-17.369,0-31.5,14.131-31.5,31.5s14.131,31.5,31.5,31.5s31.5-14.131,31.5-31.5S272.869,112,255.5,112z
				 M255.5,160c-9.098,0-16.5-7.402-16.5-16.5s7.402-16.5,16.5-16.5s16.5,7.402,16.5,16.5S264.598,160,255.5,160z"/>
			<path d="M361.437,178.598c-1.757-0.936-3.814-1.131-5.714-0.547l-11.873,3.638c5.235-21.893-7.328-44.489-29.125-51.333
				c-1.897-0.597-3.955-0.413-5.718,0.507c-1.764,0.921-3.089,2.504-3.685,4.401l-20.409,64.994c-2.4,1.854-3.533,5.059-2.592,8.129
				c3.387,11.054,10.876,20.128,21.088,25.549c5.724,3.04,11.92,4.713,18.207,5.012c-1.04,2.652-1.618,5.535-1.618,8.551
				c0,12.958,10.542,23.5,23.5,23.5s23.5-10.542,23.5-23.5c0-9.144-5.253-17.079-12.896-20.961
				c3.093-3.053,5.739-6.588,7.835-10.535c5.421-10.212,6.542-21.924,3.154-32.978C364.508,181.123,363.194,179.531,361.437,178.598
				z M300.739,199.93l16.346-52.053c10.43,6.729,15.552,19.846,11.658,32.248c-2.263,7.208-7.198,13.104-13.896,16.6
				C310.428,199.033,305.594,200.125,300.739,199.93z M302.957,214.922c6.49-0.174,12.909-1.808,18.833-4.901
				c4.763-2.487,8.934-5.774,12.393-9.68l17.809-5.458c0.149,4.853-0.965,9.682-3.303,14.085
				c-3.542,6.673-9.472,11.566-16.695,13.78C321.29,226.028,310.108,222.62,302.957,214.922z M343.5,256c-4.687,0-8.5-3.813-8.5-8.5
				s3.813-8.5,8.5-8.5s8.5,3.813,8.5,8.5S348.187,256,343.5,256z"/>
			<path d="M150.776,229.681c-1.005-4.019-5.079-6.464-9.095-5.457l-64,16c-4.019,1.005-6.462,5.077-5.457,9.096
				c0.852,3.407,3.91,5.683,7.27,5.683c0.602,0,1.214-0.073,1.825-0.226l64-16C149.337,237.771,151.781,233.699,150.776,229.681z"/>
			<path d="M126.925,206.439c-0.586-4.102-4.387-6.944-8.485-6.364l-56,8c-4.101,0.586-6.95,4.385-6.364,8.485
				c0.535,3.741,3.743,6.44,7.416,6.44c0.353,0,0.71-0.025,1.07-0.076l56-8C124.661,214.339,127.51,210.54,126.925,206.439z"/>
			<path d="M69.681,182.776l32,8c0.61,0.152,1.222,0.226,1.825,0.226c3.36,0,6.418-2.275,7.27-5.683
				c1.005-4.019-1.438-8.091-5.457-9.096l-32-8c-4.012-1.002-8.09,1.438-9.095,5.457S65.663,181.771,69.681,182.776z"/>
			<path d="M266.197,338.196l-8,8c-2.929,2.93-2.929,7.678,0,10.607c1.464,1.464,3.384,2.196,5.303,2.196s3.839-0.732,5.303-2.196
				l8-8c2.929-2.93,2.929-7.678,0-10.607C273.875,335.269,269.125,335.269,266.197,338.196z"/>
			<path d="M359.5,280c-4.142,0-7.5,3.357-7.5,7.5v8c0,4.143,3.358,7.5,7.5,7.5c4.142,0,7.5-3.357,7.5-7.5v-8
				C367,283.357,363.642,280,359.5,280z"/>
			<path d="M204.803,98.196c-2.929-2.928-7.678-2.928-10.606,0c-2.929,2.93-2.929,7.678,0,10.607l8,8
				c1.464,1.464,3.384,2.196,5.303,2.196s3.839-0.732,5.303-2.196c2.929-2.93,2.929-7.678,0-10.607L204.803,98.196z"/>
			<circle cx="231.452" cy="87.5" r="8"/>
			<circle cx="103.452" cy="271.5" r="8"/>
			<circle cx="295.452" cy="359.5" r="8"/>
		</g>
	</g>
</g>
<g>
</g>
<g>
</g>
<g>
</g>
<g>
</g>
<g>
</g>
<g>
</g>
<g>
</g>
<g>
</g>
<g>
</g>
<g>
</g>
<g>
</g>
<g>
</g>
<g>
</g>
<g>
</g>
<g>
</g>
</svg>
