<?xml version="1.0" encoding="utf-8"?>
<!-- Generator: Adobe Illustrator 21.1.0, SVG Export Plug-In . SVG Version: 6.00 Build 0)  -->
<svg version="1.1" id="Layer_1" xmlns="http://www.w3.org/2000/svg" xmlns:xlink="http://www.w3.org/1999/xlink" x="0px" y="0px"
	 viewBox="0 0 447 447" style="enable-background:new 0 0 447 447;" xml:space="preserve">
<style type="text/css">
	.st0{fill:#F0F0F0;}
</style>
<g>
	<g>
		<g>
			<path class="st0" d="M381.5,65.5C339.3,23.2,283.2,0,223.5,0c-38.4,0-76.2,9.9-109.4,28.6c-3.3,0.2-6.5,0.9-9.6,2.1
				c-13.5-10-32.7-8.8-44.9,3.4c-4.5,4.5-7.6,10.2-9.1,16.4c-6.2,1.5-11.9,4.6-16.4,9.1C27.6,66.1,24,74.7,24,84
				c0,7.5,2.4,14.6,6.7,20.5c-1.3,3.1-2,6.4-2.1,9.6C9.9,147.3,0,185.1,0,223.5c0,59.7,23.2,115.8,65.5,158
				c42.2,42.2,98.3,65.5,158,65.5s115.8-23.2,158-65.5c42.2-42.2,65.5-98.3,65.5-158S423.8,107.7,381.5,65.5z M44.7,70.2
				c3.3-3.3,7.9-5.3,12.8-5.6c3.8-0.2,6.9-3.3,7.1-7.1c0.3-4.9,2.2-9.4,5.6-12.8c7.5-7.5,19.7-7.6,27.3-0.3c0.1,0.2,0.3,0.3,0.5,0.5
				c2.5,2.6,6.5,3,9.5,1c5.9-3.9,13.9-3.1,18.9,1.9c2.8,2.8,4.4,6.6,4.4,10.6s-1.6,7.8-4.4,10.6c-5,5-13,5.8-18.9,1.9
				c-3-2-7.1-1.6-9.6,1.1c-0.2,0.2-0.3,0.3-0.4,0.5c-3.3,3.2-7.7,5.1-12.5,5.3c-3.8,0.2-6.9,3.3-7.1,7.1c-0.2,4.8-2.1,9.2-5.3,12.5
				c-0.1,0.1-0.3,0.3-0.5,0.4c-2.6,2.5-3.1,6.6-1.1,9.6c3.9,5.9,3.1,13.9-1.9,18.9c-2.8,2.8-6.6,4.4-10.6,4.4s-7.8-1.6-10.6-4.4
				c-5-5-5.8-13-1.9-18.9c2-3,1.6-7-1-9.6c-0.2-0.2-0.4-0.3-0.5-0.5C40.9,93.8,39,89,39,84C39,78.7,41,73.9,44.7,70.2z M112.2,112.2
				c-6.8-1.7-14.8-2.3-24.1-1c-0.4-2.3-1-4.6-1.9-6.8c2.7-3.7,4.7-7.9,5.7-12.4c4.5-1.1,8.7-3,12.4-5.7c2.2,0.9,4.5,1.5,6.8,1.9
				C109.9,97.4,110.5,105.4,112.2,112.2z M223.5,432C108.5,432,15,338.5,15,223.5c0-30.9,6.9-61.4,20-89.1c0.7,0.9,1.5,1.8,2.3,2.6
				c5.8,5.8,13.5,8.8,21.2,8.8c7.7,0,15.4-2.9,21.2-8.8c3-3,5.2-6.5,6.7-10.2c8.8-1.8,22.6-2.7,34.5,5.5c-5.3,7.8-8.1,17.3-7.6,26.8
				c0.6,12.3,6.3,23.9,15.8,31.8l98,81.4c-4.6,0.7-8.8,2.3-12.5,4.7c-3.1-20.9-21.2-37-43-37c-24,0-43.5,19.5-43.5,43.5
				s19.5,43.5,43.5,43.5c11.9,0,22.6-4.8,30.5-12.5c4.5,12,16,20.5,29.5,20.5c17.4,0,31.5-14.1,31.5-31.5c0-0.4,0-0.9,0-1.3
				l67.8,56.3c3.8,3.1,8.2,4.7,12.6,4.7c5,0,10-2,13.9-5.9c7.4-7.4,7.9-18.5,1.2-26.5L190.9,129c-7.9-9.5-19.5-15.3-31.8-15.8
				c-9.6-0.4-19,2.3-26.8,7.6c-8.2-11.9-7.4-25.7-5.5-34.5c3.7-1.5,7.2-3.7,10.2-6.7c11.7-11.7,11.7-30.7,0-42.4
				c-0.8-0.8-1.7-1.6-2.6-2.3c27.7-13.1,58.2-20,89.1-20c115,0,208.5,93.5,208.5,208.5S338.5,432,223.5,432z M165.6,153.6
				c1.5,1.5,3.4,2.2,5.3,2.2s3.8-0.7,5.3-2.2l8.5-8.5l52,62.6l-14.5,14.5c-2.9,2.9-2.9,7.7,0,10.6c1.5,1.5,3.4,2.2,5.3,2.2
				s3.8-0.7,5.3-2.2l13.6-13.6l31.4,37.9l-20.7,20.7L244,266.9c0.1,0,0.1-0.1,0.2-0.1l11.3-11.3c2.9-2.9,2.9-7.7,0-10.6
				c-2.9-2.9-7.7-2.9-10.6,0l-11.3,11.3c-0.4,0.4-0.7,0.8-1,1.2l-38-31.6l15.7-15.7c2.9-2.9,2.9-7.7,0-10.6c-2.9-2.9-7.7-2.9-10.6,0
				l-16.6,16.6l-37.9-31.4l8.5-8.5c2.9-2.9,2.9-7.7,0-10.6c-2.9-2.9-7.7-2.9-10.6,0l-9,9c-3.5-4.6-5.6-10.2-5.8-16.2
				c-0.4-8.2,2.6-16,8.5-21.8s13.6-8.8,21.8-8.5c6,0.3,11.5,2.3,16.2,5.8l-9,9C162.7,145.9,162.7,150.7,165.6,153.6z M295.7,295
				c1.5,1.5,3.4,2.2,5.3,2.2c1.9,0,3.8-0.7,5.3-2.2l1.6-1.6l39,46.9c2.5,3,0.6,5.4-0.3,6.3s-3.3,2.8-6.3,0.3l-22.2-18.4l5.2-5.2
				c2.9-2.9,2.9-7.7,0-10.6c-2.9-2.9-7.7-2.9-10.6,0l-5.7,5.7c-0.2,0.2-0.3,0.3-0.5,0.5l-37.9-31.5l18.7-18.7l10.9,13.1l-2.6,2.6
				C292.8,287.3,292.8,292.1,295.7,295z M248,303.5c0,9.1-7.4,16.5-16.5,16.5s-16.5-7.4-16.5-16.5s7.4-16.5,16.5-16.5
				S248,294.4,248,303.5z M200,283.5c0,15.7-12.8,28.5-28.5,28.5S143,299.2,143,283.5s12.8-28.5,28.5-28.5S200,267.8,200,283.5z"/>
			<path class="st0" d="M176.6,195.4c1.9,0,3.8-0.7,5.3-2.2l11.3-11.3c2.9-2.9,2.9-7.7,0-10.6c-2.9-2.9-7.7-2.9-10.6,0l-11.3,11.3
				c-2.9,2.9-2.9,7.7,0,10.6C172.7,194.7,174.7,195.4,176.6,195.4z"/>
			<path class="st0" d="M255.5,112c-17.4,0-31.5,14.1-31.5,31.5s14.1,31.5,31.5,31.5s31.5-14.1,31.5-31.5S272.9,112,255.5,112z
				 M255.5,160c-9.1,0-16.5-7.4-16.5-16.5s7.4-16.5,16.5-16.5c9.1,0,16.5,7.4,16.5,16.5S264.6,160,255.5,160z"/>
			<path class="st0" d="M361.4,178.6c-1.8-0.9-3.8-1.1-5.7-0.5l-11.9,3.6c5.2-21.9-7.3-44.5-29.1-51.3c-1.9-0.6-4-0.4-5.7,0.5
				c-1.8,0.9-3.1,2.5-3.7,4.4l-20.4,65c-2.4,1.9-3.5,5.1-2.6,8.1c3.4,11.1,10.9,20.1,21.1,25.5c5.7,3,11.9,4.7,18.2,5
				c-1,2.7-1.6,5.5-1.6,8.6c0,13,10.5,23.5,23.5,23.5s23.5-10.5,23.5-23.5c0-9.1-5.3-17.1-12.9-21c3.1-3.1,5.7-6.6,7.8-10.5
				c5.4-10.2,6.5-21.9,3.2-33C364.5,181.1,363.2,179.5,361.4,178.6z M300.7,199.9l16.3-52.1c10.4,6.7,15.6,19.8,11.7,32.2
				c-2.3,7.2-7.2,13.1-13.9,16.6C310.4,199,305.6,200.1,300.7,199.9z M303,214.9c6.5-0.2,12.9-1.8,18.8-4.9
				c4.8-2.5,8.9-5.8,12.4-9.7l17.8-5.5c0.1,4.9-1,9.7-3.3,14.1c-3.5,6.7-9.5,11.6-16.7,13.8C321.3,226,310.1,222.6,303,214.9z
				 M343.5,256c-4.7,0-8.5-3.8-8.5-8.5s3.8-8.5,8.5-8.5s8.5,3.8,8.5,8.5S348.2,256,343.5,256z"/>
			<path class="st0" d="M150.8,229.7c-1-4-5.1-6.5-9.1-5.5l-64,16c-4,1-6.5,5.1-5.5,9.1c0.9,3.4,3.9,5.7,7.3,5.7
				c0.6,0,1.2-0.1,1.8-0.2l64-16C149.3,237.8,151.8,233.7,150.8,229.7z"/>
			<path class="st0" d="M126.9,206.4c-0.6-4.1-4.4-6.9-8.5-6.4l-56,8c-4.1,0.6-7,4.4-6.4,8.5c0.5,3.7,3.7,6.4,7.4,6.4
				c0.4,0,0.7,0,1.1-0.1l56-8C124.7,214.3,127.5,210.5,126.9,206.4z"/>
			<path class="st0" d="M69.7,182.8l32,8c0.6,0.2,1.2,0.2,1.8,0.2c3.4,0,6.4-2.3,7.3-5.7c1-4-1.4-8.1-5.5-9.1l-32-8
				c-4-1-8.1,1.4-9.1,5.5S65.7,181.8,69.7,182.8z"/>
			<path class="st0" d="M266.2,338.2l-8,8c-2.9,2.9-2.9,7.7,0,10.6c1.5,1.5,3.4,2.2,5.3,2.2s3.8-0.7,5.3-2.2l8-8
				c2.9-2.9,2.9-7.7,0-10.6C273.9,335.3,269.1,335.3,266.2,338.2z"/>
			<path class="st0" d="M359.5,280c-4.1,0-7.5,3.4-7.5,7.5v8c0,4.1,3.4,7.5,7.5,7.5s7.5-3.4,7.5-7.5v-8
				C367,283.4,363.6,280,359.5,280z"/>
			<path class="st0" d="M204.8,98.2c-2.9-2.9-7.7-2.9-10.6,0c-2.9,2.9-2.9,7.7,0,10.6l8,8c1.5,1.5,3.4,2.2,5.3,2.2s3.8-0.7,5.3-2.2
				c2.9-2.9,2.9-7.7,0-10.6L204.8,98.2z"/>
			<circle class="st0" cx="231.5" cy="87.5" r="8"/>
			<circle class="st0" cx="103.5" cy="271.5" r="8"/>
			<circle class="st0" cx="295.5" cy="359.5" r="8"/>
		</g>
	</g>
</g>
</svg>
