<?xml version="1.0" encoding="iso-8859-1"?>
<!-- Generator: Adobe Illustrator 19.0.0, SVG Export Plug-In . SVG Version: 6.00 Build 0)  -->
<svg version="1.1" id="Layer_1" xmlns="http://www.w3.org/2000/svg" xmlns:xlink="http://www.w3.org/1999/xlink" x="0px" y="0px"
	 viewBox="0 0 463 463" style="enable-background:new 0 0 463 463;" xml:space="preserve">
<g>
	<g>
		<g>
			<path d="M351.5,40h-2.922l-10.091-25.228C334.897,5.798,326.333,0,316.667,0H146.333c-9.665,0-18.229,5.798-21.819,14.772
				L114.422,40H111.5C102.953,40,96,46.953,96,55.5v16c0,8.547,6.953,15.5,15.5,15.5h0.841l2.759,59.305
				c-1.136,0.694-2.196,1.519-3.125,2.493c-2.911,3.049-4.467,7.212-4.271,11.423l8.558,184c0.272,5.84,3.736,10.777,8.658,13.19
				l2.735,58.81c0.266,5.718,3.588,10.58,8.347,13.046V447.5c0,8.547,6.953,15.5,15.5,15.5h160c8.547,0,15.5-6.953,15.5-15.5
				v-18.234c4.759-2.466,8.081-7.327,8.347-13.046l2.735-58.81c4.922-2.413,8.386-7.35,8.658-13.19l8.558-184
				c0.196-4.21-1.361-8.374-4.271-11.422c-0.93-0.974-1.989-1.799-3.125-2.493L350.659,87h0.841c8.547,0,15.5-6.953,15.5-15.5v-16
				C367,46.953,360.047,40,351.5,40z M138.44,20.343c1.298-3.246,4.396-5.343,7.892-5.343h170.335c3.496,0,6.594,2.097,7.892,5.343
				L332.422,40H130.578L138.44,20.343z M312,447.5c0,0.276-0.224,0.5-0.5,0.5h-160c-0.276,0-0.5-0.224-0.5-0.5V431h161V447.5z
				 M320.363,415.523c-0.013,0.268-0.232,0.477-0.5,0.477H143.137c-0.268,0-0.487-0.209-0.5-0.477L140.008,359h182.984
				L320.363,415.523z M340.314,159.523l-8.558,184c-0.013,0.268-0.232,0.477-0.5,0.477H131.744c-0.268,0-0.487-0.209-0.5-0.477
				l-8.558-184c-0.002-0.059-0.01-0.214,0.138-0.369c0.147-0.155,0.303-0.155,0.362-0.155h216.628c0.059,0,0.214,0,0.362,0.155
				C340.324,159.31,340.316,159.465,340.314,159.523z M127.357,87h208.286l-2.651,57H130.008L127.357,87z M352,71.5
				c0,0.276-0.224,0.5-0.5,0.5h-8h-224h-8c-0.276,0-0.5-0.224-0.5-0.5v-16c0-0.276,0.224-0.5,0.5-0.5h8.123c0.01,0,0.02,0,0.03,0
				h223.823c0.009,0,0.017,0.002,0.026,0.002c0.014,0,0.028-0.002,0.042-0.002h7.956c0.276,0,0.5,0.224,0.5,0.5V71.5z"/>
			<path d="M231.5,196c-30.603,0-55.5,24.897-55.5,55.5c0,30.603,24.897,55.5,55.5,55.5c30.603,0,55.5-24.897,55.5-55.5
				C287,220.897,262.103,196,231.5,196z M231.5,292c-22.332,0-40.5-18.168-40.5-40.5c0-22.332,18.168-40.5,40.5-40.5
				c22.332,0,40.5,18.168,40.5,40.5C272,273.832,253.832,292,231.5,292z"/>
		</g>
	</g>
</g>
<g>
</g>
<g>
</g>
<g>
</g>
<g>
</g>
<g>
</g>
<g>
</g>
<g>
</g>
<g>
</g>
<g>
</g>
<g>
</g>
<g>
</g>
<g>
</g>
<g>
</g>
<g>
</g>
<g>
</g>
</svg>
