<svg height="512pt" viewBox="-20 0 512 512.00044" width="512pt" xmlns="http://www.w3.org/2000/svg"><path d="m210.636719 132.492188c-1.941407 5.167968.679687 10.933593 5.851562 12.875 5.183594 1.941406 10.9375-.691407 12.875-5.855469 11.722657-31.253907 5.605469-51.519531.210938-69.398438-5.128907-16.996093-9.558594-31.675781-.210938-56.597656 1.9375-5.171875-.679687-10.9375-5.851562-12.875-5.171875-1.941406-10.9375.679687-12.875 5.851563-11.722657 31.253906-5.605469 51.519531-.210938 69.398437 5.128907 16.996094 9.558594 31.675781.210938 56.601563zm0 0"/><path d="m270.636719 132.492188c-1.941407 5.167968.679687 10.933593 5.851562 12.875 5.183594 1.941406 10.9375-.691407 12.875-5.855469 11.722657-31.253907 5.605469-51.519531.210938-69.398438-5.128907-16.996093-9.5625-31.675781-.210938-56.597656 1.9375-5.171875-.683593-10.9375-5.851562-12.875-5.175781-1.941406-10.9375.679687-12.875 5.851563-11.722657 31.253906-5.605469 51.519531-.210938 69.398437 5.128907 16.996094 9.558594 31.675781.210938 56.601563zm0 0"/><path d="m150.636719 132.492188c-1.9375 5.167968.679687 10.933593 5.851562 12.875 5.183594 1.941406 10.9375-.691407 12.875-5.855469 11.722657-31.253907 5.605469-51.519531.210938-69.398438-5.128907-16.996093-9.558594-31.675781-.210938-56.597656 1.9375-5.171875-.679687-10.9375-5.851562-12.875-5.171875-1.941406-10.9375.679687-12.875 5.851563-11.722657 31.253906-5.605469 51.519531-.210938 69.398437 5.128907 16.996094 9.558594 31.675781.210938 56.601563zm0 0"/><path d="m230 502c0 5.523438-4.476562 10-10 10s-10-4.476562-10-10 4.476562-10 10-10 10 4.476562 10 10zm0 0"/><path d="m50 512h125c5.523438 0 10-4.476562 10-10s-4.476562-10-10-10h-125c-13.039062 0-24.160156-8.367188-28.285156-20.007812h396.570312c-4.128906 11.640624-15.25 20.007812-28.289062 20.007812h-125c-5.519532 0-10 4.476562-10 10s4.480468 10 10 10h125c27.570312 0 50-22.429688 50-50 0-5.523438-4.476563-10-10-10h-125.332032c21.867188-12.335938 40.644532-29.949219 54.230469-51.648438 67.390625-8.996093 112.523438-56.664062 112.523438-119.160156 0-38.703125-31.488281-70.1875-70.191407-70.1875h-20.230468v-6c0-16.445312-13.292969-30-29.996094-30h-260.941406c-16.574219 0-30.058594 13.457032-30.058594 30v119.882813c.417969 54.253906 31.003906 101.410156 76.371094 127.113281h-126.371094c-5.523438 0-10 4.476562-10 10 0 27.570312 22.429688 50 50 50zm351.226562-280.996094c27.675782 0 50.191407 22.511719 50.191407 50.1875 0 48.375-31.300781 85.023438-81.058594 96.753906 6.84375-16.832031 10.492187-34.882812 10.636719-53.132812v-93.808594zm-321.226562 93.808594v-119.808594c0-5.515625 4.511719-10 10.058594-10h260.941406c5.582031 0 10 4.539063 10 10v119.726563c-.558594 70.117187-60.152344 127.269531-132.453125 127.269531h-16.039063c-72.523437 0-131.96875-57.089844-132.507812-127.1875zm0 0"/></svg>