<svg id="line" enable-background="new 0 0 64 64" height="512" viewBox="0 0 64 64" width="512" xmlns="http://www.w3.org/2000/svg"><path d="m46.611 61.208-3.694-2.851-.907-6.213 4.98-36.008c.007-.044.01-.09.01-.136v-3c0-.354-.184-.664-.461-.842l3.803-7.605c.17-.341.513-.553.894-.553h4.764v-2h-4.764c-1.143 0-2.171.635-2.683 1.658l-2.677 5.354c-.269-1.054-.957-1.942-1.876-2.475v-.57c0-.624-.113-1.225-.322-1.78-.023-.062-.048-.123-.073-.183s-.052-.121-.08-.18-.057-.118-.087-.176-.062-.115-.094-.172c-.617-1.078-1.632-1.911-2.892-2.294l-3.76-1.139c-.136-.042-.278-.054-.419-.035l-11.917 1.548c-2.483.322-4.356 2.454-4.356 4.958v.022c-1.195.693-2 1.986-2 3.464v2c-.552 0-1 .448-1 1v3c0 .046.003.092.009.137l4.98 36.008-.921 6.313-3.667 2.742c-.252.188-.401.485-.401.8h-5v2h40v-2h-5c0-.31-.144-.603-.389-.792zm-26.611-51.208c0-1.103.897-2 2-2h10v-2h-9.955c.177-1.017.872-1.871 1.816-2.26.163-.067.333-.121.51-.159.08-.017.161-.031.243-.042l11.702-1.52 3.555 1.077c.836.253 1.492.837 1.844 1.585.184.392.285.829.285 1.286l-4 .033v2h4c1.103 0 2 .897 2 2v2h-18v2h19v1.931l-.286 2.069h-25.428l-.286-2.069v-1.931h5v-2h-4zm-.437 10h24.874l-4.428 32.012c-.013.094-.012.188.001.282l.833 5.706h-17.686l.833-5.707c.013-.093.014-.188.001-.282zm.107 42 2.675-2h19.427l2.591 2z"/><path d="m27 28c1.103 0 2-.897 2-2v-2c0-1.103-.897-2-2-2h-2c-1.103 0-2 .897-2 2v2c0 1.103.897 2 2 2zm-2-4h2l.001 2h-2.001z"/><path d="m26 52v2c0 1.103.897 2 2 2h2c1.103 0 2-.897 2-2v-2c0-1.103-.897-2-2-2h-2c-1.103 0-2 .897-2 2zm4.001 2h-2.001v-2h2z"/><path d="m36 41h2c1.103 0 2-.897 2-2v-2c0-1.103-.897-2-2-2h-2c-1.103 0-2 .897-2 2v2c0 1.103.897 2 2 2zm0-4h2l.001 2h-2.001z"/><path d="m34 25h2v2h-2z"/><path d="m39 29h2v2h-2z"/><path d="m25 46h2v2h-2z"/><path d="m30 42h2v2h-2z"/><path d="m54 62h4v2h-4z"/><path d="m6 62h4v2h-4z"/></svg>