<svg id="icons" enable-background="new 0 0 64 64" height="512" viewBox="0 0 64 64" width="512" xmlns="http://www.w3.org/2000/svg"><path d="m51.979.121c-.485-.263-1.093-.083-1.355.402l-6.772 12.484h-31.354c-.279 0-.546.117-.735.322s-.284.48-.262.759l4.004 48.992c.043.521.476.92.997.92h25.996c.521 0 .954-.399.997-.919l4.004-48.992c.022-.278-.072-.554-.262-.759s-.456-.322-.735-.322h-.377l6.256-11.531c.264-.486.083-1.092-.402-1.356zm-9.213 14.887-1.353 2.493-1.208-1.208c-.391-.391-1.023-.391-1.414 0l-4.293 4.293-4.293-4.293c-.391-.391-1.023-.391-1.414 0l-4.293 4.293-4.293-4.293c-.391-.391-1.023-.391-1.414 0l-4.707 4.707h-.012l-.489-5.992zm1.998 7.992-.082 1h-30.364l-.082-1zm-27.852-2 2.586-2.586 2.586 2.586zm10 0 2.586-2.586 2.586 2.586zm10 0 2.586-2.586 2.586 2.586zm4.664 41h-24.152l-2.942-36h30.037zm3.841-46.992-.489 5.992h-.016l-2.024-2.024 2.152-3.968z"/><path d="m29.506 35.002c-.019 0-.037.003-.056.003-.007 0-.013 0-.02.001-3.273.041-5.925 2.713-5.925 5.996v2.002c0 3.304 2.684 5.991 5.984 5.999.006 0 .011.003.016.003.004 0 .008-.003.012-.003 3.303-.006 5.988-2.694 5.988-5.999v-2.002c.001-3.309-2.691-6-5.999-6zm-4 8.002v-2.002c0-1.533.877-2.852 2.146-3.523-.39 1.419-.329 3.254 1.051 5.118 1.446 1.953.775 3.619.325 4.358-1.979-.239-3.522-1.909-3.522-3.951zm5.854 3.523c.39-1.42.33-3.256-1.051-5.12-1.445-1.951-.776-3.615-.324-4.356 1.978.239 3.521 1.909 3.521 3.951v2.002c0 1.533-.877 2.851-2.146 3.523z"/><path d="m29.498 31c-6.065 0-11 4.935-11 11s4.935 11 11 11 11-4.935 11-11-4.935-11-11-11zm0 20c-4.963 0-9-4.037-9-9s4.037-9 9-9 9 4.037 9 9-4.037 9-9 9z"/></svg>