<?xml version="1.0" encoding="iso-8859-1"?>
<!-- Generator: Adobe Illustrator 19.0.0, SVG Export Plug-In . SVG Version: 6.00 Build 0)  -->
<svg version="1.1" id="Layer_1" xmlns="http://www.w3.org/2000/svg" xmlns:xlink="http://www.w3.org/1999/xlink" x="0px" y="0px"
	 viewBox="0 0 463 463" style="enable-background:new 0 0 463 463;" xml:space="preserve">
<g>
	<g>
		<g>
			<path d="M447.5,364h-24.927c0.824-2.103,1.361-4.349,1.542-6.698l6.864-89.227c0.16-2.083-0.556-4.138-1.975-5.671
				c-0.239-0.259-0.5-0.491-0.77-0.711l18.382-43.03c0.781-1.829,0.804-3.894,0.063-5.74c-0.741-1.846-2.185-3.322-4.014-4.104
				l-22.071-9.428c-1.893-0.809-3.933-0.777-5.707-0.075c0.335-1.93-0.095-3.916-1.206-5.532c-1.127-1.639-2.859-2.763-4.815-3.125
				l-23.6-4.366c-1.487-0.274-2.951-0.086-4.249,0.457l-0.635-9.079c-0.289-4.132-3.878-7.245-8.005-6.959l-23.941,1.674
				c-1.984,0.139-3.833,1.06-5.137,2.562c-1.305,1.501-1.96,3.459-1.822,5.443l1.047,14.976l-0.762-2.636
				c-1.15-3.979-5.308-6.273-9.288-5.121l-23.055,6.667c-1.911,0.552-3.524,1.841-4.484,3.583c-0.96,1.742-1.189,3.794-0.637,5.705
				L320.615,260H319.5c-2.089,0-4.083,0.871-5.503,2.404c-1.419,1.533-2.135,3.588-1.975,5.671L316.324,324H303.5
				c-2.247,0-4.375,1.007-5.8,2.745c-1.424,1.738-1.995,4.022-1.554,6.226L302.352,364h-36.033c2.965-4.802,4.681-10.454,4.681-16.5
				v-1.734c9.29-3.138,16-11.93,16-22.266s-6.71-19.128-16-22.266v-20.179c4.765-2.647,8-7.728,8-13.555v-16
				c0-10.024-6.987-24.303-40.275-35.399C215.315,208.297,184.338,204,151.5,204s-63.815,4.297-87.225,12.101
				C30.987,227.197,24,241.475,24,251.5v16c0,5.827,3.235,10.908,8,13.555v20.179c-9.29,3.138-16,11.93-16,22.266
				s6.71,19.128,16,22.266v1.734c0,6.046,1.716,11.698,4.681,16.5H15.5C6.953,364,0,370.953,0,379.5v16
				c0,8.547,6.953,15.5,15.5,15.5h432c8.547,0,15.5-6.953,15.5-15.5v-16C463,370.953,456.047,364,447.5,364z M404.321,256.449
				c0.137-0.242,0.264-0.492,0.376-0.754l16.901-39.562l8.277,3.536L412.645,260h-8.981L404.321,256.449z M384,234.359
				c0.059-0.246,0.105-0.497,0.139-0.751l5.772-31.199l8.85,1.637L388.409,260h-9.152L384,234.359z M365.94,186.201l3.213,45.957
				L364.002,260h-1.924l-5.116-73.171L365.94,186.201z M415.401,275l-6.243,81.152c-0.338,4.401-4.061,7.848-8.475,7.848h-24.035
				l6.206-31.029c0.44-2.203-0.13-4.488-1.554-6.226c-1.425-1.738-3.553-2.745-5.8-2.745h-44.131l-3.77-49H415.401z
				 M329.435,204.104L345.598,260h-9.369l-15.44-53.396L329.435,204.104z M366.351,339l-4.92,24.599
				c-0.046,0.232-0.252,0.401-0.49,0.401h-42.883c-0.237,0-0.443-0.169-0.49-0.402L312.648,339H366.351z M39,251.5
				c0-8.239,16.171-16.553,30.019-21.169c6.45-2.15,13.551-4.007,21.14-5.57c0.013,0.014,0.024,0.029,0.038,0.042l24,24
				c1.464,1.464,3.384,2.197,5.303,2.197s3.839-0.732,5.303-2.197c2.929-2.929,2.929-7.678,0-10.606l-16.473-16.473
				c5.517-0.727,11.21-1.31,17.039-1.749l36.828,36.828c1.464,1.464,3.384,2.197,5.303,2.197s3.839-0.732,5.303-2.197
				c2.929-2.929,2.929-7.678,0-10.606l-27.15-27.15c1.94-0.031,3.889-0.047,5.846-0.047c4.428,0,8.81,0.09,13.143,0.249
				l29.554,29.554c1.464,1.465,3.384,2.197,5.303,2.197s3.839-0.732,5.303-2.197c2.929-2.929,2.929-7.678,0-10.606l-17.328-17.329
				c17.389,1.856,33.293,5.058,46.506,9.463C247.829,234.947,264,243.26,264,251.5v16c0,0.276-0.224,0.5-0.5,0.5h-224
				c-0.276,0-0.5-0.224-0.5-0.5V251.5z M256,283v17h-13.394l-17-17H256z M221.393,300h-26.787l-17-17h26.787L221.393,300z
				 M173.393,300h-26.787l-17-17h26.787L173.393,300z M125.393,300H98.606l-17-17h26.787L125.393,300z M77.394,300H47v-17h13.394
				L77.394,300z M31,323.5c0-4.687,3.813-8.5,8.5-8.5h224c4.687,0,8.5,3.813,8.5,8.5s-3.813,8.5-8.5,8.5h-224
				C34.813,332,31,328.187,31,323.5z M256,347v0.5c0,9.098-7.402,16.5-16.5,16.5h-176c-9.098,0-16.5-7.402-16.5-16.5V347H256z
				 M448,395.5c0,0.276-0.224,0.5-0.5,0.5h-432c-0.276,0-0.5-0.224-0.5-0.5v-16c0-0.276,0.224-0.5,0.5-0.5h432
				c0.276,0,0.5,0.224,0.5,0.5V395.5z"/>
			<path d="M136,139.535c0,12.625,5.348,19.305,9.646,24.672c3.689,4.608,6.354,7.937,6.354,15.297c0,4.142,3.358,7.5,7.5,7.5
				c4.142,0,7.5-3.358,7.5-7.5c0-12.625-5.348-19.304-9.645-24.672c-3.689-4.608-6.355-7.938-6.355-15.297
				c0-7.37,2.667-10.704,6.357-15.317c4.296-5.371,9.643-12.055,9.643-24.687c0-12.637-5.346-19.325-9.642-24.699
				C153.667,70.215,151,66.879,151,59.5c0-4.142-3.358-7.5-7.5-7.5c-4.142,0-7.5,3.358-7.5,7.5c0,12.637,5.346,19.325,9.642,24.699
				c3.691,4.618,6.358,7.954,6.358,15.333c0,7.37-2.667,10.704-6.357,15.317C141.347,120.219,136,126.904,136,139.535z"/>
			<path d="M176.484,147.027c2.381,0,4.504-1.111,5.879-2.842C187.776,137.419,199,123.362,199,99.531
				c0-9.68-1.861-18.805-5.532-27.123c-1.672-3.789-6.099-5.506-9.89-3.833c-3.79,1.672-5.505,6.1-3.833,9.89
				C182.568,84.862,184,91.95,184,99.531c0,18.514-8.295,28.964-13.303,35.226c-1.07,1.296-1.713,2.958-1.713,4.771
				C168.984,143.669,172.342,147.027,176.484,147.027z"/>
			<path d="M116.325,170.952c1.004,0,2.025-0.203,3.004-0.632c3.794-1.661,5.523-6.084,3.862-9.878
				C120.41,154.09,119,147.056,119,139.535c0-18.59,8.368-29.051,13.369-35.304c0.135-0.169,0.263-0.344,0.383-0.524
				c1.68-2.519,1.672-5.852-0.008-8.371c-2.297-3.446-6.955-4.377-10.4-2.08c-0.888,0.592-1.608,1.34-2.15,2.184
				C114.636,102.405,104,116.342,104,139.535c0,9.604,1.834,18.663,5.451,26.924C110.684,169.274,113.437,170.952,116.325,170.952z"
				/>
		</g>
	</g>
</g>
<g>
</g>
<g>
</g>
<g>
</g>
<g>
</g>
<g>
</g>
<g>
</g>
<g>
</g>
<g>
</g>
<g>
</g>
<g>
</g>
<g>
</g>
<g>
</g>
<g>
</g>
<g>
</g>
<g>
</g>
</svg>
