<?xml version="1.0" encoding="iso-8859-1"?>
<!-- Generator: Adobe Illustrator 19.0.0, SVG Export Plug-In . SVG Version: 6.00 Build 0)  -->
<svg version="1.1" id="Layer_1" xmlns="http://www.w3.org/2000/svg" xmlns:xlink="http://www.w3.org/1999/xlink" x="0px" y="0px"
	 viewBox="0 0 463 463" style="enable-background:new 0 0 463 463;" xml:space="preserve">
<g>
	<g>
		<g>
			<path d="M455.5,368H353.443c31.821-16.062,58.102-39.51,76.575-68.466c1.57-2.46,1.57-5.607,0-8.067
				c-17.451-27.355-42.501-50.282-72.44-66.301c-30.769-16.463-66-25.165-101.882-25.165c-50.715,0-98.743,17.071-136.006,48.206
				c-19.96-16.602-43.965-29.629-69.823-37.846c-2.206-0.7-4.613-0.344-6.52,0.967c-1.908,1.312-3.103,3.431-3.239,5.741
				c-0.573,9.779,0.022,43.288,29.598,78.432c-25.142,29.876-29.338,58.561-29.68,72.5H7.5c-4.142,0-7.5,3.358-7.5,7.5
				c0,4.142,3.358,7.5,7.5,7.5h60.25l14.55,19.4c5.917,7.89,15.338,12.6,25.2,12.6h248c9.862,0,19.283-4.71,25.2-12.6l14.55-19.4
				h60.25c4.142,0,7.5-3.358,7.5-7.5C463,371.358,459.642,368,455.5,368z M414.714,295.497
				c-15.829,23.255-38.038,42.954-63.941,56.923c-15.204-15.205-23.578-35.42-23.578-56.922c0-21.317,8.587-41.894,23.624-56.933
				C376.865,252.567,398.862,272.177,414.714,295.497z M328,359.5c0,3.013-0.835,5.944-2.386,8.5h-28.228
				c-1.551-2.556-2.386-5.487-2.386-8.5c0-9.098,7.402-16.5,16.5-16.5C320.598,343,328,350.401,328,359.5z M336.644,231.706
				c-15.623,17.434-24.449,40.238-24.449,63.793c0,11.515,2.031,22.716,5.911,33.203c-2.131-0.457-4.34-0.703-6.606-0.703
				c-3.753,0-7.353,0.662-10.694,1.872c-3.725-10.928-5.611-22.362-5.611-34.058c0-25.951,9.372-50.606,26.475-69.926
				C326.751,227.622,331.744,229.57,336.644,231.706z M55.403,362.844c1.393-13.621,7.279-37.773,29.812-62.268
				c2.641-2.87,2.641-7.285,0-10.155c-22.535-24.496-28.42-48.647-29.813-62.266c22.152,8.364,42.487,20.533,59.297,35.548
				c2.846,2.542,7.146,2.542,9.992,0C159.853,232.297,206.377,215,255.695,215c17.097,0,34.021,2.13,50.309,6.246
				c-15.116,19.161-23.99,42.303-25.552,66.754H231.5c-0.052,0-0.103,0.007-0.155,0.008c-2.145-8.217-6.639-16.175-13.24-22.776
				c-13.846-13.845-33.661-18.45-49.312-11.458c-1.686,0.753-3.035,2.102-3.789,3.789c-4.189,9.377-4.211,20.25-0.58,30.438h-52.73
				c-4.142,0-7.5,3.358-7.5,7.5c0,4.142,3.358,7.5,7.5,7.5h61.263c1.094,1.334,2.261,2.629,3.506,3.874
				c9.535,9.536,21.902,14.688,33.791,14.688c3.783,0,7.514-0.534,11.094-1.602l12.961,12.958c-0.98,1.075-1.896,2.21-2.754,3.388
				C224.711,330.969,216.273,328,207.5,328c-12.475,0-24.171,6.026-31.577,16.003C175.781,344,175.64,344,175.5,344
				c-7.039,0-13.545,2.321-18.795,6.238c-11.533-6.558-22.289-14.255-32.014-22.941c-2.845-2.542-7.147-2.542-9.992,0
				C97.889,342.312,77.555,354.48,55.403,362.844z M281.174,368h-40.625c-1.012-2.711-1.549-5.589-1.549-8.5
				c0-13.509,10.991-24.5,24.5-24.5c7.886,0,15.307,3.895,19.902,10.289c-2.17,4.273-3.402,9.099-3.402,14.211
				C280,362.398,280.401,365.255,281.174,368z M263.5,320c-6.095,0-11.87,1.389-17.03,3.865l-14.94-14.937
				c0.509-1.941,0.86-3.922,1.059-5.928h47.824c0.453,7.73,1.635,15.343,3.54,22.783C277.864,322.078,270.81,320,263.5,320z
				 M199.488,298.102l8.306,8.304c-7.25-0.68-14.805-4.221-20.723-10.14c-8.48-8.48-12.096-20.322-9.38-29.808
				c9.488-2.715,21.329,0.9,29.809,9.379c5.444,5.445,8.87,12.274,9.916,18.977l-7.323-7.319c-2.929-2.929-7.678-2.929-10.606,0.001
				C196.558,290.424,196.559,295.174,199.488,298.102z M224.95,368h-64.128c2.736-5.334,8.282-9,14.678-9
				c0.801,0,1.694,0.095,2.896,0.309c3.139,0.558,6.288-0.931,7.851-3.71C190.613,347.826,198.757,343,207.5,343
				c6.614,0,12.936,2.745,17.531,7.566c-0.667,2.873-1.031,5.861-1.031,8.934C224,362.368,224.333,365.216,224.95,368z
				 M80.941,367.998c14.006-7.017,27.073-15.494,38.75-25.206c8.508,7.101,17.677,13.518,27.363,19.188
				c-0.91,1.908-1.63,3.923-2.144,6.018H80.941z M368.7,393.399c-3.1,4.133-8.034,6.6-13.2,6.6h-248c-5.166,0-10.101-2.467-13.2-6.6
				L86.5,383h290L368.7,393.399z"/>
			<path d="M363.695,295c6.341,0,11.5-5.159,11.5-11.5s-5.159-11.5-11.5-11.5s-11.5,5.159-11.5,11.5S357.354,295,363.695,295z"/>
			<path d="M208,135.534c0,12.625,5.348,19.305,9.646,24.672c3.689,4.608,6.354,7.937,6.354,15.297c0,4.142,3.358,7.5,7.5,7.5
				c4.142,0,7.5-3.358,7.5-7.5c0-12.625-5.348-19.304-9.645-24.672c-3.689-4.608-6.355-7.938-6.355-15.297
				c0-7.37,2.667-10.704,6.357-15.317c4.296-5.371,9.643-12.055,9.643-24.687c0-12.637-5.346-19.325-9.642-24.699
				C225.667,66.214,223,62.879,223,55.5c0-4.142-3.358-7.5-7.5-7.5c-4.142,0-7.5,3.358-7.5,7.5c0,12.637,5.346,19.325,9.642,24.699
				c3.691,4.618,6.358,7.954,6.358,15.333c0,7.37-2.667,10.704-6.357,15.317C213.347,116.219,208,122.904,208,135.534z"/>
			<path d="M248.484,143.026c2.381,0,4.504-1.111,5.879-2.842C259.776,133.419,271,119.362,271,95.531
				c0-9.68-1.861-18.805-5.532-27.123c-1.672-3.79-6.1-5.506-9.89-3.833c-3.79,1.672-5.505,6.1-3.833,9.89
				C254.568,80.862,256,87.95,256,95.531c0,18.514-8.295,28.964-13.303,35.226c-1.07,1.296-1.713,2.958-1.713,4.771
				C240.984,139.669,244.342,143.026,248.484,143.026z"/>
			<path d="M188.325,166.951c1.004,0,2.025-0.203,3.004-0.632c3.794-1.661,5.523-6.084,3.862-9.878
				c-2.781-6.352-4.191-13.386-4.191-20.907c0-18.59,8.368-29.051,13.369-35.304c0.135-0.169,0.263-0.344,0.383-0.524
				c1.68-2.519,1.672-5.852-0.008-8.371c-2.297-3.447-6.954-4.377-10.4-2.08c-0.888,0.592-1.608,1.34-2.15,2.184
				C186.636,98.404,176,112.341,176,135.534c0,9.604,1.834,18.663,5.451,26.924C182.684,165.273,185.437,166.951,188.325,166.951z"
				/>
		</g>
	</g>
</g>
<g>
</g>
<g>
</g>
<g>
</g>
<g>
</g>
<g>
</g>
<g>
</g>
<g>
</g>
<g>
</g>
<g>
</g>
<g>
</g>
<g>
</g>
<g>
</g>
<g>
</g>
<g>
</g>
<g>
</g>
</svg>
