<?xml version="1.0" encoding="utf-8"?>
<!-- Generator: Adobe Illustrator 21.1.0, SVG Export Plug-In . SVG Version: 6.00 Build 0)  -->
<svg version="1.1" id="Layer_1" xmlns="http://www.w3.org/2000/svg" xmlns:xlink="http://www.w3.org/1999/xlink" x="0px" y="0px"
	 viewBox="0 0 463 463" style="enable-background:new 0 0 463 463;" xml:space="preserve">
<style type="text/css">
	.st0{fill:#F0F0F0;}
</style>
<g>
	<g>
		<path class="st0" d="M462.9,270.1c-0.6-3-2.9-5.3-5.9-5.9c-0.3-0.1-25.8-5.4-44.4-22.2c1.6-3.1,2.5-6.7,2.5-10.4
			c0-3-0.6-5.9-1.6-8.5h2.7c12.6,0,22.9-10.5,22.9-23.5v-16c0-32.4-22.3-61.5-62.7-81.9c-18.2-9.2-39.6-16.4-63-21.4
			c-0.2,0-0.4-0.1-0.6-0.1c-25.1-5.3-52.6-8.1-81.3-8.1c-55.5,0-107,10.5-144.8,29.6C46.3,122,24,151.1,24,183.5v16
			c0,11.2,7.6,20.5,17.8,22.9c-1.2,2.8-1.8,5.9-1.8,9.1c0,5.6,2,10.7,5.2,14.8c-13.3,4.6-29.9,9.7-37.7,9.7c-3.3,0-6.3,2.2-7.2,5.4
			s0.4,6.7,3.2,8.4l21.7,13.6C15,288.6,8,299.3,8,311.5c0,15.4,11.1,28.3,25.8,31c-1.2,2.8-1.8,5.8-1.8,9
			c0,21.8,17.7,39.5,39.5,39.5h320c21.8,0,39.5-17.7,39.5-39.5c0-3.2-0.6-6.2-1.8-9c14.7-2.7,25.8-15.5,25.8-31
			c0-9.2-4.1-17.7-10.6-23.6l15.3-10.2C462.2,276.1,463.4,273,462.9,270.1z M438.1,274.1l-11.6,7.8c-0.4,0.2-0.8,0.5-1.1,0.7
			l-16.3,10.8c-1.5,1-3.4,1.2-5.1,0.5l-49.6-21.3c-3.3-1.4-7.2-0.3-9.2,2.7l-7.9,11.8c-4.6-4.4-14.3-14.9-22.5-32.1h12.6
			c6.2,0,11.8-2.4,16-6.3c4.2,3.9,9.8,6.3,16,6.3h9.9c1.6,4.9,4.5,9.7,8.8,14.5c4.3,4.8,8.5,7.8,9,8.1c1.3,0.9,2.8,1.4,4.3,1.4
			c2.3,0,4.7-1.1,6.1-3.2c2.4-3.4,1.6-8-1.8-10.5c-2.2-1.6-6.9-5.6-9.9-10.4h5.6c3.8,0,7.3-0.9,10.4-2.5c0.2,0.2,0.3,0.4,0.5,0.5
			C414.2,263.6,427.8,270.2,438.1,274.1z M98.8,255h20.7c1.7,0,3.3-0.2,4.9-0.5c-0.7,1.5-1.6,3-2.7,4.3c-2.6,3.2-2.2,7.9,1,10.6
			c1.4,1.1,3.1,1.7,4.8,1.7c2.2,0,4.3-0.9,5.8-2.7c4-4.9,6.3-10.6,7.7-15.7c3.2,1.6,6.7,2.5,10.5,2.5h59.4
			c3.5,6.4,11.1,18.6,23.5,30c1.4,1.3,3.3,2,5.1,2c2,0,4-0.8,5.5-2.4c2.8-3,2.6-7.8-0.4-10.6c-7.1-6.6-12.5-13.5-16.1-19h11
			c6.2,0,11.8-2.4,16-6.3c4.2,3.9,9.8,6.3,16,6.3h26.9c6.4,15.3,14.2,26.6,20.5,34.3l-33.3-12.5c-9.7-3.7-20.8-1.3-28.1,6.1
			L244,296.4c-3.1,3.1-7.9,3.5-11.4,0.9l-44.7-31.9c-2-1.5-4.7-1.8-7-0.9l-59.5,22.3l-12.6-12.6c-2.6-2.6-6.8-2.9-9.8-0.7L77,290
			c-3.5,2.6-8.4,2.8-12.1,0.5l-4.3-2.7C69.8,281.3,84.7,269.9,98.8,255z M63.5,240c-4.7,0-8.5-3.8-8.5-8.5s3.8-8.5,8.5-8.5h56
			c4.7,0,8.5,3.8,8.5,8.5s-3.8,8.5-8.5,8.5H63.5z M143,231.5c0-4.7,3.8-8.5,8.5-8.5h88c4.7,0,8.5,3.8,8.5,8.5s-3.8,8.5-8.5,8.5
			h-24.1c0,0,0,0,0,0h-63.8C146.8,240,143,236.2,143,231.5z M263,231.5c0-4.7,3.8-8.5,8.5-8.5h56c4.7,0,8.5,3.8,8.5,8.5
			s-3.8,8.5-8.5,8.5h-56C266.8,240,263,236.2,263,231.5z M351,231.5c0-4.7,3.8-8.5,8.5-8.5h32c4.7,0,8.5,3.8,8.5,8.5
			s-3.8,8.5-8.5,8.5h-32C354.8,240,351,236.2,351,231.5z M39,199.5v-16c0-17.3,8.2-33.3,22.9-47l36.3,36.3c1.5,1.5,3.4,2.2,5.3,2.2
			s3.8-0.7,5.3-2.2c2.9-2.9,2.9-7.7,0-10.6l-35.3-35.3c5-3.6,10.6-7,16.6-10.2l56.1,56.1c1.5,1.5,3.4,2.2,5.3,2.2s3.8-0.7,5.3-2.2
			c2.9-2.9,2.9-7.7,0-10.6l-52.4-52.4c6.1-2.6,12.7-5.1,19.5-7.3l70.3,70.3c1.5,1.5,3.4,2.2,5.3,2.2s3.8-0.7,5.3-2.2
			c2.9-2.9,2.9-7.7,0-10.6l-64.4-64.4c7.1-1.8,14.4-3.4,22-4.8l79.8,79.8c1.5,1.5,3.4,2.2,5.3,2.2c1.9,0,3.8-0.7,5.3-2.2
			c2.9-2.9,2.9-7.7,0-10.6l-72.1-72.1c7.9-1,16.1-1.8,24.5-2.3l85,85c1.5,1.5,3.4,2.2,5.3,2.2s3.8-0.7,5.3-2.2
			c2.9-2.9,2.9-7.7,0-10.6L225.6,87c1.9,0,3.9,0,5.9,0c7.3,0,14.4,0.2,21.4,0.5l85.3,85.3c1.5,1.5,3.4,2.2,5.3,2.2s3.8-0.7,5.3-2.2
			c2.9-2.9,2.9-7.7,0-10.6L276,89.4c11,1.2,21.6,2.9,31.7,4.9l78.5,78.5c1.5,1.5,3.4,2.2,5.3,2.2s3.8-0.7,5.3-2.2
			c2.9-2.9,2.9-7.7,0-10.6l-60.6-60.6c53.6,16.8,87.8,46.5,87.8,81.9v16c0,4.7-3.5,8.5-7.9,8.5H46.9C42.5,208,39,204.2,39,199.5z
			 M64.9,255h12.5c-13,11.9-25.2,20.5-30.7,24.1l-18.7-11.7C43,263.4,59.6,257.1,64.9,255z M391.5,376h-320C58,376,47,365,47,351.5
			c0-4.7,3.8-8.5,8.5-8.5h352c4.7,0,8.5,3.8,8.5,8.5C416,365,405,376,391.5,376z M423.5,328h-384c-9.1,0-16.5-7.4-16.5-16.5
			S30.4,295,39.5,295h4.2l13.2,8.2c8.9,5.6,20.6,5.1,29-1.2l9.3-7h13.1l5.8,5.8c2.1,2.1,5.2,2.8,7.9,1.7l20.1-7.5h61.3l20.4,14.5
			c4.2,3,9.1,4.5,13.9,4.5c6.1,0,12.2-2.4,16.9-7l12-12h24.7c0,0,0.1,0,0.1,0l29.9,11.2c10.1,3.8,21.2,0.2,27.2-8.8l1.6-2.4h18.4
			l29.5,12.7c6.3,2.7,13.6,2.1,19.3-1.8l13.6-9.1c5.4,2.8,9,8.4,9,14.7C440,320.6,432.6,328,423.5,328z"/>
	</g>
</g>
</svg>
