<svg height="511pt" viewBox="-1 0 511 511.99847" width="511pt" xmlns="http://www.w3.org/2000/svg"><path d="m475.6875 192.097656c-22.832031-13.007812-53.699219-14.222656-85.609375-3.582031-1.707031-3.980469-3.535156-7.921875-5.511719-11.816406-5.167968-10.191407-14.324218-17.417969-25.085937-20.265625 15.214843-22.1875 25.523437-47.585938 30.003906-74.226563.699219-4.167969-2.109375-8.109375-6.273437-8.808593-4.171876-.703126-8.109376 2.105468-8.808594 6.269531-4.613282 27.425781-15.949219 53.414062-32.824219 75.410156h-72.058594l20.917969-20.917969h42.175781c4.226563 0 7.648438-3.425781 7.648438-7.648437 0-4.222657-3.421875-7.644531-7.648438-7.644531h-26.886719l45.167969-45.167969c2.988281-2.988281 2.988281-7.828125 0-10.8125-2.984375-2.984375-7.824219-2.988281-10.8125 0l-43.378906 43.375 2.34375-26.929688c.367187-4.207031-2.746094-7.914062-6.953125-8.28125-4.214844-.367187-7.914062 2.746094-8.28125 6.957031l-3.917969 45.066407-32.003906 32.003906h-39.855469c2.558594-26.511719 12.914063-47.222656 33.730469-68.042969 35.667969-35.675781 84.386719-53.527344 134.480469-49.507812.335937 4.300781.515625 8.636718.527344 12.960937.011718 4.214844 3.433593 7.625 7.644531 7.625h.023437c4.222656-.015625 7.636719-3.449219 7.625-7.671875-.023437-6.953125-.433594-13.945312-1.222656-20.785156-.40625-3.523438-3.1875-6.308594-6.71875-6.714844-33.09375-3.835937-65.824219 1.148438-95.378906 13.9375-4.34375-11.761718-10.015625-22.992187-16.972656-33.460937-1.964844-2.957031-5.703126-4.175781-9.035157-2.9375-46.410156 17.25-81.800781 54.117187-97.09375 101.15625-6.289062 19.351562-7.941406 36.585937-5.070312 53.441406h-102.808594c-15.097656 0-28.679687 8.285156-35.441406 21.621094-14.484375 28.5625-21.824219 59.394531-21.824219 91.640625 0 64.0625 30.472656 124.105468 80.9375 162.171875h-72.566406c-4.226563 0-7.648438 3.421875-7.648438 7.644531 0 40.71875 33.125 73.84375 73.84375 73.84375h15.058594c4.222656 0 7.644531-3.425781 7.644531-7.648438 0-4.222656-3.421875-7.644531-7.644531-7.644531h-15.058594c-29.695312 0-54.296875-22.21875-58.054687-50.902343h372.871093c-1.652343 12.738281-7.421874 24.515624-16.660156 33.75-11.0625 11.0625-25.761718 17.152343-41.398437 17.152343h-211.21875c-4.222657 0-7.644531 3.421875-7.644531 7.644531 0 4.222657 3.421874 7.648438 7.644531 7.648438h211.21875c19.722656 0 38.261719-7.683594 52.214843-21.632812 13.945313-13.945313 21.628907-32.488282 21.628907-52.210938 0-2.027344-.808594-3.972656-2.238281-5.40625-1.4375-1.433594-3.378907-2.238281-5.410157-2.238281h-72.554687c3.726562-2.808594 7.347656-5.742188 10.871094-8.796875 59.582031-12.265625 105.128906-36 135.378906-70.582032 33.125-37.878906 38.074218-77.839843 38.074218-98.289062-.003906-26.65625-12.113281-48.230469-34.101562-60.746094zm-70.871094 50.824219c17.757813-6.460937 33.941406-7.335937 43.105469-2.117187 2.023437 1.15625 5.792969 3.3125 5.792969 12.039062 0 8.546875-1.597656 25.691406-12.292969 44.519531-10.527344 18.53125-27.136719 34.003907-49.46875 46.183594 9.480469-23.796875 14.4375-49.316406 14.4375-75.203125-.003906-8.582031-.539063-17.058594-1.574219-25.421875zm-224.628906-136.558594c13.203125-40.609375 42.964844-72.847656 82.148438-89.285156 5.074218 8.386719 9.277343 17.257813 12.574218 26.484375-15.953125 8.542969-30.777344 19.476562-43.957031 32.660156-23.957031 23.960938-35.652344 47.886719-38.277344 78.851563h-16.546875c-3.070312-15.191407-1.753906-30.832031 4.058594-48.710938zm-71.183594 324.148438c-57.539062-33.585938-93.210937-95.527344-93.210937-162.171875 0-29.820313 6.785156-58.328125 20.171875-84.722656 4.140625-8.171876 12.496094-13.25 21.804687-13.25h291.351563c9.304687 0 17.660156 5.078124 21.804687 13.25 13.386719 26.394531 20.171875 54.898437 20.171875 84.722656 0 66.648437-35.675781 128.589844-93.222656 162.171875zm351.199219-89.449219c-23.921875 27.347656-58.570313 47.457031-103.222656 59.953125 7.84375-9.070313 14.917969-18.820313 21.070312-29.183594 1.242188-2.089843 2.441407-4.203125 3.601563-6.335937 33.851562-14.4375 58.425781-34.808594 73.066406-60.582032 12.429688-21.886718 14.289062-42.015624 14.289062-52.070312 0-11.679688-4.542968-20.199219-13.507812-25.320312-16.605469-9.460938-38.917969-4.734376-53.175781.070312-1.710938-8.40625-3.960938-16.671875-6.742188-24.792969 27.527344-9.039062 53.644531-8.183593 72.539063 2.582031 17.007812 9.683594 26.371094 26.535157 26.371094 47.460938 0 18.304688-4.453126 54.105469-34.289063 88.21875zm0 0"/><path d="m121.703125 105.820312c-6.125 5.539063-13.753906 12.433594-13.753906 25.988282 0 4.222656 3.421875 7.648437 7.648437 7.648437 4.222656 0 7.644532-3.425781 7.644532-7.648437 0-6.460938 2.988281-9.46875 8.71875-14.648438 6.128906-5.539062 13.753906-12.433594 13.753906-25.988281s-7.625-20.453125-13.753906-25.992187c-5.730469-5.179688-8.71875-8.183594-8.71875-14.648438 0-6.460938 2.988281-9.464844 8.71875-14.644531 6.128906-5.539063 13.753906-12.433594 13.753906-25.988281 0-4.222657-3.421875-7.648438-7.644532-7.648438-4.222656 0-7.644531 3.425781-7.644531 7.648438 0 6.460937-2.992187 9.464843-8.71875 14.644531-6.128906 5.539062-13.757812 12.433593-13.757812 25.988281s7.628906 20.449219 13.757812 25.992188c5.726563 5.179687 8.71875 8.179687 8.71875 14.644531 0 6.464843-2.992187 9.46875-8.722656 14.652343zm0 0"/></svg>