<?xml version="1.0" encoding="iso-8859-1"?>
<!-- Generator: Adobe Illustrator 19.0.0, SVG Export Plug-In . SVG Version: 6.00 Build 0)  -->
<svg version="1.1" id="Capa_1" xmlns="http://www.w3.org/2000/svg" xmlns:xlink="http://www.w3.org/1999/xlink" x="0px" y="0px"
	 viewBox="0 0 511.999 511.999" style="enable-background:new 0 0 511.999 511.999;" xml:space="preserve">
<g>
	<g>
		<path d="M479.74,428.551h-72.42c-4.143,0-7.5,3.358-7.5,7.5c0,4.142,3.357,7.5,7.5,7.5h64.92v4.231l-109.206,20.739H144.126
			L34.92,447.782v-4.231h29.82c0.012,0,0.024,0.002,0.035,0.002c0.009,0,0.019-0.002,0.028-0.002h27.022
			c0.009,0,0.017,0.002,0.026,0.002c0.014,0,0.029-0.002,0.043-0.002h89.917c0.005,0,0.01,0.001,0.016,0.001
			c0.005,0,0.009-0.001,0.014-0.001h26.795c0.008,0,0.016,0.002,0.024,0.002s0.017-0.002,0.025-0.002h89.79
			c0.009,0,0.017,0.002,0.025,0.002s0.016-0.002,0.023-0.002h80.946c4.143,0,7.5-3.358,7.5-7.5c0-4.142-3.357-7.5-7.5-7.5h-48.376
			c8.957-5.692,17.316-12.358,24.831-19.868c10.847-10.852,19.752-23.126,26.558-36.396c9.484,3.863,19.526,5.824,29.937,5.824
			c43.925,0,79.66-35.74,79.66-79.67c0-43.925-35.735-79.66-79.66-79.66c-4.76,0-9.476,0.431-14.11,1.262v-4.291
			c0-9.6-7.81-17.41-17.409-17.41h-35.471c-4.143,0-7.5,3.358-7.5,7.5c0,4.142,3.357,7.5,7.5,7.5H380.9
			c1.328,0,2.409,1.081,2.409,2.41v12.75h-259.47v-12.75c0-1.329,1.081-2.41,2.41-2.41h191.32c4.143,0,7.5-3.358,7.5-7.5
			c0-4.142-3.357-7.5-7.5-7.5h-191.32c-9.6,0-17.41,7.81-17.41,17.41v90.58c0,11.312,1.323,22.527,3.901,33.42
			c-12.207-3.64-26.753-0.78-40.025,8.301c-3.419,2.339-4.295,7.006-1.956,10.425c2.34,3.418,7.008,4.293,10.426,1.955
			c8.698-5.951,17.826-8.287,25.374-6.775L79.241,394.53c-2.302,3.444-1.376,8.102,2.067,10.403c1.28,0.856,2.729,1.266,4.161,1.266
			c2.421,0,4.797-1.17,6.242-3.333l27.326-40.886c2.834,4.207,4.387,9.712,4.46,16.128c0,0.003,0,0.005,0,0.008
			c0,0.014,0.001,0.028,0.001,0.042c0.101,9.908-3.361,20.625-9.746,30.177c-3.64,5.447-7.944,10.118-12.818,13.902
			c-3.379,2.646-6.929,4.763-10.566,6.314H66.675c-0.271-0.162-0.541-0.325-0.81-0.507c-12.487-8.34-13.277-29.909-1.799-49.104
			c2.126-3.555,0.968-8.161-2.587-10.287c-3.553-2.124-8.16-0.968-10.286,2.588c-7.317,12.235-10.891,25.867-10.063,38.386
			c0.47,7.103,2.329,13.504,5.389,18.923H27.42c-4.143,0-7.5,3.358-7.5,7.5v17.94c0,3.603,2.562,6.696,6.101,7.368l110.29,20.945
			v22.196c0,4.142,3.357,7.5,7.5,7.5h219.528c4.143,0,7.5-3.358,7.5-7.5v-22.194l110.3-20.947c3.539-0.672,6.101-3.766,6.101-7.368
			v-17.94C487.24,431.909,483.882,428.551,479.74,428.551z M398.308,306.33v-35.484h0.001c4.346-2.231,9.152-3.415,14.11-3.415
			c17.099,0,31.01,13.911,31.01,31.01s-13.911,31.01-31.01,31.01c-5.449,0-10.694-1.415-15.353-4.083
			C397.884,319.106,398.308,312.751,398.308,306.33z M394.218,340.705c5.702,2.462,11.862,3.747,18.201,3.747
			c25.37,0,46.01-20.64,46.01-46.01s-20.64-46.01-46.01-46.01c-4.84,0-9.588,0.757-14.11,2.214v-18.567
			c0-0.026,0.004-0.051,0.004-0.077s-0.004-0.051-0.004-0.077v-0.589c4.604-1.028,9.33-1.555,14.111-1.555
			c35.653,0,64.66,29.006,64.66,64.66c0,35.659-29.007,64.67-64.66,64.67c-8.269,0-16.24-1.541-23.783-4.538
			C390.884,352.758,392.743,346.79,394.218,340.705z M123.839,243.502h259.47v23.086c0,0.008,0,0.017,0,0.025v39.718
			c0,34.654-13.493,67.237-37.991,91.745c-13.573,13.564-30.197,24.076-48.133,30.475h-87.201c-2.419-0.861-4.826-1.787-7.203-2.8
			c5.503-8.652,7.6-18.278,5.789-27.452c-0.002-0.012-0.003-0.023-0.005-0.035c-0.003-0.014-0.008-0.028-0.01-0.042
			c-2.391-11.935-10.824-21.755-23.752-27.653c-12.11-5.525-26.911-6.955-41.678-4.023c-1.343,0.267-2.674,0.572-3.994,0.907
			c-10.011-18.714-15.292-39.718-15.292-61.121V243.502z M126.225,416.669c6.943-10.388,11.133-22.037,12.069-33.325
			c2.516-0.848,5.104-1.559,7.755-2.087c19.083-3.788,37.483,1.954,44.82,12.878l-48.2,9.581c-4.063,0.808-6.702,4.755-5.895,8.818
			c0.71,3.569,3.843,6.039,7.349,6.039c0.484,0,0.977-0.047,1.47-0.146l48.23-9.588c-0.962,4.934-3.712,9.88-8.117,14.424
			c-0.012,0.012-0.023,0.025-0.034,0.037c-1.837,1.885-3.914,3.64-6.176,5.249h-63.061
			C120.03,425.004,123.309,421.033,126.225,416.669z M355.839,497.001H151.31v-13.48h204.529V497.001z"/>
	</g>
</g>
<g>
	<g>
		<g>
			<path d="M273.097,149.949c-0.136,0.086-0.247,0.155-0.327,0.206C272.845,150.107,272.955,150.038,273.097,149.949z"/>
			<path d="M272.77,150.154C272.57,150.28,272.595,150.264,272.77,150.154L272.77,150.154z"/>
			<path d="M289.335,81.868c10.1-9.6,15.917-22.903,15.917-37.183c0-17.775-8.998-34.048-24.07-43.532
				c-3.505-2.206-8.138-1.152-10.342,2.354c-2.206,3.506-1.152,8.136,2.354,10.342c10.682,6.721,17.059,18.248,17.059,30.835
				c0,12.587-6.377,24.114-17.059,30.835c-4.585,2.876-4.585,9.81,0,12.696c10.682,6.721,17.059,18.248,17.059,30.835
				c0.001,12.588-6.376,24.116-17.058,30.837c-0.039,0.024-0.064,0.04-0.098,0.062c0.032-0.02,0.063-0.039,0.098-0.061
				c-3.506,2.206-4.56,6.836-2.354,10.342c1.425,2.266,3.862,3.507,6.354,3.507c1.365,0,2.747-0.373,3.987-1.153
				c15.072-9.483,24.07-25.757,24.07-43.531C305.252,104.771,299.434,91.468,289.335,81.868z M277.107,147.425
				C277.284,147.314,277.306,147.3,277.107,147.425L277.107,147.425z M276.13,148.041c0.164-0.104,0.316-0.199,0.453-0.285
				C276.452,147.838,276.305,147.931,276.13,148.041z"/>
		</g>
	</g>
</g>
<g>
	<g>
		<path d="M333.964,75.521c-3.505-2.206-8.137-1.153-10.342,2.354c-2.206,3.505-1.152,8.136,2.354,10.342
			c10.681,6.721,17.058,18.249,17.058,30.836c0.001,12.585-6.376,24.113-17.057,30.834c-3.506,2.206-4.56,6.836-2.354,10.342
			c1.425,2.266,3.862,3.507,6.354,3.507c1.365,0,2.747-0.373,3.987-1.153c15.071-9.483,24.069-25.757,24.069-43.531
			S349.035,85.004,333.964,75.521z"/>
	</g>
</g>
<g>
	<g>
		<path d="M224.079,75.52c-3.505-2.206-8.138-1.152-10.342,2.354c-2.206,3.506-1.152,8.136,2.354,10.342
			c10.682,6.721,17.059,18.248,17.059,30.835c0.001,12.587-6.376,24.115-17.058,30.836c-3.506,2.206-4.56,6.836-2.354,10.342
			c1.425,2.266,3.862,3.507,6.354,3.507c1.365,0,2.747-0.373,3.987-1.153c15.072-9.483,24.07-25.757,24.07-43.531
			C248.149,101.277,239.151,85.004,224.079,75.52z"/>
	</g>
</g>
<g>
</g>
<g>
</g>
<g>
</g>
<g>
</g>
<g>
</g>
<g>
</g>
<g>
</g>
<g>
</g>
<g>
</g>
<g>
</g>
<g>
</g>
<g>
</g>
<g>
</g>
<g>
</g>
<g>
</g>
</svg>
