<svg id="icons" enable-background="new 0 0 64 64" height="512" viewBox="0 0 64 64" width="512" xmlns="http://www.w3.org/2000/svg"><path d="m57.5 31.501c-1.745 0-3.329.695-4.498 1.819v-.817c0-.552-.447-1-1-1h-18.002v-11.998c0-.024-.012-.044-.014-.068-.006-.082-.023-.161-.049-.24-.011-.033-.014-.067-.028-.099-.038-.087-.09-.169-.153-.244l-5.752-6.713v-3.638c0-1.105-.899-2.004-2.004-2.004-.004 0-.006.002-.01.002h-17.99c-1.104 0-2.002.898-2.002 2.002v3.631l-5.758 6.72c-.033.038-.045.085-.07.126-.037.059-.076.113-.101.179-.025.069-.032.139-.042.211-.006.047-.027.088-.027.135v36.995c0 .415.252.77.611.922.12.051.252.079.391.079h48.998.002c2.191-.003 3.971-1.774 3.992-3.961.001-.014.008-.025.008-.039 0-.553-.447-1-1-1h-1.026c.451-.597.782-1.286.93-2.048 6.191-.466 11.091-5.642 11.091-11.951v-.479c0-.007.004-.013.004-.02-.001-3.585-2.917-6.502-6.501-6.502zm-1.5 6.503c0-.002-.001-.004-.001-.007.003-.827.675-1.498 1.501-1.498.829 0 1.504.675 1.504 1.505v.498c0 3.521-2.614 6.436-6.002 6.925v-4.973c.161.033.327.051.498.051 1.379 0 2.5-1.122 2.5-2.501zm-28.002-6.501v-10.998h4.002v10.998zm-2.991 0c-.002 0-.003-.001-.005-.001-.553 0-1 .448-1 1v16.974c0 .007-.004.013-.004.02 0 1.133.393 2.166 1.03 3.006h-1.024c-.553 0-1 .447-1 1 0 .007.004.013.004.02.004.725.213 1.396.555 1.98h-1.561v-34.997h3.996v10.998zm.993-23.002h.002s.001 0 .002 0v.002 3.002h-18.006v-2.994c0-.004.002-.007.002-.01zm-18.541 5.004h17.365l-4.285 5h-17.365zm-5.459 7h18.002v34.996h-18.002zm25.008-2c-.004 0-.006-.002-.01-.002s-.006.002-.01.002h-3.814l3.824-4.463 3.824 4.463zm22.99 36.996h-22.992c-.736 0-1.375-.405-1.722-1h26.436c-.347.595-.986 1-1.722 1zm-20.978-3c-.007 0-.013-.004-.02-.004-1.65 0-2.992-1.339-3-2.987 0-.005.002-.009.002-.013v-15.994h25v4.462c0 .014-.002.026-.002.039 0 .007.002.013.002.02v8.474c0 .004-.002.007-.002.01s.002.006.002.01v2.973c0 .004-.002.007-.002.01 0 .002.001.004.001.007-.003 1.652-1.348 2.995-3.001 2.995h-18.98zm23.982-4.053v-1.001c4.494-.5 8.002-4.319 8.002-8.945v-.498c0-1.933-1.572-3.505-3.504-3.505-1.931 0-3.502 1.572-3.502 3.505 0 .002.001.003.001.005-.003.274-.226.496-.499.496-.271 0-.492-.22-.498-.491v-.029c.011-2.475 2.023-4.483 4.498-4.483 2.477 0 4.491 2.013 4.499 4.49 0 .005-.003.008-.003.013v.498c0 5.174-3.951 9.441-8.994 9.945z"/><path d="m11.002 28.509c-4.411 0-8 3.59-8 8.003 0 4.412 3.589 8.001 8 8.001s8-3.589 8-8.001c0-4.413-3.589-8.003-8-8.003zm0 14.004c-3.309 0-6-2.692-6-6.001 0-3.31 2.691-6.003 6-6.003s6 2.693 6 6.003c0 3.308-2.691 6.001-6 6.001z"/><path d="m11.69 32.784c-.387-.366-.99-.367-1.377 0-.635.603-2.708 2.695-2.708 4.321 0 1.873 1.523 3.396 3.396 3.396 1.872 0 3.395-1.523 3.395-3.396 0-1.626-2.071-3.718-2.706-4.321zm-.688 5.717c-.771 0-1.396-.626-1.396-1.396 0-.363.608-1.28 1.396-2.159.786.879 1.395 1.795 1.395 2.159-.001.77-.626 1.396-1.395 1.396z"/><path d="m38.701 37.522c-.004-.001-.008-.001-.011-.001-.064-.003-.124-.02-.188-.02-.061 0-.117.016-.177.018-.005.001-.009.001-.014.002-2.391.103-4.308 2.063-4.308 4.479v2.008c0 2.479 2.016 4.496 4.495 4.498h.002.001c2.48 0 4.498-2.018 4.498-4.498v-2.008c.001-2.412-1.912-4.371-4.298-4.478zm-2.697 6.486v-2.008c0-.757.346-1.428.879-1.887-.138.98-.029 2.195.782 3.438.748 1.145.505 2.256.258 2.881-1.098-.263-1.919-1.247-1.919-2.424zm4.117 1.887c.138-.98.029-2.195-.782-3.438-.746-1.144-.505-2.254-.258-2.881 1.098.264 1.919 1.247 1.919 2.424v2.008c0 .757-.346 1.428-.879 1.887z"/></svg>