<?xml version="1.0" encoding="iso-8859-1"?>
<!-- Generator: Adobe Illustrator 19.0.0, SVG Export Plug-In . SVG Version: 6.00 Build 0)  -->
<svg version="1.1" id="Layer_1" xmlns="http://www.w3.org/2000/svg" xmlns:xlink="http://www.w3.org/1999/xlink" x="0px" y="0px"
	 viewBox="0 0 462.832 462.832" style="enable-background:new 0 0 462.832 462.832;" xml:space="preserve">
<g>
	<g>
		<path d="M344.285,151.987c2.376-7.487,2.842-14.881,1.373-22.141c-3.616-17.865-16.314-28.527-33.059-36.16
			c-0.294-0.153-0.595-0.291-0.905-0.403c-8.629-3.846-18.287-6.924-28.313-9.782c1.245-3.835,1.926-7.923,1.926-12.168
			c0-15.363-8.822-28.696-21.661-35.225C276.17,17.306,290.655,15,296.956,15c9.185,0,14.96,1.966,18.301,3.739
			c2.599,1.379,5.748,1.157,8.091-0.623c4.361-3.315,3.799-10.016-1.037-12.589C316.931,2.663,308.755,0,296.956,0
			c-14.379,0-27.865,6.616-39,19.132c-2.578,2.898-5.946,7.169-9.337,12.813c-0.93-0.066-1.866-0.111-2.812-0.111
			c-15.373,0-28.714,8.833-35.238,21.686c-2.382-2.626-4.42-5.76-5.869-9.141c-0.838-1.956-2.467-3.463-4.482-4.147
			c-2.016-0.684-4.226-0.48-6.081,0.561c-45.225,25.37-50.601,64.419-50.843,79.767c-0.314,0.127-0.642,0.252-0.943,0.38
			c-17.027,7.297-26.847,21.184-28.396,40.158c-0.576,7.052,0.135,13.531,0.975,18.205c-15.692,5.879-25.506,17.714-26.81,32.924
			c-1.407,16.419,7.638,32.219,22.395,40.012c-0.134,1.013-0.21,2.045-0.21,3.094c0,12.958,10.542,23.5,23.5,23.5h0.304
			c3.196,3.666,4.995,8.383,4.995,13.299c0,47.487,36.684,86.563,83.201,90.388v24.812c0,22.332-18.168,40.5-40.5,40.5
			c-4.142,0-7.5,3.358-7.5,7.5c0,4.142,3.358,7.5,7.5,7.5h96c4.142,0,7.5-3.358,7.5-7.5c0-4.142-3.358-7.5-7.5-7.5
			c-22.332,0-40.5-18.168-40.5-40.5V382.52c46.517-3.826,83.2-42.901,83.2-90.388c0-4.916,1.799-9.634,4.995-13.299h0.305
			c12.958,0,23.5-10.542,23.5-23.5c0-2.06-0.269-4.057-0.769-5.962c5.31-3.863,25.17-19.872,26.271-43.916
			C375.653,187.018,365.38,169.032,344.285,151.987z M245.807,46.834c13.509,0,24.5,10.991,24.5,24.5
			c0,13.509-10.991,24.5-24.5,24.5c-13.509,0-24.5-10.991-24.5-24.5C221.307,57.825,232.297,46.834,245.807,46.834z
			 M154.106,292.133c0-4.611-0.915-9.12-2.62-13.299h30.821v16.5c0,22.511,4.442,43.792,12.507,59.922
			c0.958,1.916,1.959,3.733,2.996,5.461C172.02,348.637,154.106,322.444,154.106,292.133z M239.917,447.834h-20.22
			c3.957-3.704,7.368-7.978,10.11-12.692C232.548,439.856,235.96,444.13,239.917,447.834z M229.807,367.834
			c-7.584,0-15.448-7.029-21.576-19.286c-7.044-14.089-10.924-32.987-10.924-53.214v-16.5h65v16.5
			C262.307,338.059,245.179,367.834,229.807,367.834z M305.507,292.133c0,30.311-17.914,56.503-43.704,68.584
			c1.037-1.728,2.038-3.545,2.996-5.461c8.065-16.131,12.507-37.412,12.507-59.922v-16.5h30.82
			C306.422,283.014,305.507,287.522,305.507,292.133z M325.807,263.834h-192c-4.687,0-8.5-3.813-8.5-8.5s3.813-8.5,8.5-8.5h192
			c4.687,0,8.5,3.813,8.5,8.5C334.307,260.021,330.494,263.834,325.807,263.834z M359.829,204.685
			c-0.713,16.61-15.164,28.803-19.566,32.142c-3.99-3.124-9.007-4.993-14.456-4.993h-74.516
			c14.185-7.071,31.16-16.431,46.825-27.421c3.391-2.379,4.211-7.056,1.832-10.447c-2.379-3.392-7.057-4.21-10.447-1.832
			c-30.413,21.337-67.214,36.751-74.476,39.701h-81.218c-6.494,0-12.381,2.649-16.639,6.922
			c-9.166-5.071-14.965-15.155-14.101-25.248c0.959-11.193,9.783-19.268,24.21-22.153c12.223-2.445,44.545-9.25,80.6-19.617
			c3.98-1.145,6.28-5.3,5.135-9.281c-1.145-3.98-5.299-6.283-9.281-5.135c-31.278,8.994-59.696,15.264-74.259,18.278
			c-1.783-10.718-2.265-31.85,18.788-40.872c8.569-3.672,26.101-6.865,44.662-10.245l6.236-1.138
			c4.074-0.748,6.771-4.656,6.023-8.73c-0.748-4.074-4.659-6.773-8.73-6.023l-6.216,1.135c-11.833,2.155-22.71,4.139-31.74,6.281
			c1.174-14.786,7.834-39.389,36.474-58.183c3.118,4.733,7.02,8.818,11.377,11.923c-0.021,0.527-0.04,1.055-0.04,1.588
			c0,21.78,17.72,39.5,39.5,39.5c12.008,0,22.774-5.393,30.025-13.876c10.22,2.848,19.831,5.739,28.105,9.256
			c0.66,1.465,0.503,2.567,0.192,3.542c-1.547,4.849-11.341,18.229-68.727,37.703c-3.922,1.331-6.023,5.59-4.692,9.512
			c1.06,3.124,3.976,5.092,7.102,5.092c0.799,0,1.612-0.129,2.411-0.4c30.372-10.307,71.521-26.428,78.197-47.347
			c0.008-0.026,0.014-0.052,0.022-0.078c6.478,4.846,10.941,10.811,12.515,18.585c2.292,11.324-2.929,23.906-15.516,37.396
			c-2.826,3.029-2.662,7.774,0.367,10.6c1.446,1.349,3.282,2.017,5.115,2.017c2.006,0,4.008-0.8,5.485-2.383
			c4.515-4.838,8.272-9.66,11.268-14.455C352.917,179.056,360.37,192.057,359.829,204.685z"/>
	</g>
</g>
<g>
</g>
<g>
</g>
<g>
</g>
<g>
</g>
<g>
</g>
<g>
</g>
<g>
</g>
<g>
</g>
<g>
</g>
<g>
</g>
<g>
</g>
<g>
</g>
<g>
</g>
<g>
</g>
<g>
</g>
</svg>
