<?xml version="1.0" encoding="iso-8859-1"?>
<!-- Generator: Adobe Illustrator 19.0.0, SVG Export Plug-In . SVG Version: 6.00 Build 0)  -->
<svg version="1.1" id="Capa_1" xmlns="http://www.w3.org/2000/svg" xmlns:xlink="http://www.w3.org/1999/xlink" x="0px" y="0px"
	 viewBox="0 0 512 512" style="enable-background:new 0 0 512 512;" xml:space="preserve">
<g>
	<g>
		<path d="M489.882,381.716c-2.237,0-4.409-0.418-6.458-1.178c6.503-5.894,9.769-14.124,8.521-22.491
			c-0.185-1.175-0.423-2.262-0.696-3.283c11.561-0.722,20.751-10.535,20.751-22.5c0-12.433-9.922-22.547-22.117-22.547
			c-2.234,0-4.404-0.417-6.451-1.176c0.47-0.426,0.93-0.86,1.369-1.313c2.883-2.974,2.81-7.722-0.164-10.605
			c-2.975-2.883-7.723-2.81-10.605,0.164c-4.953,5.109-16.334,8.263-26.131-0.727l-9.778-8.972c-2.867-2.632-7.272-2.631-10.142,0
			c-1.246,1.144-2.437,2.267-3.591,3.356c-8.087,7.631-12.343,11.3-20.634,11.3c-8.285-0.006-12.546-3.677-20.644-11.313
			c-1.15-1.084-2.336-2.202-3.58-3.343c-2.867-2.632-7.273-2.632-10.141,0c-1.248,1.145-2.438,2.268-3.594,3.358
			c-8.086,7.63-12.341,11.298-20.632,11.298c-8.285-0.006-12.546-3.677-20.644-11.313c-1.15-1.084-2.336-2.202-3.58-3.343
			c-2.867-2.632-7.273-2.631-10.141,0c-1.247,1.145-2.438,2.268-3.593,3.357c-8.087,7.631-12.343,11.299-20.633,11.299
			c-9.184-0.006-14.505-4.518-23.882-13.162l-1.624-1.495c-2.867-2.632-7.273-2.632-10.141,0l-1.623,1.494
			c-9.378,8.645-14.699,13.156-23.878,13.163c-8.295,0-12.55-3.668-20.638-11.299c-1.154-1.089-2.345-2.212-3.592-3.357
			c-2.868-2.632-7.273-2.632-10.142,0c-1.243,1.141-2.43,2.26-3.58,3.344c-8.098,7.636-12.358,11.307-20.639,11.313
			c-8.295,0-12.55-3.668-20.636-11.298c-1.155-1.09-2.346-2.213-3.593-3.358c-2.868-2.631-7.273-2.631-10.141,0
			c-1.244,1.142-2.431,2.26-3.582,3.345c-8.098,7.635-12.357,11.306-20.638,11.312c-8.295,0-12.55-3.668-20.638-11.299
			c-1.154-1.089-2.345-2.212-3.592-3.357c-2.869-2.631-7.273-2.631-10.142,0l-9.779,8.973c-7.854,7.208-16.622,6.608-22.205,3.643
			c-3.724-1.978-7.794-6.145-7.023-11.318c0.651-4.094,2.13-5.67,4.176-7.851c0.032-0.034,0.063-0.067,0.094-0.101
			c10.464-2.97,20.056-8.667,27.933-16.773c3.615-3.722,8.415-5.771,13.518-5.771c5.103,0,9.905,2.05,13.522,5.773
			c11.996,12.346,27.959,19.146,44.949,19.146c16.989,0,32.954-6.8,44.953-19.148c3.614-3.721,8.414-5.771,13.516-5.771
			c5.104,0,9.906,2.05,13.522,5.773c11.996,12.346,27.959,19.146,44.95,19.146c16.989,0,32.953-6.8,44.952-19.148
			c3.614-3.721,8.415-5.771,13.518-5.771c5.104,0,9.905,2.05,13.522,5.773c11.996,12.346,27.96,19.146,44.949,19.146
			s32.953-6.8,44.952-19.148c3.614-3.722,8.415-5.771,13.518-5.771c5.104,0,9.904,2.05,13.521,5.773
			c11.996,12.346,27.96,19.146,44.95,19.146c12.195,0,22.117-10.115,22.117-22.547s-9.922-22.547-22.117-22.547
			c-2.237,0-4.409-0.418-6.458-1.178c6.503-5.894,9.769-14.124,8.521-22.491c-0.246-1.559-0.581-2.971-0.976-4.264
			c11.692-0.58,21.031-10.458,21.031-22.519c0-12.433-9.922-22.547-22.117-22.547c-5.094,0-9.895-2.054-13.52-5.785
			c-11.979-12.331-27.944-19.121-44.954-19.121c-17.009,0-32.971,6.791-44.946,19.119c-3.626,3.731-8.428,5.786-13.521,5.786
			c-5.093,0-9.895-2.054-13.52-5.785c-8.022-8.258-17.837-14.015-28.551-16.928c2.565-10.92,1.925-22.392-1.974-33.078
			c-0.759-2.079-2.396-3.717-4.476-4.476c-21.061-7.682-44.902-2.415-60.742,13.424c-0.729,0.73-1.479,1.528-2.287,2.435
			c-10.389,11.647-15.488,26.751-14.531,42.002c-1.587-0.895-3.063-2.023-4.381-3.379c-10.655-10.968-24.467-17.539-39.36-18.86
			c-5.865-11.616-7.164-25.309-3.556-37.865c14.309-4.122,29.943-1.898,42.475,6.181c1.302,0.839,2.583,1.75,3.808,2.707
			c3.263,2.549,7.977,1.97,10.527-1.294c2.55-3.264,1.971-7.978-1.294-10.527c-1.58-1.234-3.232-2.409-4.913-3.493
			c-17.45-11.249-39.552-13.703-59.121-6.564c-2.079,0.759-3.717,2.396-4.476,4.476c-5.633,15.442-5.4,32.053,0.408,47.025
			c-12.987,2.21-24.94,8.475-34.4,18.214c-3.625,3.731-8.427,5.786-13.521,5.786s-9.895-2.054-13.519-5.785
			c-11.979-12.33-27.943-19.121-44.953-19.121c-17.009,0-32.972,6.791-44.948,19.119c-3.625,3.731-8.427,5.786-13.521,5.786
			C9.922,164.716,0,174.831,0,187.263s9.922,22.547,22.118,22.547c16.99,0,32.954-6.8,44.952-19.148
			c3.615-3.721,8.415-5.771,13.518-5.771c5.103,0,9.905,2.05,13.522,5.773c11.996,12.347,27.959,19.146,44.949,19.146
			c16.989,0,32.954-6.8,44.953-19.148c3.614-3.721,8.414-5.771,13.516-5.771c5.104,0,9.906,2.05,13.522,5.773
			c11.996,12.346,27.959,19.146,44.95,19.146c16.989,0,32.953-6.8,44.952-19.148c3.614-3.721,8.415-5.771,13.518-5.771
			c5.104,0,9.905,2.05,13.522,5.773c11.996,12.347,27.96,19.146,44.949,19.146s32.953-6.8,44.952-19.148
			c3.614-3.722,8.415-5.771,13.518-5.771c5.104,0,9.904,2.05,13.521,5.773c7.58,7.802,16.747,13.381,26.753,16.437
			c0.155,0.209,0.322,0.413,0.502,0.609c0.25,0.273,0.508,0.547,0.77,0.826c2.047,2.181,3.526,3.757,4.162,7.786
			c0.781,5.237-3.29,9.404-7.014,11.381c-5.583,2.965-14.35,3.567-22.205-3.644l-9.778-8.972c-2.867-2.632-7.272-2.631-10.142,0
			c-1.246,1.144-2.437,2.267-3.591,3.356c-8.087,7.631-12.343,11.3-20.634,11.3c-8.285-0.006-12.545-3.677-20.644-11.313
			c-1.15-1.084-2.337-2.202-3.58-3.343c-2.867-2.632-7.273-2.632-10.141,0c-1.248,1.145-2.438,2.268-3.594,3.358
			c-8.086,7.63-12.341,11.298-20.632,11.298c-8.285-0.006-12.545-3.677-20.644-11.313c-1.15-1.084-2.337-2.202-3.58-3.343
			c-2.867-2.632-7.273-2.631-10.141,0c-1.248,1.145-2.438,2.268-3.593,3.357c-8.087,7.631-12.343,11.299-20.633,11.299
			c-9.184-0.006-14.505-4.518-23.882-13.162l-1.624-1.495c-2.867-2.632-7.273-2.632-10.141,0l-1.623,1.494
			c-9.378,8.645-14.7,13.156-23.878,13.163c-8.295,0-12.55-3.668-20.638-11.299c-1.154-1.089-2.345-2.212-3.592-3.357
			c-2.868-2.632-7.273-2.632-10.142,0c-1.243,1.141-2.43,2.26-3.58,3.344c-8.098,7.636-12.358,11.307-20.639,11.313
			c-8.295,0-12.55-3.668-20.636-11.298c-1.155-1.09-2.346-2.213-3.593-3.358c-2.868-2.631-7.273-2.631-10.141,0
			c-1.244,1.142-2.431,2.26-3.582,3.345c-8.098,7.635-12.357,11.306-20.638,11.312c-8.295,0-12.55-3.668-20.638-11.299
			c-1.154-1.089-2.345-2.212-3.592-3.357c-2.869-2.631-7.273-2.631-10.142,0l-9.779,8.973c-5.563,5.105-11.138,5.916-14.832,5.697
			c-4.658-0.276-9.088-2.36-11.851-5.576c-2.7-3.141-7.434-3.499-10.577-0.8c-3.142,2.7-3.5,7.435-0.8,10.577
			c0.786,0.914,1.634,1.772,2.526,2.583c-2.046,0.758-4.215,1.175-6.448,1.175C9.922,237.716,0,247.831,0,260.263
			c0,11.966,9.193,21.781,20.756,22.5c-0.279,1.039-0.522,2.146-0.711,3.345c-1.241,8.318,2.027,16.538,8.53,22.429
			c-2.049,0.76-4.221,1.178-6.457,1.178C9.922,309.716,0,319.831,0,332.263s9.922,22.547,22.118,22.547
			c16.99,0,32.954-6.8,44.952-19.148c3.615-3.722,8.415-5.771,13.518-5.771c5.103,0,9.905,2.05,13.522,5.773
			c11.996,12.346,27.959,19.146,44.949,19.146c16.989,0,32.954-6.8,44.953-19.148c3.614-3.721,8.414-5.771,13.516-5.771
			c5.104,0,9.906,2.05,13.522,5.773c11.996,12.346,27.959,19.146,44.95,19.146c16.989,0,32.953-6.8,44.952-19.148
			c3.614-3.721,8.415-5.771,13.518-5.771c5.104,0,9.905,2.05,13.522,5.773c11.996,12.346,27.96,19.146,44.949,19.146
			s32.953-6.8,44.952-19.148c3.614-3.722,8.415-5.771,13.518-5.771c5.104,0,9.904,2.05,13.521,5.773
			c7.875,8.105,17.467,13.802,27.931,16.771c0.032,0.034,0.062,0.067,0.094,0.101c2.047,2.181,3.526,3.757,4.162,7.786
			c0.781,5.237-3.29,9.404-7.014,11.381c-5.583,2.965-14.35,3.567-22.205-3.644l-9.778-8.972c-2.867-2.632-7.272-2.631-10.142,0
			c-1.246,1.144-2.437,2.267-3.591,3.356c-8.087,7.631-12.343,11.3-20.634,11.3c-8.285-0.006-12.546-3.677-20.644-11.313
			c-1.15-1.084-2.337-2.202-3.58-3.343c-2.867-2.632-7.273-2.632-10.141,0c-1.248,1.145-2.438,2.268-3.594,3.358
			c-8.086,7.63-12.341,11.298-20.632,11.298c-8.285-0.006-12.545-3.677-20.644-11.313c-1.15-1.084-2.337-2.202-3.58-3.343
			c-2.867-2.632-7.273-2.631-10.141,0c-1.248,1.145-2.438,2.268-3.593,3.357c-8.087,7.631-12.343,11.299-20.633,11.299
			c-9.184-0.006-14.505-4.518-23.882-13.162l-1.624-1.495c-2.867-2.632-7.273-2.632-10.141,0l-1.623,1.494
			c-9.378,8.645-14.699,13.156-23.878,13.163c-8.295,0-12.55-3.668-20.638-11.299c-1.154-1.089-2.345-2.212-3.592-3.357
			c-2.868-2.632-7.272-2.632-10.142,0c-1.243,1.141-2.43,2.26-3.58,3.344c-8.098,7.636-12.358,11.307-20.639,11.313
			c-8.295,0-12.55-3.668-20.636-11.298c-1.155-1.09-2.346-2.213-3.593-3.358c-2.868-2.631-7.273-2.631-10.141,0
			c-1.244,1.142-2.431,2.26-3.582,3.345c-8.098,7.635-12.357,11.306-20.638,11.312c-8.295,0-12.55-3.668-20.638-11.299
			c-1.154-1.089-2.345-2.212-3.592-3.357c-2.869-2.631-7.273-2.631-10.142,0l-9.779,8.973c-9.913,9.099-20.718,5.75-25.562,1.279
			c-3.043-2.81-7.789-2.62-10.598,0.424c-2.81,3.043-2.62,7.789,0.424,10.598c0.066,0.061,0.136,0.118,0.203,0.179
			c-2.046,0.758-4.215,1.175-6.448,1.175C9.922,381.716,0,391.831,0,404.263s9.922,22.547,22.118,22.547
			c16.99,0,32.954-6.8,44.952-19.148c3.615-3.722,8.415-5.771,13.518-5.771c5.103,0,9.905,2.05,13.522,5.773
			c11.996,12.346,27.959,19.146,44.949,19.146c16.989,0,32.954-6.8,44.953-19.148c3.614-3.721,8.414-5.771,13.516-5.771
			c5.104,0,9.906,2.05,13.522,5.773c11.996,12.346,27.959,19.146,44.95,19.146c16.989,0,32.953-6.8,44.952-19.148
			c3.614-3.721,8.415-5.771,13.518-5.771c5.104,0,9.905,2.05,13.522,5.773c11.996,12.346,27.96,19.146,44.949,19.146
			s32.953-6.8,44.952-19.148c3.614-3.722,8.415-5.771,13.518-5.771c5.104,0,9.904,2.05,13.521,5.773
			c11.996,12.346,27.96,19.146,44.95,19.146c12.195,0,22.117-10.115,22.117-22.547S502.077,381.716,489.882,381.716z
			 M272.589,130.29c0.618-0.693,1.173-1.285,1.698-1.81c10.886-10.887,26.88-15.032,41.602-11.018
			c2.012,7.346,2.031,15.059,0.073,22.386c-0.498-0.012-0.994-0.037-1.493-0.037c-17.009,0-32.971,6.791-44.946,19.119
			c-2.138,2.2-4.692,3.8-7.467,4.756C260.646,151.621,264.378,139.496,272.589,130.29z M455.693,180.217
			c-6.466-6.66-15.089-10.326-24.282-10.325c-9.192,0-17.813,3.665-24.276,10.319c-9.148,9.415-21.292,14.6-34.193,14.6
			s-25.044-5.185-34.19-14.599c-6.466-6.656-15.09-10.321-24.282-10.32c-9.191,0-17.813,3.666-24.275,10.319
			c-9.148,9.415-21.292,14.6-34.193,14.6c-12.902,0-25.044-5.185-34.191-14.599c-6.466-6.656-15.089-10.321-24.282-10.32
			c-9.191,0-17.813,3.666-24.274,10.319c-9.149,9.415-21.292,14.6-34.194,14.6c-12.902,0-25.044-5.185-34.191-14.599
			c-6.465-6.655-15.088-10.321-24.281-10.32c-9.191,0-17.813,3.665-24.275,10.319c-9.148,9.415-21.292,14.6-34.193,14.6
			c-3.925,0-7.118-3.386-7.118-7.547c0-4.161,3.193-7.547,7.118-7.547c9.182,0,17.805-3.67,24.28-10.333
			c9.127-9.396,21.27-14.571,34.189-14.572c12.921,0,25.065,5.175,34.194,14.573c6.473,6.663,15.095,10.333,24.277,10.333
			s17.805-3.67,24.28-10.334c9.127-9.396,21.269-14.571,34.189-14.571c12.921,0,25.065,5.175,34.194,14.573
			c6.473,6.663,15.095,10.333,24.278,10.333c9.182,0,17.805-3.669,24.28-10.334c9.127-9.396,21.269-14.571,34.188-14.571
			c12.922,0,25.065,5.175,34.196,14.573c6.473,6.663,15.095,10.333,24.277,10.333s17.805-3.669,24.28-10.334
			c9.127-9.396,21.269-14.571,34.188-14.571c12.922,0,25.065,5.175,34.196,14.573c6.473,6.663,15.095,10.333,24.277,10.333
			c3.925,0,7.117,3.386,7.117,7.547s-3.192,7.547-7.117,7.547C476.982,194.815,464.839,189.63,455.693,180.217z M22.122,267.81
			c-3.929,0.001-7.122-3.385-7.122-7.547s3.193-7.547,7.118-7.547c8.281,0,16.1-2.993,22.305-8.466
			c1.301,0.234,2.62,0.402,3.957,0.481c0.651,0.039,1.302,0.058,1.952,0.058c8.64,0,17.063-3.395,23.909-9.677l4.655-4.271
			c7.831,7.338,15.65,13.903,29.358,13.903c13.65-0.01,21.467-6.54,29.283-13.855c7.813,7.319,15.628,13.855,29.307,13.855
			c13.649-0.01,21.467-6.54,29.283-13.855c7.814,7.319,15.629,13.855,29.307,13.855c13.584-0.009,22.198-6.428,30.566-13.958
			c8.368,7.529,16.982,13.948,30.571,13.958c13.673,0,21.488-6.536,29.302-13.855c7.816,7.315,15.635,13.845,29.288,13.855
			c13.674,0,21.488-6.536,29.303-13.855c7.815,7.315,15.634,13.845,29.287,13.855c13.704,0,21.522-6.564,29.354-13.903l4.654,4.271
			c8.517,7.817,19.477,11.007,29.824,9.142c6.203,5.471,14.021,8.462,22.3,8.462c3.925,0,7.117,3.386,7.117,7.547
			s-3.192,7.547-7.117,7.547c-12.902,0-25.045-5.185-34.191-14.598c-6.465-6.656-15.088-10.321-24.28-10.321
			c-9.192,0-17.813,3.665-24.276,10.319c-9.148,9.415-21.292,14.6-34.193,14.6s-25.044-5.185-34.19-14.599
			c-6.466-6.656-15.09-10.321-24.282-10.32c-9.191,0-17.813,3.666-24.275,10.319c-9.148,9.415-21.292,14.6-34.193,14.6
			c-12.902,0-25.044-5.185-34.191-14.599c-6.466-6.656-15.089-10.321-24.282-10.32c-9.191,0-17.813,3.666-24.274,10.319
			c-9.149,9.415-21.292,14.6-34.194,14.6c-12.902,0-25.044-5.185-34.191-14.599c-6.465-6.655-15.088-10.321-24.281-10.32
			c-9.191,0-17.813,3.666-24.275,10.319C47.167,262.625,35.023,267.81,22.122,267.81z M455.692,325.212
			c-6.465-6.656-15.088-10.321-24.28-10.321c-9.192,0-17.813,3.665-24.276,10.319c-9.148,9.415-21.292,14.6-34.193,14.6
			s-25.044-5.185-34.19-14.599c-6.466-6.656-15.09-10.321-24.282-10.32c-9.191,0-17.813,3.666-24.275,10.319
			c-9.148,9.415-21.292,14.6-34.193,14.6c-12.902,0-25.044-5.185-34.191-14.599c-6.466-6.656-15.089-10.321-24.282-10.32
			c-9.191,0-17.813,3.666-24.274,10.319c-9.149,9.415-21.292,14.6-34.194,14.6c-12.902,0-25.044-5.185-34.191-14.599
			c-6.465-6.655-15.088-10.321-24.281-10.32c-9.191,0-17.813,3.666-24.275,10.319c-9.148,9.415-21.292,14.6-34.193,14.6
			c-3.925,0-7.118-3.386-7.118-7.547s3.193-7.547,7.118-7.547c8.274,0,16.087-2.988,22.29-8.452c1.922,0.347,3.865,0.521,5.81,0.521
			c8.523,0,17.082-3.306,24.019-9.673l4.655-4.271c7.831,7.338,15.65,13.903,29.358,13.903c13.65-0.01,21.467-6.54,29.283-13.855
			c7.813,7.319,15.628,13.855,29.307,13.855c13.649-0.01,21.467-6.54,29.283-13.855c7.814,7.319,15.629,13.855,29.307,13.855
			c13.584-0.009,22.198-6.428,30.566-13.958c8.368,7.529,16.982,13.948,30.571,13.958c13.673,0,21.488-6.536,29.302-13.855
			c7.816,7.315,15.634,13.845,29.288,13.855c13.674,0,21.488-6.536,29.303-13.855c7.815,7.315,15.633,13.845,29.287,13.855
			c13.704,0,21.522-6.564,29.354-13.903l4.654,4.271c9.218,8.459,20.157,10.871,29.808,9.128c6.206,5.479,14.03,8.476,22.316,8.476
			c3.925,0,7.117,3.386,7.117,7.547s-3.192,7.547-7.117,7.547C476.981,339.81,464.838,334.625,455.692,325.212z M489.883,411.81
			c-12.902,0-25.045-5.185-34.191-14.598c-6.465-6.656-15.088-10.321-24.28-10.321c-9.192,0-17.813,3.665-24.276,10.319
			c-9.148,9.415-21.292,14.6-34.193,14.6s-25.044-5.185-34.19-14.599c-6.466-6.656-15.09-10.321-24.282-10.32
			c-9.191,0-17.813,3.666-24.275,10.319c-9.148,9.415-21.292,14.6-34.193,14.6c-12.902,0-25.044-5.185-34.191-14.599
			c-6.466-6.656-15.089-10.321-24.282-10.32c-9.191,0-17.813,3.666-24.274,10.319c-9.149,9.415-21.292,14.6-34.194,14.6
			c-12.902,0-25.044-5.185-34.191-14.599c-6.465-6.655-15.088-10.321-24.281-10.32c-9.191,0-17.813,3.666-24.275,10.319
			c-9.148,9.415-21.292,14.6-34.193,14.6c-3.925,0-7.118-3.386-7.118-7.547s3.193-7.547,7.118-7.547
			c8.294,0,16.126-3.003,22.336-8.494c9.551,1.73,20.467-0.556,29.787-9.11l4.655-4.271c7.831,7.338,15.65,13.903,29.358,13.903
			c13.65-0.01,21.467-6.54,29.283-13.855c7.813,7.319,15.628,13.855,29.307,13.855c13.649-0.01,21.467-6.54,29.283-13.855
			c7.814,7.319,15.629,13.855,29.307,13.855c13.584-0.009,22.198-6.428,30.566-13.958c8.368,7.529,16.982,13.948,30.571,13.958
			c13.673,0,21.488-6.536,29.302-13.855c7.816,7.315,15.635,13.845,29.288,13.855c13.674,0,21.488-6.536,29.303-13.855
			c7.815,7.315,15.634,13.845,29.287,13.855c13.704,0,21.522-6.564,29.354-13.903l4.654,4.271
			c6.938,6.367,15.496,9.673,24.023,9.673c1.945,0,3.889-0.175,5.811-0.521c6.202,5.464,14.015,8.453,22.29,8.453
			c3.921-0.001,7.113,3.385,7.113,7.546C497,408.425,493.808,411.81,489.883,411.81z"/>
	</g>
</g>
<g>
</g>
<g>
</g>
<g>
</g>
<g>
</g>
<g>
</g>
<g>
</g>
<g>
</g>
<g>
</g>
<g>
</g>
<g>
</g>
<g>
</g>
<g>
</g>
<g>
</g>
<g>
</g>
<g>
</g>
</svg>
