<?xml version="1.0" encoding="iso-8859-1"?>
<!-- Generator: Adobe Illustrator 19.0.0, SVG Export Plug-In . SVG Version: 6.00 Build 0)  -->
<svg version="1.1" id="Layer_1" xmlns="http://www.w3.org/2000/svg" xmlns:xlink="http://www.w3.org/1999/xlink" x="0px" y="0px"
	 viewBox="0 0 447 447" style="enable-background:new 0 0 447 447;" xml:space="preserve">
<g>
	<g>
		<g>
			<path d="M381.539,65.462C339.325,23.248,283.199,0,223.5,0C163.801,0,107.675,23.248,65.461,65.462
				C23.248,107.675,0,163.801,0,223.5c0,59.699,23.248,115.825,65.461,158.038C107.675,423.752,163.801,447,223.5,447
				c59.699,0,115.825-23.248,158.039-65.462C423.752,339.325,447,283.199,447,223.5C447,163.801,423.752,107.675,381.539,65.462z
				 M223.5,432C108.533,432,15,338.468,15,223.5S108.533,15,223.5,15S432,108.532,432,223.5S338.467,432,223.5,432z"/>
			<path d="M337.872,248.385l-24-8c-1.682-0.561-3.509-0.507-5.157,0.151l-29.006,11.603c0.138-0.732,0.265-1.476,0.379-2.233
				c0.544-3.595,0.79-7.277,0.754-11.04c0.865-0.157,1.719-0.455,2.518-0.934L321.577,215H351.5c4.142,0,7.5-3.357,7.5-7.5
				s-3.358-7.5-7.5-7.5h-32c-1.359,0-2.693,0.369-3.859,1.068l-36.565,21.939c-0.669-3.223-1.532-6.499-2.578-9.826l23.162-15.441
				c0.708-0.472,1.33-1.06,1.84-1.74l24-32c2.485-3.313,1.813-8.015-1.5-10.5c-3.313-2.484-8.015-1.813-10.5,1.5l-23.229,30.973
				L270.97,198.84c-1.753-3.857-3.743-7.777-5.96-11.756c11.557-5.42,19.593-16.411,21.54-29.414
				c5.378-1.749,9.927-5.202,13.392-10.252c22.96-33.465,6.929-76.113-6.163-96.037c-1.82-2.769-5.241-4.019-8.417-3.066
				c-3.175,0.95-5.351,3.871-5.351,7.186v16c0,16.5-5.957,16.5-8.5,16.5h-0.5V55.5c0-4.143-3.358-7.5-7.5-7.5
				c-4.142,0-7.5,3.357-7.5,7.5V88h-0.5c-4.092,0-7.429,3.28-7.499,7.372c-0.119,6.974-0.194,42.396,10.077,54.859
				c3.257,3.952,7.837,6.701,13.074,7.97c-2.125,8.092-7.961,13.578-14.04,15.945c-4.448-6.736-9.512-13.627-15.202-20.671
				c-4.533-5.611-11.248-8.83-18.422-8.83s-13.889,3.219-18.421,8.83c-5.69,7.043-10.753,13.934-15.2,20.668
				c-6.075-2.369-11.906-7.854-14.031-15.942c5.237-1.269,9.817-4.018,13.075-7.97c10.27-12.464,10.196-47.886,10.077-54.859
				C198.929,91.28,195.592,88,191.5,88H191V55.5c0-4.143-3.358-7.5-7.5-7.5c-4.142,0-7.5,3.357-7.5,7.5V88h-0.5
				c-2.543,0-8.5,0-8.5-16.5v-16c0-3.314-2.175-6.235-5.351-7.186c-3.176-0.95-6.598,0.297-8.417,3.066
				c-13.092,19.924-29.123,62.572-6.163,96.037c3.465,5.051,8.014,8.504,13.392,10.252c1.947,13,9.979,23.988,21.531,29.409
				c-2.218,3.98-4.209,7.902-5.963,11.76l-19.301-12.867L133.5,155c-2.486-3.314-7.186-3.985-10.5-1.5
				c-3.313,2.485-3.985,7.187-1.5,10.5l24,32c0.51,0.681,1.132,1.269,1.84,1.74l23.162,15.441c-1.046,3.327-1.909,6.603-2.578,9.826
				l-36.565-21.939c-1.166-0.699-2.5-1.068-3.859-1.068h-32c-4.142,0-7.5,3.357-7.5,7.5s3.358,7.5,7.5,7.5h29.923l38.218,22.932
				c0.799,0.479,1.653,0.777,2.518,0.934c-0.037,3.763,0.209,7.445,0.754,11.04c0.115,0.757,0.242,1.501,0.379,2.233l-29.006-11.603
				c-1.648-0.658-3.476-0.712-5.157-0.151l-24,8c-3.93,1.31-6.053,5.558-4.744,9.487c1.31,3.929,5.558,6.051,9.487,4.743
				l21.394-7.131l37.449,14.979c0.508,0.203,1.026,0.341,1.544,0.428c0.955,1.625,1.937,3.111,2.916,4.458l-19.494,4.874
				c-1.93,0.482-3.589,1.712-4.612,3.418l-24,40c-2.131,3.552-0.979,8.158,2.572,10.29c1.208,0.725,2.539,1.069,3.852,1.069
				c2.548,0,5.032-1.299,6.438-3.643l22.402-37.336L192.424,287h1.173c-1.027,2.638-1.597,5.503-1.597,8.5
				c0,8.481,4.517,15.927,11.271,20.06c-2.075,3.502-3.271,7.583-3.271,11.94c0,4.111,1.064,7.977,2.927,11.342
				c-7.261,2.429-12.891,6.466-17.375,12.314c-3.918,5.109-14.154,20.359-14.587,21.007c-0.177,0.264-0.337,0.539-0.479,0.823
				c-5.795,11.59-1.081,25.734,10.509,31.529c9.002,4.503,19.544,2.663,26.52-3.814c4.235,3.932,9.891,6.299,15.987,6.299
				s11.752-2.368,15.986-6.299c6.975,6.476,17.517,8.314,26.52,3.814c11.589-5.795,16.304-19.939,10.509-31.529
				c-0.142-0.284-0.302-0.56-0.479-0.823c-0.434-0.647-10.669-15.897-14.587-21.007c-4.484-5.849-10.115-9.885-17.375-12.314
				c1.863-3.365,2.927-7.231,2.927-11.342c0-4.357-1.196-8.438-3.271-11.94C250.483,311.427,255,303.981,255,295.5
				c0-2.997-0.57-5.862-1.597-8.5h1.173l28.091,7.022l22.402,37.336c1.406,2.344,3.89,3.643,6.438,3.643
				c1.313,0,2.644-0.345,3.852-1.069c3.552-2.132,4.704-6.738,2.572-10.29l-24-40c-1.023-1.706-2.683-2.936-4.612-3.418
				l-19.494-4.874c0.979-1.347,1.961-2.833,2.916-4.458c0.518-0.087,1.036-0.225,1.544-0.428l37.449-14.979l21.394,7.131
				c3.928,1.307,8.177-0.814,9.487-4.743C343.925,253.942,341.801,249.694,337.872,248.385z M269.665,140.692
				c-4.187-5.081-6.225-23.336-6.608-37.692h8.454c7.848,0,14.162-3.283,18.26-9.494c1.428-2.165,2.56-4.635,3.399-7.436
				c4.604,15.577,6.281,35.548-5.598,52.861c-2.372,3.458-5.45,5.068-9.685,5.068C274.446,144,271.372,142.764,269.665,140.692z
				 M169.123,144c-4.235,0-7.313-1.61-9.685-5.068c-11.894-17.336-10.197-37.336-5.58-52.923C158.359,101.063,169.886,103,175.5,103
				h8.457c-0.378,14.351-2.415,32.601-6.61,37.692C175.64,142.763,172.565,144,169.123,144z M216.747,162.901
				c1.671-2.069,4.133-3.256,6.753-3.256s5.082,1.187,6.753,3.256c10.668,13.206,19,25.872,24.912,37.785
				c-10.31,1.762-16.655,6.596-21.541,10.328c-4.408,3.367-6.679,4.985-10.125,4.985s-5.717-1.618-10.125-4.985
				c-4.886-3.732-11.231-8.566-21.541-10.328C197.746,188.773,206.079,176.107,216.747,162.901z M249.545,360.283
				c3.276,4.272,11.982,17.185,13.727,19.779c1.822,4.12,0.096,9.002-3.975,11.037c-4.192,2.094-9.308,0.392-11.404-3.802
				l-2.003-4.006c-1.433-2.866-4.533-4.51-7.705-4.079c-3.176,0.426-5.731,2.823-6.358,5.966c-0.789,3.952-4.291,6.821-8.328,6.821
				c-4.037,0-7.539-2.869-8.328-6.821c-0.627-3.143-3.182-5.54-6.358-5.966c-0.335-0.045-0.668-0.066-1-0.066
				c-2.811,0-5.423,1.582-6.705,4.146l-2.003,4.006c-2.096,4.192-7.212,5.897-11.404,3.802c-4.071-2.035-5.796-6.917-3.975-11.037
				c1.745-2.595,10.451-15.507,13.728-19.779c3.696-4.821,9.41-9.283,26.044-9.283C240.132,351.001,245.848,355.462,249.545,360.283
				z M231.5,304h-16c-4.687,0-8.5-3.813-8.5-8.5s3.813-8.5,8.5-8.5h16c4.687,0,8.5,3.813,8.5,8.5S236.187,304,231.5,304z M232,327.5
				c0,4.687-3.813,8.5-8.5,8.5s-8.5-3.813-8.5-8.5s3.813-8.5,8.5-8.5S232,322.813,232,327.5z M265.323,247.212
				c-1.993,14.025-9.219,21.903-12.442,24.788h-58.755c-3.259-2.917-10.459-10.792-12.447-24.788
				c-1.37-9.643,0.029-20.439,4.076-32.141c8.883,0.519,13.577,4.09,18.515,7.863c4.949,3.78,10.558,8.065,19.231,8.065
				c8.673,0,14.282-4.285,19.231-8.065c4.938-3.773,9.632-7.344,18.515-7.863C265.294,226.773,266.693,237.569,265.323,247.212z"/>
			<path d="M218.197,114.196l-8,8c-2.929,2.93-2.929,7.678,0,10.607c1.464,1.464,3.384,2.196,5.303,2.196s3.839-0.732,5.303-2.196
				l8-8c2.929-2.93,2.929-7.678,0-10.607C225.875,111.269,221.125,111.269,218.197,114.196z"/>
			<path d="M226.197,100.804c1.464,1.464,3.384,2.196,5.303,2.196s3.839-0.732,5.303-2.196c2.929-2.93,2.929-7.678,0-10.607l-8-8
				c-2.929-2.928-7.678-2.928-10.606,0c-2.929,2.93-2.929,7.678,0,10.607L226.197,100.804z"/>
			<path d="M207.5,63h0.08c4.142,0,7.46-3.357,7.46-7.5s-3.398-7.5-7.54-7.5c-4.142,0-7.5,3.357-7.5,7.5S203.358,63,207.5,63z"/>
			<path d="M330.197,140.804c1.464,1.464,3.384,2.196,5.303,2.196s3.839-0.732,5.303-2.196c2.929-2.93,2.929-7.678,0-10.607l-8-8
				c-2.929-2.928-7.678-2.928-10.606,0c-2.929,2.93-2.929,7.678,0,10.607L330.197,140.804z"/>
			<path d="M335.58,176h-0.08c-4.142,0-7.46,3.357-7.46,7.5s3.398,7.5,7.54,7.5c4.142,0,7.5-3.357,7.5-7.5S339.722,176,335.58,176z"
				/>
			<path d="M359.5,152h-8c-4.142,0-7.5,3.357-7.5,7.5s3.358,7.5,7.5,7.5h8c4.142,0,7.5-3.357,7.5-7.5S363.642,152,359.5,152z"/>
			<path d="M356.803,226.196c-2.929-2.928-7.678-2.928-10.606,0c-2.929,2.93-2.929,7.678,0,10.607l8,8
				c1.464,1.464,3.384,2.196,5.303,2.196s3.839-0.732,5.303-2.196c2.929-2.93,2.929-7.678,0-10.607L356.803,226.196z"/>
			<path d="M335.5,280h-8c-4.142,0-7.5,3.357-7.5,7.5s3.358,7.5,7.5,7.5h8c4.142,0,7.5-3.357,7.5-7.5S339.642,280,335.5,280z"/>
			<path d="M258.197,314.196c-2.929,2.93-2.929,7.678,0,10.607l8,8c1.464,1.464,3.384,2.196,5.303,2.196s3.839-0.732,5.303-2.196
				c2.929-2.93,2.929-7.678,0-10.607l-8-8C265.875,311.269,261.125,311.269,258.197,314.196z"/>
			<path d="M180.803,340.804c2.929-2.93,2.929-7.678,0-10.607c-2.929-2.928-7.678-2.928-10.606,0l-8,8
				c-2.929,2.93-2.929,7.678,0,10.607c1.464,1.464,3.384,2.196,5.303,2.196s3.839-0.732,5.303-2.196L180.803,340.804z"/>
			<path d="M135,287.5c0-4.143-3.358-7.5-7.5-7.5h-16c-4.142,0-7.5,3.357-7.5,7.5s3.358,7.5,7.5,7.5h16
				C131.642,295,135,291.643,135,287.5z"/>
			<path d="M103.5,312c-4.142,0-7.5,3.357-7.5,7.5v0.08c0,4.143,3.358,7.46,7.5,7.46c4.142,0,7.5-3.397,7.5-7.54
				S107.642,312,103.5,312z"/>
			<path d="M87.5,232h-8c-4.142,0-7.5,3.357-7.5,7.5s3.358,7.5,7.5,7.5h8c4.142,0,7.5-3.357,7.5-7.5S91.642,232,87.5,232z"/>
			<path d="M95.58,183c4.142,0,7.5-3.357,7.5-7.5s-3.358-7.5-7.5-7.5H95.5c-4.142,0-7.46,3.357-7.46,7.5S91.438,183,95.58,183z"/>
			<path d="M106.197,140.804c1.464,1.464,3.384,2.196,5.303,2.196s3.839-0.732,5.303-2.196c2.929-2.93,2.929-7.678,0-10.607l-8-8
				c-2.929-2.928-7.678-2.928-10.606,0c-2.929,2.93-2.929,7.678,0,10.607L106.197,140.804z"/>
			<path d="M295.5,352c-4.142,0-7.5,3.357-7.5,7.5s3.358,7.5,7.5,7.5h0.08c4.142,0,7.46-3.357,7.46-7.5S299.642,352,295.5,352z"/>
		</g>
	</g>
</g>
<g>
</g>
<g>
</g>
<g>
</g>
<g>
</g>
<g>
</g>
<g>
</g>
<g>
</g>
<g>
</g>
<g>
</g>
<g>
</g>
<g>
</g>
<g>
</g>
<g>
</g>
<g>
</g>
<g>
</g>
</svg>
