<?xml version="1.0" encoding="utf-8"?>
<!-- Generator: Adobe Illustrator 21.1.0, SVG Export Plug-In . SVG Version: 6.00 Build 0)  -->
<svg version="1.1" id="Layer_1" xmlns="http://www.w3.org/2000/svg" xmlns:xlink="http://www.w3.org/1999/xlink" x="0px" y="0px"
	 viewBox="0 0 447 447" style="enable-background:new 0 0 447 447;" xml:space="preserve">
<style type="text/css">
	.st0{fill:#F0F0F0;}
</style>
<g>
	<g>
		<g>
			<path class="st0" d="M381.5,65.5C339.3,23.2,283.2,0,223.5,0s-115.8,23.2-158,65.5C23.2,107.7,0,163.8,0,223.5
				s23.2,115.8,65.5,158c42.2,42.2,98.3,65.5,158,65.5s115.8-23.2,158-65.5c42.2-42.2,65.5-98.3,65.5-158S423.8,107.7,381.5,65.5z
				 M223.5,432C108.5,432,15,338.5,15,223.5S108.5,15,223.5,15S432,108.5,432,223.5S338.5,432,223.5,432z"/>
			<path class="st0" d="M337.9,248.4l-24-8c-1.7-0.6-3.5-0.5-5.2,0.2l-29,11.6c0.1-0.7,0.3-1.5,0.4-2.2c0.5-3.6,0.8-7.3,0.8-11
				c0.9-0.2,1.7-0.5,2.5-0.9l38.2-22.9h29.9c4.1,0,7.5-3.4,7.5-7.5s-3.4-7.5-7.5-7.5h-32c-1.4,0-2.7,0.4-3.9,1.1L279.1,223
				c-0.7-3.2-1.5-6.5-2.6-9.8l23.2-15.4c0.7-0.5,1.3-1.1,1.8-1.7l24-32c2.5-3.3,1.8-8-1.5-10.5c-3.3-2.5-8-1.8-10.5,1.5l-23.2,31
				L271,198.8c-1.8-3.9-3.7-7.8-6-11.8c11.6-5.4,19.6-16.4,21.5-29.4c5.4-1.7,9.9-5.2,13.4-10.3c23-33.5,6.9-76.1-6.2-96
				c-1.8-2.8-5.2-4-8.4-3.1c-3.2,1-5.4,3.9-5.4,7.2v16c0,16.5-6,16.5-8.5,16.5H271V55.5c0-4.1-3.4-7.5-7.5-7.5s-7.5,3.4-7.5,7.5V88
				h-0.5c-4.1,0-7.4,3.3-7.5,7.4c-0.1,7-0.2,42.4,10.1,54.9c3.3,4,7.8,6.7,13.1,8c-2.1,8.1-8,13.6-14,15.9
				c-4.4-6.7-9.5-13.6-15.2-20.7c-4.5-5.6-11.2-8.8-18.4-8.8s-13.9,3.2-18.4,8.8c-5.7,7-10.8,13.9-15.2,20.7
				c-6.1-2.4-11.9-7.9-14-15.9c5.2-1.3,9.8-4,13.1-8c10.3-12.5,10.2-47.9,10.1-54.9c-0.1-4.1-3.4-7.4-7.5-7.4H191V55.5
				c0-4.1-3.4-7.5-7.5-7.5s-7.5,3.4-7.5,7.5V88h-0.5c-2.5,0-8.5,0-8.5-16.5v-16c0-3.3-2.2-6.2-5.4-7.2c-3.2-1-6.6,0.3-8.4,3.1
				c-13.1,19.9-29.1,62.6-6.2,96c3.5,5.1,8,8.5,13.4,10.3c1.9,13,10,24,21.5,29.4c-2.2,4-4.2,7.9-6,11.8L156.7,186l-23.2-31
				c-2.5-3.3-7.2-4-10.5-1.5c-3.3,2.5-4,7.2-1.5,10.5l24,32c0.5,0.7,1.1,1.3,1.8,1.7l23.2,15.4c-1,3.3-1.9,6.6-2.6,9.8l-36.6-21.9
				c-1.2-0.7-2.5-1.1-3.9-1.1h-32c-4.1,0-7.5,3.4-7.5,7.5s3.4,7.5,7.5,7.5h29.9l38.2,22.9c0.8,0.5,1.7,0.8,2.5,0.9
				c0,3.8,0.2,7.4,0.8,11c0.1,0.8,0.2,1.5,0.4,2.2l-29-11.6c-1.6-0.7-3.5-0.7-5.2-0.2l-24,8c-3.9,1.3-6.1,5.6-4.7,9.5
				c1.3,3.9,5.6,6.1,9.5,4.7l21.4-7.1l37.4,15c0.5,0.2,1,0.3,1.5,0.4c1,1.6,1.9,3.1,2.9,4.5l-19.5,4.9c-1.9,0.5-3.6,1.7-4.6,3.4
				l-24,40c-2.1,3.6-1,8.2,2.6,10.3c1.2,0.7,2.5,1.1,3.9,1.1c2.5,0,5-1.3,6.4-3.6l22.4-37.3l28.1-7h1.2c-1,2.6-1.6,5.5-1.6,8.5
				c0,8.5,4.5,15.9,11.3,20.1c-2.1,3.5-3.3,7.6-3.3,11.9c0,4.1,1.1,8,2.9,11.3c-7.3,2.4-12.9,6.5-17.4,12.3
				c-3.9,5.1-14.2,20.4-14.6,21c-0.2,0.3-0.3,0.5-0.5,0.8c-5.8,11.6-1.1,25.7,10.5,31.5c9,4.5,19.5,2.7,26.5-3.8
				c4.2,3.9,9.9,6.3,16,6.3s11.8-2.4,16-6.3c7,6.5,17.5,8.3,26.5,3.8c11.6-5.8,16.3-19.9,10.5-31.5c-0.1-0.3-0.3-0.6-0.5-0.8
				c-0.4-0.6-10.7-15.9-14.6-21c-4.5-5.8-10.1-9.9-17.4-12.3c1.9-3.4,2.9-7.2,2.9-11.3c0-4.4-1.2-8.4-3.3-11.9
				c6.8-4.1,11.3-11.6,11.3-20.1c0-3-0.6-5.9-1.6-8.5h1.2l28.1,7l22.4,37.3c1.4,2.3,3.9,3.6,6.4,3.6c1.3,0,2.6-0.3,3.9-1.1
				c3.6-2.1,4.7-6.7,2.6-10.3l-24-40c-1-1.7-2.7-2.9-4.6-3.4l-19.5-4.9c1-1.3,2-2.8,2.9-4.5c0.5-0.1,1-0.2,1.5-0.4l37.4-15l21.4,7.1
				c3.9,1.3,8.2-0.8,9.5-4.7C343.9,253.9,341.8,249.7,337.9,248.4z M269.7,140.7c-4.2-5.1-6.2-23.3-6.6-37.7h8.5
				c7.8,0,14.2-3.3,18.3-9.5c1.4-2.2,2.6-4.6,3.4-7.4c4.6,15.6,6.3,35.5-5.6,52.9c-2.4,3.5-5.5,5.1-9.7,5.1
				C274.4,144,271.4,142.8,269.7,140.7z M169.1,144c-4.2,0-7.3-1.6-9.7-5.1c-11.9-17.3-10.2-37.3-5.6-52.9c4.5,15.1,16,17,21.6,17
				h8.5c-0.4,14.4-2.4,32.6-6.6,37.7C175.6,142.8,172.6,144,169.1,144z M216.7,162.9c1.7-2.1,4.1-3.3,6.8-3.3s5.1,1.2,6.8,3.3
				c10.7,13.2,19,25.9,24.9,37.8c-10.3,1.8-16.7,6.6-21.5,10.3c-4.4,3.4-6.7,5-10.1,5s-5.7-1.6-10.1-5c-4.9-3.7-11.2-8.6-21.5-10.3
				C197.7,188.8,206.1,176.1,216.7,162.9z M249.5,360.3c3.3,4.3,12,17.2,13.7,19.8c1.8,4.1,0.1,9-4,11c-4.2,2.1-9.3,0.4-11.4-3.8
				l-2-4c-1.4-2.9-4.5-4.5-7.7-4.1c-3.2,0.4-5.7,2.8-6.4,6c-0.8,4-4.3,6.8-8.3,6.8s-7.5-2.9-8.3-6.8c-0.6-3.1-3.2-5.5-6.4-6
				c-0.3,0-0.7-0.1-1-0.1c-2.8,0-5.4,1.6-6.7,4.1l-2,4c-2.1,4.2-7.2,5.9-11.4,3.8c-4.1-2-5.8-6.9-4-11c1.7-2.6,10.5-15.5,13.7-19.8
				c3.7-4.8,9.4-9.3,26-9.3C240.1,351,245.8,355.5,249.5,360.3z M231.5,304h-16c-4.7,0-8.5-3.8-8.5-8.5s3.8-8.5,8.5-8.5h16
				c4.7,0,8.5,3.8,8.5,8.5S236.2,304,231.5,304z M232,327.5c0,4.7-3.8,8.5-8.5,8.5s-8.5-3.8-8.5-8.5s3.8-8.5,8.5-8.5
				S232,322.8,232,327.5z M265.3,247.2c-2,14-9.2,21.9-12.4,24.8h-58.8c-3.3-2.9-10.5-10.8-12.4-24.8c-1.4-9.6,0-20.4,4.1-32.1
				c8.9,0.5,13.6,4.1,18.5,7.9c4.9,3.8,10.6,8.1,19.2,8.1s14.3-4.3,19.2-8.1c4.9-3.8,9.6-7.3,18.5-7.9
				C265.3,226.8,266.7,237.6,265.3,247.2z"/>
			<path class="st0" d="M218.2,114.2l-8,8c-2.9,2.9-2.9,7.7,0,10.6c1.5,1.5,3.4,2.2,5.3,2.2s3.8-0.7,5.3-2.2l8-8
				c2.9-2.9,2.9-7.7,0-10.6C225.9,111.3,221.1,111.3,218.2,114.2z"/>
			<path class="st0" d="M226.2,100.8c1.5,1.5,3.4,2.2,5.3,2.2s3.8-0.7,5.3-2.2c2.9-2.9,2.9-7.7,0-10.6l-8-8c-2.9-2.9-7.7-2.9-10.6,0
				c-2.9,2.9-2.9,7.7,0,10.6L226.2,100.8z"/>
			<path class="st0" d="M207.5,63L207.5,63c4.2,0,7.5-3.4,7.5-7.5s-3.4-7.5-7.5-7.5s-7.5,3.4-7.5,7.5S203.4,63,207.5,63z"/>
			<path class="st0" d="M330.2,140.8c1.5,1.5,3.4,2.2,5.3,2.2s3.8-0.7,5.3-2.2c2.9-2.9,2.9-7.7,0-10.6l-8-8c-2.9-2.9-7.7-2.9-10.6,0
				c-2.9,2.9-2.9,7.7,0,10.6L330.2,140.8z"/>
			<path class="st0" d="M335.6,176L335.6,176c-4.2,0-7.5,3.4-7.5,7.5s3.4,7.5,7.5,7.5s7.5-3.4,7.5-7.5S339.7,176,335.6,176z"/>
			<path class="st0" d="M359.5,152h-8c-4.1,0-7.5,3.4-7.5,7.5s3.4,7.5,7.5,7.5h8c4.1,0,7.5-3.4,7.5-7.5S363.6,152,359.5,152z"/>
			<path class="st0" d="M356.8,226.2c-2.9-2.9-7.7-2.9-10.6,0c-2.9,2.9-2.9,7.7,0,10.6l8,8c1.5,1.5,3.4,2.2,5.3,2.2s3.8-0.7,5.3-2.2
				c2.9-2.9,2.9-7.7,0-10.6L356.8,226.2z"/>
			<path class="st0" d="M335.5,280h-8c-4.1,0-7.5,3.4-7.5,7.5s3.4,7.5,7.5,7.5h8c4.1,0,7.5-3.4,7.5-7.5S339.6,280,335.5,280z"/>
			<path class="st0" d="M258.2,314.2c-2.9,2.9-2.9,7.7,0,10.6l8,8c1.5,1.5,3.4,2.2,5.3,2.2s3.8-0.7,5.3-2.2c2.9-2.9,2.9-7.7,0-10.6
				l-8-8C265.9,311.3,261.1,311.3,258.2,314.2z"/>
			<path class="st0" d="M180.8,340.8c2.9-2.9,2.9-7.7,0-10.6c-2.9-2.9-7.7-2.9-10.6,0l-8,8c-2.9,2.9-2.9,7.7,0,10.6
				c1.5,1.5,3.4,2.2,5.3,2.2s3.8-0.7,5.3-2.2L180.8,340.8z"/>
			<path class="st0" d="M135,287.5c0-4.1-3.4-7.5-7.5-7.5h-16c-4.1,0-7.5,3.4-7.5,7.5s3.4,7.5,7.5,7.5h16
				C131.6,295,135,291.6,135,287.5z"/>
			<path class="st0" d="M103.5,312c-4.1,0-7.5,3.4-7.5,7.5v0.1c0,4.1,3.4,7.5,7.5,7.5s7.5-3.4,7.5-7.5S107.6,312,103.5,312z"/>
			<path class="st0" d="M87.5,232h-8c-4.1,0-7.5,3.4-7.5,7.5s3.4,7.5,7.5,7.5h8c4.1,0,7.5-3.4,7.5-7.5S91.6,232,87.5,232z"/>
			<path class="st0" d="M95.6,183c4.1,0,7.5-3.4,7.5-7.5s-3.4-7.5-7.5-7.5h-0.1c-4.1,0-7.5,3.4-7.5,7.5S91.4,183,95.6,183z"/>
			<path class="st0" d="M106.2,140.8c1.5,1.5,3.4,2.2,5.3,2.2s3.8-0.7,5.3-2.2c2.9-2.9,2.9-7.7,0-10.6l-8-8c-2.9-2.9-7.7-2.9-10.6,0
				c-2.9,2.9-2.9,7.7,0,10.6L106.2,140.8z"/>
			<path class="st0" d="M295.5,352c-4.1,0-7.5,3.4-7.5,7.5s3.4,7.5,7.5,7.5h0.1c4.1,0,7.5-3.4,7.5-7.5S299.6,352,295.5,352z"/>
		</g>
	</g>
</g>
</svg>
