<svg viewBox="-107 0 511 511.99994" xmlns="http://www.w3.org/2000/svg"><path d="m298.144531 6.574219c-.527343-4.125-4.308593-7.035157-8.425781-6.5156252l-69.980469 8.9531252c-2.585937.328125-4.820312 1.976562-5.898437 4.351562l-21.570313 47.414063c-1.945312-.351563-3.945312-.542969-5.988281-.542969-7.011719 0-13.679688 2.125-19.296875 6.078125-4.203125-2.195312-8.800781-3.457031-13.597656-3.71875.011719-.332031.015625-.664062.015625-.992188 0-18.570312-15.105469-33.679687-33.675782-33.679687-12.722656 0-24.230468 7.320313-29.921874 18.261719-2.675782-.671875-5.433594-1.019532-8.207032-1.019532-16.757812 0-30.699218 12.304688-33.257812 28.355469-8.472656 3.234375-15.320313 9.78125-18.925782 18.109375-16.320312 2.324219-28.914062 16.390625-28.914062 33.34375 0 15.820313 10.96875 29.121094 25.699219 32.714844.027343.339844.058593.691406.089843 1.050781 1.921876 22.242188 6.359376 66.515625 14.570313 115.0625.054687.316407.109375.636719.164063.957031.175781 1.046876.355468 2.09375.539062 3.144532.105469.605468.210938 1.207031.316406 1.8125.152344.875.304688 1.75.457032 2.628906.164062.910156.328124 1.828125.488281 2.742188.109375.605468.21875 1.207031.328125 1.816406.589844 3.277344 1.203125 6.5625 1.828125 9.855468.027343.125.050781.25.074219.375.296874 1.566407.601562 3.136719.910156 4.703126.027344.144531.054687.289062.082031.433593 6.753906 34.421875 15.425781 69.113281 26.441406 98.289063.050781.132812.101563.261718.152344.394531.46875 1.238281.945313 2.46875 1.421875 3.6875.109375.28125.222656.5625.332031.839844.429688 1.089843.867188 2.171875 1.304688 3.242187.125.304688.246093.613282.375.914063.457031 1.117187.921875 2.222656 1.390625 3.316406.089844.21875.183594.4375.277344.652344 1.113281 2.597656 2.253906 5.136719 3.414062 7.613281.167969.363281.339844.71875.511719 1.082031.402343.84375.804687 1.683594 1.210937 2.511719.210938.433594.425782.863281.640625 1.292969.375.757812.753907 1.507812 1.136719 2.25.222656.433593.445312.867187.667969 1.292969.402343.769531.808593 1.527343 1.214843 2.285156.199219.367187.394532.738281.59375 1.105468.605469 1.101563 1.214844 2.191407 1.832032 3.261719l1.761718 5.089844c-4.296874 3.410156-7.0625 8.660156-7.0625 14.554687v2.773438c0 4.6875 1.761719 8.96875 4.636719 12.242188-.914062.625-1.894531 1.175781-2.949219 1.609374l-31.929687 13.167969c-6.042969 2.492188-9.945313 8.191407-9.945313 14.519531 0 6.472657 5.410157 11.742188 12.066407 11.742188h137.457031c6.65625 0 12.066406-5.269531 12.066406-11.742188 0-6.328124-3.902344-12.027343-9.945312-14.519531-.003906 0-.003906 0-.003906 0l-31.921876-13.167969c-1.058593-.433593-2.039062-.984374-2.953124-1.609374 2.878906-3.273438 4.636718-7.554688 4.636718-12.242188v-2.773438c0-5.894531-2.765625-11.148437-7.0625-14.554687l1.761719-5.089844c5.710937-9.910156 11.214844-21.824219 16.367187-35.425781 1.472657-3.886719-.484374-8.234375-4.375-9.707031-3.882812-1.472657-8.238281.480469-9.710937 4.375-4.957031 13.089843-10.21875 24.445312-15.632813 33.757812-.003906.007813-.007812.015625-.011718.023438-.007813.011719-.015625.027343-.023438.039062-.039062.070313-.070312.140625-.109375.210938-.074219.140625-.152343.28125-.222656.425781-.101563.226562-.195313.453125-.277344.691406l-2.308593 6.671875h-38l-2.3125-6.671875c-.160157-.460937-.363282-.90625-.605469-1.328125-.589844-1.011719-1.171875-2.042969-1.75-3.089843-.195313-.347657-.382813-.707032-.574219-1.054688-.386719-.710938-.769531-1.421875-1.152344-2.144531-.222656-.425781-.445312-.855469-.667968-1.285157-.34375-.664062-.683594-1.335937-1.027344-2.015624-.230469-.460938-.460938-.925782-.691406-1.394532-.332032-.667968-.65625-1.339844-.980469-2.015625-.230469-.480469-.460938-.960937-.691407-1.449219-.328124-.695312-.652343-1.402343-.976562-2.109374-.21875-.472657-.4375-.941407-.652344-1.421876-.40625-.902343-.808594-1.816406-1.207031-2.734374-.339844-.773438-.671875-1.554688-1.007813-2.335938-.277343-.65625-.554687-1.308594-.832031-1.96875-.28125-.679688-.5625-1.371094-.839843-2.058594-.21875-.535156-.4375-1.074218-.65625-1.613281-.296876-.746094-.59375-1.496094-.886719-2.25-.1875-.480469-.375-.960937-.5625-1.445313-.3125-.8125-.625-1.628906-.933594-2.453124-.148437-.394532-.296875-.792969-.445313-1.191407-.339843-.914062-.679687-1.835937-1.019531-2.761719-.0625-.175781-.121093-.351562-.1875-.523437-21.636719-59.980469-33.714843-142.816406-39.738281-196.71875h158.78125c-4.96875 44.214844-14.59375 112.691406-30.988281 169.429687-1.152344 3.992188 1.148437 8.171876 5.144531 9.324219 3.996094 1.15625 8.175781-1.148437 9.328125-5.144531 7.347656-25.429688 25.339844-96.09375 34.960937-206.382812.109376-1.273438.214844-2.460938.304688-3.527344.042969-.519532.058594-1.039063.054688-1.554688 11.453124-5.382812 19.40625-17.027344 19.40625-30.496094 0-14.199218-9.035157-26.714843-21.914063-31.550781-.152344-10.957031-5.574219-20.667969-13.835937-26.707031l19.695312-43.296875 65.816406-8.417969c4.125-.53125 7.042969-4.300781 6.515625-8.429687zm-199.414062 449.371093c0-1.699218 1.207031-3.117187 2.808593-3.449218.230469-.046875.46875-.070313.710938-.070313h44.046875c.242187 0 .480469.023438.710937.070313 1.601563.332031 2.808594 1.75 2.808594 3.449218v2.769532c0 1.648437-1.136718 3.023437-2.667968 3.40625-.109376.027344-.210938.042968-.3125.0625-.175782.027344-.355469.054687-.539063.054687h-44.046875c-.183594 0-.363281-.027343-.539062-.054687-.101563-.019532-.203126-.035156-.3125-.0625-1.53125-.382813-2.667969-1.757813-2.667969-3.40625zm-7.632813 30.550782c4.871094-2.007813 9.097656-5.199219 12.269532-9.195313h41.8125c3.171874 3.996094 7.398437 7.1875 12.273437 9.195313l25.316406 10.441406h-116.988281zm47.730469-308.234375h-95.5625c-.808594-7.917969-1.425781-14.605469-1.863281-19.609375h106.347656zm-104.195313-34.671875h-.453124c-10.265626 0-18.617188-8.351563-18.617188-18.617188s8.351562-18.617187 18.617188-18.617187l.523437.019531c3.558594.074219 6.695313-2.300781 7.53125-5.757812 1.714844-7.097657 7.457031-12.558594 14.625-13.914063 3.613281-.679687 6.203125-3.871094 6.132813-7.542969l-.011719-.316406c0-10.265625 8.351562-18.617188 18.617187-18.617188 3.128906 0 6.230469.800782 8.960938 2.308594 2.078125 1.148438 4.574218 1.25 6.738281.273438 2.164063-.976563 3.742187-2.917969 4.257813-5.234375 1.871093-8.453125 9.511718-14.589844 18.167968-14.589844 10.265625 0 18.617188 8.351563 18.617188 18.617187 0 2.332032-.433594 4.621094-1.292969 6.796876-1.054687 2.679687-.492187 5.726562 1.457031 7.851562 1.949219 2.121094 4.9375 2.949219 7.695313 2.128906 1.726562-.515625 3.507812-.773437 5.296875-.773437 4.1875 0 8.148437 1.367187 11.453125 3.960937 3.023437 2.371094 7.347656 2.085938 10.03125-.660156 3.394531-3.464844 7.871093-5.417969 12.667969-5.578125l-31.050782 68.261719zm172.375 16.632812c-.429687 4.835938-1.003906 10.929688-1.730468 18.039063h-49.902344l8.921875-19.609375h42.847656c-.042969.5-.089843 1.035156-.136719 1.570312zm3.835938-53.671875c9.097656 1.300781 15.960938 9.222657 15.960938 18.421875 0 8.953125-6.355469 16.445313-14.789063 18.214844-.605469.128906-1.21875.222656-1.832031.289062-.019532.003907-.039063.007813-.058594.011719-.644531.066407-1.292969.101563-1.933594.101563h-37.042968l28.484374-62.621094c3.25 3.355469 5.261719 7.914062 5.261719 12.941406 0 1.238282-.125 2.480469-.367187 3.695313-.410156 2.027343.035156 4.140625 1.230468 5.832031 1.195313 1.695312 3.035157 2.820312 5.085938 3.113281zm0 0"/><path d="m116.742188 226.628906v98.332032c0 4.160156 3.371093 7.53125 7.53125 7.53125 4.160156 0 7.53125-3.371094 7.53125-7.53125v-98.332032c0-4.160156-3.371094-7.53125-7.53125-7.53125-4.160157 0-7.53125 3.371094-7.53125 7.53125zm0 0"/><path d="m171.027344 219.097656c-4.160156 0-7.53125 3.371094-7.53125 7.53125 0 31.96875-6.753906 74.5-10.78125 97.007813-.730469 4.09375 1.992187 8.007812 6.089844 8.738281.449218.082031.894531.121094 1.335937.121094 3.578125 0 6.75-2.5625 7.402344-6.207032 5.027343-28.09375 11.015625-68.1875 11.015625-99.660156 0-4.160156-3.371094-7.53125-7.53125-7.53125zm0 0"/><path d="m81.105469 326.84375c.65625 3.640625 3.828125 6.191406 7.402343 6.191406.441407 0 .894532-.039062 1.347657-.121094 4.09375-.742187 6.8125-4.660156 6.070312-8.753906-2.964843-16.359375-5.375-31.96875-7.167969-46.394531-.515624-4.125-4.277343-7.058594-8.402343-6.542969-4.128907.515625-7.058594 4.277344-6.546875 8.402344 1.828125 14.703125 4.285156 30.585938 7.296875 47.21875zm0 0"/><path d="m78.449219 251.324219c4.15625-.230469 7.332031-3.785157 7.101562-7.9375-.332031-5.957031-.5-11.59375-.5-16.757813 0-4.160156-3.371093-7.53125-7.53125-7.53125-4.160156 0-7.53125 3.371094-7.53125 7.53125 0 5.441406.175781 11.359375.523438 17.59375.222656 4.011719 3.542969 7.113282 7.511719 7.113282.144531 0 .285156-.003907.425781-.011719zm0 0"/></svg>