<?xml version="1.0" encoding="iso-8859-1"?>
<!-- Generator: Adobe Illustrator 19.0.0, SVG Export Plug-In . SVG Version: 6.00 Build 0)  -->
<svg version="1.1" id="Layer_1" xmlns="http://www.w3.org/2000/svg" xmlns:xlink="http://www.w3.org/1999/xlink" x="0px" y="0px"
	 viewBox="0 0 463 463" style="enable-background:new 0 0 463 463;" xml:space="preserve">
<g>
	<g>
		<g>
			<path d="M455.5,344h-64.958c-2.959-25.023-20.513-45.634-43.898-53.045C334.264,251.381,297.233,224,255.5,224
				c-8.649,0-17.158,1.159-25.394,3.427c-1.857-9.037-6.56-17.889-13.785-25.114c-13.845-13.845-33.662-18.45-49.312-11.458
				c-1.687,0.753-3.036,2.103-3.789,3.789c-6.991,15.65-2.386,35.466,11.458,49.312c3.715,3.715,7.864,6.755,12.243,9.094
				c-1.742,1.797-3.419,3.658-5.015,5.585c-7.233-1.728-14.74-2.635-22.406-2.635c-50.135,0-91.369,38.833-95.207,88H7.5
				c-4.142,0-7.5,3.358-7.5,7.5c0,4.142,3.358,7.5,7.5,7.5h60.25l14.55,19.4c5.917,7.89,15.338,12.6,25.2,12.6h248
				c9.862,0,19.283-4.71,25.2-12.6l14.55-19.4h60.25c4.142,0,7.5-3.358,7.5-7.5C463,347.358,459.642,344,455.5,344z M375.418,344
				h-17.327c-3.374-13.759-15.806-24-30.591-24c-4.638,0-9.121,1.001-13.209,2.891c-2.532-5.237-6.007-9.933-10.189-13.888
				c7.118-3.942,15.08-6.003,23.398-6.003C351.693,303,371.802,320.806,375.418,344z M318.621,337.601
				c2.629-1.687,5.682-2.601,8.879-2.601c6.396,0,11.942,3.666,14.678,9h-23.191c0.002-0.167,0.012-0.333,0.012-0.5
				C319,341.501,318.861,339.535,318.621,337.601z M230.404,243.003c8.073-2.648,16.5-4.003,25.097-4.003
				c32.522,0,61.659,19.723,74.12,49.054c-0.706-0.023-1.41-0.054-2.121-0.054c-5.4,0-10.686,0.664-15.781,1.962
				C300.807,269.169,279.287,256,255.5,256c-5.219,0-10.378,0.666-15.371,1.918l-10.713-10.714
				C229.828,245.825,230.153,244.422,230.404,243.003z M304,343.5c0,0.167-0.01,0.333-0.012,0.5h-88.976
				c-0.003-0.167-0.012-0.333-0.012-0.5c0-17.92,14.58-32.5,32.5-32.5c3.008,0,6.102,0.536,9.738,1.686
				c1.473,0.466,3.052,0.466,4.524,0c3.636-1.15,6.73-1.686,9.738-1.686C289.42,311,304,325.58,304,343.5z M255.5,271
				c17.592,0,33.562,9.43,42.126,24.445c-2.479,1.329-4.883,2.829-7.199,4.5C284.624,297.413,278.225,296,271.5,296
				c-1.424,0-2.869,0.104-4.33,0.26c-0.664-4.336-2.345-9.108-5.814-13.445c-2.588-3.235-7.308-3.76-10.542-1.171
				c-3.234,2.587-3.759,7.307-1.171,10.542c1.067,1.334,1.753,2.731,2.191,4.075c-1.462-0.156-2.909-0.26-4.335-0.26
				c-3.286,0-6.495,0.336-9.596,0.975c-3.843-5.536-8.195-10.587-12.977-15.102C233.518,274.908,244.337,271,255.5,271z
				 M218.381,257.383l6.514,6.514c-4.249,2.335-8.235,5.159-11.873,8.429c-4.918-3.332-10.135-6.193-15.591-8.544
				c1.846-1.925,3.793-3.747,5.82-5.48c1.743,0.217,3.487,0.339,5.22,0.339C211.838,258.641,215.166,258.227,218.381,257.383z
				 M185.286,233.348c-8.48-8.481-12.096-20.322-9.38-29.809c9.485-2.714,21.328,0.899,29.808,9.38
				c5.917,5.918,9.457,13.471,10.138,20.72l-8.303-8.304c-2.93-2.929-7.678-2.928-10.607,0c-2.929,2.929-2.929,7.678,0,10.607
				l7.322,7.323C197.56,242.219,190.731,238.793,185.286,233.348z M79.361,344c3.797-40.883,38.281-73,80.139-73
				c25.384,0,48.747,11.667,63.938,31.57c-4.946,2.919-9.319,6.706-12.908,11.154C198.692,297.789,179.796,288,159.5,288
				c-20.361,0-39.378,9.722-51.33,26.116C96.384,318.676,88,330.124,88,343.5c0,0.169,0.014,0.334,0.025,0.5H79.361z
				 M200.012,343.999h-9.921V344c-3.374-13.759-15.806-24-30.591-24c-5.382,0-10.654,1.392-15.307,3.977
				c-3.802-4.799-8.968-8.467-14.909-10.414C137.763,306.807,148.369,303,159.5,303c17.956,0,34.478,10.031,42.849,25.772
				c-1.517,4.64-2.349,9.587-2.349,14.727C200,343.666,200.01,343.833,200.012,343.999z M150.458,337.713
				c2.673-1.752,5.816-2.713,9.042-2.713c6.396,0,11.942,3.666,14.678,9h-23.204c0.011-0.166,0.025-0.331,0.025-0.5
				C151,341.522,150.808,339.59,150.458,337.713z M136.025,344h-33.05c0.011-0.166,0.025-0.331,0.025-0.5
				c0-9.098,7.402-16.5,16.5-16.5s16.5,7.402,16.5,16.5C136,343.669,136.014,343.834,136.025,344z M368.7,369.4
				c-3.099,4.132-8.034,6.6-13.2,6.6h-248c-5.166,0-10.101-2.467-13.2-6.6L86.5,359h290L368.7,369.4z"/>
			<path d="M224,159.535c0,12.625,5.348,19.305,9.646,24.672c3.689,4.608,6.354,7.937,6.354,15.297c0,4.142,3.358,7.5,7.5,7.5
				c4.142,0,7.5-3.358,7.5-7.5c0-12.625-5.348-19.304-9.645-24.672c-3.689-4.608-6.355-7.938-6.355-15.297
				c0-7.37,2.667-10.704,6.357-15.317c4.296-5.371,9.643-12.055,9.643-24.687c0-12.637-5.346-19.325-9.642-24.699
				C241.667,90.215,239,86.879,239,79.5c0-4.142-3.358-7.5-7.5-7.5c-4.142,0-7.5,3.358-7.5,7.5c0,12.637,5.346,19.325,9.642,24.699
				c3.691,4.618,6.358,7.954,6.358,15.333c0,7.37-2.667,10.704-6.357,15.317C229.347,140.219,224,146.904,224,159.535z"/>
			<path d="M264.484,167.027c2.381,0,4.504-1.111,5.879-2.842c5.412-6.766,16.636-20.823,16.636-44.654
				c0-9.68-1.861-18.805-5.532-27.123c-1.672-3.789-6.1-5.506-9.89-3.833c-3.79,1.672-5.505,6.1-3.833,9.89
				c2.823,6.397,4.255,13.485,4.255,21.066c0,18.514-8.295,28.964-13.303,35.226c-1.07,1.296-1.713,2.958-1.713,4.771
				C256.984,163.669,260.342,167.027,264.484,167.027z"/>
			<path d="M199.972,175.001c0.307,0,0.618-0.019,0.93-0.058c4.111-0.509,7.031-4.253,6.522-8.364
				c-0.282-2.275-0.424-4.645-0.424-7.044c0-18.59,8.368-29.051,13.369-35.304c0.135-0.169,0.263-0.344,0.383-0.524
				c1.68-2.519,1.672-5.852-0.008-8.371c-2.298-3.447-6.955-4.378-10.4-2.08c-0.888,0.592-1.608,1.34-2.15,2.184
				C202.636,122.405,192,136.342,192,159.535c0,3.013,0.181,6.002,0.538,8.886C193.008,172.219,196.24,175.001,199.972,175.001z"/>
		</g>
	</g>
</g>
<g>
</g>
<g>
</g>
<g>
</g>
<g>
</g>
<g>
</g>
<g>
</g>
<g>
</g>
<g>
</g>
<g>
</g>
<g>
</g>
<g>
</g>
<g>
</g>
<g>
</g>
<g>
</g>
<g>
</g>
</svg>
