<svg height="512" viewBox="0 0 61 52" width="512" xmlns="http://www.w3.org/2000/svg"><g id="014---Cake"><path id="Shape" d="m61 24c0-1 1.21-.39-31.76-14.63-.9045761-.36550456-1.9000459-.44234785-2.85-.22-1.3898494-3.11650235-4.8243486-4.77672154-8.13-3.93-1.78-2.73-5.38-6.22-11.58-4.17-.34833396.11432498-.60921615.40579958-.68437478.76462813-.07515864.35882855.04682468.73049645.32.97500001.27317532.24450355.65604083.32469686 1.00437478.21037186 4.54-1.52 7.38.64 9.07 3.07-2.3673923 1.42834064-3.6722152 4.1163542-3.33 6.86-6.28 2.87-10.26 7.07-11.96 10.64-.21.43-.1-.23-.1 25.43 0 1.6568542 1.34314575 3 3 3h54c1.6568542 0 3-1.3431458 3-3zm-58 6.85 2.14 1.15c2.56263974 1.3942268 5.6573603 1.3942268 8.22 0 1.9605895-1.0542809 4.3194105-1.0542809 6.28 0 2.5590734 1.3942933 5.6509266 1.3942933 8.21 0 1.9605895-1.0542809 4.3194105-1.0542809 6.28 0 2.5626397 1.3942268 5.6573603 1.3942268 8.22 0 1.9641397-1.0542577 4.3258603-1.0542577 6.29 0 1.2564377.6896832 2.6667178 1.0508525 4.1 1.05 2.61 0 4-1 6.26-2.24v4.72l-3.12 1.72c-1.9641397 1.0542577-4.3258603 1.0542577-6.29 0-2.5597869-1.4053953-5.6602131-1.4053953-8.22 0-1.9570372 1.0543099-4.3129628 1.0543099-6.27 0-2.5626397-1.3942268-5.6573603-1.3942268-8.22 0-1.9605895 1.0542809-4.3194105 1.0542809-6.28 0-2.5576503-1.3998689-5.6523497-1.3998689-8.21 0-1.961494 1.050683-4.31850602 1.050683-6.28 0l-3.11-1.68zm56-2.28-3.12 1.72c-1.9641397 1.0542577-4.3258603 1.0542577-6.29 0-2.5597869-1.4053953-5.6602131-1.4053953-8.22 0-1.9570372 1.0543099-4.3129628 1.0543099-6.27 0-2.5626397-1.3942268-5.6573603-1.3942268-8.22 0-1.9605895 1.0542809-4.3194105 1.0542809-6.28 0-2.5576503-1.3998689-5.6523497-1.3998689-8.21 0-1.961494 1.050683-4.31850602 1.050683-6.28 0l-3.11-1.72v-3.57h56zm-56 9.28 2.14 1.15c2.56263974 1.3942268 5.6573603 1.3942268 8.22 0 1.9605895-1.0542809 4.3194105-1.0542809 6.28 0 2.5590734 1.3942933 5.6509266 1.3942933 8.21 0 1.9605895-1.0542809 4.3194105-1.0542809 6.28 0 2.5626397 1.3942268 5.6573603 1.3942268 8.22 0 1.9641397-1.0542577 4.3258603-1.0542577 6.29 0 1.2564377.6896832 2.6667178 1.0508525 4.1 1.05 2.61 0 4-1 6.26-2.24v4.64l-3.12 1.72c-1.9641397 1.0542577-4.3258603 1.0542577-6.29 0-2.5612222-1.3997872-5.6587778-1.3997872-8.22 0-1.9570372 1.0543099-4.3129628 1.0543099-6.27 0-2.5626397-1.3942268-5.6573603-1.3942268-8.22 0-1.9605895 1.0542809-4.3194105 1.0542809-6.28 0-2.5576503-1.3998689-5.6523497-1.3998689-8.21 0-1.961494 1.050683-4.31850602 1.050683-6.28 0l-3.11-1.68zm17-30.85c2.7614237 0 5 2.23857625 5 5 0 2.7614237-2.2385763 5-5 5s-5-2.2385763-5-5c0-2.76142375 2.2385763-5 5-5zm-6.4 7.83c1.411643 3.1698228 4.9324238 4.8270671 8.2748422 3.8949985 3.3424183-.9320687 5.4975422-4.1720991 5.0651578-7.6149985 1.4-.15-1.11-1 28.3 11.89h-51.49c2.45960628-3.5864072 5.87073508-6.4157394 9.85-8.17zm44.4 35.17h-54c-.55228475 0-1-.4477153-1-1v-4.23l2.14 1.23c2.56263974 1.3942268 5.6573603 1.3942268 8.22 0 1.9605895-1.0542809 4.3194105-1.0542809 6.28 0 2.5590734 1.3942933 5.6509266 1.3942933 8.21 0 1.9605895-1.0542809 4.3194105-1.0542809 6.28 0 2.5626397 1.3942268 5.6573603 1.3942268 8.22 0 1.9641397-1.0542577 4.3258603-1.0542577 6.29 0 2.5540765 1.3999554 5.6459235 1.3999554 8.2 0l2.16-1.23v4.23c0 .5522847-.4477153 1-1 1z"/><path id="Shape" d="m18 13c.5522847 0 1-.4477153 1-1 .0713687-.5198666.4801334-.9286313 1-1 .5522847 0 1-.4477153 1-1 0-.55228475-.4477153-1-1-1-1.6224449.08026535-2.9197346 1.3775551-3 3 0 .5522847.4477153 1 1 1z"/></g></svg>