<?xml version="1.0" encoding="iso-8859-1"?>
<!-- Generator: Adobe Illustrator 19.0.0, SVG Export Plug-In . SVG Version: 6.00 Build 0)  -->
<svg version="1.1" id="Layer_1" xmlns="http://www.w3.org/2000/svg" xmlns:xlink="http://www.w3.org/1999/xlink" x="0px" y="0px"
	 viewBox="0 0 463 463" style="enable-background:new 0 0 463 463;" xml:space="preserve">
<g>
	<g>
		<g>
			<path d="M439.5,224h-41.313l0.567-17h8.746c4.142,0,7.5-3.357,7.5-7.5s-3.358-7.5-7.5-7.5h-25.223
				c-3.515-18.205-19.561-32-38.777-32s-35.262,13.795-38.777,32H124.118l261-57.67c4.044-0.894,6.599-4.896,5.705-8.941
				c-0.894-4.045-4.896-6.594-8.941-5.705L264.22,145.682l-1.834-8.3c-2.795-12.652-15.361-20.674-28.017-17.876L187.5,129.862
				c-12.652,2.795-20.672,15.363-17.876,28.017l1.834,8.3L53.795,192.177c-4.044,0.894-6.599,4.896-5.705,8.941
				c0.702,3.179,3.329,5.416,6.384,5.804c0.245,0.034,0.493,0.055,0.745,0.064c0.063,0.002,0.124,0.016,0.188,0.016
				c0.021,0,0.042-0.003,0.063-0.003c0.01,0,0.02,0.002,0.03,0.002h8.746l0.567,17H23.5C10.542,224,0,234.542,0,247.5
				S10.542,271,23.5,271h42.88l4.594,137.816C71.687,430.228,89.027,447,110.451,447h242.098c21.424,0,38.765-16.772,39.478-38.184
				L396.621,271H439.5c12.958,0,23.5-10.542,23.5-23.5S452.458,224,439.5,224z M190.736,144.509l46.869-10.356
				c4.578-1.01,9.123,1.89,10.134,6.466l1.834,8.3l-63.469,14.024l-1.834-8.3C183.259,150.067,186.16,145.52,190.736,144.509z
				 M23.5,256c-4.687,0-8.5-3.813-8.5-8.5s3.813-8.5,8.5-8.5h41.813l0.567,17H23.5z M343.5,175c10.894,0,20.146,7.149,23.321,17
				h-46.643C323.354,182.149,332.606,175,343.5,175z M352.549,432H110.451c-10.956,0-20.184-7.075-23.336-17h288.77
				C372.733,424.925,363.505,432,352.549,432z M377.313,400H85.688l-6.434-193h304.492L377.313,400z M439.5,256h-42.379l0.567-17
				H439.5c4.687,0,8.5,3.813,8.5,8.5S444.187,256,439.5,256z"/>
			<path d="M392,159.5c0,12.958,10.542,23.5,23.5,23.5s23.5-10.542,23.5-23.5S428.458,136,415.5,136S392,146.542,392,159.5z
				 M415.5,151c4.687,0,8.5,3.813,8.5,8.5s-3.813,8.5-8.5,8.5s-8.5-3.813-8.5-8.5S410.813,151,415.5,151z"/>
			<path d="M375.5,103c12.958,0,23.5-10.542,23.5-23.5S388.458,56,375.5,56S352,66.542,352,79.5S362.542,103,375.5,103z M375.5,71
				c4.687,0,8.5,3.813,8.5,8.5s-3.813,8.5-8.5,8.5s-8.5-3.813-8.5-8.5S370.813,71,375.5,71z"/>
			<path d="M311.5,117.951c7.969,0,14.452-6.482,14.452-14.451s-6.483-14.451-14.452-14.451c-7.968,0-14.451,6.482-14.451,14.451
				S303.532,117.951,311.5,117.951z"/>
			<path d="M339.5,39c6.341,0,11.5-5.159,11.5-11.5S345.841,16,339.5,16S328,21.159,328,27.5S333.159,39,339.5,39z"/>
		</g>
	</g>
</g>
<g>
</g>
<g>
</g>
<g>
</g>
<g>
</g>
<g>
</g>
<g>
</g>
<g>
</g>
<g>
</g>
<g>
</g>
<g>
</g>
<g>
</g>
<g>
</g>
<g>
</g>
<g>
</g>
<g>
</g>
</svg>
