<?xml version="1.0" encoding="utf-8"?>
<!-- Generator: Adobe Illustrator 21.1.0, SVG Export Plug-In . SVG Version: 6.00 Build 0)  -->
<svg version="1.1" id="Layer_1" xmlns="http://www.w3.org/2000/svg" xmlns:xlink="http://www.w3.org/1999/xlink" x="0px" y="0px"
	 viewBox="0 0 463 463" style="enable-background:new 0 0 463 463;" xml:space="preserve">
<style type="text/css">
	.st0{fill:#F0F0F0;}
</style>
<g>
	<g>
		<g>
			<path class="st0" d="M439.5,224h-41.3l0.6-17h8.7c4.1,0,7.5-3.4,7.5-7.5s-3.4-7.5-7.5-7.5h-25.2c-3.5-18.2-19.6-32-38.8-32
				s-35.3,13.8-38.8,32H124.1l261-57.7c4-0.9,6.6-4.9,5.7-8.9c-0.9-4-4.9-6.6-8.9-5.7l-117.7,26l-1.8-8.3
				c-2.8-12.7-15.4-20.7-28-17.9l-46.9,10.4c-12.7,2.8-20.7,15.4-17.9,28l1.8,8.3l-117.7,26c-4,0.9-6.6,4.9-5.7,8.9
				c0.7,3.2,3.3,5.4,6.4,5.8c0.2,0,0.5,0.1,0.7,0.1c0.1,0,0.1,0,0.2,0c0,0,0,0,0.1,0c0,0,0,0,0,0h8.7l0.6,17H23.5
				C10.5,224,0,234.5,0,247.5c0,13,10.5,23.5,23.5,23.5h42.9L71,408.8C71.7,430.2,89,447,110.5,447h242.1
				c21.4,0,38.8-16.8,39.5-38.2l4.6-137.8h42.9c13,0,23.5-10.5,23.5-23.5S452.5,224,439.5,224z M190.7,144.5l46.9-10.4
				c4.6-1,9.1,1.9,10.1,6.5l1.8,8.3l-63.5,14l-1.8-8.3C183.3,150.1,186.2,145.5,190.7,144.5z M23.5,256c-4.7,0-8.5-3.8-8.5-8.5
				s3.8-8.5,8.5-8.5h41.8l0.6,17H23.5z M343.5,175c10.9,0,20.1,7.1,23.3,17h-46.6C323.4,182.1,332.6,175,343.5,175z M352.5,432
				H110.5c-11,0-20.2-7.1-23.3-17h288.8C372.7,424.9,363.5,432,352.5,432z M377.3,400H85.7l-6.4-193h304.5L377.3,400z M439.5,256
				h-42.4l0.6-17h41.8c4.7,0,8.5,3.8,8.5,8.5S444.2,256,439.5,256z"/>
			<path class="st0" d="M392,159.5c0,13,10.5,23.5,23.5,23.5s23.5-10.5,23.5-23.5S428.5,136,415.5,136S392,146.5,392,159.5z
				 M415.5,151c4.7,0,8.5,3.8,8.5,8.5s-3.8,8.5-8.5,8.5s-8.5-3.8-8.5-8.5S410.8,151,415.5,151z"/>
			<path class="st0" d="M375.5,103c13,0,23.5-10.5,23.5-23.5S388.5,56,375.5,56S352,66.5,352,79.5S362.5,103,375.5,103z M375.5,71
				c4.7,0,8.5,3.8,8.5,8.5s-3.8,8.5-8.5,8.5s-8.5-3.8-8.5-8.5S370.8,71,375.5,71z"/>
			<path class="st0" d="M311.5,118c8,0,14.5-6.5,14.5-14.5S319.5,89,311.5,89c-8,0-14.5,6.5-14.5,14.5S303.5,118,311.5,118z"/>
			<path class="st0" d="M339.5,39c6.3,0,11.5-5.2,11.5-11.5S345.8,16,339.5,16S328,21.2,328,27.5S333.2,39,339.5,39z"/>
		</g>
	</g>
</g>
</svg>
