<?xml version="1.0" encoding="utf-8"?>
<!-- Generator: Adobe Illustrator 21.1.0, SVG Export Plug-In . SVG Version: 6.00 Build 0)  -->
<svg version="1.1" id="Layer_1" xmlns="http://www.w3.org/2000/svg" xmlns:xlink="http://www.w3.org/1999/xlink" x="0px" y="0px"
	 viewBox="0 0 447 447" style="enable-background:new 0 0 447 447;" xml:space="preserve">
<style type="text/css">
	.st0{fill:#F0F0F0;}
</style>
<g>
	<g>
		<g>
			<path class="st0" d="M381.5,65.5C339.3,23.2,283.2,0,223.5,0s-115.8,23.2-158,65.5C23.2,107.7,0,163.8,0,223.5
				s23.2,115.8,65.5,158c42.2,42.2,98.3,65.5,158,65.5s115.8-23.2,158-65.5c42.2-42.2,65.5-98.3,65.5-158S423.8,107.7,381.5,65.5z
				 M223.5,432C108.5,432,15,338.5,15,223.5S108.5,15,223.5,15S432,108.5,432,223.5S338.5,432,223.5,432z"/>
			<path class="st0" d="M353.4,181c2.6-5.2,5.6-13.1,5.6-21.5c0-23.7-12.7-40.6-35-46.6c-4.5-5.7-10.4-9.3-17.3-10.3
				c-9.4-1.4-20.1,2-29.8,9.4c-15.1-20.8-33.6-32-53.4-32c-22.9,0-44.2,15.1-60.3,42.6c-4.2-6.4-11.4-10.6-19.7-10.6
				c-13,0-23.5,10.5-23.5,23.5s10.5,23.5,23.5,23.5c1.3,0,2.6-0.1,3.9-0.3c-2.2,6.9-4.1,14.1-5.6,21.5c-1.1-2.1-2.3-4.2-3.7-6.2
				c-10.2-14.5-26-23.1-42.4-22.8c-3.1,0-5.8,1.9-6.9,4.8c-5.2,13.4-3.8,28.7,3.4,42.1c-4.4-0.3-8.9-0.1-13.3,0.8
				c-3,0.6-5.4,2.9-5.9,5.9c-3.3,17.3,2.7,35.7,16.2,49.2c1.1,1.1,2.3,2.2,3.5,3.2c-4.3,1-8.5,2.6-12.3,4.8
				c-2.7,1.5-4.1,4.5-3.7,7.5c2.2,16.2,12.9,30.7,28.8,38.6c7.9,3.9,16.2,5.9,24.4,5.9c5.7,0,11.3-1,16.6-2.9
				c9,30.5,23.5,55.3,41.8,69.5c4.1,3.2,9.6,3.4,13.9,0.5c4.4-3,6.3-8.6,4.8-13.8c-4.5-14.8-6.9-33.8-6.9-53.3
				c0-47.6,14.2-79.2,23.6-79.2c9.4,0,23.6,31.6,23.6,79.2c0,19.5-2.5,38.4-6.9,53.3c-1.6,5.2,0.3,10.8,4.8,13.8
				c2,1.4,4.3,2.1,6.6,2.1c2.5,0,5.1-0.9,7.3-2.6c15.4-12,28.2-31.6,37.3-55.8c5.8,6.4,14.1,10.4,23.3,10.4
				c17.4,0,31.5-14.1,31.5-31.5c0-7.1-2.4-13.7-6.4-19c13.1-5.2,22.4-18,22.4-33c0-7.7-2.5-14.8-6.7-20.7
				C366,218.1,370.2,194.6,353.4,181z M101.3,166.6c9.4,1.5,18.4,7.4,24.5,16c6,8.6,8.4,19.1,6.6,28.5c-9.4-1.5-18.4-7.4-24.5-16
				C101.9,186.4,99.5,175.9,101.3,166.6z M87,213c10.7-0.3,22,4.3,30.4,12.7c8.4,8.4,13,19.6,12.7,30.4
				c-10.7,0.3-21.9-4.3-30.4-12.7C91.3,234.9,86.7,223.7,87,213z M112,294.6c-9.4-4.7-16.5-12.8-19.4-21.8c9-3.1,19.7-2.3,29.1,2.4
				c9.4,4.7,16.5,12.8,19.4,21.8C132.1,300,121.4,299.3,112,294.6z M231,95.8c15.7,3.3,30.6,16.8,42.5,39c0.3,0.5,0.6,1.1,0.8,1.6
				c-12.6-9-27.5-14.7-43.3-16.1V95.8z M173.5,134.8c11.9-22.1,26.7-35.7,42.5-39v24.6c-15.8,1.4-30.7,7-43.3,16.1
				C173,135.9,173.3,135.3,173.5,134.8z M143.5,144c-4.7,0-8.5-3.8-8.5-8.5s3.8-8.5,8.5-8.5s8.5,3.8,8.5,8.5S148.2,144,143.5,144z
				 M151.8,257.6c8.7,12.4,20.5,22.5,34.6,29.1c-0.7,5.8-1.1,11.9-1.3,18c-10.6-4.2-20.5-10.2-29.2-17.6
				C153.9,277.6,152.6,267.7,151.8,257.6z M164.3,317.9c-1-2.7-1.9-5.5-2.8-8.3c7.4,4.5,15.3,8.2,23.5,11c0.4,14.7,2.1,28.9,5,41.3
				C179.8,351.4,171,336.4,164.3,317.9z M188.8,271.1c-20.1-11-34-30.9-37.1-53.9c1-14.1,3.1-27.7,6.2-40.4
				c10.8-23.1,33.1-38.7,58.1-41.3v17.1c-27.1,3.7-48,26.9-48,55c0,18.8,9.5,36.2,25.1,46.4C191.4,259.2,190,265,188.8,271.1z
				 M198.8,239.6C189,232,183,220.2,183,207.5c0-19.8,14.2-36.3,33-39.8v17.5c-9.3,3.1-16,11.9-16,22.3c0,7.4,3.4,14,8.8,18.3
				C205.4,228.9,202,233.3,198.8,239.6z M223.5,216c-4.7,0-8.5-3.8-8.5-8.5s3.8-8.5,8.5-8.5s8.5,3.8,8.5,8.5S228.2,216,223.5,216z
				 M248.2,239.6c-3.2-6.3-6.6-10.8-10-13.8c5.4-4.3,8.8-10.9,8.8-18.3c0-10.3-6.7-19.1-16-22.3v-17.5c18.8,3.5,33,20,33,39.8
				C264,220.1,258,232,248.2,239.6z M282.7,317.9c-6.7,18.5-15.5,33.5-25.6,44c2.8-12.4,4.5-26.7,5-41.3c8.2-2.8,16.1-6.5,23.4-10.9
				C284.6,312.5,283.7,315.2,282.7,317.9z M291.2,287.1c-8.8,7.5-18.6,13.4-29.2,17.6c-0.2-6.2-0.7-12.2-1.3-18
				c14.1-6.6,25.9-16.7,34.6-29.1C294.4,267.7,293.1,277.6,291.2,287.1z M258.2,271.1c-1.2-6.1-2.6-11.8-4.3-17.1
				c15.6-10.2,25.1-27.7,25.1-46.4c0-28.1-20.9-51.3-48-55v-17.1c25,2.6,47.2,18.3,58.1,41.3c3.1,12.7,5.2,26.3,6.2,40.4
				C292.2,240.2,278.3,260.1,258.2,271.1z M300.3,161c-3.7-12-8.2-23.3-13.6-33.4c-0.5-1-1.1-2-1.7-3c6.5-5.3,13.9-8.1,19.5-7.2
				c3.6,0.5,6.4,2.5,8.7,6.1c1.7,2.6,4.1,3.1,5.4,3.5c11.6,2.7,25.4,10.5,25.4,32.5c0,8-4.8,16.3-6.4,19c-1,1.7-2.3,3.9-1.3,7.1
				c0.6,2,2,3.6,3.8,4.6c7.6,3.9,10.9,10.4,10.1,20.1c-0.3,3.7-1.1,7.2-2,10c-4.8-2.6-10.2-4.1-16-4.2c-1-3.1-1.6-7.8,1.5-12.4
				c2.3-3.4,1.4-8.1-2.1-10.4c-3.4-2.3-8.1-1.4-10.4,2.1c-5.8,8.7-5.4,17.4-3.8,23.5c-2.4,1-4.7,2.4-6.8,3.9
				c-0.8-16.3-2.9-32-6.3-46.8c3.6-0.3,7.4-1.3,11-3.5c4.7-2.9,10.5-8.7,11.7-20.3c0.4-4.1-2.6-7.8-6.7-8.2
				c-4.1-0.4-7.8,2.6-8.2,6.7c-0.4,4.3-2,7.4-4.6,9C305.3,161.1,302.6,161.4,300.3,161z M319.5,320c-9.1,0-16.5-7.4-16.5-16.5
				c0-0.3,0-0.7,0.1-1c0.5-1.9,0.9-3.7,1.4-5.6c2.6-5.8,8.4-9.9,15.1-9.9c9.1,0,16.5,7.4,16.5,16.5S328.6,320,319.5,320z M331.5,272
				c-11.3,0-20.5-9.2-20.5-20.5c0-11.3,9.2-20.5,20.5-20.5s20.5,9.2,20.5,20.5C352,262.8,342.8,272,331.5,272z"/>
			<path class="st0" d="M132.8,330.2c-2.9-2.9-7.7-2.9-10.6,0c-2.9,2.9-2.9,7.7,0,10.6l8,8c1.5,1.5,3.4,2.2,5.3,2.2s3.8-0.7,5.3-2.2
				c2.9-2.9,2.9-7.7,0-10.6L132.8,330.2z"/>
			<path class="st0" d="M228.8,316.8c2.9-2.9,2.9-7.7,0-10.6c-2.9-2.9-7.7-2.9-10.6,0l-8,8c-2.9,2.9-2.9,7.7,0,10.6
				c1.5,1.5,3.4,2.2,5.3,2.2s3.8-0.7,5.3-2.2L228.8,316.8z"/>
			<path class="st0" d="M228.8,266.2c-2.9-2.9-7.7-2.9-10.6,0c-2.9,2.9-2.9,7.7,0,10.6l8,8c1.5,1.5,3.4,2.2,5.3,2.2s3.8-0.7,5.3-2.2
				c2.9-2.9,2.9-7.7,0-10.6L228.8,266.2z"/>
			<path class="st0" d="M308.8,354.2c-2.9-2.9-7.7-2.9-10.6,0c-2.9,2.9-2.9,7.7,0,10.6l8,8c1.5,1.5,3.4,2.2,5.3,2.2s3.8-0.7,5.3-2.2
				c2.9-2.9,2.9-7.7,0-10.6L308.8,354.2z"/>
			<path class="st0" d="M223.5,336c-4.1,0-7.5,3.4-7.5,7.5v8c0,4.1,3.4,7.5,7.5,7.5s7.5-3.4,7.5-7.5v-8
				C231,339.4,227.6,336,223.5,336z"/>
			<path class="st0" d="M279.5,95c1.9,0,3.8-0.7,5.3-2.2l8-8c2.9-2.9,2.9-7.7,0-10.6c-2.9-2.9-7.7-2.9-10.6,0l-8,8
				c-2.9,2.9-2.9,7.7,0,10.6C275.7,94.3,277.6,95,279.5,95z"/>
			<path class="st0" d="M162.2,92.8c1.5,1.5,3.4,2.2,5.3,2.2s3.8-0.7,5.3-2.2c2.9-2.9,2.9-7.7,0-10.6l-8-8c-2.9-2.9-7.7-2.9-10.6,0
				c-2.9,2.9-2.9,7.7,0,10.6L162.2,92.8z"/>
			<path class="st0" d="M191.5,79c1.9,0,3.8-0.7,5.3-2.2l8-8c2.9-2.9,2.9-7.7,0-10.6c-2.9-2.9-7.7-2.9-10.6,0l-8,8
				c-2.9,2.9-2.9,7.7,0,10.6C187.7,78.3,189.6,79,191.5,79z"/>
		</g>
	</g>
</g>
</svg>
