<?xml version="1.0" encoding="utf-8"?>
<!-- Generator: Adobe Illustrator 21.1.0, SVG Export Plug-In . SVG Version: 6.00 Build 0)  -->
<svg version="1.1" id="Layer_1" xmlns="http://www.w3.org/2000/svg" xmlns:xlink="http://www.w3.org/1999/xlink" x="0px" y="0px"
	 viewBox="0 0 463 463" style="enable-background:new 0 0 463 463;" xml:space="preserve">
<style type="text/css">
	.st0{fill:#F0F0F0;}
</style>
<g>
	<g>
		<g>
			<path class="st0" d="M455.5,332h-0.6c-1.9-56.9-24.9-110.1-65.3-150.5c-37.1-37.1-85-59.6-136.6-64.4c1.3-2.9,2-6.1,2-9.5
				c0-13-10.5-23.5-23.5-23.5S208,94.5,208,107.5c0,3.4,0.7,6.6,2,9.5c-51.6,4.9-99.5,27.3-136.6,64.4C33,221.9,10,275.1,8.1,332
				H7.5c-4.1,0-7.5,3.4-7.5,7.5s3.4,7.5,7.5,7.5h12.3l14.5,19.4c5.9,7.9,15.3,12.6,25.2,12.6h344c9.9,0,19.3-4.7,25.2-12.6
				l14.5-19.4h12.3c4.1,0,7.5-3.4,7.5-7.5S459.6,332,455.5,332z M231.5,99c4.7,0,8.5,3.8,8.5,8.5s-3.8,8.5-8.5,8.5s-8.5-3.8-8.5-8.5
				S226.8,99,231.5,99z M416.7,357.4c-3.1,4.1-8,6.6-13.2,6.6h-344c-5.2,0-10.1-2.5-13.2-6.6L38.5,347h386L416.7,357.4z M23.1,332
				c4-111.5,95.9-201,208.4-201s204.4,89.5,208.4,201H23.1z"/>
			<path class="st0" d="M348,187.5c-3.3-2.5-8-1.9-10.5,1.4c-2.5,3.3-1.9,8,1.4,10.5c30.7,23.6,53.1,57,63,94.1
				c0.9,3.3,3.9,5.6,7.2,5.6c0.6,0,1.3-0.1,2-0.3c4-1.1,6.4-5.2,5.3-9.2C405.6,249.3,381.3,213.1,348,187.5z"/>
			<path class="st0" d="M314.7,167c-5.4-2.6-11-5-16.6-7.1c-3.9-1.4-8.2,0.5-9.6,4.4c-1.4,3.9,0.5,8.2,4.4,9.6
				c5.2,1.9,10.3,4.1,15.3,6.5c1.1,0.5,2.2,0.8,3.3,0.8c2.8,0,5.5-1.6,6.8-4.2C320,173.3,318.5,168.8,314.7,167z"/>
		</g>
	</g>
</g>
</svg>
