<?xml version="1.0" encoding="utf-8"?>
<!-- Generator: Adobe Illustrator 21.1.0, SVG Export Plug-In . SVG Version: 6.00 Build 0)  -->
<svg version="1.1" id="Layer_1" xmlns="http://www.w3.org/2000/svg" xmlns:xlink="http://www.w3.org/1999/xlink" x="0px" y="0px"
	 viewBox="0 0 447 447" style="enable-background:new 0 0 447 447;" xml:space="preserve">
<style type="text/css">
	.st0{fill:#F0F0F0;}
</style>
<g>
	<g>
		<g>
			<path class="st0" d="M381.5,65.5C339.3,23.2,283.2,0,223.5,0s-115.8,23.2-158,65.5C23.2,107.7,0,163.8,0,223.5
				s23.2,115.8,65.5,158c42.2,42.2,98.3,65.5,158,65.5s115.8-23.2,158-65.5c42.2-42.2,65.5-98.3,65.5-158S423.8,107.7,381.5,65.5z
				 M223.5,432C108.5,432,15,338.5,15,223.5S108.5,15,223.5,15S432,108.5,432,223.5S338.5,432,223.5,432z"/>
			<path class="st0" d="M307.5,151c6.9,0,12.5,5.6,12.5,12.5c0,4.1,3.4,7.5,7.5,7.5s7.5-3.4,7.5-7.5c0-15.2-12.3-27.5-27.5-27.5
				c-4.1,0-7.5,3.4-7.5,7.5S303.4,151,307.5,151z"/>
			<path class="st0" d="M307.5,191c4.1,0,7.5-3.4,7.5-7.5s-3.4-7.5-7.5-7.5c-4,0-7.6-1.8-10-5c-2.5-3.3-7.2-4-10.5-1.5
				c-3.3,2.5-4,7.2-1.5,10.5C290.8,187,298.8,191,307.5,191z"/>
			<path class="st0" d="M299.5,248c-1.5,0-3,0.1-4.5,0.4c0-0.3,0-0.6,0-0.9c0-13-10.5-23.5-23.5-23.5c-7,0-13.3,3.1-17.7,8
				c-0.7-2.6-1.4-5.2-1.9-7.8c-2.8-14.3-2.2-27.8,0-39.4c8.6,22.3,30.2,38.2,55.5,38.2c32.8,0,59.5-26.7,59.5-59.5
				S340.3,104,307.5,104c-16.8,0-32,7-42.8,18.2c-2.1-5.5-5.4-10.3-9.8-14.1l7.7-1.7c4-0.9,6.6-4.9,5.7-8.9c-0.9-4-4.9-6.6-8.9-5.7
				l-9.3,2.1l-2.1-9.3c-0.9-4-4.9-6.6-8.9-5.7c-4,0.9-6.6,4.9-5.7,8.9l2.6,11.6c-5.4-0.8-10.9-0.3-16.3,1.5c-9.2,3-16.6,9.4-21,18.1
				c-1.9,3.7-3.6,7.6-5.2,11.6c-3.4-3.8-7.6-6.9-12.2-8.9l6.8-4c3.6-2.1,4.8-6.7,2.7-10.3s-6.7-4.8-10.3-2.7l-8.3,4.8l-4.8-8.3
				c-2.1-3.6-6.7-4.8-10.3-2.7c-3.6,2.1-4.8,6.7-2.7,10.3l6,10.2c-5.4,0.9-10.5,3.1-15.1,6.4c-7.8,5.7-13,14-14.5,23.6
				c-1.1,6.9-1.7,14.1-1.7,21.4c0,0.2,0,0.4,0,0.5c0,0.2,0,0.4,0,0.7c0,2.3,0.1,4.6,0.2,6.9c-4.3-2.9-9.2-4.8-14.2-5.6l5.6-5.6
				c2.9-2.9,2.9-7.7,0-10.6c-2.9-2.9-7.7-2.9-10.6,0l-6.8,6.8l-6.8-6.8c-2.9-2.9-7.7-2.9-10.6,0c-2.9,2.9-2.9,7.7,0,10.6l8.4,8.4
				c-5,2.3-9.4,5.6-12.9,10c-6.1,7.5-9,16.9-8,26.5c0.7,7.1,2,14.3,3.9,21.5c0,0.1,0,0.1,0,0.2c0,0,0,0.1,0,0.1
				c4,15.2,10.6,30.5,19.3,45.1c0,0.1,0.1,0.1,0.1,0.2c0.1,0.1,0.1,0.2,0.2,0.3c8.4,13.9,18.7,27.1,30.8,39.1
				c12,12,25.2,22.3,38.9,30.6c0.2,0.1,0.3,0.2,0.5,0.3c0.1,0,0.1,0.1,0.2,0.1c14.6,8.7,29.8,15.3,45,19.3c0.1,0,0.2,0.1,0.2,0.1
				c0,0,0.1,0,0.1,0c7.2,1.9,14.4,3.2,21.5,3.9c1.2,0.1,2.4,0.2,3.6,0.2c8.3,0,16.3-2.8,22.9-8.2c4.3-3.6,7.7-8,10-12.9l8.4,8.4
				c1.5,1.5,3.4,2.2,5.3,2.2s3.8-0.7,5.3-2.2c2.9-2.9,2.9-7.7,0-10.6l-6.8-6.8l5.2-5.2l4,6.8c1.4,2.4,3.9,3.7,6.5,3.7
				c1.3,0,2.6-0.3,3.8-1c3.6-2.1,4.8-6.7,2.7-10.3l-4.8-8.3l8.3-4.8c3.6-2.1,4.8-6.7,2.7-10.3c-2.1-3.6-6.7-4.8-10.3-2.7l-6.8,4
				c0.4-4.2,0.1-8.5-1-12.6c2.1,0.5,4.2,0.8,6.4,0.8c15.2,0,27.5-12.3,27.5-27.5C327,260.3,314.7,248,299.5,248z M307.5,119
				c24.5,0,44.5,20,44.5,44.5S332,208,307.5,208S263,188,263,163.5S283,119,307.5,119z M202.3,160.2c0.5-3.1,0.6-6.1,0.3-9.2
				l8.4,2.7c0.8,0.3,1.6,0.4,2.3,0.4c3.2,0,6.1-2,7.1-5.2c1.3-3.9-0.9-8.2-4.8-9.5l-8.5-2.8c1.5-3.9,3.1-7.6,4.9-11.2
				c2.6-5,6.9-8.8,12.3-10.6c5.4-1.8,11.1-1.3,16.2,1.2s8.8,6.9,10.6,12.3c1.8,5.4,1.3,11.1-1.2,16.2c-7.7,15.2-19.6,46.2-12.6,82.4
				c2.6,13.7,8.4,27.9,15.1,40.3c-12.6-9.2-24.4-22.5-33.6-38.2c-6.2-10.6-10.8-21.8-13.7-32.7l2.1,0.1c0.1,0,0.2,0,0.4,0
				c4,0,7.3-3.1,7.5-7.1c0.2-4.1-3-7.6-7.1-7.8l-5.8-0.3C201.2,173.9,201.2,166.7,202.3,160.2z M258.8,338.9
				c-0.6,5.6-3.3,10.7-7.6,14.3c-4.4,3.6-9.9,5.3-15.5,4.7c-4-0.4-8-1-12.1-1.8l2.2-8.7c1-4-1.4-8.1-5.4-9.1c-4-1-8.1,1.4-9.1,5.4
				l-2.2,8.6c-9.4-3-18.8-7.1-28-12.1l5.1-8.9c2.1-3.6,0.8-8.2-2.8-10.2c-3.6-2.1-8.2-0.8-10.2,2.8l-4.9,8.6
				c-8.5-5.6-16.8-12.1-24.5-19.3l8.1-8.1c2.9-2.9,2.9-7.7,0-10.6c-2.9-2.9-7.7-2.9-10.6,0l-8.1,8.1c-7.2-7.8-13.7-16-19.3-24.5
				l8.6-4.9c3.6-2.1,4.8-6.6,2.8-10.2c-2.1-3.6-6.6-4.8-10.2-2.8l-8.9,5.1c-5-9.2-9.1-18.6-12.1-28l8.6-2.2c4-1,6.4-5.1,5.4-9.1
				s-5.1-6.4-9.1-5.4l-8.7,2.2c-0.8-4.1-1.4-8.1-1.8-12.1c-0.6-5.6,1.1-11.1,4.7-15.5c3.6-4.4,8.7-7.1,14.3-7.6
				c0.7-0.1,1.4-0.1,2.1-0.1c4.9,0,9.6,1.7,13.4,4.8c4.4,3.6,7.1,8.7,7.6,14.3c2.3,23.5,16.5,50.2,37.8,71.6
				c21.4,21.4,48.1,35.5,71.6,37.8c4.9,0.5,9.4,2.6,12.9,6.1C257.2,326.3,259.4,332.6,258.8,338.9z M277.9,318.7
				c-1.2,3.1-3,5.9-5.4,8.1c-1.7-5.8-4.8-11.2-9.2-15.6c-5.9-5.9-13.7-9.6-22-10.4c-9.7-1-20.1-4.4-30.4-9.7c1.5-2.9,1-6.5-1.5-8.9
				c-3-2.9-7.7-2.8-10.6,0.2l-0.8,0.9c-6.7-4.6-13.1-10-19.2-16c-1.3-1.3-2.6-2.6-3.8-3.9l8-4.7c3.6-2.1,4.8-6.7,2.7-10.3
				s-6.7-4.8-10.3-2.7l-9.9,5.8c-5-9.3-9.1-19-12.4-28.7l9.5-2.6c4-1.1,6.4-5.2,5.3-9.2c-1.1-4-5.2-6.4-9.2-5.3l-9.8,2.6
				c-2.5-10.1-4.1-20.3-4.6-30.1l8.9,0.1c0,0,0,0,0.1,0c4.1,0,7.5-3.3,7.5-7.4c0-4.1-3.3-7.5-7.4-7.6l-9-0.1
				c0.2-4.1,0.7-8.2,1.3-12.2c0.9-5.6,3.9-10.5,8.5-13.8s10.2-4.7,15.8-3.8c5.6,0.9,10.5,3.9,13.8,8.5s4.7,10.2,3.8,15.8
				c-3.7,23.3,3.1,52.8,18.4,78.9c15.2,26.1,37.5,46.6,59.6,54.8c2.7,1,5.1,2.5,7.2,4.5c0.2,0.2,0.5,0.5,0.7,0.7
				c0.1,0.1,0.1,0.1,0.2,0.1c1.1,1.2,2.1,2.4,2.9,3.9C279.6,306.2,280.1,312.8,277.9,318.7z M272,271c0.1,0,0.3,0,0.4,0
				c0,0.2-0.1,0.3-0.1,0.5C272.2,271.3,272.1,271.1,272,271z M271.5,256c-4.7,0-8.5-3.8-8.5-8.5s3.8-8.5,8.5-8.5s8.5,3.8,8.5,8.5
				S276.2,256,271.5,256z M299.5,288c-6.9,0-12.5-5.6-12.5-12.5s5.6-12.5,12.5-12.5s12.5,5.6,12.5,12.5S306.4,288,299.5,288z"/>
			<path class="st0" d="M350.2,228.1c-1.9-3.7-6.4-5.2-10.1-3.4l-16,8c-3.7,1.9-5.2,6.4-3.4,10.1c1.3,2.6,4,4.1,6.7,4.1
				c1.1,0,2.3-0.3,3.3-0.8l16-8C350.6,236.4,352.1,231.9,350.2,228.1z"/>
			<path class="st0" d="M356.8,266.2c-2.9-2.9-7.7-2.9-10.6,0c-2.9,2.9-2.9,7.7,0,10.6l8,8c1.5,1.5,3.4,2.2,5.3,2.2s3.8-0.7,5.3-2.2
				c2.9-2.9,2.9-7.7,0-10.6L356.8,266.2z"/>
			<path class="st0" d="M199.5,95c1.9,0,3.8-0.7,5.3-2.2l8-8c2.9-2.9,2.9-7.7,0-10.6c-2.9-2.9-7.7-2.9-10.6,0l-8,8
				c-2.9,2.9-2.9,7.7,0,10.6C195.7,94.3,197.6,95,199.5,95z"/>
			<circle class="st0" cx="127.5" cy="111.5" r="8"/>
			<circle class="st0" cx="167.5" cy="71.5" r="8"/>
			<circle class="st0" cx="367.5" cy="247.5" r="8"/>
			<circle class="st0" cx="343.5" cy="311.5" r="8"/>
		</g>
	</g>
</g>
</svg>
