<svg id="outline" height="512" viewBox="0 0 64 64" width="512" xmlns="http://www.w3.org/2000/svg"><path d="m28.4 5h-1.4a5.966 5.966 0 0 0 -4.021 1.56 2.989 2.989 0 0 0 -2.648-2.751l-7.221-.8-.22 1.988 7.22.8a1 1 0 0 1 .89.993v3.21h-3a1 1 0 0 0 -1 1v50a1 1 0 0 0 1 1h30a1 1 0 0 0 1-1v-8a1 1 0 0 0 -2 0v3h-28v-44h2v41a1 1 0 0 0 1 1h22a1 1 0 0 0 1-1v-41h2v33a1 1 0 0 0 2 0v-34a1 1 0 0 0 -1-1h-3.183a8.047 8.047 0 0 0 -6.14-6.164l-8.467-1.814a1 1 0 0 0 -1.042 1.533.93.93 0 0 1 -.768 1.445zm18.6 53v2h-28v-2zm-4-6h-20v-35h20zm0-37h-20v-3h20zm-12.022-9.547a2.949 2.949 0 0 0 .337-1.148l6.943 1.487a6.02 6.02 0 0 1 4.484 4.208h-19.6a4 4 0 0 1 3.858-3h1.4a2.927 2.927 0 0 0 2.578-1.547z"/><path d="m37 20h2v2h-2z"/><path d="m34 23h2v2h-2z"/><path d="m37 26h2v2h-2z"/><path d="m28 42h2v2h-2z"/><path d="m25 45h2v2h-2z"/><path d="m28 48h2v2h-2z"/><circle cx="48" cy="49" r="1"/></svg>