<svg id="Layer_1" height="512" viewBox="0 0 128 128" width="512" xmlns="http://www.w3.org/2000/svg" data-name="Layer 1"><path d="m74.606 97.915.007-.015 1.2-2.531c.019-.04.041-.079.057-.121l9.4-19.849c0-.011.01-.021.015-.031l10.654-22.5c0-.011.011-.022.016-.034l10.978-23.182a1.749 1.749 0 0 0 -.345-1.986 60.228 60.228 0 0 0 -85.176 0 1.749 1.749 0 0 0 -.345 1.986l10.979 23.185c0 .011.011.022.016.034l10.654 22.5c0 .011.01.021.015.031l10.656 22.498.006.014 5.319 11.232c.011.029.027.056.04.085l3.666 7.74a1.751 1.751 0 0 0 3.164 0l3.666-7.74c.013-.029.029-.056.04-.085zm-28.154-22.836.948-.948 5.825 5.825-3.025 3.029zm-16.428-34.69.121-.113 6.48 6.48-2.433 2.434zm9.8-7.031 5.1 5.1-5.824 5.824-6.293-6.293a50.555 50.555 0 0 1 7.02-4.631zm11.835-4.764 1.563 1.563-5.822 5.825-4.293-4.293a53.326 53.326 0 0 1 8.555-3.096zm12.341-1.694h.635a6.067 6.067 0 0 0 1.68-.249l3.508 3.5-5.823 5.831-5.825-5.825 3.166-3.166c.889-.055 1.776-.091 2.659-.091zm29.808 22.291-2.439-2.437 5.821-5.823.359.359zm-10.67 22.529-.064-.064.179-.179zm-5.338 11.265-3.029-3.029 5.829-5.825.948.948zm-5.028 10.624-.472.472-5.825-5.825 5.825-5.825 3.913 3.913zm.978-59.528v7.419a5.036 5.036 0 0 0 .153 1.178l-1.6 1.6-5.825-5.825 5.822-5.821zm-3.925 12.675-5.825 5.826-5.825-5.825 5.825-5.826zm2.475 19.073 5.828 5.828-5.828 5.825-5.827-5.827zm-8.3 3.353-5.825-5.825 5.825-5.826 5.826 5.826zm10.772-5.828 5.828-5.826 5.829 5.829-5.829 5.825zm-2.472-2.472-5.826-5.826 5.826-5.825 5.826 5.826zm-16.6-16.6-5.825-5.825 5.825-5.826 5.825 5.825zm-2.475 2.475-5.825 5.825-5.825-5.825 5.825-5.826zm2.475 2.474 5.825 5.825-5.825 5.826-5.826-5.826zm-2.475 14.125-5.825 5.826-5.826-5.826 5.826-5.825zm2.475 2.475 5.825 5.825-5.825 5.826-5.825-5.825zm8.3 8.3 5.827 5.827-5.827 5.824-5.826-5.826zm24.474-13.676-5.4-5.4 5.823-5.824 3.323 3.32zm6.246-21.994-5.82 5.823-4.98-4.976v-1.695l4.935-4.943a9.868 9.868 0 0 0 2.718 2.643h.006zm-10.8-10.8 2.5 2.5-2.5 2.5zm-.567 16.03 3.073 3.07-5.826 5.821-5.826-5.826 1.126-1.125a5.015 5.015 0 0 0 2.93.953c.092 0 .184 0 .275-.007a5.044 5.044 0 0 0 4.245-2.888zm-9.6-17.457-1.453 1.45-2.993-2.984a5.785 5.785 0 0 0 1.276-3.638 1.573 1.573 0 0 1 .494-1.149 1.556 1.556 0 0 1 1.178-.431 1.708 1.708 0 0 1 1.5 1.769zm-34.65 23 5.825 5.825-5.4 5.4-3.744-7.906zm5.647 22.247.179.179-.064.064zm10.95 10.949 5.826 5.826-5.826 5.821-.486-.486-3.432-7.247zm3.972 20.562 1.855 1.855-.663.662zm-1.492-6.441 5.82-5.82 5.825 5.824-5.825 5.819zm10.144 6.449-1.187 2.507-.661-.661zm-4.324-89.472a56.339 56.339 0 0 1 39.235 15.756l-3.662 7.733a51.274 51.274 0 0 0 -5.751-4.4l-2.354-2.357a6.391 6.391 0 0 1 -.885-3.238 5.181 5.181 0 0 0 -4.812-5.265 5.1 5.1 0 0 0 -3.771 1.389c-.017.016-.028.036-.045.052l-.014.011c-.033.033-.056.07-.086.1a5.1 5.1 0 0 0 -1.44 3.519v14.484a1.709 1.709 0 0 1 -1.5 1.77 1.583 1.583 0 0 1 -1.665-1.582v-20.253a5.179 5.179 0 0 0 -4.812-5.264 4.963 4.963 0 0 0 -3.771 1.387 5.108 5.108 0 0 0 -1.585 3.688 2.321 2.321 0 0 1 -.7 1.664 2.462 2.462 0 0 1 -1.705.682l-.677-.004c-1.1 0-2.214.056-3.326.135a1.747 1.747 0 0 0 -.478.039 52.42 52.42 0 0 0 -8.196 1.326 1.739 1.739 0 0 0 -.483.112 57.1 57.1 0 0 0 -11.947 4.519 1.725 1.725 0 0 0 -.443.221 53.8 53.8 0 0 0 -9.853 6.619 1.745 1.745 0 0 0 -.313.245c-.018.018-.03.039-.047.057-.154.133-.312.261-.464.4l-3.688-7.787a56.339 56.339 0 0 1 39.238-15.758zm0 98.6-1.546-3.265 1.546-1.541 1.545 1.545z"/></svg>