<?xml version="1.0" encoding="iso-8859-1"?>
<!-- Generator: Adobe Illustrator 19.0.0, SVG Export Plug-In . SVG Version: 6.00 Build 0)  -->
<svg version="1.1" id="Layer_1" xmlns="http://www.w3.org/2000/svg" xmlns:xlink="http://www.w3.org/1999/xlink" x="0px" y="0px"
	 viewBox="0 0 463 463" style="enable-background:new 0 0 463 463;" xml:space="preserve">
<g>
	<g>
		<path d="M399.5,416h-21.181c2.965-4.802,4.681-10.454,4.681-16.5v-224c0-12.031-6.782-22.503-16.721-27.807l-5.988-23.953
			c-1.729-6.912-7.912-11.74-15.037-11.74h-10.771L326.981,6.966C326.701,3.041,323.435,0,319.5,0h-16
			c-3.935,0-7.201,3.041-7.481,6.966L288.517,112h-10.771c-7.125,0-13.308,4.828-15.037,11.741l-5.988,23.952
			C246.782,152.997,240,163.469,240,175.5v224c0,6.046,1.716,11.698,4.681,16.5h-26.363c2.965-4.802,4.681-10.454,4.681-16.5v-224
			c0-12.031-6.782-22.503-16.721-27.807l-5.988-23.953c-1.729-6.912-7.912-11.74-15.037-11.74h-10.771L166.981,6.966
			C166.701,3.041,163.435,0,159.5,0h-16c-3.935,0-7.201,3.041-7.481,6.966L128.517,112h-10.771c-7.125,0-13.308,4.828-15.037,11.741
			l-5.988,23.952C86.782,152.997,80,163.469,80,175.5v224c0,6.046,1.716,11.698,4.681,16.5H63.5c-8.547,0-15.5,6.953-15.5,15.5v16
			c0,8.547,6.953,15.5,15.5,15.5h336c8.547,0,15.5-6.953,15.5-15.5v-16C415,422.953,408.047,416,399.5,416z M310.483,15h2.033
			l6.929,97h-15.89L310.483,15z M277.261,127.379c0.055-0.223,0.255-0.379,0.485-0.379h67.508c0.23,0,0.43,0.156,0.485,0.378
			L349.895,144h-76.789L277.261,127.379z M255,239h56.5c4.687,0,8.5,3.813,8.5,8.5v80c0,4.687-3.813,8.5-8.5,8.5H255V239z M255,351
			h56.5c12.958,0,23.5-10.542,23.5-23.5v-80c0-12.958-10.542-23.5-23.5-23.5H255v-48.5c0-9.098,7.402-16.5,16.5-16.5h80
			c9.098,0,16.5,7.402,16.5,16.5v224c0,9.098-7.402,16.5-16.5,16.5h-80c-9.098,0-16.5-7.402-16.5-16.5V351z M150.483,15h2.033
			l6.929,97h-15.891L150.483,15z M117.261,127.379c0.055-0.223,0.255-0.379,0.485-0.379h67.508c0.23,0,0.43,0.156,0.485,0.378
			L189.895,144h-76.789L117.261,127.379z M95,239h56.5c4.687,0,8.5,3.813,8.5,8.5v80c0,4.687-3.813,8.5-8.5,8.5H95V239z M95,351
			h56.5c12.958,0,23.5-10.542,23.5-23.5v-80c0-12.958-10.542-23.5-23.5-23.5H95v-48.5c0-9.098,7.402-16.5,16.5-16.5h80
			c9.098,0,16.5,7.402,16.5,16.5v224c0,9.098-7.402,16.5-16.5,16.5h-80c-9.098,0-16.5-7.402-16.5-16.5V351z M400,447.5
			c0,0.276-0.224,0.5-0.5,0.5h-336c-0.276,0-0.5-0.224-0.5-0.5v-16c0-0.276,0.224-0.5,0.5-0.5h336c0.276,0,0.5,0.224,0.5,0.5V447.5z
			"/>
	</g>
</g>
<g>
</g>
<g>
</g>
<g>
</g>
<g>
</g>
<g>
</g>
<g>
</g>
<g>
</g>
<g>
</g>
<g>
</g>
<g>
</g>
<g>
</g>
<g>
</g>
<g>
</g>
<g>
</g>
<g>
</g>
</svg>
