<?xml version="1.0" encoding="utf-8"?>
<!-- Generator: Adobe Illustrator 21.1.0, SVG Export Plug-In . SVG Version: 6.00 Build 0)  -->
<svg version="1.1" id="Layer_1" xmlns="http://www.w3.org/2000/svg" xmlns:xlink="http://www.w3.org/1999/xlink" x="0px" y="0px"
	 viewBox="0 0 463 463" style="enable-background:new 0 0 463 463;" xml:space="preserve">
<style type="text/css">
	.st0{fill:#F0F0F0;}
</style>
<g>
	<g>
		<path class="st0" d="M399.5,416h-21.2c3-4.8,4.7-10.5,4.7-16.5v-224c0-12-6.8-22.5-16.7-27.8l-6-24c-1.7-6.9-7.9-11.7-15-11.7
			h-10.8L327,7c-0.3-3.9-3.5-7-7.5-7h-16c-3.9,0-7.2,3-7.5,7l-7.5,105h-10.8c-7.1,0-13.3,4.8-15,11.7l-6,24
			c-9.9,5.3-16.7,15.8-16.7,27.8v224c0,6,1.7,11.7,4.7,16.5h-26.4c3-4.8,4.7-10.5,4.7-16.5v-224c0-12-6.8-22.5-16.7-27.8l-6-24
			c-1.7-6.9-7.9-11.7-15-11.7h-10.8L167,7c-0.3-3.9-3.5-7-7.5-7h-16c-3.9,0-7.2,3-7.5,7l-7.5,105h-10.8c-7.1,0-13.3,4.8-15,11.7
			l-6,24C86.8,153,80,163.5,80,175.5v224c0,6,1.7,11.7,4.7,16.5H63.5C55,416,48,423,48,431.5v16c0,8.5,7,15.5,15.5,15.5h336
			c8.5,0,15.5-7,15.5-15.5v-16C415,423,408,416,399.5,416z M310.5,15h2l6.9,97h-15.9L310.5,15z M277.3,127.4
			c0.1-0.2,0.3-0.4,0.5-0.4h67.5c0.2,0,0.4,0.2,0.5,0.4l4.2,16.6h-76.8L277.3,127.4z M255,239h56.5c4.7,0,8.5,3.8,8.5,8.5v80
			c0,4.7-3.8,8.5-8.5,8.5H255V239z M255,351h56.5c13,0,23.5-10.5,23.5-23.5v-80c0-13-10.5-23.5-23.5-23.5H255v-48.5
			c0-9.1,7.4-16.5,16.5-16.5h80c9.1,0,16.5,7.4,16.5,16.5v224c0,9.1-7.4,16.5-16.5,16.5h-80c-9.1,0-16.5-7.4-16.5-16.5V351z
			 M150.5,15h2l6.9,97h-15.9L150.5,15z M117.3,127.4c0.1-0.2,0.3-0.4,0.5-0.4h67.5c0.2,0,0.4,0.2,0.5,0.4l4.2,16.6h-76.8
			L117.3,127.4z M95,239h56.5c4.7,0,8.5,3.8,8.5,8.5v80c0,4.7-3.8,8.5-8.5,8.5H95V239z M95,351h56.5c13,0,23.5-10.5,23.5-23.5v-80
			c0-13-10.5-23.5-23.5-23.5H95v-48.5c0-9.1,7.4-16.5,16.5-16.5h80c9.1,0,16.5,7.4,16.5,16.5v224c0,9.1-7.4,16.5-16.5,16.5h-80
			c-9.1,0-16.5-7.4-16.5-16.5V351z M400,447.5c0,0.3-0.2,0.5-0.5,0.5h-336c-0.3,0-0.5-0.2-0.5-0.5v-16c0-0.3,0.2-0.5,0.5-0.5h336
			c0.3,0,0.5,0.2,0.5,0.5V447.5z"/>
	</g>
</g>
</svg>
