<?xml version="1.0" encoding="iso-8859-1"?>
<!-- Generator: Adobe Illustrator 19.0.0, SVG Export Plug-In . SVG Version: 6.00 Build 0)  -->
<svg version="1.1" id="Layer_1" xmlns="http://www.w3.org/2000/svg" xmlns:xlink="http://www.w3.org/1999/xlink" x="0px" y="0px"
	 viewBox="0 0 463 463" style="enable-background:new 0 0 463 463;" xml:space="preserve">
<g>
	<g>
		<g>
			<path d="M455.5,264.016H251.964c-4.469-7.621-9.308-14.176-13.854-18.721c-13.201-13.201-32.569-18.224-50.55-13.101
				c-3.122,0.889-6.102,0.224-7.969-1.782L62.407,104.547c-4.998-5.368-11.789-8.396-19.122-8.528
				c-7.302-0.121-14.228,2.653-19.441,7.867c-5.187,5.186-7.971,12.081-7.84,19.415c0.131,7.333,3.16,14.125,8.527,19.122
				l125.865,117.184c1.216,1.132,1.93,2.675,2.113,4.409H7.5c-4.142,0-7.5,3.358-7.5,7.5c0,4.142,3.358,7.5,7.5,7.5h75.692
				l44.568,76.403c7.052,12.087,20.125,19.597,34.12,19.597h139.24c13.994,0,27.068-7.509,34.12-19.597l44.568-76.403H455.5
				c4.142,0,7.5-3.358,7.5-7.5C463,267.374,459.642,264.016,455.5,264.016z M34.752,131.444c-2.361-2.198-3.693-5.186-3.75-8.411
				c-0.058-3.226,1.167-6.259,3.475-8.567c2.282-2.281,5.302-3.506,8.541-3.448c3.226,0.058,6.213,1.39,8.411,3.751l117.184,125.865
				c5.699,6.12,14.532,8.416,23.057,5.986c12.749-3.629,26.479-0.073,35.834,9.282c2.105,2.105,4.375,4.883,6.653,8.114H167.53
				c-0.229-5.877-2.63-11.4-6.912-15.388L34.752,131.444z M322.283,347.86c-4.374,7.498-12.482,12.155-21.163,12.155H161.88
				c-8.68,0-16.789-4.658-21.163-12.155l-40.159-68.845h261.884L322.283,347.86z"/>
			<path d="M216,175.52c0,12.625,5.348,19.305,9.646,24.672c3.689,4.608,6.354,7.937,6.354,15.297c0,4.142,3.358,7.5,7.5,7.5
				c4.142,0,7.5-3.358,7.5-7.5c0-12.625-5.348-19.304-9.645-24.672c-3.689-4.608-6.355-7.938-6.355-15.297
				c0-7.37,2.667-10.704,6.357-15.317c4.296-5.371,9.643-12.055,9.643-24.687c0-12.637-5.346-19.325-9.642-24.699
				c-3.691-4.618-6.358-7.954-6.358-15.333c0-4.142-3.358-7.5-7.5-7.5c-4.142,0-7.5,3.358-7.5,7.5
				c0,12.637,5.346,19.325,9.642,24.699c3.691,4.618,6.358,7.954,6.358,15.333c0,7.37-2.667,10.704-6.357,15.317
				C221.347,156.204,216,162.888,216,175.52z"/>
			<path d="M256.484,183.011c2.381,0,4.504-1.111,5.879-2.842c5.412-6.766,16.636-20.823,16.636-44.654
				c0-9.68-1.861-18.805-5.532-27.123c-1.672-3.79-6.099-5.506-9.89-3.833c-3.79,1.672-5.505,6.1-3.833,9.89
				c2.823,6.397,4.255,13.485,4.255,21.066c0,18.514-8.295,28.964-13.303,35.226c-1.07,1.296-1.713,2.958-1.713,4.771
				C248.984,179.653,252.342,183.011,256.484,183.011z"/>
			<path d="M196.325,206.937c1.004,0,2.025-0.203,3.004-0.632c3.794-1.661,5.523-6.084,3.862-9.878
				C200.41,190.074,199,183.04,199,175.519c0-18.59,8.368-29.051,13.369-35.304c0.135-0.169,0.263-0.344,0.383-0.524
				c1.68-2.519,1.672-5.852-0.008-8.371c-2.297-3.446-6.955-4.377-10.4-2.08c-0.888,0.592-1.608,1.34-2.15,2.184
				C194.636,138.389,184,152.326,184,175.519c0,9.604,1.834,18.663,5.451,26.924C190.684,205.258,193.437,206.937,196.325,206.937z"
				/>
		</g>
	</g>
</g>
<g>
</g>
<g>
</g>
<g>
</g>
<g>
</g>
<g>
</g>
<g>
</g>
<g>
</g>
<g>
</g>
<g>
</g>
<g>
</g>
<g>
</g>
<g>
</g>
<g>
</g>
<g>
</g>
<g>
</g>
</svg>
