<?xml version="1.0" encoding="utf-8"?>
<!-- Generator: Adobe Illustrator 21.1.0, SVG Export Plug-In . SVG Version: 6.00 Build 0)  -->
<svg version="1.1" id="Layer_1" xmlns="http://www.w3.org/2000/svg" xmlns:xlink="http://www.w3.org/1999/xlink" x="0px" y="0px"
	 viewBox="0 0 463 463" style="enable-background:new 0 0 463 463;" xml:space="preserve">
<style type="text/css">
	.st0{fill:#F0F0F0;}
</style>
<g>
	<g>
		<g>
			<path class="st0" d="M455.5,264H252c-4.5-7.6-9.3-14.2-13.9-18.7c-13.2-13.2-32.6-18.2-50.6-13.1c-3.1,0.9-6.1,0.2-8-1.8
				L62.4,104.5c-5-5.4-11.8-8.4-19.1-8.5c-7.3-0.1-14.2,2.7-19.4,7.9c-5.2,5.2-8,12.1-7.8,19.4c0.1,7.3,3.2,14.1,8.5,19.1
				l125.9,117.2c1.2,1.1,1.9,2.7,2.1,4.4H7.5c-4.1,0-7.5,3.4-7.5,7.5s3.4,7.5,7.5,7.5h75.7l44.6,76.4c7.1,12.1,20.1,19.6,34.1,19.6
				h139.2c14,0,27.1-7.5,34.1-19.6l44.6-76.4h75.7c4.1,0,7.5-3.4,7.5-7.5S459.6,264,455.5,264z M34.8,131.4
				c-2.4-2.2-3.7-5.2-3.8-8.4c-0.1-3.2,1.2-6.3,3.5-8.6c2.3-2.3,5.3-3.5,8.5-3.4c3.2,0.1,6.2,1.4,8.4,3.8l117.2,125.9
				c5.7,6.1,14.5,8.4,23.1,6c12.7-3.6,26.5-0.1,35.8,9.3c2.1,2.1,4.4,4.9,6.7,8.1h-66.6c-0.2-5.9-2.6-11.4-6.9-15.4L34.8,131.4z
				 M322.3,347.9c-4.4,7.5-12.5,12.2-21.2,12.2H161.9c-8.7,0-16.8-4.7-21.2-12.2L100.6,279h261.9L322.3,347.9z"/>
			<path class="st0" d="M216,175.5c0,12.6,5.3,19.3,9.6,24.7c3.7,4.6,6.4,7.9,6.4,15.3c0,4.1,3.4,7.5,7.5,7.5s7.5-3.4,7.5-7.5
				c0-12.6-5.3-19.3-9.6-24.7c-3.7-4.6-6.4-7.9-6.4-15.3c0-7.4,2.7-10.7,6.4-15.3c4.3-5.4,9.6-12.1,9.6-24.7
				c0-12.6-5.3-19.3-9.6-24.7c-3.7-4.6-6.4-8-6.4-15.3c0-4.1-3.4-7.5-7.5-7.5s-7.5,3.4-7.5,7.5c0,12.6,5.3,19.3,9.6,24.7
				c3.7,4.6,6.4,8,6.4,15.3c0,7.4-2.7,10.7-6.4,15.3C221.3,156.2,216,162.9,216,175.5z"/>
			<path class="st0" d="M256.5,183c2.4,0,4.5-1.1,5.9-2.8c5.4-6.8,16.6-20.8,16.6-44.7c0-9.7-1.9-18.8-5.5-27.1
				c-1.7-3.8-6.1-5.5-9.9-3.8c-3.8,1.7-5.5,6.1-3.8,9.9c2.8,6.4,4.3,13.5,4.3,21.1c0,18.5-8.3,29-13.3,35.2c-1.1,1.3-1.7,3-1.7,4.8
				C249,179.7,252.3,183,256.5,183z"/>
			<path class="st0" d="M196.3,206.9c1,0,2-0.2,3-0.6c3.8-1.7,5.5-6.1,3.9-9.9c-2.8-6.4-4.2-13.4-4.2-20.9
				c0-18.6,8.4-29.1,13.4-35.3c0.1-0.2,0.3-0.3,0.4-0.5c1.7-2.5,1.7-5.9,0-8.4c-2.3-3.4-7-4.4-10.4-2.1c-0.9,0.6-1.6,1.3-2.1,2.2
				c-5.6,7-16.2,20.9-16.2,44.1c0,9.6,1.8,18.7,5.5,26.9C190.7,205.3,193.4,206.9,196.3,206.9z"/>
		</g>
	</g>
</g>
</svg>
