<?xml version="1.0" encoding="utf-8"?>
<!-- Generator: Adobe Illustrator 21.1.0, SVG Export Plug-In . SVG Version: 6.00 Build 0)  -->
<svg version="1.1" id="Layer_1" xmlns="http://www.w3.org/2000/svg" xmlns:xlink="http://www.w3.org/1999/xlink" x="0px" y="0px"
	 viewBox="0 0 447 447" style="enable-background:new 0 0 447 447;" xml:space="preserve">
<style type="text/css">
	.st0{fill:#F0F0F0;}
</style>
<g>
	<g>
		<g>
			<path class="st0" d="M381.5,65.5C339.3,23.2,283.2,0,223.5,0s-115.8,23.2-158,65.5C23.2,107.7,0,163.8,0,223.5
				s23.2,115.8,65.5,158c42.2,42.2,98.3,65.5,158,65.5s115.8-23.2,158-65.5c42.2-42.2,65.5-98.3,65.5-158S423.8,107.7,381.5,65.5z
				 M223.5,432C108.5,432,15,338.5,15,223.5S108.5,15,223.5,15S432,108.5,432,223.5S338.5,432,223.5,432z"/>
			<path class="st0" d="M290.2,148.8c1.5,1.5,3.4,2.2,5.3,2.2s3.8-0.7,5.3-2.2c2.9-2.9,2.9-7.7,0-10.6l-24-24
				c-2.9-2.9-7.7-2.9-10.6,0c-2.9,2.9-2.9,7.7,0,10.6L290.2,148.8z"/>
			<path class="st0" d="M308.8,194.2l-88-88c-2.9-2.9-7.7-2.9-10.6,0c-2.9,2.9-2.9,7.7,0,10.6l88,88c1.5,1.5,3.4,2.2,5.3,2.2
				s3.8-0.7,5.3-2.2C311.7,201.9,311.7,197.1,308.8,194.2z"/>
			<path class="st0" d="M192.8,126.2c-2.9-2.9-7.7-2.9-10.6,0c-2.9,2.9-2.9,7.7,0,10.6l100,100c1.5,1.5,3.4,2.2,5.3,2.2
				s3.8-0.7,5.3-2.2c2.9-2.9,2.9-7.7,0-10.6L192.8,126.2z"/>
			<path class="st0" d="M172.8,154.2c-2.9-2.9-7.7-2.9-10.6,0c-2.9,2.9-2.9,7.7,0,10.6l100,100c1.5,1.5,3.4,2.2,5.3,2.2
				s3.8-0.7,5.3-2.2c2.9-2.9,2.9-7.7,0-10.6L172.8,154.2z"/>
			<path class="st0" d="M164.8,194.2c-2.9-2.9-7.7-2.9-10.6,0c-2.9,2.9-2.9,7.7,0,10.6l96,96c1.5,1.5,3.4,2.2,5.3,2.2
				s3.8-0.7,5.3-2.2c2.9-2.9,2.9-7.7,0-10.6L164.8,194.2z"/>
			<path class="st0" d="M164.8,242.2c-2.9-2.9-7.7-2.9-10.6,0c-2.9,2.9-2.9,7.7,0,10.6l76,76c1.5,1.5,3.4,2.2,5.3,2.2
				s3.8-0.7,5.3-2.2c2.9-2.9,2.9-7.7,0-10.6L164.8,242.2z"/>
			<path class="st0" d="M164.8,290.2c-2.9-2.9-7.7-2.9-10.6,0c-2.9,2.9-2.9,7.7,0,10.6l40,40c1.5,1.5,3.4,2.2,5.3,2.2
				s3.8-0.7,5.3-2.2c2.9-2.9,2.9-7.7,0-10.6L164.8,290.2z"/>
			<path class="st0" d="M339.5,224c-1.4,0-2.8,0.1-4.2,0.3c6.8-17.3,9.2-36.1,6.8-55.3c-6.3-50.2-47.4-90.7-97.7-96.3
				c-31.8-3.6-63.5,6.5-87.2,27.6c-17.3,15.5-29.2,35.9-34.3,58.1c-8.2-1.4-16.8-0.9-25.2,1.3c-18.4,5-32.8,17.9-38.5,34.6
				c-1,2.9-0.1,6.1,2.2,8.1c6.1,5.3,13.5,9,21.4,10.9c-0.6,0.5-1.2,1.1-1.7,1.6c-13.5,13.5-19.5,31.9-16.2,49.2
				c0.6,3,2.9,5.4,5.9,5.9c3.1,0.6,6.3,0.9,9.5,0.9c14.3,0,28.6-6.1,39.7-17.1c0,0,0,0,0,0v33.6c0,22.9,8.8,44.6,24.8,61
				c15.9,16.4,37.3,25.8,60.1,26.5c0.8,0,1.7,0,2.5,0c19.2,0,38.1-6.6,53.6-18.7c14.6-11.4,25.3-27.1,30.5-44.5
				c5.5,4.5,12.4,7.2,20.1,7.2c17.4,0,31.5-14.1,31.5-31.5c0-3-0.4-5.9-1.2-8.6c14.1-1.2,25.2-13,25.2-27.4
				C367,236.3,354.7,224,339.5,224z M120,226.3c-2.1,6.3-5.8,12.1-10.6,17c-8.4,8.4-19.6,13-30.3,12.7c-0.3-10.7,4.3-21.9,12.7-30.4
				c7.9-7.9,18.2-12.4,28.3-12.7V226.3z M120,183.5v9.8c-3.6,2.2-7.6,3.9-11.8,5.1c-11.5,3.1-23.5,1.5-32.6-4.1
				c5-9.5,14.6-16.9,26.1-20c6.3-1.7,12.7-2,18.9-1C120.2,176.7,120,180.1,120,183.5z M294.7,260.9c-8.8,5.6-14.7,15.4-14.7,26.6
				c0,2.1,0.2,4.1,0.6,6.1c-0.8,2.9-1.6,5.8-2.2,8.7l-0.2,0.7c-7.6,33.5-39,58-73,56.9c-18.9-0.6-36.6-8.4-49.8-21.9
				c-13.2-13.6-20.5-31.6-20.5-50.5v-59.8c0-0.1,0-0.2,0-0.3v-29.7c0-0.3,0-0.6,0-0.9v-13.3c0-27.4,11.7-53.7,32.2-72
				c20.7-18.5,47.6-27,75.5-23.9c43.5,4.9,79,39.9,84.5,83.3c3.4,26.8-4.1,52.9-21,73.6c-4.1,5-8,10.4-11.3,16.1
				C294.8,260.7,294.7,260.8,294.7,260.9z M311.5,304c-9.1,0-16.5-7.4-16.5-16.5s7.4-16.5,16.5-16.5s16.5,7.4,16.5,16.5
				S320.6,304,311.5,304z M339.5,264c-6.9,0-12.5-5.6-12.5-12.5s5.6-12.5,12.5-12.5s12.5,5.6,12.5,12.5S346.4,264,339.5,264z"/>
			<path class="st0" d="M310.2,332.1c-1.9-3.7-6.4-5.2-10.1-3.4c-3.7,1.9-5.2,6.4-3.4,10.1l8,16c1.3,2.6,4,4.1,6.7,4.1
				c1.1,0,2.3-0.3,3.3-0.8c3.7-1.9,5.2-6.4,3.4-10.1L310.2,332.1z"/>
			<path class="st0" d="M287.5,352c-4.1,0-7.5,3.4-7.5,7.5s3.4,7.5,7.5,7.5h0.1c4.1,0,7.5-3.4,7.5-7.5S291.6,352,287.5,352z"/>
			<path class="st0" d="M111.4,320c-4.1,0-7.5,3.4-7.5,7.5s3.4,7.5,7.5,7.5h0.1c4.1,0,7.5-3.4,7.5-7.5S115.6,320,111.4,320z"/>
			<path class="st0" d="M372.8,202.2c-2.9-2.9-7.7-2.9-10.6,0c-2.9,2.9-2.9,7.7,0,10.6l8,8c1.5,1.5,3.4,2.2,5.3,2.2s3.8-0.7,5.3-2.2
				c2.9-2.9,2.9-7.7,0-10.6L372.8,202.2z"/>
			<path class="st0" d="M383.4,176c-4.1,0-7.5,3.4-7.5,7.5s3.4,7.5,7.5,7.5h0.1c4.1,0,7.5-3.4,7.5-7.5S387.6,176,383.4,176z"/>
			<path class="st0" d="M359.5,183c4.1,0,7.5-3.4,7.5-7.5v-8c0-4.1-3.4-7.5-7.5-7.5s-7.5,3.4-7.5,7.5v8
				C352,179.6,355.4,183,359.5,183z"/>
			<path class="st0" d="M106.9,280.8c-3.7-1.9-8.2-0.4-10.1,3.4l-8,16c-1.9,3.7-0.4,8.2,3.4,10.1c1.1,0.5,2.2,0.8,3.3,0.8
				c2.8,0,5.4-1.5,6.7-4.1l8-16C112.1,287.1,110.6,282.6,106.9,280.8z"/>
			<path class="st0" d="M104.8,122.9c1.3,2.6,4,4.1,6.7,4.1c1.1,0,2.3-0.3,3.3-0.8c3.7-1.9,5.2-6.4,3.4-10.1l-8-16
				c-1.9-3.7-6.4-5.2-10.1-3.4c-3.7,1.9-5.2,6.4-3.4,10.1L104.8,122.9z"/>
			<path class="st0" d="M95.5,151h8c4.1,0,7.5-3.4,7.5-7.5s-3.4-7.5-7.5-7.5h-8c-4.1,0-7.5,3.4-7.5,7.5S91.4,151,95.5,151z"/>
		</g>
	</g>
</g>
</svg>
