<?xml version="1.0" encoding="UTF-8" standalone="no"?>
<svg width="267px" height="68px" viewBox="0 0 267 68" version="1.1" xmlns="http://www.w3.org/2000/svg" xmlns:xlink="http://www.w3.org/1999/xlink">
    <!-- Generator: Sketch 48.2 (47327) - http://www.bohemiancoding.com/sketch -->
    <title>Logo finals/logo-text-windycom-white</title>
    <desc>Created with Sketch.</desc>
    <defs></defs>
    <g id="Logo-export" stroke="none" stroke-width="1" fill="none" fill-rule="evenodd" transform="translate(-860.000000, -84.000000)">
        <g id="Logo-finals/logo-text-windycom-white" transform="translate(860.000000, 84.000000)" fill="#FFFFFF">
            <path d="M38.3570646,50.422782 L29.7918949,19.8860898 L21.2267251,50.422782 C20.7053669,52.2847755 19.0668127,53.6254107 17.0558598,53.6254107 C15.1193866,53.6254107 13.4808324,52.3592552 12.9594743,50.6462212 L0.223439211,7.96933187 C0.0744797371,7.52245345 0,7.15005476 0,6.6286966 C0,4.24534502 1.93647317,2.30887185 4.31982475,2.30887185 C6.70317634,2.30887185 8.04381161,4.02190581 8.4162103,5.28806134 L17.1303395,36.5695509 L25.6210296,5.43702081 C26.1423877,3.50054765 27.9299014,2.30887185 29.7918949,2.30887185 C31.6538883,2.30887185 33.441402,3.50054765 33.9627601,5.43702081 L42.4534502,36.5695509 L51.1675794,5.28806134 C51.5399781,4.02190581 52.8806134,2.30887185 55.263965,2.30887185 C57.6473165,2.30887185 59.5837897,4.24534502 59.5837897,6.6286966 C59.5837897,7.15005476 59.50931,7.52245345 59.3603505,7.96933187 L46.6243154,50.6462212 C46.1029573,52.3592552 44.4644031,53.6254107 42.5279299,53.6254107 C40.516977,53.6254107 38.8784228,52.2847755 38.3570646,50.422782 Z M72.7667032,22.6418401 L72.7667032,49.6035049 C72.7667032,51.837897 70.9791895,53.6254107 68.7447974,53.6254107 C66.5104053,53.6254107 64.7228916,51.837897 64.7228916,49.6035049 L64.7228916,22.6418401 C64.7228916,20.407448 66.5104053,18.6199343 68.7447974,18.6199343 C70.9791895,18.6199343 72.7667032,20.407448 72.7667032,22.6418401 Z M68.7447974,14.5980285 C65.6911281,14.5980285 63.9780942,12.8105148 63.9780942,9.90580504 C63.9780942,6.47973713 65.6911281,4.99014239 68.7447974,4.99014239 C71.8729463,4.99014239 73.5859803,6.47973713 73.5859803,9.90580504 C73.5859803,12.8105148 71.8729463,14.5980285 68.7447974,14.5980285 Z M97.7918949,18.1730559 C107.921139,18.1730559 110.304491,24.652793 110.304491,31.1325301 L110.304491,49.7524644 C110.304491,51.9868565 108.516977,53.6254107 106.282585,53.6254107 C103.899233,53.6254107 102.260679,51.9868565 102.260679,49.7524644 L102.260679,32.6221249 C102.260679,28.3767798 100.547645,25.4720701 95.7064622,25.4720701 C90.1204819,25.4720701 88.2584885,28.7491785 88.2584885,33.143483 L88.2584885,49.7524644 C88.2584885,51.9868565 86.5454545,53.6254107 84.2365827,53.6254107 C81.9277108,53.6254107 80.2146769,51.9868565 80.2146769,49.7524644 L80.2146769,22.6418401 C80.2146769,20.407448 82.0021906,18.6199343 84.2365827,18.6199343 C86.4709748,18.6199343 88.2584885,20.407448 88.2584885,22.6418401 C89.6736035,20.4819277 92.8017525,18.1730559 97.7918949,18.1730559 Z M139.128149,39.101862 L139.128149,28.8236583 C139.128149,28.8236583 136.223439,25.0251917 131.754655,25.0251917 C126.690033,25.0251917 123.785323,28.7491785 123.785323,36.1226725 C123.785323,43.4216867 126.615553,47.1456736 131.754655,47.1456736 C136.07448,47.1456736 139.128149,44.2409639 139.128149,39.101862 Z M130.935378,18.1730559 C134.510405,18.1730559 137.638554,19.6626506 139.128149,21.1522453 L139.128149,4.02190581 C139.128149,1.78751369 140.915663,0 143.150055,0 C145.384447,0 147.171961,1.78751369 147.171961,4.02190581 L147.171961,39.101862 C147.171961,49.007667 140.766703,53.9978094 131.754655,53.9978094 C121.69989,53.9978094 115.815991,48.2628697 115.815991,36.1226725 C115.815991,23.9824754 121.550931,18.1730559 130.935378,18.1730559 Z M153.353779,60.5520263 C158.120482,60.5520263 160.354874,56.7535597 162.812705,50.6462212 L151.342826,24.2059146 C151.193866,23.8335159 151.044907,23.3121577 151.044907,22.6418401 C151.044907,20.407448 152.832421,18.6199343 155.066813,18.6199343 C157.301205,18.6199343 158.418401,20.1840088 158.7908,21.1522453 L166.983571,41.8576123 L175.176342,21.1522453 C175.54874,20.1840088 176.665936,18.6199343 178.900329,18.6199343 C181.134721,18.6199343 182.922234,20.407448 182.922234,22.6418401 C182.922234,23.3121577 182.773275,23.8335159 182.624315,24.2059146 L168.771084,55.4874042 C165.493976,62.7864184 160.801752,68 153.353779,68 C151.193866,68 149.480832,66.4359255 149.480832,64.2760131 C149.480832,62.1161008 151.193866,60.5520263 153.353779,60.5520263 Z M181.250044,54.1059252 C179.856552,54.1059252 178.991626,53.433205 178.991626,51.8475073 C178.991626,50.2618097 179.856552,49.5410381 181.250044,49.5410381 C182.643536,49.5410381 183.508462,50.2618097 183.508462,51.8475073 C183.508462,53.433205 182.643536,54.1059252 181.250044,54.1059252 Z M186.77596,42.7657845 C186.77596,34.8853478 190.475921,31.2334382 196.674557,31.2334382 C200.951136,31.2334382 203.305657,33.491856 204.07448,34.5489877 C204.314737,34.8853478 204.41084,35.1256051 204.41084,35.4619652 C204.41084,36.2788397 203.786171,36.855457 203.017348,36.855457 C202.536834,36.855457 202.200473,36.6632512 201.864113,36.2788397 C201.143342,35.4619652 199.845953,34.0204219 196.674557,34.0204219 C192.253825,34.0204219 189.899304,36.855457 189.899304,42.7657845 C189.899304,48.772215 192.253825,51.5591987 196.674557,51.5591987 C199.461541,51.5591987 201.143342,50.3098611 202.248525,49.4929866 C202.584885,49.2527294 202.825142,49.1566265 203.161502,49.1566265 C203.930325,49.1566265 204.554994,49.7812953 204.554994,50.5501184 C204.554994,50.9825814 204.41084,51.3189415 203.930325,51.7514044 C202.873194,52.6163304 200.566724,54.3461824 196.674557,54.3461824 C190.475921,54.3461824 186.77596,50.6462212 186.77596,42.7657845 Z M218.05745,31.2334382 C224.304137,31.2334382 228.148253,34.8853478 228.148253,42.7657845 C228.148253,50.6462212 224.304137,54.3461824 218.05745,54.3461824 C211.858814,54.3461824 207.966647,50.6462212 207.966647,42.7657845 C207.966647,34.8853478 211.858814,31.2334382 218.05745,31.2334382 Z M218.05745,51.5591987 C222.478183,51.5591987 225.024909,48.9163693 225.024909,42.7657845 C225.024909,36.7113027 222.478183,34.0204219 218.05745,34.0204219 C213.636717,34.0204219 211.08999,36.7113027 211.08999,42.7657845 C211.08999,48.9163693 213.636717,51.5591987 218.05745,51.5591987 Z M256.931067,31.2334382 C264.33099,31.2334382 266.01279,35.6541709 266.01279,39.7385436 L266.01279,52.568279 C266.01279,53.433205 265.34007,54.1059252 264.475144,54.1059252 C263.610218,54.1059252 262.937498,53.433205 262.937498,52.568279 L262.937498,40.3632124 C262.937498,36.5671484 261.592057,33.9723704 256.931067,33.9723704 C252.798643,33.9723704 250.924637,36.1827368 250.924637,39.7385436 L250.924637,52.568279 C250.924637,53.433205 250.251917,54.1059252 249.386991,54.1059252 C248.522065,54.1059252 247.849345,53.433205 247.849345,52.568279 L247.849345,40.3632124 C247.849345,36.5671484 246.648059,33.9723704 241.939017,33.9723704 C237.470233,33.9723704 236.02869,36.6632512 236.02869,40.6995725 L236.02869,52.568279 C236.02869,53.433205 235.355969,54.1059252 234.491043,54.1059252 C233.626117,54.1059252 232.953397,53.433205 232.953397,52.568279 L232.953397,33.059393 C232.953397,32.194467 233.626117,31.5217468 234.491043,31.5217468 C235.355969,31.5217468 236.02869,32.194467 236.02869,33.059393 L236.02869,34.5970392 C236.845564,32.8191358 239.152033,31.2334382 242.275377,31.2334382 C246.215596,31.2334382 248.762322,32.6749815 249.915557,34.5970392 C251.116843,32.7230329 253.231106,31.2334382 256.931067,31.2334382 Z" id="Windy"></path>
        </g>
    </g>
</svg>