<?xml version="1.0" encoding="iso-8859-1"?>
<!-- Generator: Adobe Illustrator 19.0.0, SVG Export Plug-In . SVG Version: 6.00 Build 0)  -->
<svg xmlns="http://www.w3.org/2000/svg" xmlns:xlink="http://www.w3.org/1999/xlink" version="1.1" id="Layer_1" x="0px" y="0px" viewBox="0 0 447 447" style="enable-background:new 0 0 447 447;" xml:space="preserve" width="512px" height="512px">
<g>
	<g>
		<g>
			<path d="M381.539,65.462C339.325,23.248,283.199,0,223.5,0C163.801,0,107.675,23.248,65.461,65.462     C23.248,107.675,0,163.801,0,223.5c0,59.699,23.248,115.825,65.461,158.038C107.675,423.752,163.801,447,223.5,447     c59.699,0,115.825-23.248,158.039-65.462C423.752,339.325,447,283.199,447,223.5C447,163.801,423.752,107.675,381.539,65.462z      M223.5,432C108.533,432,15,338.468,15,223.5S108.533,15,223.5,15S432,108.532,432,223.5S338.467,432,223.5,432z" fill="#FFFFFF"/>
			<path d="M183.5,247c30.603,0,55.5-24.897,55.5-55.5c0-30.603-24.897-55.5-55.5-55.5c-30.603,0-55.5,24.897-55.5,55.5     C128,222.103,152.897,247,183.5,247z M183.5,151c22.332,0,40.5,18.168,40.5,40.5c0,22.332-18.168,40.5-40.5,40.5     c-22.332,0-40.5-18.168-40.5-40.5C143,169.168,161.168,151,183.5,151z" fill="#FFFFFF"/>
			<path d="M380.111,280.267l-6.133-15.978c0.146-0.425,0.255-0.869,0.324-1.33c1.571-10.528,1.792-21.374,0.657-32.238     c-4.859-46.505-27.097-65.102-56.246-84.384c1.316-1.082,2.593-2.234,3.822-3.463c13.845-13.845,18.449-33.661,11.458-49.311     c-0.753-1.687-2.102-3.036-3.789-3.789c-15.65-6.989-35.467-2.386-49.312,11.459c-3.951,3.951-7.146,8.389-9.537,13.077     c-3.813-2.853-7.511-5.713-11.149-8.647c-31.669-25.54-84.102-27.595-124.673-4.889c-42.339,23.695-62.558,68.777-55.473,123.687     c3.635,28.174,18.207,55.76,41.473,79.026c-2.5,0.618-5.257,1.468-8.371,2.663c-1.857,0.713-3.355,2.134-4.164,3.951     c-0.809,1.817-0.863,3.882-0.15,5.738l22.935,59.75c0.713,1.857,2.134,3.355,3.952,4.164c0.969,0.432,2.009,0.648,3.05,0.648     c0.91,0,1.822-0.166,2.688-0.498c8.465-3.25,13.009-3.254,18.271-3.26c5.896-0.006,12.578-0.013,23.63-4.255     c11.054-4.244,16.026-8.71,20.412-12.651c2.246-2.017,4.32-3.876,7.275-5.708c13.417,3.35,26.701,5.056,39.583,5.056     c1.713,0,3.421-0.029,5.12-0.09c68.614-2.421,97.228-39.832,108.35-62.725c2.765-2.143,6.13-4.183,11.683-6.314     C379.664,288.472,381.596,284.134,380.111,280.267z M291.501,111.838c8.48-8.481,20.322-12.094,29.808-9.379     c2.716,9.487-0.9,21.328-9.379,29.808c-5.918,5.919-13.472,9.458-20.722,10.139l8.305-8.303c2.929-2.929,2.93-7.677,0.001-10.606     c-2.929-2.929-7.678-2.93-10.607-0.001l-7.322,7.32C282.631,124.113,286.057,117.283,291.501,111.838z M94.938,222.54     c-8.571-66.426,26.345-96.602,47.922-108.677c34.873-19.518,81.273-18.023,107.932,3.475c5.105,4.118,10.311,8.096,15.795,12.097     c-0.698,5.251-0.426,10.507,0.882,15.492l-9.272,9.27c-2.929,2.929-2.93,7.677-0.001,10.606c1.465,1.465,3.384,2.197,5.304,2.197     c1.919,0,3.838-0.732,5.303-2.196l8.847-8.845c3.579,1.069,7.31,1.602,11.094,1.602c5.135,0,10.36-0.966,15.407-2.827     c29.369,19.06,49.222,33.122,55.04,71.035l-2.015-5.25c-1.484-3.867-5.824-5.798-9.689-4.314     c-10.177,3.907-15.201,7.999-19.359,11.698l-24.671-17.558c-0.001-0.001-0.001-0.001-0.001-0.001     c-0.001-0.001-0.002-0.001-0.003-0.002l-26.069-18.553c-1.621-1.154-3.63-1.617-5.595-1.285c-1.961,0.33-3.711,1.426-4.865,3.047     c-6.871,9.655-8.548,16.13-10.027,21.842c-1.321,5.101-2.462,9.506-7.728,16.905c-5.266,7.398-9.054,9.92-13.441,12.839     c-4.912,3.27-10.48,6.976-17.351,16.631c-2.527,3.55-4.494,6.86-6.048,10.177c-5.318,0.077-11.586,0.591-21.087,4.238     c-11.055,4.243-16.027,8.71-20.414,12.65c-3.915,3.518-7.296,6.555-15.764,9.805c-5.755,2.209-9.697,2.917-13.285,3.147     C115.232,279.114,98.616,251.042,94.938,222.54z M315.119,237.053c-1.161,0.537-2.429,1.076-3.85,1.621     c-6.645,2.551-10.877,3.105-14.933,3.229c0.438-1.468,0.807-2.866,1.152-4.197c0.892-3.445,1.708-6.577,3.761-10.523     L315.119,237.053z M288.946,218.425c-3.593,6.337-4.848,11.154-5.979,15.519c-0.796,3.073-1.52,5.821-3.059,9.094     c-3.06,0.626-6.527,1.611-10.588,3.169c-11.058,4.244-16.031,8.712-20.419,12.652c-3.917,3.519-7.3,6.557-15.771,9.809     c-0.578,0.222-1.134,0.426-1.677,0.618c4.827-6.498,8.44-8.907,12.585-11.666c4.912-3.269,10.479-6.975,17.351-16.629     c6.872-9.654,8.548-16.129,10.028-21.841c0.893-3.447,1.703-6.576,3.759-10.525L288.946,218.425z M131.766,333.68l-6.058-15.778     c4.324-1.001,7.549-1.004,11.1-1.008c5.896-0.006,12.578-0.013,23.631-4.256c11.054-4.243,16.026-8.71,20.413-12.65     c3.916-3.517,7.297-6.555,15.765-9.805c8.461-3.248,13.004-3.253,18.264-3.258c5.895-0.006,12.575-0.012,23.625-4.253     c11.058-4.244,16.031-8.712,20.419-12.652c3.917-3.519,7.3-6.557,15.771-9.809c8.479-3.254,13.029-3.261,18.298-3.269     c5.9-0.009,12.589-0.019,23.652-4.266c11.063-4.247,16.041-8.715,20.431-12.656c2.649-2.379,5.054-4.537,8.951-6.691     l6.057,15.778c-6.496,3.294-10.205,6.613-13.561,9.626c-3.921,3.521-7.307,6.561-15.785,9.814     c-8.478,3.253-13.029,3.261-18.298,3.269c-5.901,0.009-12.589,0.019-23.652,4.266c-11.058,4.244-16.031,8.711-20.419,12.652     c-3.917,3.518-7.3,6.556-15.771,9.808c-8.461,3.248-13.004,3.253-18.264,3.258c-5.895,0.006-12.575,0.012-23.625,4.253     c-11.054,4.244-16.025,8.71-20.412,12.65c-3.915,3.518-7.297,6.556-15.764,9.806c-8.464,3.249-13.009,3.254-18.271,3.259     C143.759,331.773,138.788,331.785,131.766,333.68z M257.209,343.91c1.339-0.428,2.742-0.917,4.231-1.488     c11.058-4.244,16.031-8.712,20.419-12.652c3.917-3.519,7.3-6.557,15.771-9.809c8.479-3.255,13.029-3.261,18.299-3.269     c4.549-0.006,9.576-0.022,16.706-1.971C314.595,332.297,288.755,342.427,257.209,343.91z M349.99,288.609     c-3.921,3.52-7.307,6.56-15.785,9.814c-8.479,3.255-13.029,3.261-18.299,3.269c-5.9,0.009-12.588,0.019-23.652,4.265     c-11.058,4.244-16.031,8.712-20.419,12.652c-3.917,3.519-7.3,6.557-15.771,9.809c-8.461,3.248-13.004,3.252-18.264,3.257     c-5.895,0.006-12.576,0.012-23.626,4.254c-11.053,4.243-16.025,8.71-20.412,12.65c-3.915,3.518-7.296,6.556-15.763,9.806     c-8.464,3.249-13.008,3.254-18.27,3.259c-4.506,0.005-9.473,0.01-16.499,1.907l-6.054-15.771c4.322-1,7.55-1.007,11.1-1.011     c5.896-0.006,12.578-0.013,23.63-4.255c11.055-4.243,16.027-8.71,20.414-12.65c3.916-3.518,7.297-6.556,15.763-9.806     c8.461-3.248,13.004-3.252,18.264-3.257c5.895-0.006,12.576-0.012,23.625-4.254c11.058-4.244,16.031-8.711,20.419-12.652     c3.917-3.518,7.3-6.556,15.771-9.808c8.479-3.255,13.029-3.262,18.299-3.27c5.9-0.009,12.588-0.019,23.651-4.265     c11.063-4.247,16.04-8.715,20.431-12.656c2.648-2.378,5.058-4.536,8.952-6.689l6.054,15.771     C357.047,282.273,353.347,285.594,349.99,288.609z" fill="#FFFFFF"/>
			<path d="M183.5,183c4.687,0,8.5,3.813,8.5,8.5c0,4.143,3.358,7.5,7.5,7.5c4.142,0,7.5-3.357,7.5-7.5     c0-12.958-10.542-23.5-23.5-23.5c-4.142,0-7.5,3.357-7.5,7.5S179.358,183,183.5,183z" fill="#FFFFFF"/>
		</g>
	</g>
</g>
<g>
</g>
<g>
</g>
<g>
</g>
<g>
</g>
<g>
</g>
<g>
</g>
<g>
</g>
<g>
</g>
<g>
</g>
<g>
</g>
<g>
</g>
<g>
</g>
<g>
</g>
<g>
</g>
<g>
</g>
</svg>
