<?xml version="1.0" encoding="utf-8"?>
<!-- Generator: Adobe Illustrator 21.1.0, SVG Export Plug-In . SVG Version: 6.00 Build 0)  -->
<svg version="1.1" id="Layer_1" xmlns="http://www.w3.org/2000/svg" xmlns:xlink="http://www.w3.org/1999/xlink" x="0px" y="0px"
	 viewBox="0 0 463 463" style="enable-background:new 0 0 463 463;" xml:space="preserve">
<style type="text/css">
	.st0{fill:#F0F0F0;}
</style>
<g>
	<g>
		<path class="st0" d="M447.5,340H447V211.5v-8v-48c0-8.5-7-15.5-15.5-15.5h-82.1c1-2.6,1.6-5.5,1.6-8.5c0-13-10.5-23.5-23.5-23.5
			c-4,0-7.8,1-11.2,2.8c-4.9-11.1-16-18.8-28.8-18.8c-7.6,0-14.6,2.7-20,7.2c-6.2-13.7-20-23.2-36-23.2s-29.8,9.5-36,23.2
			c-5.4-4.5-12.4-7.2-20-7.2c-12.9,0-23.9,7.8-28.8,18.8c-3.3-1.8-7.1-2.8-11.2-2.8c-13,0-23.5,10.5-23.5,23.5c0,3,0.6,5.9,1.6,8.5
			H31.5C23,140,16,147,16,155.5v48v8V340h-0.5C7,340,0,347,0,355.5v16C0,380,7,387,15.5,387h432c8.5,0,15.5-7,15.5-15.5v-16
			C463,347,456,340,447.5,340z M327.5,123c4.7,0,8.5,3.8,8.5,8.5s-3.8,8.5-8.5,8.5s-8.5-3.8-8.5-8.5S322.8,123,327.5,123z
			 M287.5,107c9.1,0,16.5,7.4,16.5,16.5s-7.4,16.5-16.5,16.5s-16.5-7.4-16.5-16.5S278.4,107,287.5,107z M231.5,91
			c13.5,0,24.5,11,24.5,24.5S245,140,231.5,140S207,129,207,115.5S218,91,231.5,91z M175.5,107c9.1,0,16.5,7.4,16.5,16.5
			s-7.4,16.5-16.5,16.5s-16.5-7.4-16.5-16.5S166.4,107,175.5,107z M135.5,123c4.7,0,8.5,3.8,8.5,8.5s-3.8,8.5-8.5,8.5
			s-8.5-3.8-8.5-8.5S130.8,123,135.5,123z M31,155.5c0-0.3,0.2-0.5,0.5-0.5h400c0.3,0,0.5,0.2,0.5,0.5v26.1c-2.6-1-5.5-1.6-8.5-1.6
			c-13,0-23.5,10.5-23.5,23.5v8c0,4.7-3.8,8.5-8.5,8.5s-8.5-3.8-8.5-8.5v-8c0-13-10.5-23.5-23.5-23.5S336,190.5,336,203.5v48
			c0,4.7-3.8,8.5-8.5,8.5s-8.5-3.8-8.5-8.5v-48c0-13-10.5-23.5-23.5-23.5S272,190.5,272,203.5v88c0,4.7-3.8,8.5-8.5,8.5
			s-8.5-3.8-8.5-8.5v-88c0-13-10.5-23.5-23.5-23.5S208,190.5,208,203.5v8c0,4.7-3.8,8.5-8.5,8.5s-8.5-3.8-8.5-8.5v-8
			c0-13-10.5-23.5-23.5-23.5S144,190.5,144,203.5v48c0,4.7-3.8,8.5-8.5,8.5s-8.5-3.8-8.5-8.5v-48c0-13-10.5-23.5-23.5-23.5
			S80,190.5,80,203.5v8c0,4.7-3.8,8.5-8.5,8.5s-8.5-3.8-8.5-8.5v-8c0-13-10.5-23.5-23.5-23.5c-3,0-5.9,0.6-8.5,1.6V155.5z M93.4,300
			c1-2.6,1.6-5.5,1.6-8.5V275h145v16.5c0,3,0.6,5.9,1.6,8.5H93.4z M208,315v16.5c0,4.7-3.8,8.5-8.5,8.5s-8.5-3.8-8.5-8.5V315H208z
			 M177.6,220H159v-16.5c0-4.7,3.8-8.5,8.5-8.5s8.5,3.8,8.5,8.5v8C176,214.5,176.6,217.4,177.6,220z M240,235v25h-82.6
			c1-2.6,1.6-5.5,1.6-8.5V235H240z M221.4,220c1-2.6,1.6-5.5,1.6-8.5v-8c0-4.7,3.8-8.5,8.5-8.5s8.5,3.8,8.5,8.5V220H221.4z
			 M223,331.5V315h209v25H221.4C222.4,337.4,223,334.5,223,331.5z M304,235v16.5c0,3,0.6,5.9,1.6,8.5H287v-25H304z M287,220v-16.5
			c0-4.7,3.8-8.5,8.5-8.5s8.5,3.8,8.5,8.5V220H287z M368,275v16.5c0,3,0.6,5.9,1.6,8.5h-84.2c1-2.6,1.6-5.5,1.6-8.5V275H368z
			 M383,291.5V275h17v16.5c0,4.7-3.8,8.5-8.5,8.5S383,296.2,383,291.5z M413.4,300c1-2.6,1.6-5.5,1.6-8.5V275h17v25H413.4z
			 M349.4,260c1-2.6,1.6-5.5,1.6-8.5V235h81v25H349.4z M369.6,220H351v-16.5c0-4.7,3.8-8.5,8.5-8.5s8.5,3.8,8.5,8.5v8
			C368,214.5,368.6,217.4,369.6,220z M413.4,220c1-2.6,1.6-5.5,1.6-8.5v-8c0-4.7,3.8-8.5,8.5-8.5s8.5,3.8,8.5,8.5v8v8.5H413.4z
			 M112,203.5V220H93.4c1-2.6,1.6-5.5,1.6-8.5v-8c0-4.7,3.8-8.5,8.5-8.5S112,198.8,112,203.5z M31,211.5v-8c0-4.7,3.8-8.5,8.5-8.5
			s8.5,3.8,8.5,8.5v8c0,3,0.6,5.9,1.6,8.5H31V211.5z M31,235h81v16.5c0,3,0.6,5.9,1.6,8.5H31V235z M80,275v16.5
			c0,4.7-3.8,8.5-8.5,8.5s-8.5-3.8-8.5-8.5V275H80z M31,275h17v16.5c0,3,0.6,5.9,1.6,8.5H31V275z M31,315h145v16.5
			c0,3,0.6,5.9,1.6,8.5H31V315z M448,371.5c0,0.3-0.2,0.5-0.5,0.5h-432c-0.3,0-0.5-0.2-0.5-0.5v-16c0-0.3,0.2-0.5,0.5-0.5h432
			c0.3,0,0.5,0.2,0.5,0.5V371.5z"/>
	</g>
</g>
</svg>
