<?xml version="1.0" encoding="iso-8859-1"?>
<!-- Generator: Adobe Illustrator 19.0.0, SVG Export Plug-In . SVG Version: 6.00 Build 0)  -->
<svg version="1.1" id="Layer_1" xmlns="http://www.w3.org/2000/svg" xmlns:xlink="http://www.w3.org/1999/xlink" x="0px" y="0px"
	 viewBox="0 0 463 463" style="enable-background:new 0 0 463 463;" xml:space="preserve">
<g>
	<g>
		<g>
			<path d="M455.5,360.001h-60.939c13.042-17.239,13.538-40.087,0.616-63.555c4.778-11.023,5.204-23.132,0.601-33.436
				c-0.753-1.687-2.102-3.036-3.789-3.789c-9.391-4.195-20.28-4.21-30.48-0.564c-4.504-3.431-9.246-6.659-14.166-9.596
				c-53.317-31.831-163.307-58.477-228.333-46.482l-16.733-14.269c4.016-4.546,6.452-10.223,7.269-16.973
				c1.132-9.353-1.602-18.441-7.501-24.934c-6.134-6.75-14.826-10.537-23.887-10.399c-9.052,0.143-17.611,4.173-23.481,11.057
				c-6.022,7.061-8.563,16.435-7.126,25.456c-0.033,0-0.066,0-0.099,0c-11.076,0-21.397,5.821-27.208,15.685
				c-6.545,11.11-5.377,25.811,2.841,35.749c6.023,7.284,14.83,11.501,24.163,11.572c0.081,0,0.161,0.001,0.242,0.001
				c9.248,0,17.976-4.023,23.978-11.061c0.108-0.127,0.215-0.255,0.321-0.383l4.523,3.857
				c-29.556,32.278-29.418,66.721-23.776,90.424c4.651,19.541,13.561,34.713,18.153,41.638H7.5c-4.142,0-7.5,3.358-7.5,7.5
				c0,4.142,3.358,7.5,7.5,7.5h60.25l14.55,19.4c5.917,7.89,15.338,12.6,25.2,12.6h248c9.862,0,19.283-4.71,25.2-12.6l14.55-19.4
				h60.25c4.142,0,7.5-3.358,7.5-7.5C463,363.357,459.642,360.001,455.5,360.001z M353.283,281.286
				c8.48-8.479,20.32-12.094,29.809-9.379c2.716,9.487-0.9,21.328-9.38,29.808c-5.445,5.445-12.275,8.871-18.979,9.917l7.322-7.323
				c2.929-2.929,2.928-7.678,0-10.607c-2.93-2.929-7.678-2.928-10.607,0l-8.303,8.304
				C343.826,294.757,347.366,287.204,353.283,281.286z M339.653,261.94c2.54,1.517,5.025,3.121,7.451,4.79
				c-1.53,1.22-3.011,2.534-4.427,3.95c-12.571,12.571-17.522,30.063-13.095,44.891l-9.296,9.297
				c-4.691-2.968-10.214-4.728-16.135-4.85c-2.61-16.883-11.058-32.067-24.244-43.313c-20.683-17.637-56.404-30.208-90.949-42.364
				c-18.347-6.456-36.036-12.684-49.63-19.094C197.766,211.44,289.414,231.946,339.653,261.94z M319.998,351.501
				c0,3.013-0.835,5.944-2.386,8.5h-28.228c-1.551-2.556-2.386-5.487-2.386-8.5c0-9.098,7.402-16.5,16.5-16.5
				C312.596,335.001,319.998,342.403,319.998,351.501z M124.158,224.32c15.498,8.572,37.183,16.205,59.821,24.171
				c33.251,11.701,67.635,23.8,86.194,39.627c10.671,9.1,17.402,21.468,19.287,35.195c-1.424,0.712-2.786,1.529-4.077,2.441
				c-7.446-8.613-18.354-13.753-29.885-13.753c-21.78,0-39.5,17.72-39.5,39.5c0,2.869,0.333,5.717,0.95,8.5h-18.859
				c-3.374-13.759-15.806-24-30.591-24c-0.117,0-0.236,0.001-0.354,0.003c-7.896-12.865-15.583-27.017-23.035-40.756
				c-11.442-21.096-22.405-41.304-33.317-55.254L124.158,224.32z M273.172,360.001h-40.625c-1.011-2.711-1.549-5.589-1.549-8.5
				c0-13.509,10.991-24.5,24.5-24.5c7.886,0,15.307,3.895,19.902,10.289c-2.17,4.273-3.402,9.099-3.402,14.211
				C271.998,354.399,272.399,357.256,273.172,360.001z M182.177,360H88.82c2.737-5.334,8.282-9,14.678-9
				c0.801,0,1.694,0.095,2.896,0.309c3.141,0.558,6.288-0.931,7.851-3.71c4.367-7.771,12.511-12.599,21.253-12.599
				c7.75,0.001,15.024,3.8,19.619,10.075c0.5,0.807,0.996,1.626,1.498,2.424c0.203,0.322,0.431,0.618,0.672,0.898
				c1.678,2.254,4.494,3.416,7.316,2.912c1.202-0.213,2.095-0.309,2.896-0.309C173.895,351,179.441,354.666,182.177,360z
				 M74.698,206.85c-1.853-1.582-4.36-2.163-6.722-1.56c-2.361,0.604-4.282,2.317-5.151,4.594c-0.741,1.945-1.648,3.53-2.771,4.847
				c-3.145,3.688-7.718,5.794-12.566,5.794c-0.042,0-0.084,0-0.127,0c-4.962-0.038-9.479-2.215-12.717-6.131
				c-4.203-5.083-4.824-12.895-1.477-18.577c3.534-5.999,10.196-9.174,16.973-8.082c4.108,0.66,8.298-0.889,10.94-4.042
				c2.532-3.021,3.273-7.038,1.983-10.747c-1.921-5.521-0.762-11.71,3.025-16.15c3.076-3.606,7.561-5.718,12.305-5.792
				c4.802-0.047,9.265,1.874,12.549,5.488c2.923,3.217,4.311,8.093,3.711,13.044c-0.7,5.783-3.034,9.425-7.804,12.176
				c-2.111,1.217-3.499,3.385-3.722,5.812c-0.223,2.427,0.748,4.811,2.603,6.392l25.467,21.716c0.125,0.107,0.259,0.212,0.386,0.318
				l-11.043,12.949c-0.125-0.109-0.25-0.224-0.375-0.331L74.698,206.85z M79.994,346.56c-4.146-7.094-9.669-18.243-12.865-31.671
				c-6.914-29.042,0.021-54.993,20.595-77.219l2.709,2.31c12.348,10.53,26.018,35.734,40.491,62.418
				c3.229,5.954,6.503,11.985,9.825,17.973c-1.729-0.237-3.48-0.371-5.25-0.371c-12.475,0-24.171,6.026-31.578,16.003
				c-0.141-0.002-0.282-0.003-0.422-0.003C94.163,336,85.767,340.086,79.994,346.56z M368.7,385.401c-3.1,4.133-8.034,6.6-13.2,6.6
				h-248c-5.166,0-10.101-2.467-13.2-6.6l-7.8-10.4h288.989c0.005,0,0.011,0.001,0.016,0.001s0.009-0.001,0.014-0.001h0.981
				L368.7,385.401z M373.164,360.001h-39.34c0.773-2.745,1.174-5.602,1.174-8.5c0-5.773-1.568-11.183-4.29-15.841l9.908-9.909
				c3.215,0.844,6.543,1.258,9.911,1.258c11.888,0,24.257-5.153,33.792-14.688c0.415-0.415,0.821-0.836,1.219-1.262
				C391.089,324.743,394.024,345.064,373.164,360.001z"/>
			<path d="M216,143.536c0,12.625,5.348,19.305,9.646,24.672c3.689,4.608,6.354,7.937,6.354,15.297c0,4.142,3.358,7.5,7.5,7.5
				c4.142,0,7.5-3.358,7.5-7.5c0-12.625-5.348-19.304-9.645-24.672c-3.689-4.608-6.355-7.938-6.355-15.297
				c0-7.37,2.667-10.704,6.357-15.317c4.296-5.371,9.643-12.055,9.643-24.687c0-12.637-5.346-19.325-9.642-24.699
				C233.667,74.216,231,70.88,231,63.501c0-4.142-3.358-7.5-7.5-7.5c-4.142,0-7.5,3.358-7.5,7.5c0,12.637,5.346,19.325,9.642,24.699
				c3.691,4.618,6.358,7.954,6.358,15.333c0,7.37-2.667,10.704-6.357,15.317C221.347,124.22,216,130.905,216,143.536z"/>
			<path d="M256.484,151.028c2.381,0,4.504-1.111,5.879-2.842c5.412-6.766,16.636-20.823,16.636-44.654
				c0-9.68-1.861-18.805-5.532-27.123c-1.672-3.789-6.099-5.505-9.89-3.833c-3.79,1.672-5.505,6.1-3.833,9.89
				c2.824,6.397,4.256,13.485,4.256,21.066c0,18.514-8.295,28.964-13.303,35.226c-1.07,1.296-1.713,2.958-1.713,4.771
				C248.984,147.67,252.342,151.028,256.484,151.028z"/>
			<path d="M196.325,174.953c1.004,0,2.025-0.203,3.004-0.632c3.794-1.661,5.523-6.084,3.862-9.878
				c-2.781-6.352-4.191-13.386-4.191-20.907c0-18.59,8.368-29.051,13.369-35.304c0.135-0.169,0.263-0.344,0.383-0.524
				c1.68-2.519,1.672-5.852-0.008-8.371c-2.297-3.446-6.954-4.377-10.4-2.08c-0.888,0.592-1.608,1.34-2.15,2.184
				C194.636,106.406,184,120.343,184,143.536c0,9.604,1.834,18.663,5.451,26.924C190.684,173.275,193.437,174.953,196.325,174.953z"
				/>
		</g>
	</g>
</g>
<g>
</g>
<g>
</g>
<g>
</g>
<g>
</g>
<g>
</g>
<g>
</g>
<g>
</g>
<g>
</g>
<g>
</g>
<g>
</g>
<g>
</g>
<g>
</g>
<g>
</g>
<g>
</g>
<g>
</g>
</svg>
