<?xml version="1.0" encoding="utf-8"?>
<!-- Generator: Adobe Illustrator 21.1.0, SVG Export Plug-In . SVG Version: 6.00 Build 0)  -->
<svg version="1.1" id="Layer_1" xmlns="http://www.w3.org/2000/svg" xmlns:xlink="http://www.w3.org/1999/xlink" x="0px" y="0px"
	 viewBox="0 0 463 463" style="enable-background:new 0 0 463 463;" xml:space="preserve">
<style type="text/css">
	.st0{fill:#F0F0F0;}
</style>
<g>
	<g>
		<path class="st0" d="M359.5,16c-36.9,0-67.3,28.1-71.1,64H167.5l-5.9-28.5c-2.3-11-10.3-20-20.9-23.5L57.9,0.4
			c-3.9-1.3-8.2,0.8-9.5,4.7c-1.3,3.9,0.8,8.2,4.7,9.5L136,42.2c5.6,1.9,9.8,6.6,10.9,12.3l5.3,25.4H39.5c-2.8,0-5.3,1.5-6.6,4
			c-1.3,2.5-1.1,5.4,0.5,7.7L192,321.8v77.7c0,26.7-21.8,48.5-48.5,48.5c-4.1,0-7.5,3.4-7.5,7.5c0,4.1,3.4,7.5,7.5,7.5h112
			c4.1,0,7.5-3.4,7.5-7.5c0-4.1-3.4-7.5-7.5-7.5c-26.7,0-48.5-21.8-48.5-48.5v-77.7l118.3-171.6c10.2,5.6,21.8,8.7,34.2,8.7
			c39.4,0,71.5-32.1,71.5-71.5S398.9,16,359.5,16z M53.8,95h101.5l13.4,65H98.6L53.8,95z M214.6,448h-30.1
			c6.1-5.2,11.2-11.5,15.1-18.6C203.3,436.5,208.4,442.8,214.6,448z M199.5,306.3L109,175h62.9l20.3,98c0.7,3.5,3.9,6,7.3,6
			c0.5,0,1-0.1,1.5-0.2c4.1-0.8,6.7-4.8,5.8-8.9l-19.7-95h21.7c3.4,13.8,15.8,24,30.6,24s27.2-10.2,30.6-24h20L199.5,306.3z
			 M254.2,175c-2.7,5.3-8.3,9-14.7,9s-11.9-3.7-14.7-9H254.2z M224.8,160c2.7-5.3,8.3-9,14.7-9s11.9,3.7,14.7,9H224.8z M300.4,160
			h-30.3c-3.4-13.8-15.8-24-30.6-24c-0.8,0-1.6,0-2.3,0.1c-4.9-13.8-16.5-28.8-36.5-32c-4.1-0.7-7.9,2.1-8.6,6.2
			c-0.7,4.1,2.1,7.9,6.2,8.6c15.4,2.5,22,15,24.6,21.9c-6.9,4.3-12,11.2-13.9,19.2h-24.8l-13.4-65h117.8c2,18.6,11.1,35.1,24.6,46.7
			L300.4,160z M321.5,129.3c-9.6-8.8-16.2-20.8-18-34.3h41.7L321.5,129.3z M359.5,144c-9.2,0-17.9-2.2-25.6-6.2l26.7-38.7l17.6,17.6
			c1.5,1.5,3.4,2.2,5.3,2.2s3.8-0.7,5.3-2.2c2.9-2.9,2.9-7.7,0-10.6l-18.7-18.7l18.7-18.7c2.9-2.9,2.9-7.7,0-10.6
			c-2.9-2.9-7.7-2.9-10.6,0l-18.7,18.7l-18.7-18.7c-2.9-2.9-7.7-2.9-10.6,0c-2.9,2.9-2.9,7.7,0,10.6L341.4,80h-37.9
			c3.7-27.6,27.4-49,56-49c31.2,0,56.5,25.3,56.5,56.5S390.7,144,359.5,144z"/>
	</g>
</g>
</svg>
