<?xml version="1.0" encoding="iso-8859-1"?>
<!-- Generator: Adobe Illustrator 19.0.0, SVG Export Plug-In . SVG Version: 6.00 Build 0)  -->
<svg version="1.1" id="Layer_1" xmlns="http://www.w3.org/2000/svg" xmlns:xlink="http://www.w3.org/1999/xlink" x="0px" y="0px"
	 viewBox="0 0 463.002 463.002" style="enable-background:new 0 0 463.002 463.002;" xml:space="preserve">
<g>
	<g>
		<path d="M359.501,16.002c-36.892,0-67.344,28.087-71.105,64H167.539l-5.893-28.484c-2.267-10.958-10.27-19.963-20.885-23.501
			L57.873,0.387c-3.93-1.311-8.176,0.814-9.487,4.744c-1.31,3.929,0.814,8.177,4.744,9.487l82.888,27.629
			c5.561,1.854,9.752,6.57,10.94,12.31l5.265,25.445H39.501c-2.787,0-5.344,1.545-6.64,4.013c-1.296,2.468-1.116,5.45,0.466,7.745
			l158.674,230.078v77.664c0,26.743-21.757,48.5-48.5,48.5c-4.142,0-7.5,3.358-7.5,7.5c0,4.143,3.358,7.5,7.5,7.5h112
			c4.142,0,7.5-3.357,7.5-7.5c0-4.142-3.358-7.5-7.5-7.5c-26.743,0-48.5-21.757-48.5-48.5v-77.664l118.314-171.555
			c10.162,5.556,21.811,8.719,34.186,8.719c39.425,0,71.5-32.075,71.5-71.5S398.926,16.002,359.501,16.002z M53.784,95.002h101.541
			l13.448,65H98.612L53.784,95.002z M214.556,448.002h-30.11c6.114-5.169,11.242-11.474,15.055-18.582
			C203.314,436.528,208.443,442.833,214.556,448.002z M199.502,306.293l-90.544-131.29h62.92l20.28,98.02
			c0.733,3.544,3.854,5.982,7.336,5.982c0.504,0,1.015-0.051,1.527-0.157c4.056-0.84,6.664-4.809,5.824-8.865l-19.651-94.98h21.716
			c3.374,13.759,15.806,24,30.591,24c14.785,0,27.216-10.241,30.591-24h19.954L199.502,306.293z M254.18,175.002
			c-2.737,5.334-8.282,9-14.679,9c-6.397,0-11.942-3.666-14.679-9H254.18z M224.823,160.002c2.737-5.334,8.282-9,14.678-9
			c6.396,0,11.942,3.666,14.679,9H224.823z M300.39,160.002h-30.299c-3.374-13.759-15.806-24-30.591-24
			c-0.787,0-1.564,0.039-2.336,0.096c-4.85-13.812-16.527-28.754-36.459-31.998c-4.086-0.671-7.942,2.108-8.607,6.197
			c-0.666,4.088,2.109,7.942,6.197,8.607c15.37,2.502,22.023,14.991,24.562,21.871c-6.867,4.292-11.967,11.151-13.947,19.227h-24.82
			l-13.448-65h117.754c1.951,18.633,11.097,35.145,24.591,46.734L300.39,160.002z M321.549,129.322
			c-9.638-8.754-16.231-20.79-18.035-34.32h41.704L321.549,129.322z M359.501,144.002c-9.215,0-17.913-2.232-25.606-6.161
			l26.669-38.67l17.634,17.634c1.464,1.464,3.384,2.197,5.303,2.197s3.839-0.732,5.303-2.197c2.929-2.929,2.929-7.678,0-10.606
			l-18.697-18.697l18.697-18.697c2.929-2.929,2.929-7.678,0-10.606c-2.929-2.929-7.678-2.929-10.606,0l-18.697,18.697
			l-18.697-18.697c-2.929-2.929-7.678-2.929-10.606,0c-2.929,2.929-2.929,7.678,0,10.606l11.197,11.197h-37.881
			c3.682-27.619,27.377-49,55.987-49c31.154,0,56.5,25.346,56.5,56.5S390.655,144.002,359.501,144.002z"/>
	</g>
</g>
<g>
</g>
<g>
</g>
<g>
</g>
<g>
</g>
<g>
</g>
<g>
</g>
<g>
</g>
<g>
</g>
<g>
</g>
<g>
</g>
<g>
</g>
<g>
</g>
<g>
</g>
<g>
</g>
<g>
</g>
</svg>
