<?xml version="1.0" encoding="iso-8859-1"?>
<!-- Generator: Adobe Illustrator 19.0.0, SVG Export Plug-In . SVG Version: 6.00 Build 0)  -->
<svg xmlns="http://www.w3.org/2000/svg" xmlns:xlink="http://www.w3.org/1999/xlink" version="1.1" id="Layer_1" x="0px" y="0px" viewBox="0 0 463.005 463.005" style="enable-background:new 0 0 463.005 463.005;" xml:space="preserve" width="512px" height="512px">
<g>
	<g>
		<path d="M455.187,286.859c-8.191-15.052-16.923-30.078-25.996-44.753c1.87-1.637,3.732-3.286,5.615-4.905    c4.171-3.582,6.685-8.524,7.079-13.917c0.417-5.697-1.551-11.363-5.538-15.951c-14.367-16.548-46.112-46.125-98.621-60.614    c0.688-8.496-4.306-16.948-12.922-21.282c-27.79-14.021-60.02-21.431-93.214-21.431c-0.077,0.002-0.158,0.001-0.235,0    c-33.153,0-65.365,7.409-93.15,21.427c-8.627,4.338-13.623,12.794-12.932,21.286c-52.511,14.488-84.254,44.066-98.617,60.61    c-3.989,4.59-5.957,10.256-5.541,15.953c0.394,5.394,2.908,10.336,7.073,13.913c1.885,1.622,3.748,3.271,5.621,4.91    c-9.073,14.675-17.804,29.701-25.995,44.752c-7.762,14.258-9.831,30.633-5.804,46.184c3.11,11.518,11.285,20.296,22.428,24.084    c3.698,1.257,7.528,1.873,11.348,1.873c7.822,0,15.6-2.585,22.1-7.544c16.611-12.673,33.969-24.806,51.655-36.133    c3.359,1.952,7.181,2.976,11.065,2.976c3.025-0.001,6.086-0.618,8.992-1.892c11.37-4.986,22.991-9.726,34.607-14.152    c4.228,3.443,9.72,5.354,15.526,4.968c0.004-0.001,0.009-0.001,0.013-0.001c34.329-2.369,69.154-2.367,103.516,0    c0.509,0.035,1.015,0.052,1.519,0.052c5.248,0,10.172-1.859,14.034-5.011c11.608,4.425,23.222,9.161,34.586,14.144    c2.906,1.274,5.966,1.893,8.992,1.893c3.884,0,7.706-1.024,11.065-2.977c17.686,11.328,35.045,23.46,51.656,36.134    c6.501,4.96,14.278,7.544,22.101,7.544c3.819,0,7.651-0.616,11.348-1.873c11.143-3.788,19.317-12.566,22.447-24.159    C465.017,317.491,462.948,301.116,455.187,286.859z M48.788,339.529c-5.78,4.41-12.894,5.648-19.522,3.395    c-6.333-2.152-10.989-7.18-12.754-13.717c-3.049-11.779-1.459-24.272,4.478-35.178c7.643-14.045,15.766-28.066,24.2-41.793    c18.487,16.751,36.291,34.304,53.177,52.429C81.402,315.643,64.758,327.345,48.788,339.529z M123.576,302.668    c-2.83,1.24-6.074,0.606-8.067-1.574c-0.042-0.045-0.084-0.09-0.126-0.136c-0.003-0.003-0.006-0.007-0.009-0.01    c-20.883-22.874-43.241-44.914-66.604-65.674c-0.059-0.057-0.123-0.11-0.184-0.165c-3.518-3.125-7.057-6.224-10.619-9.289    c-1.135-0.975-1.789-2.23-1.891-3.63c-0.123-1.686,0.553-3.469,1.905-5.024c13.181-15.183,42.265-42.273,90.537-55.786    c10.038,42.307,19.433,85.219,27.955,127.771C145.426,293.404,134.389,297.927,123.576,302.668z M291.705,286.785    c-0.682,3.361-3.873,5.724-7.418,5.47c-17.521-1.207-35.161-1.812-52.797-1.812c-17.634,0-35.263,0.604-52.767,1.812    c-3.611,0.226-6.734-2.06-7.422-5.454c-9.375-46.851-19.8-94.168-30.99-140.646c-0.645-2.661,1.217-5.604,4.642-7.325    c25.711-12.971,55.583-19.823,86.411-19.823c0.073,0,0.146,0,0.22,0c30.863,0,60.763,6.854,86.473,19.827    c3.416,1.718,5.278,4.661,4.631,7.332C311.5,192.633,301.075,239.95,291.705,286.785z M347.499,301.087    c-2.001,2.186-5.244,2.824-8.074,1.58c-10.814-4.742-21.85-9.264-32.896-13.516c8.52-42.546,17.916-85.464,27.955-127.771    c48.27,13.512,77.355,40.603,90.539,55.789c1.35,1.553,2.025,3.337,1.902,5.021c-0.102,1.4-0.756,2.655-1.896,3.634    c-3.569,3.071-7.115,6.177-10.64,9.308c-0.05,0.045-0.102,0.088-0.15,0.135C390.826,256.073,368.418,278.164,347.499,301.087z     M446.508,329.131c-1.786,6.612-6.441,11.64-12.773,13.792c-6.625,2.252-13.742,1.016-19.522-3.395    c-15.969-12.184-32.614-23.886-49.578-34.864c16.885-18.124,34.689-35.678,53.177-52.43c8.433,13.728,16.557,27.749,24.201,41.795    C447.948,304.934,449.538,317.427,446.508,329.131z" fill="#FFFFFF"/>
	</g>
</g>
<g>
</g>
<g>
</g>
<g>
</g>
<g>
</g>
<g>
</g>
<g>
</g>
<g>
</g>
<g>
</g>
<g>
</g>
<g>
</g>
<g>
</g>
<g>
</g>
<g>
</g>
<g>
</g>
<g>
</g>
</svg>
