<?xml version="1.0" encoding="iso-8859-1"?>
<!-- Generator: Adobe Illustrator 19.0.0, SVG Export Plug-In . SVG Version: 6.00 Build 0)  -->
<svg version="1.1" id="Layer_1" xmlns="http://www.w3.org/2000/svg" xmlns:xlink="http://www.w3.org/1999/xlink" x="0px" y="0px"
	 viewBox="0 0 455 455" style="enable-background:new 0 0 455 455;" xml:space="preserve">
<g>
	<g>
		<g>
			<path d="M55.5,92c-4.142,0-7.5,3.358-7.5,7.5V156h-9V99.5c0-4.142-3.358-7.5-7.5-7.5c-4.142,0-7.5,3.358-7.5,7.5V156h-9V99.5
				c0-4.142-3.358-7.5-7.5-7.5S0,95.358,0,99.5v72C0,184.458,10.542,195,23.5,195H24v160.5c0,4.142,3.358,7.5,7.5,7.5
				s7.5-3.358,7.5-7.5V195h0.5c12.958,0,23.5-10.542,23.5-23.5v-72C63,95.358,59.642,92,55.5,92z M48,171.5
				c0,4.687-3.813,8.5-8.5,8.5h-16c-4.687,0-8.5-3.813-8.5-8.5V171h33V171.5z"/>
			<path d="M439.101,92c-8.203,0-15.004,6.155-15.827,14.388l-13.665,150.995c-0.594,6.558,1.613,13.107,6.055,17.968
				c4.441,4.861,10.765,7.649,17.349,7.649H440v72.5c0,4.142,3.358,7.5,7.5,7.5c4.142,0,7.5-3.358,7.5-7.5V107.899
				C455,99.132,447.868,92,439.101,92z M440.001,268L440.001,268h-6.988c-2.417,0-4.645-0.982-6.275-2.767
				c-1.63-1.784-2.408-4.093-2.19-6.5l13.659-150.924c0.046-0.461,0.431-0.81,0.895-0.81c0.496,0,0.899,0.403,0.899,0.899V268z"/>
			<path d="M231.5,60C139.14,60,64,135.14,64,227.5S139.14,395,231.5,395S399,319.86,399,227.5S323.86,60,231.5,60z M231.5,380
				C147.411,380,79,311.589,79,227.5S147.411,75,231.5,75S384,143.411,384,227.5S315.589,380,231.5,380z"/>
			<path d="M231.5,116C170.019,116,120,166.019,120,227.5S170.019,339,231.5,339S343,288.981,343,227.5S292.981,116,231.5,116z
				 M231.5,324c-53.21,0-96.5-43.29-96.5-96.5c0-53.21,43.29-96.5,96.5-96.5c53.21,0,96.5,43.29,96.5,96.5
				C328,280.71,284.71,324,231.5,324z"/>
			<path d="M231.5,140c-48.248,0-87.5,39.252-87.5,87.5s39.252,87.5,87.5,87.5s87.5-39.252,87.5-87.5S279.748,140,231.5,140z
				 M231.5,300c-39.977,0-72.5-32.523-72.5-72.5s32.523-72.5,72.5-72.5s72.5,32.523,72.5,72.5S271.477,300,231.5,300z"/>
		</g>
	</g>
</g>
<g>
</g>
<g>
</g>
<g>
</g>
<g>
</g>
<g>
</g>
<g>
</g>
<g>
</g>
<g>
</g>
<g>
</g>
<g>
</g>
<g>
</g>
<g>
</g>
<g>
</g>
<g>
</g>
<g>
</g>
</svg>
