<?xml version="1.0" encoding="utf-8"?>
<!-- Generator: Adobe Illustrator 21.1.0, SVG Export Plug-In . SVG Version: 6.00 Build 0)  -->
<svg version="1.1" id="Layer_1" xmlns="http://www.w3.org/2000/svg" xmlns:xlink="http://www.w3.org/1999/xlink" x="0px" y="0px"
	 viewBox="0 0 463 463" style="enable-background:new 0 0 463 463;" xml:space="preserve">
<style type="text/css">
	.st0{fill:#F0F0F0;}
</style>
<g>
	<g>
		<g>
			<path class="st0" d="M455.5,380h-79.7c14.9-22.6,23.2-51.1,23.2-80.5c0-53.2-26.6-98.9-64.3-118c10.7-32.4,42.7-42.8,43-42.9
				c3.1-0.9,5.2-3.8,5.3-7c0.1-3.2-1.9-6.2-5-7.2c-17.5-6.2-32.3-6.2-44.4-3.3c9.7-21.8,22.3-31.6,22.4-31.7
				c2.2-1.6,3.3-4.4,2.9-7.1s-2.3-5-4.9-6c-12.1-4.4-23.3-4.1-33.4,0.9c-1.3,0.6-2.5,1.4-3.8,2.1c-2.4-11.4-7.3-29.2-15.3-40.4
				c0,0,0,0,0,0c-0.1-0.1-0.2-0.3-0.3-0.4c-0.1-0.1-0.1-0.1-0.2-0.2c-0.1-0.1-0.2-0.2-0.3-0.3c-0.1-0.1-0.2-0.2-0.3-0.3
				c-0.1-0.1-0.1-0.1-0.2-0.1c-0.1-0.1-0.3-0.2-0.4-0.3c0,0,0,0,0,0c0,0-0.1-0.1-0.1-0.1c-0.1-0.1-0.3-0.2-0.5-0.3
				c-0.1,0-0.2-0.1-0.3-0.1c-0.1-0.1-0.3-0.1-0.4-0.2c-0.1-0.1-0.2-0.1-0.3-0.1c-0.1,0-0.2-0.1-0.3-0.1c-0.1,0-0.3-0.1-0.4-0.1
				c-0.1,0-0.2-0.1-0.3-0.1c-0.1,0-0.3-0.1-0.4-0.1c-0.1,0-0.2,0-0.3,0c-0.1,0-0.3,0-0.4,0c-0.1,0-0.2,0-0.3,0c-0.1,0-0.2,0-0.4,0
				s-0.2,0-0.4,0c-0.1,0-0.2,0-0.3,0c-0.1,0-0.3,0-0.4,0c-0.1,0-0.2,0-0.3,0c-0.1,0-0.3,0.1-0.4,0.1c-0.1,0-0.2,0.1-0.3,0.1
				c-0.1,0-0.3,0.1-0.4,0.1c-0.1,0-0.2,0.1-0.3,0.1c-0.1,0-0.2,0.1-0.4,0.1c-0.1,0.1-0.3,0.1-0.4,0.2c-0.1,0-0.2,0.1-0.3,0.1
				c-0.1,0.1-0.3,0.2-0.4,0.3c-0.1,0-0.1,0.1-0.2,0.1c0,0,0,0,0,0c-0.1,0.1-0.3,0.2-0.4,0.3c-0.1,0.1-0.1,0.1-0.2,0.2
				c-0.1,0.1-0.2,0.2-0.3,0.3c-0.1,0.1-0.2,0.2-0.3,0.3c-0.1,0.1-0.1,0.1-0.2,0.2c-0.1,0.1-0.2,0.3-0.3,0.4c0,0,0,0,0,0
				c-8,11.1-12.9,28.7-15.3,40.2c-0.3-0.2-0.6-0.4-0.9-0.6c-10.8-6.3-23-7.1-36.3-2.3c-2.6,0.9-4.4,3.2-4.8,5.9s0.7,5.4,2.9,7.1
				c0.1,0.1,12.7,9.9,22.5,31.8c-13-3.1-27.9-2.8-44.5,3.2c-3,1.1-5.1,4-5,7.2s2.2,6.1,5.3,7c0.3,0.1,32.1,10.2,42.9,42.8
				c-8.6,4.4-16.8,10.2-24.3,17.4c-15.5,14.9-27.4,35.2-33.9,57.9c-1.3-0.6-2.7-1.2-4.1-1.7c-11.8-4.4-22.9-3.1-33.7-1.8
				c-2.8,0.3-5.6,0.7-8.4,0.9c1.8-10.9,7.4-26.5,20.4-36.8c3.3-2.6,3.8-7.3,1.2-10.5c-2.6-3.3-7.3-3.8-10.5-1.2
				c-4.6,3.6-8.5,7.7-11.7,12.1c-3.9-17-19.2-29.7-37.3-29.7c-3.5,0-7.1,0.6-11,1.8c-2.4,0.7-4.3,2.6-5,5c-1.2,3.9-1.8,7.5-1.8,11
				c0,21.1,17.2,38.3,38.3,38.3c1.4,0,2.8-0.1,4.3-0.3c-1,3.7-1.7,7.3-2.1,10.5c-3.3-0.3-6.5-0.6-9.7-1c-10.8-1.3-21.9-2.6-33.7,1.8
				c-26.7,10-40.1,34.9-36.6,68.3c2,19.7,13.2,40.9,29.1,56.7H7.5c-4.1,0-7.5,3.4-7.5,7.5s3.4,7.5,7.5,7.5h60.3l14.6,19.4
				c5.9,7.9,15.3,12.6,25.2,12.6h248c9.9,0,19.3-4.7,25.2-12.6l14.5-19.4h60.3c4.1,0,7.5-3.4,7.5-7.5S459.6,380,455.5,380z
				 M136.9,228.9c-0.9,0.1-1.8,0.2-2.6,0.2c-12.9,0-23.3-10.5-23.3-23.3c0-0.8,0.1-1.7,0.2-2.6c0.9-0.1,1.8-0.2,2.6-0.2
				c12.9,0,23.3,10.5,23.3,23.3C137.1,227.2,137.1,228,136.9,228.9z M378.2,339.6l-8.1-8.1l12.5-12.5
				C381.7,326,380.2,332.9,378.2,339.6z M327.5,352.9l-21.4-21.4l21.4-21.4l21.4,21.4L327.5,352.9z M333.4,380h-11.8l5.9-5.9
				L333.4,380z M263.5,352.9l-21.4-21.4l21.4-21.4l21.4,21.4L263.5,352.9z M269.4,380h-11.8l5.9-5.9L269.4,380z M295.5,214.1
				l21.4,21.4l-21.4,21.4l-21.4-21.4L295.5,214.1z M289.9,187.3c1.9-0.2,3.7-0.3,5.6-0.3c1.9,0,3.8,0.1,5.7,0.2l-5.7,5.7
				L289.9,187.3z M327.5,288.9l-21.4-21.4l21.4-21.4l21.4,21.4L327.5,288.9z M359.5,278.1l21.4,21.4l-21.4,21.4l-21.4-21.4
				L359.5,278.1z M316.9,299.5l-21.4,21.4l-21.4-21.4l21.4-21.4L316.9,299.5z M284.9,267.5l-21.4,21.4l-21.4-21.4l21.4-21.4
				L284.9,267.5z M252.9,299.5l-21.4,21.4l-0.7-0.7c1-13.6-0.9-25.7-5.4-35.9l6.2-6.2L252.9,299.5z M231.5,342.1l21.4,21.4
				L236.4,380h-2.6c-5.6-7-10.5-14.9-14.5-23.5c0.9-1.5,1.7-3.1,2.5-4.7L231.5,342.1z M295.5,342.1l21.4,21.4L300.4,380h-9.8v0
				l-16.5-16.5L295.5,342.1z M359.5,342.1l12.9,12.9c-4.1,9.1-9.2,17.5-15.2,25h-2.6v0l-16.5-16.5L359.5,342.1z M382.7,280.1
				l-12.6-12.6l8.1-8.1C380.2,266,381.7,272.9,382.7,280.1z M372.4,243.9l-12.9,12.9l-21.4-21.4l18-18
				C362.5,225.2,368,234.1,372.4,243.9z M345.6,206.8l-18.1,18.1l-21.4-21.4l12.6-12.6C328.4,194.3,337.5,199.7,345.6,206.8z
				 M353.2,134.4c-11.6,7.8-25.3,20.9-32.4,41.5c-7.8-2.4-15.9-3.7-24.2-3.9c2.9-8,9.8-19.3,21.7-27.7
				C326.2,138.8,337.8,133.6,353.2,134.4z M327.3,90.8c2.8-1.4,5.7-2.2,8.8-2.4c-6.8,8.3-15.4,21.5-21.5,40.5
				c-1.7,1-3.4,2.1-4.9,3.2c-1.3,0.9-2.6,1.9-3.9,2.9c-0.7-3-1.5-6.1-2.4-9.3C309.4,107.7,317.6,95.6,327.3,90.8z M295.5,59.5
				c5.2,12.8,7.8,28.2,8.4,32.1c-3,3.9-5.8,8.4-8.3,13.5c-2.4-4.9-5.2-9.6-8.5-13.8C287.8,87,290.5,72,295.5,59.5z M254.8,88.4
				c3.8,0.2,7.4,1.3,10.8,3.3c11.6,6.8,21,24.6,26.2,49.5c-4.5-4.6-9.6-8.7-15.4-12.1C270.3,109.9,261.7,96.7,254.8,88.4z
				 M237.8,134.4c26.2-1.5,42.2,14.8,48.8,23.6c-2.9,5.4-4.9,10.7-5.9,15.4c-3.6,0.6-7.1,1.4-10.5,2.5
				C263.1,155.2,249.4,142.2,237.8,134.4z M272.4,191l12.5,12.5l-21.4,21.4l-18-18C253.6,199.7,262.7,194.3,272.4,191z M235,217.6
				l17.9,17.9l-21.4,21.4L218.6,244C223,234.1,228.6,225.2,235,217.6z M212.8,259.4l8.1,8.1l-3.7,3.7c-1.8-2.2-3.8-4.2-6-6
				C211.7,263.2,212.2,261.3,212.8,259.4z M71.4,321.8c-3.5-33.9,12.7-47.4,27-52.7c8.4-3.1,16.9-2.1,26.7-0.9
				c5.8,0.7,11.8,1.4,18.4,1.4s12.6-0.7,18.4-1.4c9.8-1.2,18.3-2.2,26.7,0.9c14.2,5.3,30.5,18.8,27,52.7
				c-1.9,18.1-15.4,43.6-37.8,58.2h-68.6C86.9,365.4,73.3,339.9,71.4,321.8z M215.2,380h-13.8c2.9-2.9,5.7-6,8.3-9.2
				C211.4,373.9,213.2,377,215.2,380z M368.7,405.4c-3.1,4.1-8,6.6-13.2,6.6h-248c-5.2,0-10.1-2.5-13.2-6.6L86.5,395h290
				L368.7,405.4z"/>
			<path class="st0" d="M182.7,303c1.3,2.6,4,4,6.7,4c1.2,0,2.4-0.3,3.5-0.8c3.7-1.9,5.1-6.4,3.2-10.1c-4-7.7-10.3-10-13-11.1
				l-1.4,3.8l1.4-3.8l-2.6,7l0.6-1.6l-3.2,8.6C179.6,299.8,181.4,300.4,182.7,303z"/>
			<path class="st0" d="M170,363c1.7,0,3.4-0.6,4.8-1.8c11.1-9.3,20.2-23.4,23.4-35.9c1-4-1.4-8.1-5.5-9.1c-4-1-8.1,1.4-9.1,5.5
				c-2,7.9-8.4,19.7-18.5,28.1c-3.2,2.7-3.6,7.4-0.9,10.6C165.7,362.1,167.9,363,170,363z"/>
		</g>
	</g>
</g>
</svg>
