<?xml version="1.0" encoding="iso-8859-1"?>
<!-- Generator: Adobe Illustrator 19.0.0, SVG Export Plug-In . SVG Version: 6.00 Build 0)  -->
<svg version="1.1" id="Layer_1" xmlns="http://www.w3.org/2000/svg" xmlns:xlink="http://www.w3.org/1999/xlink" x="0px" y="0px"
	 viewBox="0 0 463 463" style="enable-background:new 0 0 463 463;" xml:space="preserve">
<g>
	<g>
		<g>
			<path d="M455.5,379.997h-79.712c14.875-22.591,23.212-51.125,23.212-80.5c0-53.204-26.594-98.893-64.264-117.975
				c10.69-32.429,42.655-42.758,42.956-42.852c3.093-0.945,5.231-3.766,5.307-6.999c0.076-3.233-1.93-6.15-4.976-7.237
				c-17.473-6.24-32.328-6.191-44.448-3.26c9.725-21.831,22.273-31.561,22.398-31.656c2.216-1.646,3.349-4.376,2.949-7.107
				c-0.4-2.731-2.267-5.022-4.862-5.964c-12.076-4.383-23.308-4.082-33.382,0.896c-1.281,0.633-2.525,1.362-3.753,2.136
				c-2.437-11.439-7.255-29.19-15.347-40.379c-0.008-0.011-0.017-0.02-0.024-0.031c-0.102-0.139-0.213-0.272-0.326-0.405
				c-0.053-0.063-0.104-0.13-0.159-0.191c-0.084-0.093-0.176-0.181-0.266-0.27c-0.093-0.094-0.185-0.19-0.282-0.278
				c-0.057-0.051-0.12-0.098-0.178-0.148c-0.137-0.116-0.274-0.231-0.418-0.336c-0.01-0.007-0.019-0.016-0.029-0.023
				c-0.047-0.034-0.096-0.06-0.143-0.093c-0.148-0.102-0.296-0.202-0.45-0.292c-0.084-0.05-0.171-0.092-0.256-0.139
				c-0.127-0.068-0.253-0.137-0.384-0.197c-0.115-0.053-0.231-0.099-0.347-0.146c-0.105-0.042-0.208-0.086-0.314-0.124
				c-0.135-0.048-0.273-0.088-0.41-0.128c-0.093-0.027-0.184-0.055-0.277-0.078c-0.143-0.036-0.287-0.064-0.432-0.091
				c-0.094-0.018-0.187-0.036-0.281-0.05c-0.138-0.02-0.275-0.034-0.413-0.046c-0.106-0.01-0.212-0.02-0.319-0.026
				c-0.123-0.006-0.246-0.006-0.369-0.006s-0.246,0-0.369,0.006c-0.106,0.005-0.212,0.016-0.318,0.026
				c-0.138,0.013-0.276,0.026-0.414,0.046c-0.094,0.014-0.187,0.032-0.28,0.05c-0.145,0.027-0.29,0.055-0.433,0.091
				c-0.092,0.023-0.183,0.051-0.274,0.077c-0.139,0.04-0.277,0.081-0.414,0.129c-0.104,0.037-0.206,0.08-0.309,0.121
				c-0.118,0.048-0.237,0.094-0.353,0.149c-0.127,0.059-0.251,0.126-0.375,0.193c-0.088,0.047-0.178,0.092-0.265,0.143
				c-0.149,0.088-0.293,0.185-0.437,0.284c-0.051,0.035-0.104,0.064-0.154,0.1c-0.011,0.008-0.02,0.017-0.031,0.025
				c-0.139,0.102-0.272,0.213-0.405,0.325c-0.063,0.053-0.13,0.104-0.191,0.159c-0.094,0.085-0.182,0.177-0.272,0.268
				c-0.093,0.092-0.188,0.183-0.275,0.279c-0.053,0.059-0.102,0.124-0.154,0.185c-0.114,0.134-0.227,0.269-0.33,0.41
				c-0.008,0.011-0.017,0.02-0.024,0.031c-8.042,11.12-12.851,28.72-15.301,40.165c-0.298-0.186-0.589-0.384-0.893-0.563
				c-10.758-6.333-22.968-7.092-36.288-2.257c-2.582,0.937-4.429,3.222-4.841,5.938c-0.412,2.716,0.709,5.45,2.897,7.11
				c0.15,0.113,12.745,9.87,22.476,31.772c-12.972-3.142-27.925-2.751-44.496,3.167c-3.045,1.087-5.051,4.004-4.976,7.237
				c0.075,3.233,2.214,6.053,5.307,6.999c0.321,0.098,32.139,10.169,42.93,42.778c-8.622,4.353-16.792,10.154-24.328,17.385
				c-15.511,14.881-27.374,35.222-33.944,57.933c-1.343-0.613-2.715-1.194-4.134-1.724c-11.814-4.416-22.938-3.078-33.696-1.783
				c-2.755,0.331-5.559,0.667-8.416,0.916c1.809-10.929,7.366-26.479,20.427-36.79c3.251-2.567,3.806-7.283,1.239-10.534
				c-2.567-3.251-7.282-3.806-10.534-1.239c-4.611,3.64-8.484,7.749-11.726,12.084c-3.932-16.99-19.178-29.697-37.346-29.697
				c-3.464,0-7.061,0.575-10.998,1.758c-2.412,0.725-4.299,2.611-5.024,5.023c-1.184,3.935-1.759,7.533-1.759,11
				c0,21.141,17.2,38.341,38.341,38.341c1.408,0,2.84-0.1,4.306-0.292c-1.001,3.718-1.679,7.251-2.097,10.451
				c-3.298-0.254-6.525-0.638-9.687-1.018c-10.757-1.295-21.881-2.633-33.696,1.783c-26.729,9.989-40.083,34.885-36.64,68.305
				c2.029,19.688,13.246,40.865,29.1,56.651H7.5c-4.142,0-7.5,3.358-7.5,7.5c0,4.142,3.358,7.5,7.5,7.5h60.25l14.55,19.4
				c5.917,7.89,15.338,12.6,25.2,12.6h248c9.862,0,19.283-4.71,25.2-12.6l14.55-19.4h60.25c4.142,0,7.5-3.358,7.5-7.5
				C463,383.356,459.642,379.997,455.5,379.997z M136.932,228.929c-0.898,0.127-1.755,0.189-2.591,0.189
				c-12.87,0-23.341-10.471-23.341-23.341c0-0.836,0.062-1.692,0.189-2.591c0.898-0.127,1.755-0.189,2.591-0.189
				c12.87,0,23.341,10.471,23.341,23.341C137.121,227.175,137.059,228.031,136.932,228.929z M378.16,339.551l-8.056-8.056
				l12.543-12.543C381.665,326,380.163,332.898,378.16,339.551z M327.498,352.89l-21.393-21.393l21.393-21.395l21.394,21.394
				L327.498,352.89z M333.394,379.998h-11.792l5.896-5.896L333.394,379.998z M263.498,352.89l-21.394-21.394l21.393-21.394
				l21.395,21.394L263.498,352.89z M269.394,379.997h-11.791l5.895-5.895L269.394,379.997z M295.498,214.102l21.392,21.392
				l-21.393,21.394l-21.393-21.393L295.498,214.102z M289.862,187.253c1.869-0.153,3.747-0.255,5.639-0.255
				c1.899,0,3.783,0.085,5.653,0.236l-5.656,5.655L289.862,187.253z M327.499,288.89l-21.395-21.395l21.393-21.394l21.395,21.395
				L327.499,288.89z M359.497,278.101l21.394,21.394l-21.394,21.394l-21.393-21.394L359.497,278.101z M316.892,299.496
				l-21.393,21.394l-21.395-21.395l21.393-21.394L316.892,299.496z M284.891,267.494l-21.393,21.394l-21.393-21.393l21.393-21.394
				L284.891,267.494z M252.891,299.495l-21.393,21.394l-0.746-0.746c0.979-13.611-0.912-25.719-5.414-35.882l6.16-6.16
				L252.891,299.495z M231.497,342.102l21.394,21.394l-16.501,16.502h-2.635c-5.642-6.99-10.501-14.863-14.498-23.463
				c0.877-1.55,1.711-3.115,2.499-4.692L231.497,342.102z M295.498,342.101l21.393,21.393l-16.502,16.502h-9.783v0.001
				l-16.502-16.502L295.498,342.101z M359.498,342.101l12.915,12.915c-4.077,9.119-9.168,17.543-15.164,24.98h-2.643v0.001
				l-16.502-16.502L359.498,342.101z M382.675,280.066l-12.571-12.571l8.084-8.084C380.178,266.022,381.693,272.928,382.675,280.066
				z M372.437,243.95l-12.939,12.939l-21.395-21.395l17.954-17.955C362.496,225.231,368.031,234.129,372.437,243.95z M345.585,206.8
				l-18.088,18.088l-21.392-21.392l12.575-12.575C328.413,194.282,337.484,199.705,345.585,206.8z M353.208,134.404
				c-11.634,7.812-25.306,20.874-32.377,41.462c-7.758-2.413-15.861-3.74-24.198-3.851c2.896-8.038,9.78-19.266,21.719-27.68
				C326.161,138.832,337.814,133.552,353.208,134.404z M327.323,90.791c2.782-1.375,5.701-2.163,8.793-2.364
				c-6.834,8.28-15.445,21.511-21.493,40.475c-1.748,1.034-3.39,2.098-4.912,3.171c-1.334,0.94-2.621,1.918-3.869,2.924
				c-0.69-2.99-1.486-6.099-2.405-9.267C309.397,107.655,317.631,95.581,327.323,90.791z M295.5,59.46
				c5.156,12.831,7.802,28.178,8.425,32.115c-3.017,3.903-5.785,8.43-8.31,13.548c-2.417-4.927-5.229-9.624-8.496-13.831
				C287.818,86.951,290.459,72.004,295.5,59.46z M254.83,88.362c3.849,0.202,7.429,1.291,10.79,3.269
				c11.605,6.831,20.962,24.624,26.225,49.469c-4.473-4.561-9.64-8.704-15.444-12.126C270.336,109.92,261.682,96.65,254.83,88.362z
				 M237.753,134.377c26.197-1.497,42.182,14.792,48.817,23.551c-2.944,5.381-4.919,10.665-5.883,15.371
				c-3.559,0.62-7.078,1.443-10.538,2.508C263.063,155.23,249.384,142.179,237.753,134.377z M272.371,190.975l12.52,12.52
				l-21.394,21.393l-18.029-18.029C253.62,199.738,262.71,194.337,272.371,190.975z M234.985,217.589l17.906,17.906l-21.394,21.393
				l-12.926-12.926C223.002,234.107,228.558,225.238,234.985,217.589z M212.805,259.409l8.086,8.086l-3.69,3.69
				c-1.822-2.16-3.809-4.177-5.973-6.03C211.718,263.216,212.237,261.296,212.805,259.409z M71.449,321.809
				c-3.497-33.934,12.736-47.397,26.97-52.716c8.397-3.139,16.857-2.121,26.654-0.941c5.787,0.696,11.771,1.416,18.428,1.416
				c6.657,0,12.641-0.72,18.428-1.416c9.797-1.179,18.257-2.196,26.654,0.941c14.233,5.319,30.466,18.783,26.97,52.716
				c-1.866,18.108-15.402,43.584-37.775,58.189h-68.552C86.852,365.393,73.315,339.914,71.449,321.809z M215.208,379.997h-13.835
				c2.925-2.912,5.687-6.011,8.268-9.248C211.383,373.935,213.24,377.019,215.208,379.997z M368.7,405.397
				c-3.1,4.133-8.034,6.6-13.2,6.6h-248c-5.166,0-10.101-2.467-13.2-6.6l-7.8-10.4h290L368.7,405.397z"/>
			<path d="M182.714,303.011c1.336,2.568,3.951,4.039,6.659,4.039c1.166,0,2.35-0.273,3.456-0.849
				c3.674-1.912,5.103-6.441,3.19-10.115c-4.002-7.69-10.34-10.046-13.046-11.052l-1.417,3.809l1.415-3.809l-2.613,7.03l0.591-1.589
				l-3.202,8.619C179.614,299.789,181.378,300.444,182.714,303.011z"/>
			<path d="M170.003,363.001c1.7,0,3.411-0.575,4.815-1.753c11.074-9.288,20.247-23.395,23.37-35.94c1-4.02-1.447-8.089-5.466-9.089
				c-4.021-1-8.089,1.447-9.089,5.466c-1.972,7.922-8.442,19.673-18.453,28.069c-3.174,2.662-3.589,7.392-0.927,10.566
				C165.736,362.089,167.862,363.001,170.003,363.001z"/>
		</g>
	</g>
</g>
<g>
</g>
<g>
</g>
<g>
</g>
<g>
</g>
<g>
</g>
<g>
</g>
<g>
</g>
<g>
</g>
<g>
</g>
<g>
</g>
<g>
</g>
<g>
</g>
<g>
</g>
<g>
</g>
<g>
</g>
</svg>
