<?xml version="1.0" encoding="utf-8"?>
<!-- Generator: Adobe Illustrator 21.1.0, SVG Export Plug-In . SVG Version: 6.00 Build 0)  -->
<svg version="1.1" id="Layer_1" xmlns="http://www.w3.org/2000/svg" xmlns:xlink="http://www.w3.org/1999/xlink" x="0px" y="0px"
	 viewBox="0 0 462.8 462.8" style="enable-background:new 0 0 462.8 462.8;" xml:space="preserve">
<style type="text/css">
	.st0{fill:#F0F0F0;}
</style>
<g>
	<g>
		<path class="st0" d="M344.3,152c2.4-7.5,2.8-14.9,1.4-22.1c-3.6-17.9-16.3-28.5-33.1-36.2c-0.3-0.2-0.6-0.3-0.9-0.4
			c-8.6-3.8-18.3-6.9-28.3-9.8c1.2-3.8,1.9-7.9,1.9-12.2c0-15.4-8.8-28.7-21.7-35.2C276.2,17.3,290.7,15,297,15c9.2,0,15,2,18.3,3.7
			c2.6,1.4,5.7,1.2,8.1-0.6c4.4-3.3,3.8-10-1-12.6C316.9,2.7,308.8,0,297,0c-14.4,0-27.9,6.6-39,19.1c-2.6,2.9-5.9,7.2-9.3,12.8
			c-0.9-0.1-1.9-0.1-2.8-0.1c-15.4,0-28.7,8.8-35.2,21.7c-2.4-2.6-4.4-5.8-5.9-9.1c-0.8-2-2.5-3.5-4.5-4.1c-2-0.7-4.2-0.5-6.1,0.6
			c-45.2,25.4-50.6,64.4-50.8,79.8c-0.3,0.1-0.6,0.3-0.9,0.4c-17,7.3-26.8,21.2-28.4,40.2c-0.6,7.1,0.1,13.5,1,18.2
			c-15.7,5.9-25.5,17.7-26.8,32.9c-1.4,16.4,7.6,32.2,22.4,40c-0.1,1-0.2,2-0.2,3.1c0,13,10.5,23.5,23.5,23.5h0.3
			c3.2,3.7,5,8.4,5,13.3c0,47.5,36.7,86.6,83.2,90.4v24.8c0,22.3-18.2,40.5-40.5,40.5c-4.1,0-7.5,3.4-7.5,7.5s3.4,7.5,7.5,7.5h96
			c4.1,0,7.5-3.4,7.5-7.5s-3.4-7.5-7.5-7.5c-22.3,0-40.5-18.2-40.5-40.5v-24.8c46.5-3.8,83.2-42.9,83.2-90.4c0-4.9,1.8-9.6,5-13.3
			h0.3c13,0,23.5-10.5,23.5-23.5c0-2.1-0.3-4.1-0.8-6c5.3-3.9,25.2-19.9,26.3-43.9C375.7,187,365.4,169,344.3,152z M245.8,46.8
			c13.5,0,24.5,11,24.5,24.5s-11,24.5-24.5,24.5s-24.5-11-24.5-24.5S232.3,46.8,245.8,46.8z M154.1,292.1c0-4.6-0.9-9.1-2.6-13.3
			h30.8v16.5c0,22.5,4.4,43.8,12.5,59.9c1,1.9,2,3.7,3,5.5C172,348.6,154.1,322.4,154.1,292.1z M239.9,447.8h-20.2
			c4-3.7,7.4-8,10.1-12.7C232.5,439.9,236,444.1,239.9,447.8z M229.8,367.8c-7.6,0-15.4-7-21.6-19.3c-7-14.1-10.9-33-10.9-53.2
			v-16.5h65v16.5C262.3,338.1,245.2,367.8,229.8,367.8z M305.5,292.1c0,30.3-17.9,56.5-43.7,68.6c1-1.7,2-3.5,3-5.5
			c8.1-16.1,12.5-37.4,12.5-59.9v-16.5h30.8C306.4,283,305.5,287.5,305.5,292.1z M325.8,263.8h-192c-4.7,0-8.5-3.8-8.5-8.5
			s3.8-8.5,8.5-8.5h192c4.7,0,8.5,3.8,8.5,8.5C334.3,260,330.5,263.8,325.8,263.8z M359.8,204.7c-0.7,16.6-15.2,28.8-19.6,32.1
			c-4-3.1-9-5-14.5-5h-74.5c14.2-7.1,31.2-16.4,46.8-27.4c3.4-2.4,4.2-7.1,1.8-10.4c-2.4-3.4-7.1-4.2-10.4-1.8
			c-30.4,21.3-67.2,36.8-74.5,39.7h-81.2c-6.5,0-12.4,2.6-16.6,6.9c-9.2-5.1-15-15.2-14.1-25.2c1-11.2,9.8-19.3,24.2-22.2
			c12.2-2.4,44.5-9.3,80.6-19.6c4-1.1,6.3-5.3,5.1-9.3c-1.1-4-5.3-6.3-9.3-5.1c-31.3,9-59.7,15.3-74.3,18.3
			c-1.8-10.7-2.3-31.9,18.8-40.9c8.6-3.7,26.1-6.9,44.7-10.2l6.2-1.1c4.1-0.7,6.8-4.7,6-8.7c-0.7-4.1-4.7-6.8-8.7-6l-6.2,1.1
			c-11.8,2.2-22.7,4.1-31.7,6.3c1.2-14.8,7.8-39.4,36.5-58.2c3.1,4.7,7,8.8,11.4,11.9c0,0.5,0,1.1,0,1.6c0,21.8,17.7,39.5,39.5,39.5
			c12,0,22.8-5.4,30-13.9c10.2,2.8,19.8,5.7,28.1,9.3c0.7,1.5,0.5,2.6,0.2,3.5c-1.5,4.8-11.3,18.2-68.7,37.7c-3.9,1.3-6,5.6-4.7,9.5
			c1.1,3.1,4,5.1,7.1,5.1c0.8,0,1.6-0.1,2.4-0.4c30.4-10.3,71.5-26.4,78.2-47.3c0,0,0-0.1,0-0.1c6.5,4.8,10.9,10.8,12.5,18.6
			c2.3,11.3-2.9,23.9-15.5,37.4c-2.8,3-2.7,7.8,0.4,10.6c1.4,1.3,3.3,2,5.1,2c2,0,4-0.8,5.5-2.4c4.5-4.8,8.3-9.7,11.3-14.5
			C352.9,179.1,360.4,192.1,359.8,204.7z"/>
	</g>
</g>
</svg>
