<?xml version="1.0" encoding="iso-8859-1"?>
<!-- Generator: Adobe Illustrator 19.0.0, SVG Export Plug-In . SVG Version: 6.00 Build 0)  -->
<svg version="1.1" id="Layer_1" xmlns="http://www.w3.org/2000/svg" xmlns:xlink="http://www.w3.org/1999/xlink" x="0px" y="0px"
	 viewBox="0 0 463 463" style="enable-background:new 0 0 463 463;" xml:space="preserve">
<g>
	<g>
		<g>
			<path d="M462.232,256.195c-1.26-2.567-3.872-4.194-6.732-4.194h-96.958c-1.369-11.578-5.859-22.209-12.613-31.027l99.296-117.334
				c2.676-3.162,2.282-7.894-0.88-10.57c-3.162-2.676-7.895-2.281-10.57,0.88l-98.352,116.219
				c-8.259-6.697-18.225-11.357-29.134-13.232l68.153-166.596c1.568-3.834-0.268-8.213-4.102-9.781s-8.213,0.268-9.781,4.102
				l-70.186,171.565c-15.084,1.212-28.691,7.711-38.969,17.647c-16.605-30.571-48.593-49.872-83.904-49.872
				c-50.135,0-91.369,38.833-95.207,88H7.5c-2.86,0-5.472,1.627-6.732,4.194c-1.261,2.567-0.952,5.628,0.797,7.892L132.762,433.87
				c4.418,5.717,11.369,9.131,18.595,9.131h160.287c7.226,0,14.177-3.414,18.595-9.131l131.196-169.783
				C463.184,261.824,463.493,258.763,462.232,256.195z M335.944,232.773c3.771,5.688,6.38,12.209,7.474,19.228h-17.327
				c-0.458-1.867-1.084-3.667-1.859-5.388L335.944,232.773z M295.471,211.002c0.009,0,0.017,0.001,0.026,0.001
				c0.007,0,0.014-0.001,0.02-0.001c11.42,0.004,21.922,3.984,30.216,10.617l-10.981,12.976c-5.328-4.128-12.006-6.594-19.252-6.594
				c-14.785,0-27.216,10.241-30.591,24h-17.327C251.197,228.816,271.291,211.016,295.471,211.002z M305.043,246.066l-5.022,5.935
				h-19.2c2.737-5.334,8.282-9,14.678-9C299.056,243.001,302.346,244.144,305.043,246.066z M167.5,179.001
				c31.935,0,60.646,18.725,73.577,47.821c-4.534,7.523-7.541,16.059-8.619,25.179h-1.916c-3.724-31.49-30.567-56-63.042-56
				s-59.318,24.51-63.042,56H87.362C91.158,211.118,125.642,179.001,167.5,179.001z M167.5,228.001
				c-14.785,0-27.216,10.241-30.591,24h-17.327c3.616-23.194,23.725-41,47.918-41s44.302,17.806,47.918,41h-17.327
				C194.717,238.242,182.285,228.001,167.5,228.001z M182.178,252.001h-29.357c2.737-5.334,8.282-9,14.678-9
				S179.442,246.667,182.178,252.001z M318.369,424.698c-1.598,2.068-4.112,3.303-6.726,3.303H151.356
				c-2.613,0-5.127-1.234-6.726-3.303L22.774,267.001h417.452L318.369,424.698z"/>
			<path d="M216,123.532c0,12.625,5.348,19.304,9.645,24.672c3.689,4.608,6.355,7.938,6.355,15.297c0,4.142,3.358,7.5,7.5,7.5
				c4.142,0,7.5-3.358,7.5-7.5c0-12.625-5.348-19.305-9.646-24.672c-3.689-4.608-6.354-7.937-6.354-15.297
				c0-7.37,2.667-10.704,6.357-15.317C241.653,102.844,247,96.16,247,83.528c0-12.637-5.346-19.325-9.642-24.699
				C233.667,54.211,231,50.874,231,43.496c0-4.142-3.358-7.5-7.5-7.5c-4.142,0-7.5,3.358-7.5,7.5
				c0,12.637,5.346,19.325,9.642,24.699c3.691,4.618,6.358,7.954,6.358,15.333c0,7.37-2.667,10.704-6.357,15.317
				C221.347,104.216,216,110.9,216,123.532z"/>
			<path d="M256.484,131.023c2.381,0,4.504-1.111,5.879-2.842C267.776,121.415,279,107.358,279,83.527
				c0-9.68-1.861-18.805-5.532-27.123c-1.672-3.789-6.1-5.505-9.89-3.833c-3.79,1.672-5.505,6.1-3.833,9.89
				C262.568,68.858,264,75.946,264,83.527c0,18.514-8.295,28.964-13.303,35.226c-1.07,1.296-1.713,2.958-1.713,4.771
				C248.984,127.665,252.342,131.023,256.484,131.023z"/>
			<path d="M196.325,154.948c1.004,0,2.025-0.203,3.004-0.632c3.794-1.662,5.523-6.084,3.862-9.878
				c-2.781-6.352-4.191-13.386-4.191-20.907c0-18.59,8.368-29.051,13.369-35.304c0.135-0.169,0.263-0.344,0.383-0.524
				c1.68-2.519,1.672-5.852-0.008-8.371c-2.297-3.447-6.955-4.378-10.4-2.08c-0.888,0.592-1.608,1.34-2.15,2.184
				C194.636,86.401,184,100.338,184,123.531c0,9.605,1.834,18.663,5.451,26.923C190.684,153.27,193.436,154.948,196.325,154.948z"/>
		</g>
	</g>
</g>
<g>
</g>
<g>
</g>
<g>
</g>
<g>
</g>
<g>
</g>
<g>
</g>
<g>
</g>
<g>
</g>
<g>
</g>
<g>
</g>
<g>
</g>
<g>
</g>
<g>
</g>
<g>
</g>
<g>
</g>
</svg>
