<?xml version="1.0" encoding="utf-8"?>
<!-- Generator: Adobe Illustrator 21.1.0, SVG Export Plug-In . SVG Version: 6.00 Build 0)  -->
<svg version="1.1" id="Layer_1" xmlns="http://www.w3.org/2000/svg" xmlns:xlink="http://www.w3.org/1999/xlink" x="0px" y="0px"
	 viewBox="0 0 463 463" style="enable-background:new 0 0 463 463;" xml:space="preserve">
<style type="text/css">
	.st0{fill:#F0F0F0;}
</style>
<g>
	<g>
		<g>
			<path class="st0" d="M462.2,256.2c-1.3-2.6-3.9-4.2-6.7-4.2h-97c-1.4-11.6-5.9-22.2-12.6-31l99.3-117.3c2.7-3.2,2.3-7.9-0.9-10.6
				c-3.2-2.7-7.9-2.3-10.6,0.9l-98.4,116.2c-8.3-6.7-18.2-11.4-29.1-13.2l68.2-166.6c1.6-3.8-0.3-8.2-4.1-9.8s-8.2,0.3-9.8,4.1
				l-70.2,171.6c-15.1,1.2-28.7,7.7-39,17.6c-16.6-30.6-48.6-49.9-83.9-49.9c-50.1,0-91.4,38.8-95.2,88H7.5c-2.9,0-5.5,1.6-6.7,4.2
				c-1.3,2.6-1,5.6,0.8,7.9l131.2,169.8c4.4,5.7,11.4,9.1,18.6,9.1h160.3c7.2,0,14.2-3.4,18.6-9.1l131.2-169.8
				C463.2,261.8,463.5,258.8,462.2,256.2z M335.9,232.8c3.8,5.7,6.4,12.2,7.5,19.2h-17.3c-0.5-1.9-1.1-3.7-1.9-5.4L335.9,232.8z
				 M295.5,211C295.5,211,295.5,211,295.5,211C295.5,211,295.5,211,295.5,211c11.5,0,22,4,30.3,10.6l-11,13
				c-5.3-4.1-12-6.6-19.3-6.6c-14.8,0-27.2,10.2-30.6,24h-17.3C251.2,228.8,271.3,211,295.5,211z M305,246.1l-5,5.9h-19.2
				c2.7-5.3,8.3-9,14.7-9C299.1,243,302.3,244.1,305,246.1z M167.5,179c31.9,0,60.6,18.7,73.6,47.8c-4.5,7.5-7.5,16.1-8.6,25.2h-1.9
				c-3.7-31.5-30.6-56-63-56s-59.3,24.5-63,56H87.4C91.2,211.1,125.6,179,167.5,179z M167.5,228c-14.8,0-27.2,10.2-30.6,24h-17.3
				c3.6-23.2,23.7-41,47.9-41s44.3,17.8,47.9,41h-17.3C194.7,238.2,182.3,228,167.5,228z M182.2,252h-29.4c2.7-5.3,8.3-9,14.7-9
				S179.4,246.7,182.2,252z M318.4,424.7c-1.6,2.1-4.1,3.3-6.7,3.3H151.4c-2.6,0-5.1-1.2-6.7-3.3L22.8,267h417.5L318.4,424.7z"/>
			<path class="st0" d="M216,123.5c0,12.6,5.3,19.3,9.6,24.7c3.7,4.6,6.4,7.9,6.4,15.3c0,4.1,3.4,7.5,7.5,7.5s7.5-3.4,7.5-7.5
				c0-12.6-5.3-19.3-9.6-24.7c-3.7-4.6-6.4-7.9-6.4-15.3c0-7.4,2.7-10.7,6.4-15.3c4.3-5.4,9.6-12.1,9.6-24.7
				c0-12.6-5.3-19.3-9.6-24.7c-3.7-4.6-6.4-8-6.4-15.3c0-4.1-3.4-7.5-7.5-7.5s-7.5,3.4-7.5,7.5c0,12.6,5.3,19.3,9.6,24.7
				c3.7,4.6,6.4,8,6.4,15.3c0,7.4-2.7,10.7-6.4,15.3C221.3,104.2,216,110.9,216,123.5z"/>
			<path class="st0" d="M256.5,131c2.4,0,4.5-1.1,5.9-2.8c5.4-6.8,16.6-20.8,16.6-44.7c0-9.7-1.9-18.8-5.5-27.1
				c-1.7-3.8-6.1-5.5-9.9-3.8s-5.5,6.1-3.8,9.9c2.8,6.4,4.3,13.5,4.3,21.1c0,18.5-8.3,29-13.3,35.2c-1.1,1.3-1.7,3-1.7,4.8
				C249,127.7,252.3,131,256.5,131z"/>
			<path class="st0" d="M196.3,154.9c1,0,2-0.2,3-0.6c3.8-1.7,5.5-6.1,3.9-9.9c-2.8-6.4-4.2-13.4-4.2-20.9
				c0-18.6,8.4-29.1,13.4-35.3c0.1-0.2,0.3-0.3,0.4-0.5c1.7-2.5,1.7-5.9,0-8.4c-2.3-3.4-7-4.4-10.4-2.1c-0.9,0.6-1.6,1.3-2.1,2.2
				c-5.6,7-16.2,20.9-16.2,44.1c0,9.6,1.8,18.7,5.5,26.9C190.7,153.3,193.4,154.9,196.3,154.9z"/>
		</g>
	</g>
</g>
</svg>
