<?xml version="1.0" encoding="utf-8"?>
<!-- Generator: Adobe Illustrator 21.1.0, SVG Export Plug-In . SVG Version: 6.00 Build 0)  -->
<svg version="1.1" id="Layer_1" xmlns="http://www.w3.org/2000/svg" xmlns:xlink="http://www.w3.org/1999/xlink" x="0px" y="0px"
	 viewBox="0 0 512 512" style="enable-background:new 0 0 512 512;" xml:space="preserve">
<g>
	<g>
		<g>
			<path d="M426,177.2c-2.1-0.6-4.4-0.3-6.3,0.8l-30.3,17.5c-0.1,0.1-0.2,0.1-0.3,0.2c-0.1,0.1-0.2,0.1-0.3,0.2l-135.6,78.3
				L303,88.5c1.2-4.4-1.4-9-5.9-10.2c-56.9-15.3-116.3-7.4-167.4,22C24.5,161.2-11.8,296.3,49,401.6c29.5,51,77,87.5,133.9,102.8
				c19,5.1,38.3,7.6,57.4,7.6c38.2,0,75.9-10,109.9-29.6c105.3-60.8,141.5-196,80.7-301.3C429.9,179.2,428.1,177.8,426,177.2z
				 M232,289.2c-0.9,3.2,0.3,6.7,3,8.7c2.7,2,6.3,2.3,9.2,0.6l145.9-84.2c40.8,79.4,12.4,177.9-65.7,223
				c-26.5,15.3-55.4,22.6-84,22.6c-58.3,0-115.1-30.2-146.3-84.3c-22.5-39-28.5-84.4-16.8-127.9c11.7-43.5,39.6-79.9,78.6-102.4
				c36.5-21.1,78.8-27.7,119.8-18.8L232,289.2z M342,468c-47.2,27.2-102.1,34.5-154.8,20.4c-52.6-14.1-96.6-47.9-123.8-95
				c-56.2-97.4-22.7-222.4,74.7-278.6c31.4-18.1,66.3-27.4,101.7-27.4c15,0,30.1,1.7,45.1,5.1l-4.9,18.1
				c-45.3-10-92.1-2.8-132.4,20.5c-42.8,24.7-73.5,64.7-86.3,112.4S55,341.1,79.7,383.9c34.3,59.3,96.6,92.6,160.7,92.6
				c31.4,0,63.2-8,92.3-24.8c86-49.7,117.1-158.4,71.8-245.7l16.2-9.4C471.2,292.9,437,413.1,342,468z"/>
			<path d="M491.4,103.1c-29.5-51-77-87.5-134-102.8c-2.1-0.6-4.4-0.3-6.3,0.8c-1.9,1.1-3.3,2.9-3.9,5l-54.9,205.1
				c-0.9,3.2,0.3,6.7,3,8.7c1.5,1.1,3.3,1.7,5,1.7c1.4,0,2.9-0.4,4.1-1.1l183.9-106.2c1.9-1.1,3.3-2.9,3.9-5
				C492.7,107.2,492.5,105,491.4,103.1z M313.5,196.2l37.9-141.6c36.6,12.1,67.6,36.1,88.3,68.7L313.5,196.2z M454.1,115
				c-23-36.4-57.5-63.2-98.4-76.4l5.4-20c46.5,14.5,85.6,44.5,111.6,85.7L454.1,115z"/>
			<path d="M186.4,300.2c0-14.3-11.7-26-26-26c-14.3,0-26,11.7-26,26c0,14.3,11.7,26,26,26C174.8,326.2,186.4,314.5,186.4,300.2z
				 M151,300.2c0-5.2,4.2-9.4,9.4-9.4c5.2,0,9.4,4.2,9.4,9.4c0,5.2-4.2,9.4-9.4,9.4C155.3,309.6,151,305.4,151,300.2z"/>
			<path d="M195.8,211.2c14.3,0,26-11.7,26-26c0-14.3-11.7-26-26-26c-14.3,0-26,11.7-26,26C169.8,199.5,181.5,211.2,195.8,211.2z
				 M195.8,175.8c5.2,0,9.4,4.2,9.4,9.4c0,5.2-4.2,9.4-9.4,9.4c-5.2,0-9.4-4.2-9.4-9.4C186.4,180,190.6,175.8,195.8,175.8z"/>
			<path d="M319.7,352.7c14.3,0,26-11.7,26-26c0-14.3-11.7-26-26-26s-26,11.7-26,26C293.7,341.1,305.3,352.7,319.7,352.7z
				 M319.7,317.3c5.2,0,9.4,4.2,9.4,9.4s-4.2,9.4-9.4,9.4s-9.4-4.2-9.4-9.4S314.5,317.3,319.7,317.3z"/>
			<path d="M205.2,397.5c0,14.3,11.7,26,26,26c14.3,0,26-11.7,26-26s-11.7-26-26-26C216.9,371.5,205.2,383.2,205.2,397.5z
				 M240.6,397.5c0,5.2-4.2,9.4-9.4,9.4c-5.2,0-9.4-4.2-9.4-9.4s4.2-9.4,9.4-9.4C236.4,388.1,240.6,392.3,240.6,397.5z"/>
			<path d="M306.4,405.8c7,0,12.7-5.7,12.7-12.7c0-7-5.7-12.7-12.7-12.7c-7,0-12.7,5.7-12.7,12.7
				C293.7,400.1,299.4,405.8,306.4,405.8z"/>
			<path d="M253.3,343.9c7,0,12.7-5.7,12.7-12.7s-5.7-12.7-12.7-12.7c-7,0-12.7,5.7-12.7,12.7S246.3,343.9,253.3,343.9z"/>
			<path d="M359.5,123.8c-7,0-12.7,5.7-12.7,12.7s5.7,12.7,12.7,12.7c7,0,12.7-5.7,12.7-12.7S366.5,123.8,359.5,123.8z"/>
			<path d="M156,380.4c-7,0-12.7,5.7-12.7,12.7c0,7,5.7,12.7,12.7,12.7s12.7-5.7,12.7-12.7C168.7,386.1,163,380.4,156,380.4z"/>
			<path d="M187.5,242.7c0,7,5.7,12.7,12.7,12.7s12.7-5.7,12.7-12.7s-5.7-12.7-12.7-12.7S187.5,235.7,187.5,242.7z"/>
			<path d="M192.1,337l-17.7,8.8c-4.1,2-5.8,7-3.7,11.1c1.5,2.9,4.4,4.6,7.4,4.6c1.2,0,2.5-0.3,3.7-0.9l17.7-8.8
				c4.1-2,5.8-7,3.7-11.1C201.2,336.6,196.2,335,192.1,337z"/>
			<path d="M374.2,286.2c1.5,2.9,4.4,4.6,7.4,4.6c1.2,0,2.5-0.3,3.7-0.9c4.1-2,5.8-7,3.7-11.1l-8.8-17.7c-2-4.1-7-5.8-11.1-3.7
				c-4.1,2-5.8,7-3.7,11.1L374.2,286.2z"/>
			<path d="M110,274.6c-4.3-1.4-9,0.9-10.5,5.2l-8.8,26.5c-1.4,4.3,0.9,9,5.2,10.5c0.9,0.3,1.8,0.4,2.6,0.4c3.5,0,6.7-2.2,7.9-5.7
				l8.8-26.5C116.7,280.8,114.3,276.1,110,274.6z"/>
			<path d="M151.6,237.7c3,0,6-1.7,7.4-4.6c2-4.1,0.4-9.1-3.7-11.1l-17.7-8.8c-4.1-2-9.1-0.4-11.1,3.7s-0.4,9.1,3.7,11.1l17.7,8.8
				C149.1,237.4,150.3,237.7,151.6,237.7z"/>
			<path d="M231.8,149.8v17.7c0,4.6,3.7,8.3,8.3,8.3c4.6,0,8.3-3.7,8.3-8.3v-17.7c0-4.6-3.7-8.3-8.3-8.3S231.8,145.2,231.8,149.8z"
				/>
			<path d="M378.6,82c-3.2-3.2-8.5-3.2-11.7,0c-3.2,3.2-3.2,8.5,0,11.7l17.7,17.7c1.6,1.6,3.7,2.4,5.9,2.4c2.1,0,4.2-0.8,5.9-2.4
				c3.2-3.2,3.2-8.5,0-11.7L378.6,82z"/>
			<path d="M340.3,385.7c1.6,1.6,3.7,2.4,5.9,2.4s4.2-0.8,5.9-2.4l8.8-8.8c3.2-3.2,3.2-8.5,0-11.7c-3.2-3.2-8.5-3.2-11.7,0l-8.8,8.8
				C337.1,377.2,337.1,382.4,340.3,385.7z"/>
			<path d="M319.7,290.8h8.8c4.6,0,8.3-3.7,8.3-8.3c0-4.6-3.7-8.3-8.3-8.3h-8.8c-4.6,0-8.3,3.7-8.3,8.3
				C311.4,287.1,315.1,290.8,319.7,290.8z"/>
		</g>
	</g>
</g>
</svg>
