<?xml version="1.0" encoding="iso-8859-1"?>
<!-- Generator: Adobe Illustrator 19.0.0, SVG Export Plug-In . SVG Version: 6.00 Build 0)  -->
<svg version="1.1" id="Layer_1" xmlns="http://www.w3.org/2000/svg" xmlns:xlink="http://www.w3.org/1999/xlink" x="0px" y="0px"
	 viewBox="0 0 447 447" style="enable-background:new 0 0 447 447;" xml:space="preserve">
<g>
	<g>
		<g>
			<path d="M381.539,65.462C339.325,23.248,283.199,0,223.5,0C163.801,0,107.675,23.248,65.461,65.462
				C23.248,107.675,0,163.801,0,223.5c0,59.699,23.248,115.825,65.461,158.038C107.675,423.752,163.801,447,223.5,447
				c59.699,0,115.825-23.248,158.039-65.462C423.752,339.325,447,283.199,447,223.5C447,163.801,423.752,107.675,381.539,65.462z
				 M223.5,432C108.533,432,15,338.468,15,223.5S108.533,15,223.5,15S432,108.532,432,223.5S338.467,432,223.5,432z"/>
			<path d="M353.355,180.975c2.561-5.197,5.645-13.067,5.645-21.475c0-23.726-12.717-40.595-34.988-46.583
				c-4.485-5.719-10.416-9.257-17.309-10.293c-9.413-1.415-20.144,1.988-29.806,9.361C261.795,91.224,243.253,80,223.5,80
				c-22.902,0-44.174,15.091-60.346,42.639C158.951,116.238,151.713,112,143.5,112c-12.958,0-23.5,10.542-23.5,23.5
				s10.542,23.5,23.5,23.5c1.338,0,2.649-0.119,3.927-0.334c-2.189,6.904-4.069,14.097-5.644,21.515
				c-1.108-2.112-2.347-4.182-3.745-6.185c-10.155-14.547-26.038-23.091-42.386-22.832c-3.062,0.047-5.787,1.949-6.886,4.807
				c-5.151,13.397-3.833,28.726,3.395,42.099c-4.45-0.336-8.928-0.103-13.337,0.751c-3.006,0.582-5.356,2.933-5.938,5.938
				c-3.346,17.288,2.711,35.664,16.202,49.153c1.118,1.118,2.278,2.172,3.46,3.187c-4.305,1.012-8.457,2.591-12.33,4.778
				c-2.666,1.505-4.149,4.48-3.747,7.516c2.154,16.246,12.917,30.671,28.793,38.585c7.859,3.918,16.238,5.876,24.428,5.876
				c5.708,0,11.315-0.975,16.599-2.875c9.027,30.462,23.546,55.266,41.804,69.487c4.145,3.229,9.61,3.408,13.922,0.457
				c4.428-3.03,6.348-8.586,4.776-13.824c-4.453-14.846-6.905-33.771-6.905-53.288c0-47.595,14.211-79.172,23.611-79.172
				c9.4,0,23.611,31.577,23.611,79.172c0,19.518-2.452,38.442-6.905,53.288c-1.571,5.238,0.349,10.794,4.777,13.824
				c2.045,1.399,4.349,2.095,6.649,2.095c2.549,0,5.094-0.854,7.272-2.552c15.448-12.031,28.216-31.643,37.252-55.839
				C301.924,330.994,310.252,335,319.5,335c17.369,0,31.5-14.131,31.5-31.5c0-7.138-2.39-13.725-6.406-19.013
				C357.705,279.264,367,266.451,367,251.5c0-7.71-2.479-14.849-6.67-20.676C366.002,218.072,370.248,194.608,353.355,180.975z
				 M101.285,166.569c9.385,1.546,18.417,7.367,24.453,16.013c6.036,8.646,8.388,19.13,6.603,28.474
				c-9.385-1.546-18.418-7.367-24.453-16.013C101.852,186.397,99.5,175.913,101.285,166.569z M87.021,212.956
				c10.718-0.32,21.95,4.272,30.351,12.672c8.401,8.402,13.003,19.635,12.673,30.352c-10.715,0.331-21.95-4.272-30.351-12.674
				C91.292,234.905,86.69,223.672,87.021,212.956z M111.956,294.554c-9.437-4.704-16.518-12.786-19.421-21.845
				c8.983-3.133,19.699-2.341,29.134,2.361c9.437,4.704,16.518,12.786,19.422,21.845
				C132.109,300.05,121.393,299.258,111.956,294.554z M231,95.789c15.732,3.281,30.588,16.825,42.458,38.974
				c0.287,0.535,0.554,1.097,0.836,1.639c-12.602-9.016-27.528-14.685-43.294-16.062V95.789z M173.542,134.763
				c11.87-22.149,26.726-35.693,42.458-38.974v24.551c-15.766,1.376-30.692,7.046-43.294,16.062
				C172.988,135.86,173.255,135.298,173.542,134.763z M143.5,144c-4.687,0-8.5-3.813-8.5-8.5s3.813-8.5,8.5-8.5s8.5,3.813,8.5,8.5
				S148.187,144,143.5,144z M151.797,257.553c8.659,12.401,20.509,22.524,34.6,29.124c-0.664,5.829-1.118,11.853-1.342,18.009
				c-10.586-4.206-20.536-10.175-29.238-17.573C153.925,277.581,152.574,267.686,151.797,257.553z M164.314,317.931
				c-0.984-2.703-1.908-5.466-2.786-8.271c7.41,4.499,15.297,8.196,23.461,10.982c0.408,14.657,2.115,28.873,4.958,41.321
				C179.805,351.428,171.042,336.415,164.314,317.931z M188.779,271.07c-20.116-10.977-34-30.909-37.062-53.939
				c1.012-14.087,3.11-27.667,6.218-40.402c10.848-23.065,33.111-38.694,58.066-41.329v17.121c-27.067,3.675-48,26.922-48,54.979
				c0,18.833,9.518,36.23,25.112,46.44C191.418,259.236,189.967,264.979,188.779,271.07z M198.847,239.615
				C188.952,232.014,183,220.209,183,207.5c0-19.769,14.241-36.264,33-39.792v17.527c-9.29,3.138-16,11.93-16,22.266
				c0,7.396,3.438,14.001,8.795,18.312C205.434,228.862,202.044,233.285,198.847,239.615z M223.5,216c-4.687,0-8.5-3.813-8.5-8.5
				s3.813-8.5,8.5-8.5s8.5,3.813,8.5,8.5S228.187,216,223.5,216z M248.159,239.626c-3.199-6.336-6.591-10.762-9.954-13.814
				c5.358-4.311,8.795-10.916,8.795-18.312c0-10.335-6.71-19.127-16-22.266v-17.527c18.759,3.529,33,20.023,33,39.792
				C264,220.133,258.041,232.016,248.159,239.626z M282.686,317.931c-6.728,18.484-15.491,33.497-25.633,44.032
				c2.843-12.444,4.549-26.654,4.958-41.306c8.241-2.799,16.072-6.462,23.444-10.943C284.582,312.5,283.664,315.245,282.686,317.931
				z M291.183,287.113c-8.801,7.495-18.602,13.392-29.237,17.591c-0.224-6.163-0.678-12.193-1.343-18.027
				c14.091-6.6,25.94-16.723,34.6-29.124C294.426,267.685,293.074,277.58,291.183,287.113z M258.222,271.07
				c-1.188-6.092-2.639-11.834-4.333-17.131C269.451,243.731,279,226.22,279,207.5c0-28.058-20.933-51.305-48-54.979V135.4
				c24.955,2.635,47.217,18.264,58.066,41.329c3.108,12.734,5.206,26.315,6.218,40.402
				C292.222,240.161,278.338,260.094,258.222,271.07z M300.297,161.04c-3.666-12.045-8.213-23.278-13.618-33.363
				c-0.545-1.017-1.097-2.016-1.655-3.002c6.55-5.286,13.931-8.051,19.45-7.218c3.566,0.536,6.419,2.533,8.721,6.104
				c1.667,2.588,4.074,3.149,5.367,3.451C330.167,129.719,344,137.552,344,159.5c0,7.999-4.788,16.298-6.361,19.024
				c-0.958,1.66-2.269,3.933-1.34,7.085c0.58,1.971,1.95,3.626,3.777,4.563c7.554,3.876,10.873,10.438,10.146,20.058
				c-0.281,3.721-1.13,7.225-1.985,9.973c-4.778-2.565-10.208-4.061-15.972-4.184c-0.99-3.055-1.592-7.757,1.476-12.359
				c2.298-3.446,1.367-8.103-2.08-10.4c-3.446-2.298-8.103-1.368-10.4,2.08c-5.828,8.742-5.407,17.39-3.761,23.543
				c-2.436,1.049-4.729,2.367-6.849,3.91c-0.784-16.251-2.936-31.985-6.347-46.754c3.616-0.297,7.429-1.332,10.992-3.518
				c4.698-2.881,10.536-8.739,11.668-20.29c0.404-4.122-2.61-7.792-6.732-8.195c-4.131-0.402-7.792,2.61-8.196,6.732
				c-0.426,4.347-1.967,7.363-4.581,8.966C305.306,161.051,302.555,161.363,300.297,161.04z M319.5,320
				c-9.098,0-16.5-7.402-16.5-16.5c0-0.34,0.031-0.672,0.051-1.008c0.473-1.86,0.924-3.74,1.357-5.636
				C306.97,291.06,312.766,287,319.5,287c9.098,0,16.5,7.402,16.5,16.5C336,312.598,328.598,320,319.5,320z M331.5,272
				c-11.304,0-20.5-9.196-20.5-20.5c0-11.304,9.196-20.5,20.5-20.5c11.304,0,20.5,9.196,20.5,20.5S342.804,272,331.5,272z"/>
			<path d="M132.803,330.196c-2.929-2.928-7.678-2.928-10.606,0c-2.929,2.93-2.929,7.678,0,10.607l8,8
				c1.464,1.464,3.384,2.196,5.303,2.196s3.839-0.732,5.303-2.196c2.929-2.93,2.929-7.678,0-10.607L132.803,330.196z"/>
			<path d="M228.803,316.803c2.929-2.93,2.929-7.678,0-10.607c-2.928-2.927-7.678-2.927-10.606,0l-8,8
				c-2.929,2.93-2.929,7.678,0,10.607c1.464,1.464,3.384,2.196,5.303,2.196s3.839-0.732,5.303-2.196L228.803,316.803z"/>
			<path d="M228.803,266.196c-2.929-2.928-7.678-2.928-10.606,0c-2.929,2.93-2.929,7.678,0,10.607l8,8
				c1.464,1.464,3.384,2.196,5.303,2.196s3.839-0.732,5.303-2.196c2.929-2.93,2.929-7.678,0-10.607L228.803,266.196z"/>
			<path d="M308.803,354.196c-2.929-2.928-7.678-2.928-10.606,0c-2.929,2.93-2.929,7.678,0,10.607l8,8
				c1.464,1.464,3.384,2.196,5.303,2.196s3.839-0.732,5.303-2.196c2.929-2.93,2.929-7.678,0-10.607L308.803,354.196z"/>
			<path d="M223.5,336c-4.142,0-7.5,3.357-7.5,7.5v8c0,4.143,3.358,7.5,7.5,7.5c4.142,0,7.5-3.357,7.5-7.5v-8
				C231,339.357,227.642,336,223.5,336z"/>
			<path d="M279.5,95c1.919,0,3.839-0.732,5.303-2.196l8-8c2.929-2.93,2.929-7.678,0-10.607c-2.929-2.928-7.678-2.928-10.606,0l-8,8
				c-2.929,2.93-2.929,7.678,0,10.607C275.661,94.268,277.581,95,279.5,95z"/>
			<path d="M162.197,92.804C163.661,94.268,165.581,95,167.5,95s3.839-0.732,5.303-2.196c2.929-2.93,2.929-7.678,0-10.607l-8-8
				c-2.929-2.928-7.678-2.928-10.606,0c-2.929,2.93-2.929,7.678,0,10.607L162.197,92.804z"/>
			<path d="M191.5,79c1.919,0,3.839-0.732,5.303-2.196l8-8c2.929-2.93,2.929-7.678,0-10.607c-2.929-2.928-7.678-2.928-10.606,0l-8,8
				c-2.929,2.93-2.929,7.678,0,10.607C187.661,78.268,189.581,79,191.5,79z"/>
		</g>
	</g>
</g>
<g>
</g>
<g>
</g>
<g>
</g>
<g>
</g>
<g>
</g>
<g>
</g>
<g>
</g>
<g>
</g>
<g>
</g>
<g>
</g>
<g>
</g>
<g>
</g>
<g>
</g>
<g>
</g>
<g>
</g>
</svg>
