<?xml version="1.0" encoding="iso-8859-1"?>
<!-- Generator: Adobe Illustrator 19.0.0, SVG Export Plug-In . SVG Version: 6.00 Build 0)  -->
<svg version="1.1" id="Layer_1" xmlns="http://www.w3.org/2000/svg" xmlns:xlink="http://www.w3.org/1999/xlink" x="0px" y="0px"
	 viewBox="0 0 463 463" style="enable-background:new 0 0 463 463;" xml:space="preserve">
<g>
	<g>
		<g>
			<path d="M455.5,332h-0.638c-1.864-56.887-24.883-110.098-65.323-150.539c-37.11-37.109-84.972-59.555-136.561-64.442
				c1.296-2.912,2.022-6.132,2.022-9.52c0-12.958-10.542-23.5-23.5-23.5S208,94.542,208,107.501c0,3.388,0.726,6.607,2.022,9.52
				c-51.589,4.887-99.451,27.333-136.561,64.442C33.021,221.902,10.002,275.113,8.138,332H7.5c-4.142,0-7.5,3.358-7.5,7.5
				c0,4.142,3.358,7.5,7.5,7.5h12.25l14.55,19.4c5.917,7.89,15.338,12.6,25.2,12.6h344c9.862,0,19.283-4.71,25.2-12.6l14.55-19.4
				h12.25c4.142,0,7.5-3.358,7.5-7.5C463,335.358,459.642,332,455.5,332z M231.5,99.001c4.687,0,8.5,3.813,8.5,8.5
				s-3.813,8.5-8.5,8.5s-8.5-3.813-8.5-8.5S226.813,99.001,231.5,99.001z M416.7,357.4c-3.1,4.133-8.034,6.6-13.2,6.6h-344
				c-5.166,0-10.101-2.467-13.2-6.6L38.5,347h386L416.7,357.4z M23.149,332c3.964-111.506,95.896-201,208.351-201
				s204.387,89.494,208.351,201H23.149z"/>
			<path d="M348.038,187.53c-3.286-2.523-7.995-1.905-10.517,1.38c-2.523,3.286-1.905,7.994,1.38,10.517
				c30.666,23.551,53.057,56.961,63.047,94.076c0.901,3.347,3.929,5.553,7.238,5.553c0.645,0,1.301-0.084,1.954-0.26
				c4-1.078,6.369-5.193,5.293-9.192C405.592,249.326,381.302,213.076,348.038,187.53z"/>
			<path d="M314.747,166.995c-5.416-2.618-11.017-5.004-16.647-7.093c-3.884-1.44-8.2,0.54-9.64,4.423
				c-1.44,3.884,0.54,8.2,4.423,9.64c5.187,1.924,10.347,4.123,15.336,6.534c1.052,0.509,2.164,0.75,3.259,0.75
				c2.787,0,5.464-1.561,6.758-4.238C320.038,173.282,318.476,168.797,314.747,166.995z"/>
		</g>
	</g>
</g>
<g>
</g>
<g>
</g>
<g>
</g>
<g>
</g>
<g>
</g>
<g>
</g>
<g>
</g>
<g>
</g>
<g>
</g>
<g>
</g>
<g>
</g>
<g>
</g>
<g>
</g>
<g>
</g>
<g>
</g>
</svg>
