<?xml version="1.0" encoding="iso-8859-1"?>
<!-- Generator: Adobe Illustrator 19.0.0, SVG Export Plug-In . SVG Version: 6.00 Build 0)  -->
<svg version="1.1" id="Layer_1" xmlns="http://www.w3.org/2000/svg" xmlns:xlink="http://www.w3.org/1999/xlink" x="0px" y="0px"
	 viewBox="0 0 447 447" style="enable-background:new 0 0 447 447;" xml:space="preserve">
<g>
	<g>
		<g>
			<path d="M381.539,65.462C339.325,23.248,283.199,0,223.5,0C163.801,0,107.675,23.248,65.461,65.462
				C23.248,107.675,0,163.801,0,223.5c0,59.699,23.248,115.825,65.461,158.038C107.675,423.752,163.801,447,223.5,447
				c59.699,0,115.825-23.248,158.039-65.462C423.752,339.325,447,283.199,447,223.5C447,163.801,423.752,107.675,381.539,65.462z
				 M223.5,432C108.533,432,15,338.468,15,223.5S108.533,15,223.5,15S432,108.532,432,223.5S338.467,432,223.5,432z"/>
			<path d="M307.5,151c6.893,0,12.5,5.607,12.5,12.5c0,4.143,3.358,7.5,7.5,7.5c4.142,0,7.5-3.357,7.5-7.5
				c0-15.163-12.336-27.5-27.5-27.5c-4.142,0-7.5,3.357-7.5,7.5S303.358,151,307.5,151z"/>
			<path d="M307.5,191c4.142,0,7.5-3.357,7.5-7.5s-3.358-7.5-7.5-7.5c-3.965,0-7.609-1.82-9.998-4.995
				c-2.49-3.31-7.191-3.973-10.502-1.483c-3.31,2.491-3.974,7.193-1.483,10.503C290.766,186.999,298.778,191,307.5,191z"/>
			<path d="M299.5,248c-1.541,0-3.05,0.134-4.522,0.378c0.011-0.292,0.022-0.584,0.022-0.878c0-12.958-10.542-23.5-23.5-23.5
				c-7.03,0-13.344,3.107-17.654,8.015c-0.739-2.617-1.372-5.219-1.867-7.78c-2.77-14.328-2.154-27.759-0.023-39.438
				C260.542,207.114,282.194,223,307.5,223c32.809,0,59.5-26.691,59.5-59.5S340.309,104,307.5,104
				c-16.786,0-31.959,6.998-42.787,18.216c-2.09-5.501-5.433-10.319-9.751-14.147l7.683-1.707c4.043-0.898,6.593-4.904,5.695-8.948
				c-0.898-4.043-4.901-6.598-8.948-5.694l-9.339,2.074l-2.075-9.339c-0.898-4.044-4.9-6.598-8.948-5.695
				c-4.043,0.898-6.593,4.904-5.695,8.947l2.567,11.556c-5.402-0.757-10.946-0.281-16.28,1.473
				c-9.18,3.018-16.635,9.429-20.99,18.051c-1.871,3.703-3.586,7.566-5.154,11.552c-3.431-3.836-7.594-6.851-12.243-8.904
				l6.797-3.965c3.578-2.087,4.786-6.68,2.699-10.258s-6.681-4.787-10.258-2.699l-8.263,4.82l-4.821-8.263
				c-2.087-3.578-6.68-4.785-10.257-2.699c-3.578,2.088-4.786,6.68-2.699,10.258l5.965,10.225
				c-5.375,0.924-10.511,3.065-15.058,6.36c-7.825,5.67-12.973,14.047-14.494,23.586c-1.105,6.916-1.652,14.075-1.677,21.391
				c-0.014,0.177-0.029,0.354-0.031,0.534c-0.001,0.227,0.011,0.45,0.029,0.672c0.01,2.278,0.072,4.57,0.184,6.875
				c-4.331-2.889-9.175-4.773-14.249-5.584l5.566-5.566c2.929-2.929,2.929-7.678,0-10.606c-2.929-2.928-7.678-2.929-10.606,0.001
				l-6.765,6.765l-6.765-6.766c-2.929-2.928-7.678-2.928-10.606,0c-2.929,2.93-2.929,7.678,0,10.607l8.37,8.37
				c-4.963,2.262-9.384,5.641-12.942,9.984c-6.125,7.475-8.971,16.886-8.015,26.498c0.705,7.109,2.02,14.293,3.896,21.482
				c0.012,0.052,0.018,0.103,0.031,0.155c0.011,0.045,0.032,0.084,0.045,0.128c4.008,15.24,10.562,30.491,19.313,45.074
				c0.035,0.066,0.064,0.134,0.102,0.2c0.061,0.106,0.136,0.2,0.202,0.302c8.371,13.856,18.717,27.101,30.755,39.14
				c11.983,11.982,25.16,22.288,38.947,30.639c0.161,0.11,0.322,0.219,0.494,0.317c0.054,0.031,0.112,0.052,0.166,0.081
				c14.559,8.74,29.784,15.291,45,19.304c0.08,0.023,0.156,0.053,0.238,0.074c0.042,0.011,0.084,0.014,0.125,0.024
				c7.198,1.879,14.392,3.197,21.509,3.903c1.22,0.122,2.436,0.182,3.646,0.182c8.325,0,16.328-2.849,22.854-8.196
				c4.343-3.559,7.721-7.98,9.984-12.943l8.37,8.37c1.464,1.465,3.384,2.197,5.303,2.197s3.839-0.732,5.303-2.196
				c2.929-2.929,2.929-7.678,0-10.606l-6.765-6.766l5.184-5.183l3.99,6.84c1.394,2.39,3.905,3.722,6.485,3.722
				c1.284,0,2.584-0.329,3.772-1.022c3.578-2.088,4.786-6.68,2.699-10.258l-4.82-8.263l8.263-4.82
				c3.578-2.088,4.786-6.68,2.699-10.258c-2.086-3.579-6.68-4.787-10.257-2.699l-6.81,3.973c0.418-4.241,0.089-8.514-0.989-12.634
				c2.064,0.496,4.214,0.766,6.428,0.766c15.164,0,27.5-12.337,27.5-27.5C327.001,260.341,314.664,248,299.5,248z M307.5,119
				c24.538,0,44.5,19.963,44.5,44.5S332.038,208,307.5,208c-24.538,0-44.5-19.963-44.5-44.5S282.962,119,307.5,119z
				 M202.282,160.211c0.491-3.072,0.582-6.145,0.297-9.162l8.38,2.742c0.775,0.254,1.561,0.374,2.334,0.374
				c3.155,0,6.092-2.008,7.126-5.169c1.289-3.937-0.858-8.173-4.795-9.461l-8.548-2.797c1.491-3.878,3.14-7.618,4.944-11.188
				c2.55-5.047,6.912-8.799,12.285-10.565c5.374-1.764,11.11-1.333,16.158,1.218c5.048,2.551,8.8,6.914,10.565,12.286
				c1.766,5.372,1.333,11.11-1.219,16.159c-7.696,15.235-19.561,46.202-12.558,82.432c2.643,13.674,8.367,27.854,15.134,40.286
				c-12.583-9.175-24.433-22.517-33.592-38.216c-6.198-10.624-10.83-21.787-13.747-32.69l2.147,0.1
				c0.119,0.005,0.238,0.008,0.356,0.008c3.981,0,7.298-3.132,7.486-7.15c0.193-4.138-3.004-7.648-7.142-7.842l-5.799-0.271
				C201.214,173.854,201.242,166.722,202.282,160.211z M258.803,338.896c-0.558,5.626-3.274,10.699-7.649,14.283
				c-4.375,3.584-9.884,5.254-15.51,4.69c-4.005-0.397-8.042-1.015-12.091-1.833l2.23-8.716c1.027-4.013-1.393-8.099-5.406-9.125
				c-4.01-1.026-8.098,1.395-9.125,5.406l-2.211,8.638c-9.409-3.01-18.793-7.075-27.961-12.099l5.084-8.871
				c2.06-3.594,0.816-8.177-2.778-10.236c-3.592-2.057-8.176-0.816-10.236,2.777l-4.91,8.568
				c-8.521-5.645-16.762-12.111-24.546-19.329l8.113-8.113c2.929-2.929,2.929-7.678,0-10.606c-2.928-2.929-7.677-2.93-10.606-0.001
				l-8.113,8.113c-7.218-7.784-13.685-16.025-19.329-24.547l8.568-4.91c3.594-2.059,4.838-6.642,2.778-10.235
				c-2.06-3.596-6.643-4.838-10.236-2.778l-8.871,5.083c-5.024-9.167-9.089-18.552-12.1-27.961l8.638-2.211
				c4.013-1.027,6.433-5.112,5.406-9.125c-1.027-4.013-5.112-6.434-9.125-5.406l-8.715,2.231c-0.819-4.051-1.436-8.087-1.833-12.093
				c-0.56-5.627,1.106-11.134,4.69-15.509c3.584-4.374,8.657-7.091,14.284-7.649c0.713-0.07,1.424-0.105,2.131-0.105
				c4.875,0,9.561,1.668,13.38,4.798c4.374,3.584,7.089,8.657,7.647,14.286c2.333,23.476,16.476,50.239,37.831,71.595
				c21.356,21.355,48.12,35.498,71.595,37.83c4.927,0.489,9.377,2.594,12.869,6.086
				C257.204,326.331,259.431,332.555,258.803,338.896z M277.909,318.74c-1.167,3.137-3.026,5.888-5.397,8.098
				c-1.668-5.828-4.794-11.209-9.21-15.625c-5.886-5.886-13.697-9.581-21.993-10.404c-9.672-0.961-20.087-4.357-30.404-9.726
				c1.502-2.878,1.008-6.512-1.451-8.875c-2.986-2.87-7.734-2.773-10.604,0.212l-0.843,0.877c-6.667-4.596-13.138-9.971-19.167-16
				c-1.295-1.295-2.557-2.612-3.791-3.945l8.027-4.682c3.578-2.087,4.787-6.679,2.7-10.257c-2.087-3.578-6.679-4.787-10.257-2.7
				l-9.905,5.777c-4.986-9.346-9.142-18.965-12.427-28.659l9.51-2.562c4-1.077,6.369-5.193,5.291-9.192
				c-1.077-3.999-5.192-6.367-9.192-5.292l-9.841,2.65c-2.522-10.147-4.07-20.262-4.596-30.11l8.895,0.06c0.018,0,0.035,0,0.052,0
				c4.118,0,7.471-3.325,7.499-7.449c0.028-4.143-3.308-7.522-7.449-7.551l-8.992-0.061c0.23-4.132,0.661-8.193,1.296-12.161
				c0.891-5.583,3.903-10.485,8.483-13.804c4.58-3.319,10.178-4.654,15.76-3.762c5.585,0.892,10.489,3.905,13.807,8.484
				s4.653,10.177,3.761,15.764c-3.718,23.294,3.148,52.775,18.367,78.863c15.218,26.087,37.502,46.575,59.612,54.805
				c2.715,1.01,5.12,2.526,7.157,4.455c0.225,0.231,0.451,0.469,0.674,0.692c0.051,0.051,0.106,0.094,0.158,0.143
				c1.097,1.164,2.079,2.449,2.907,3.869C279.56,306.182,280.13,312.768,277.909,318.74z M271.991,270.988
				c0.13-0.003,0.259-0.006,0.387-0.01c-0.026,0.158-0.054,0.314-0.078,0.473C272.197,271.296,272.094,271.145,271.991,270.988z
				 M271.5,256c-4.687,0-8.5-3.813-8.5-8.5s3.813-8.5,8.5-8.5s8.5,3.813,8.5,8.5S276.187,256,271.5,256z M299.5,288
				c-6.893,0-12.5-5.607-12.5-12.5s5.607-12.5,12.5-12.5s12.5,5.607,12.5,12.5S306.393,288,299.5,288z"/>
			<path d="M350.208,228.146c-1.853-3.704-6.356-5.207-10.062-3.354l-16,8c-3.705,1.853-5.207,6.357-3.354,10.063
				c1.314,2.628,3.962,4.147,6.714,4.147c1.127,0,2.271-0.256,3.348-0.794l16-8C350.559,236.355,352.061,231.851,350.208,228.146z"
				/>
			<path d="M356.803,266.196c-2.929-2.928-7.678-2.928-10.606,0c-2.929,2.93-2.929,7.678,0,10.607l8,8
				c1.464,1.464,3.384,2.196,5.303,2.196s3.839-0.732,5.303-2.196c2.929-2.93,2.929-7.678,0-10.607L356.803,266.196z"/>
			<path d="M199.5,95c1.919,0,3.839-0.732,5.303-2.196l8-8c2.929-2.93,2.929-7.678,0-10.607c-2.929-2.928-7.678-2.928-10.606,0l-8,8
				c-2.929,2.93-2.929,7.678,0,10.607C195.661,94.268,197.581,95,199.5,95z"/>
			<circle cx="127.5" cy="111.5" r="8"/>
			<circle cx="167.5" cy="71.5" r="8"/>
			<circle cx="367.5" cy="247.5" r="8"/>
			<circle cx="343.5" cy="311.5" r="8"/>
		</g>
	</g>
</g>
<g>
</g>
<g>
</g>
<g>
</g>
<g>
</g>
<g>
</g>
<g>
</g>
<g>
</g>
<g>
</g>
<g>
</g>
<g>
</g>
<g>
</g>
<g>
</g>
<g>
</g>
<g>
</g>
<g>
</g>
</svg>
