<?xml version="1.0" encoding="utf-8"?>
<!-- Generator: Adobe Illustrator 21.1.0, SVG Export Plug-In . SVG Version: 6.00 Build 0)  -->
<svg version="1.1" id="Layer_1" xmlns="http://www.w3.org/2000/svg" xmlns:xlink="http://www.w3.org/1999/xlink" x="0px" y="0px"
	 viewBox="0 0 447 447" style="enable-background:new 0 0 447 447;" xml:space="preserve">
<style type="text/css">
	.st0{fill:#F0F0F0;}
</style>
<g>
	<g>
		<g>
			<path class="st0" d="M381.5,65.5C339.3,23.2,283.2,0,223.5,0s-115.8,23.2-158,65.5C23.2,107.7,0,163.8,0,223.5
				s23.2,115.8,65.5,158c42.2,42.2,98.3,65.5,158,65.5s115.8-23.2,158-65.5c42.2-42.2,65.5-98.3,65.5-158S423.8,107.7,381.5,65.5z
				 M223.5,432C108.5,432,15,338.5,15,223.5S108.5,15,223.5,15S432,108.5,432,223.5S338.5,432,223.5,432z"/>
			<path class="st0" d="M194.3,207.9h25.4c4.1,0,7.5-3.4,7.5-7.5s-3.4-7.5-7.5-7.5h-25.4c-11.6,0-20-12-20-28.5c0-11,9-20,20-20
				h25.4c20.5,0,37.1-16.7,37.1-37.1v-4.2c0-6.5-5.3-11.7-11.7-11.7H188c-30.6,0-52,24-52,58.3C136,181.8,162.2,207.9,194.3,207.9z
				 M195.5,106.3h46.4v1c0,12.2-9.9,22.1-22.1,22.1h-24.3V106.3z M180.5,107v25.3c-4,1.7-7.6,4.2-10.7,7.2l-12.6-15.3
				C161.9,115.6,169.6,109.1,180.5,107z M161.3,152.8c-1.3,3.7-2,7.6-2,11.7c0,4.3,0.4,8.4,1.2,12.3c-6-7.4-9.5-16.8-9.5-27.1
				c0-2.9,0.2-5.8,0.6-8.6L161.3,152.8z"/>
			<path class="st0" d="M255.1,276.6h57.2c30.6,0,52-24,52-58.3c0-32.2-26.2-58.3-58.3-58.3h-25.4c-4.1,0-7.5,3.4-7.5,7.5
				s3.4,7.5,7.5,7.5h25.4c11.6,0,20,12,20,28.5c0,11-9,20-20,20h-25.4c-20.5,0-37.1,16.7-37.1,37.1v4.2
				C243.4,271.3,248.7,276.6,255.1,276.6z M339.7,191.2c6,7.4,9.5,16.8,9.5,27.1c0,2.9-0.2,5.8-0.6,8.6l-9.7-11.7
				c1.3-3.7,2-7.6,2-11.7C341,199.1,340.5,195,339.7,191.2z M319.8,235.6c4-1.7,7.6-4.2,10.7-7.2l12.6,15.3
				c-4.8,8.6-12.5,15.1-23.3,17.2V235.6z M258.4,260.6c0-12.2,9.9-22.1,22.1-22.1h24.3v23.1h-46.4V260.6z"/>
			<path class="st0" d="M227.7,320.4l-18,18c0,0,0,0,0,0c-3.7,3.7-8.7,5.3-14.5,4.7c-6.6-0.8-13.6-4.5-19.8-10.7
				c-7.8-7.8-7.8-20.5,0-28.3l18-18c7-7,10.9-16.3,10.9-26.3c0-9.9-3.9-19.2-10.9-26.3l-3-3c-4.6-4.6-12-4.6-16.6,0L133.4,271
				c-11.1,11.1-16.2,24.8-14.8,39.7c1.3,13.5,8.1,27.1,19.3,38.3c11.4,11.4,26.3,17.1,41.2,17.1c14.9,0,29.8-5.7,41.2-17
				c0,0,0,0,0,0l18-18c2.9-2.9,2.9-7.7,0-10.6C235.4,317.5,230.6,317.5,227.7,320.4z M182.1,243.5l0.7,0.7c4.2,4.2,6.5,9.7,6.5,15.7
				c0,5.9-2.3,11.5-6.5,15.7l-17.2,17.2l-16.3-16.3L182.1,243.5z M134.8,316c-2.7-9.5-1.9-19.5,4.3-28.6l17.9,17.9
				c-1.6,4-2.4,8.3-2.5,12.6L134.8,316z M148.5,338.4c-2-2-3.9-4.2-5.6-6.5l15.1,1.4c1.7,3.5,3.9,6.8,6.8,9.7c3,3,6.2,5.6,9.5,7.8
				C164.9,349.7,155.7,345.6,148.5,338.4z"/>
			<path class="st0" d="M304.6,298.9c-11.6,0-22.4,4.5-30.6,12.7c-8.2,8.2-12.7,19-12.7,30.6s4.5,22.4,12.7,30.6
				c1.5,1.5,3.4,2.2,5.3,2.2s3.8-0.7,5.3-2.2l50.6-50.6c1.4-1.4,2.2-3.3,2.2-5.3s-0.8-3.9-2.2-5.3
				C327,303.4,316.1,298.9,304.6,298.9z M280,356.2c-2.4-4.2-3.7-9-3.7-14c0-7.6,2.9-14.7,8.3-20c5.3-5.3,12.4-8.3,20-8.3
				c5,0,9.8,1.3,14,3.7L280,356.2z"/>
			<path class="st0" d="M120.9,238.7c11-4.4,18.8-15.2,18.8-27.7c0-16.5-13.4-29.9-29.9-29.9S80,194.5,80,210.9
				c0,6.9,2.3,13.2,6.2,18.2c-7.6,4.4-12.8,12.6-12.8,22c0,14,11.4,25.4,25.4,25.4s25.4-11.4,25.4-25.4
				C124.2,246.7,123,242.4,120.9,238.7z M98.8,261.6c-5.7,0-10.4-4.7-10.4-10.4s4.7-10.4,10.4-10.4c5.7,0,10.4,4.7,10.4,10.4
				C109.2,256.9,104.5,261.6,98.8,261.6z M109.9,225.8c-8.2,0-14.9-6.7-14.9-14.9s6.7-14.9,14.9-14.9c8.2,0,14.9,6.7,14.9,14.9
				S118.1,225.8,109.9,225.8z"/>
			<path class="st0" d="M315.3,143.9c11.1,0,22.2-4.2,30.6-12.7c1.4-1.4,2.2-3.3,2.2-5.3s-0.8-3.9-2.2-5.3l-50.6-50.6
				c-2.9-2.9-7.7-2.9-10.6,0c-16.9,16.9-16.9,44.3,0,61.2C293.1,139.7,304.2,143.9,315.3,143.9z M290.7,86.7l38.6,38.6
				c-10.8,6.1-24.8,4.6-34-4.6C286.1,111.5,284.6,97.5,290.7,86.7z"/>
			<path class="st0" d="M228.8,170.2l-16-16c-2.9-2.9-7.7-2.9-10.6,0c-2.9,2.9-2.9,7.7,0,10.6l16,16c1.5,1.5,3.4,2.2,5.3,2.2
				s3.8-0.7,5.3-2.2C231.7,177.9,231.7,173.1,228.8,170.2z"/>
			<path class="st0" d="M271.5,215c1.1,0,2.3-0.3,3.3-0.8l16-8c3.7-1.9,5.2-6.4,3.4-10.1c-1.9-3.7-6.4-5.2-10.1-3.4l-16,8
				c-3.7,1.9-5.2,6.4-3.4,10.1C266.1,213.5,268.8,215,271.5,215z"/>
			<path class="st0" d="M223.5,255c1.1,0,2.3-0.3,3.3-0.8c3.7-1.9,5.2-6.4,3.4-10.1l-8-16c-1.9-3.7-6.4-5.2-10.1-3.4
				c-3.7,1.9-5.2,6.4-3.4,10.1l8,16C218.1,253.5,220.8,255,223.5,255z"/>
			<path class="st0" d="M200.8,300.1l-8,16c-1.9,3.7-0.4,8.2,3.4,10.1c1.1,0.5,2.2,0.8,3.3,0.8c2.8,0,5.4-1.5,6.7-4.1l8-16
				c1.9-3.7,0.4-8.2-3.4-10.1C207.2,294.9,202.6,296.4,200.8,300.1z"/>
			<path class="st0" d="M250.2,164.8c1.5,1.5,3.4,2.2,5.3,2.2c1.9,0,3.8-0.7,5.3-2.2l8-8c2.9-2.9,2.9-7.7,0-10.6
				c-2.9-2.9-7.7-2.9-10.6,0l-8,8C247.3,157.1,247.3,161.9,250.2,164.8z"/>
			<path class="st0" d="M114.2,172.8c1.5,1.5,3.4,2.2,5.3,2.2s3.8-0.7,5.3-2.2c2.9-2.9,2.9-7.7,0-10.6l-16-16
				c-2.9-2.9-7.7-2.9-10.6,0c-2.9,2.9-2.9,7.7,0,10.6L114.2,172.8z"/>
			<path class="st0" d="M215.5,79c1.9,0,3.8-0.7,5.3-2.2l8-8c2.9-2.9,2.9-7.7,0-10.6c-2.9-2.9-7.7-2.9-10.6,0l-8,8
				c-2.9,2.9-2.9,7.7,0,10.6C211.7,78.3,213.6,79,215.5,79z"/>
			<path class="st0" d="M359.5,167c1.9,0,3.8-0.7,5.3-2.2l8-8c2.9-2.9,2.9-7.7,0-10.6c-2.9-2.9-7.7-2.9-10.6,0l-8,8
				c-2.9,2.9-2.9,7.7,0,10.6C355.7,166.3,357.6,167,359.5,167z"/>
			<path class="st0" d="M231.6,360L231.6,360c-4.2,0-7.5,3.4-7.5,7.5s3.4,7.5,7.5,7.5s7.5-3.4,7.5-7.5S235.7,360,231.6,360z"/>
			<path class="st0" d="M354.2,282.2l-8,8c-2.9,2.9-2.9,7.7,0,10.6c1.5,1.5,3.4,2.2,5.3,2.2s3.8-0.7,5.3-2.2l8-8
				c2.9-2.9,2.9-7.7,0-10.6C361.9,279.3,357.1,279.3,354.2,282.2z"/>
			<path class="st0" d="M260.8,290.2c-2.9-2.9-7.7-2.9-10.6,0l-8,8c-2.9,2.9-2.9,7.7,0,10.6c1.5,1.5,3.4,2.2,5.3,2.2
				s3.8-0.7,5.3-2.2l8-8C263.7,297.9,263.7,293.1,260.8,290.2z"/>
			<path class="st0" d="M98.9,288.8c-3.7-1.9-8.2-0.4-10.1,3.4l-8,16c-1.9,3.7-0.4,8.2,3.4,10.1c1.1,0.5,2.2,0.8,3.3,0.8
				c2.8,0,5.4-1.5,6.7-4.1l8-16C104.1,295.1,102.6,290.6,98.9,288.8z"/>
			<path class="st0" d="M154.2,218.2l-8,8c-2.9,2.9-2.9,7.7,0,10.6c1.5,1.5,3.4,2.2,5.3,2.2s3.8-0.7,5.3-2.2l8-8
				c2.9-2.9,2.9-7.7,0-10.6C161.9,215.3,157.1,215.3,154.2,218.2z"/>
			<path class="st0" d="M247.6,215c4.1,0,7.5-3.4,7.5-7.5s-3.4-7.5-7.5-7.5s-7.5,3.4-7.5,7.5S243.4,215,247.6,215L247.6,215z"/>
			<path class="st0" d="M194.2,378.2l-8,8c-2.9,2.9-2.9,7.7,0,10.6c1.5,1.5,3.4,2.2,5.3,2.2s3.8-0.7,5.3-2.2l8-8
				c2.9-2.9,2.9-7.7,0-10.6C201.9,375.3,197.1,375.3,194.2,378.2z"/>
			<path class="st0" d="M135.5,111L135.5,111c4.2,0,7.5-3.4,7.5-7.5s-3.4-7.5-7.5-7.5s-7.5,3.4-7.5,7.5S131.4,111,135.5,111z"/>
			<path class="st0" d="M383.5,215L383.5,215c4.2,0,7.5-3.4,7.5-7.5s-3.4-7.5-7.5-7.5s-7.5,3.4-7.5,7.5S379.4,215,383.5,215z"/>
			<path class="st0" d="M63.6,216L63.6,216c-4.2,0-7.5,3.4-7.5,7.5s3.4,7.5,7.5,7.5s7.5-3.4,7.5-7.5S67.7,216,63.6,216z"/>
			<path class="st0" d="M380.8,250.2c-2.9-2.9-7.7-2.9-10.6,0c-2.9,2.9-2.9,7.7,0,10.6l8,8c1.5,1.5,3.4,2.2,5.3,2.2s3.8-0.7,5.3-2.2
				c2.9-2.9,2.9-7.7,0-10.6L380.8,250.2z"/>
		</g>
	</g>
</g>
</svg>
