<?xml version="1.0" encoding="iso-8859-1"?>
<!-- Generator: Adobe Illustrator 19.0.0, SVG Export Plug-In . SVG Version: 6.00 Build 0)  -->
<svg version="1.1" id="Layer_1" xmlns="http://www.w3.org/2000/svg" xmlns:xlink="http://www.w3.org/1999/xlink" x="0px" y="0px"
	 viewBox="0 0 447 447" style="enable-background:new 0 0 447 447;" xml:space="preserve">
<g>
	<g>
		<g>
			<path d="M381.539,65.462C339.325,23.248,283.199,0,223.5,0C163.801,0,107.675,23.248,65.461,65.462
				C23.248,107.675,0,163.801,0,223.5c0,59.699,23.248,115.825,65.461,158.038C107.675,423.752,163.801,447,223.5,447
				c59.699,0,115.825-23.248,158.039-65.462C423.752,339.325,447,283.199,447,223.5C447,163.801,423.752,107.675,381.539,65.462z
				 M223.5,432C108.533,432,15,338.468,15,223.5S108.533,15,223.5,15S432,108.532,432,223.5S338.467,432,223.5,432z"/>
			<path d="M194.313,207.946h25.407c4.142,0,7.5-3.357,7.5-7.5s-3.358-7.5-7.5-7.5h-25.407c-11.603,0-20.023-11.983-20.023-28.493
				c0-11.041,8.982-20.023,20.023-20.023h25.407c20.479,0,37.141-16.661,37.141-37.141v-4.234c0-6.471-5.264-11.734-11.734-11.734
				h-57.165c-30.594,0-51.961,23.979-51.961,58.313C136,181.787,162.159,207.946,194.313,207.946z M195.461,106.32h46.399v0.969
				c0,12.208-9.932,22.141-22.141,22.141h-24.258V106.32z M180.461,107.014v25.278c-3.997,1.728-7.608,4.18-10.672,7.189
				l-12.638-15.299C161.939,115.593,169.611,109.068,180.461,107.014z M161.304,152.761c-1.3,3.659-2.014,7.593-2.014,11.692
				c0,4.309,0.431,8.417,1.246,12.265c-5.964-7.423-9.536-16.845-9.536-27.085c0-2.878,0.211-5.757,0.624-8.59L161.304,152.761z"/>
			<path d="M255.124,276.59h57.165c30.594,0,51.961-23.979,51.961-58.313c0-32.154-26.159-58.313-58.313-58.313h-25.406
				c-4.142,0-7.5,3.357-7.5,7.5s3.358,7.5,7.5,7.5h25.406c11.603,0,20.024,11.983,20.024,28.493
				c0,11.041-8.983,20.023-20.024,20.023h-25.406c-20.479,0-37.141,16.661-37.141,37.141v4.234
				C243.39,271.326,248.654,276.59,255.124,276.59z M339.715,191.193c5.964,7.423,9.535,16.844,9.535,27.084
				c0,2.877-0.21,5.757-0.624,8.589l-9.679-11.717c1.3-3.659,2.014-7.593,2.014-11.692
				C340.961,199.148,340.53,195.041,339.715,191.193z M319.789,235.618c3.996-1.727,7.608-4.179,10.672-7.188l12.638,15.298
				c-4.788,8.589-12.46,15.114-23.31,17.168V235.618z M258.39,260.621c0-12.208,9.933-22.141,22.141-22.141h24.258v23.109H258.39
				V260.621z"/>
			<path d="M227.695,320.398l-17.965,17.965c-0.003,0.004-0.007,0.007-0.01,0.01c-3.722,3.717-8.747,5.334-14.532,4.667
				c-6.627-0.759-13.646-4.546-19.764-10.664c-7.807-7.808-7.807-20.512,0-28.318l17.965-17.965
				c7.015-7.016,10.878-16.342,10.878-26.263c0-9.921-3.863-19.248-10.878-26.264l-2.994-2.994c-4.575-4.573-12.019-4.575-16.595,0
				l-40.421,40.422c-11.089,11.089-16.207,24.814-14.801,39.694c1.278,13.523,8.129,27.119,19.292,38.282
				c11.368,11.368,26.301,17.052,41.233,17.052c14.925,0,29.849-5.677,41.215-17.034c0.005-0.006,0.011-0.011,0.018-0.018
				l17.965-17.965c2.929-2.93,2.929-7.678,0-10.607C235.373,317.471,230.624,317.471,227.695,320.398z M182.097,243.488l0.685,0.685
				c4.182,4.183,6.485,9.743,6.485,15.657s-2.303,11.474-6.485,15.655l-17.152,17.153l-16.341-16.341L182.097,243.488z
				 M134.828,316.018c-2.688-9.458-1.876-19.498,4.343-28.623l17.875,17.874c-1.604,4.048-2.424,8.335-2.463,12.63L134.828,316.018z
				 M148.476,338.363c-2.035-2.035-3.922-4.22-5.633-6.516l15.13,1.441c1.668,3.507,3.945,6.795,6.844,9.694
				c3.029,3.029,6.217,5.633,9.517,7.786C164.881,349.73,155.708,345.596,148.476,338.363z"/>
			<path d="M304.565,298.913c-11.562,0-22.431,4.503-30.606,12.678c-8.175,8.175-12.678,19.045-12.678,30.606
				s4.502,22.431,12.678,30.606c1.464,1.464,3.384,2.196,5.303,2.196s3.839-0.732,5.303-2.196l50.606-50.605
				c1.407-1.407,2.197-3.314,2.197-5.304s-0.79-3.896-2.197-5.304C326.997,303.416,316.127,298.913,304.565,298.913z
				 M279.97,356.187c-2.407-4.216-3.688-9.004-3.688-13.989c0-7.555,2.942-14.657,8.284-20c5.342-5.342,12.445-8.284,20-8.284
				c4.986,0,9.774,1.281,13.99,3.688L279.97,356.187z"/>
			<path d="M120.891,238.692c11.024-4.397,18.839-15.172,18.839-27.746c0-16.468-13.397-29.865-29.865-29.865
				C93.397,181.081,80,194.479,80,210.946c0,6.854,2.327,13.171,6.224,18.216c-7.643,4.381-12.807,12.616-12.807,22.041
				c0,14.001,11.391,25.392,25.392,25.392c14.001,0,25.392-11.391,25.392-25.392C124.201,246.656,122.993,242.388,120.891,238.692z
				 M98.809,261.595c-5.73,0-10.392-4.662-10.392-10.392s4.662-10.393,10.392-10.393c5.73,0,10.392,4.662,10.392,10.393
				C109.201,256.933,104.539,261.595,98.809,261.595z M109.865,225.81c-8.197,0-14.865-6.668-14.865-14.864
				s6.668-14.865,14.865-14.865c8.196,0,14.865,6.669,14.865,14.865S118.062,225.81,109.865,225.81z"/>
			<path d="M315.284,143.926c11.084,0,22.168-4.22,30.606-12.657c1.407-1.407,2.197-3.314,2.197-5.304
				c0-1.99-0.79-3.896-2.197-5.304l-50.606-50.605c-2.929-2.928-7.678-2.928-10.606,0c-16.876,16.877-16.876,44.336,0,61.213
				C293.116,139.706,304.2,143.926,315.284,143.926z M290.695,86.68l38.572,38.571c-10.792,6.133-24.79,4.603-33.982-4.59
				C286.092,111.47,284.563,97.472,290.695,86.68z"/>
			<path d="M228.803,170.196l-16-16c-2.929-2.928-7.678-2.928-10.606,0c-2.929,2.93-2.929,7.678,0,10.607l16,16
				c1.464,1.464,3.384,2.196,5.303,2.196s3.839-0.732,5.303-2.196C231.732,177.874,231.732,173.126,228.803,170.196z"/>
			<path d="M271.506,215.002c1.127,0,2.271-0.256,3.348-0.794l16-8c3.705-1.853,5.207-6.357,3.354-10.063
				c-1.852-3.704-6.357-5.206-10.062-3.354l-16,8c-3.705,1.853-5.207,6.357-3.354,10.063
				C266.106,213.482,268.754,215.002,271.506,215.002z"/>
			<path d="M223.506,255.002c1.127,0,2.271-0.256,3.348-0.794c3.705-1.853,5.207-6.357,3.354-10.063l-8-16
				c-1.853-3.704-6.356-5.207-10.062-3.354c-3.705,1.853-5.207,6.357-3.354,10.063l8,16
				C218.106,253.482,220.754,255.002,223.506,255.002z"/>
			<path d="M200.792,300.146l-8,16c-1.853,3.705-0.351,8.21,3.354,10.063c1.077,0.539,2.221,0.794,3.348,0.794
				c2.751,0,5.4-1.52,6.714-4.147l8-16c1.853-3.705,0.351-8.21-3.354-10.063C207.151,294.939,202.645,296.44,200.792,300.146z"/>
			<path d="M250.197,164.804c1.464,1.464,3.384,2.196,5.303,2.196s3.839-0.732,5.303-2.196l8-8c2.929-2.93,2.929-7.678,0-10.607
				c-2.929-2.928-7.678-2.928-10.606,0l-8,8C247.268,157.126,247.268,161.874,250.197,164.804z"/>
			<path d="M114.197,172.804c1.464,1.464,3.384,2.196,5.303,2.196s3.839-0.732,5.303-2.196c2.929-2.93,2.929-7.678,0-10.607l-16-16
				c-2.929-2.928-7.678-2.928-10.606,0c-2.929,2.93-2.929,7.678,0,10.607L114.197,172.804z"/>
			<path d="M215.5,79c1.919,0,3.839-0.732,5.303-2.196l8-8c2.929-2.93,2.929-7.678,0-10.607c-2.929-2.928-7.678-2.928-10.606,0l-8,8
				c-2.929,2.93-2.929,7.678,0,10.607C211.661,78.268,213.581,79,215.5,79z"/>
			<path d="M359.5,167c1.919,0,3.839-0.732,5.303-2.196l8-8c2.929-2.93,2.929-7.678,0-10.607c-2.929-2.928-7.678-2.928-10.606,0
				l-8,8c-2.929,2.93-2.929,7.678,0,10.607C355.661,166.268,357.581,167,359.5,167z"/>
			<path d="M231.58,360h-0.08c-4.142,0-7.46,3.357-7.46,7.5s3.398,7.5,7.54,7.5c4.142,0,7.5-3.357,7.5-7.5S235.722,360,231.58,360z"
				/>
			<path d="M354.197,282.196l-8,8c-2.929,2.93-2.929,7.678,0,10.607c1.464,1.464,3.384,2.196,5.303,2.196s3.839-0.732,5.303-2.196
				l8-8c2.929-2.93,2.929-7.678,0-10.607C361.875,279.269,357.125,279.269,354.197,282.196z"/>
			<path d="M260.803,290.196c-2.929-2.928-7.678-2.928-10.606,0l-8,8c-2.929,2.93-2.929,7.678,0,10.607
				c1.464,1.464,3.384,2.196,5.303,2.196s3.839-0.732,5.303-2.196l8-8C263.732,297.874,263.732,293.126,260.803,290.196z"/>
			<path d="M98.854,288.792c-3.703-1.854-8.209-0.351-10.062,3.354l-8,16c-1.853,3.705-0.351,8.21,3.354,10.063
				c1.077,0.539,2.221,0.794,3.348,0.794c2.751,0,5.4-1.52,6.714-4.147l8-16C104.061,295.149,102.559,290.645,98.854,288.792z"/>
			<path d="M154.197,218.196l-8,8c-2.929,2.93-2.929,7.678,0,10.607c1.464,1.464,3.384,2.196,5.303,2.196s3.839-0.732,5.303-2.196
				l8-8c2.929-2.93,2.929-7.678,0-10.607C161.875,215.269,157.125,215.269,154.197,218.196z"/>
			<path d="M247.58,215c4.142,0,7.46-3.357,7.46-7.5s-3.398-7.5-7.54-7.5c-4.142,0-7.5,3.357-7.5,7.5s3.358,7.5,7.5,7.5H247.58z"/>
			<path d="M194.197,378.196l-8,8c-2.929,2.93-2.929,7.678,0,10.607c1.464,1.464,3.384,2.196,5.303,2.196s3.839-0.732,5.303-2.196
				l8-8c2.929-2.93,2.929-7.678,0-10.607C201.875,375.269,197.125,375.269,194.197,378.196z"/>
			<path d="M135.5,111h0.08c4.142,0,7.46-3.357,7.46-7.5s-3.398-7.5-7.54-7.5c-4.142,0-7.5,3.357-7.5,7.5S131.358,111,135.5,111z"/>
			<path d="M383.5,215h0.08c4.142,0,7.46-3.357,7.46-7.5s-3.398-7.5-7.54-7.5c-4.142,0-7.5,3.357-7.5,7.5S379.358,215,383.5,215z"/>
			<path d="M63.58,216H63.5c-4.142,0-7.46,3.357-7.46,7.5s3.398,7.5,7.54,7.5c4.142,0,7.5-3.357,7.5-7.5S67.722,216,63.58,216z"/>
			<path d="M380.803,250.196c-2.929-2.928-7.678-2.928-10.606,0c-2.929,2.93-2.929,7.678,0,10.607l8,8
				c1.464,1.464,3.384,2.196,5.303,2.196s3.839-0.732,5.303-2.196c2.929-2.93,2.929-7.678,0-10.607L380.803,250.196z"/>
		</g>
	</g>
</g>
<g>
</g>
<g>
</g>
<g>
</g>
<g>
</g>
<g>
</g>
<g>
</g>
<g>
</g>
<g>
</g>
<g>
</g>
<g>
</g>
<g>
</g>
<g>
</g>
<g>
</g>
<g>
</g>
<g>
</g>
</svg>
