<?xml version="1.0" encoding="iso-8859-1"?>
<!-- Generator: Adobe Illustrator 19.0.0, SVG Export Plug-In . SVG Version: 6.00 Build 0)  -->
<svg version="1.1" id="Layer_1" xmlns="http://www.w3.org/2000/svg" xmlns:xlink="http://www.w3.org/1999/xlink" x="0px" y="0px"
	 viewBox="0 0 463 463" style="enable-background:new 0 0 463 463;" xml:space="preserve">
<g>
	<g>
		<g>
			<path d="M455.5,336h-76.894l-72.772-72.772c-0.58-0.58-1.167-1.15-1.757-1.713c3.202-7.443,5.42-14.57,6.455-20.782
				c1.854-11.122-2.06-18.536-5.669-22.796c-3.627-4.281-8.718-7.375-14.385-8.889c-0.113-20.556-14.261-31.125-14.932-31.613
				c-3.35-2.437-8.072-1.719-10.508,1.631c-2.436,3.35-1.727,8.018,1.623,10.454c0.394,0.3,8.558,6.68,8.808,19.294
				c-11.224,2.568-20.216,11.152-22.929,22.642c-0.176,0.746-0.407,1.838-0.652,3.015c-33.232-6.52-69.027,3.064-94.721,28.759
				l-2.329,2.329c-7.377-6.84-17.62-9.519-27.431-7.308c-5.222-11.483-0.618-20.756-0.425-21.136
				c1.969-3.644,0.611-8.194-3.033-10.164c-3.645-1.97-8.195-0.612-10.164,3.033c-0.395,0.731-8.591,16.373,0.185,34.962
				c-4.458,3.813-7.713,8.802-9.135,14.23c-1.415,5.402-1.743,13.778,4.732,23.009c1.073,1.529,2.344,3.16,3.787,4.858L84.394,336
				H7.5c-4.142,0-7.5,3.358-7.5,7.5c0,4.142,3.358,7.5,7.5,7.5h60.25l14.55,19.399C88.217,378.289,97.638,383,107.5,383h248
				c9.862,0,19.283-4.71,25.2-12.6l14.55-19.4h60.25c4.142,0,7.5-3.358,7.5-7.5C463,339.358,459.642,336,455.5,336z M266.489,237.92
				c0.245-1.175,0.475-2.284,0.648-3.018c1.628-6.896,8.087-11.901,15.359-11.902c0.004,0,0.008,0.001,0.011,0.001
				c0.002,0,0.004,0,0.005,0c4.309,0.004,8.486,1.777,10.904,4.632c2.268,2.677,3.048,6.255,2.318,10.635
				c-0.648,3.888-1.972,8.454-3.807,13.268c-7.991-5.619-16.594-9.998-25.541-13.13C266.422,238.243,266.456,238.08,266.489,237.92z
				 M167.773,273.835c35.139-35.14,92.315-35.14,127.455-0.001L357.394,336h-97.907c2.283-1.39,4.545-2.872,6.784-4.453
				c2.862-2.022,3.943-5.757,2.602-8.995c-1.341-3.238-4.745-5.115-8.2-4.522c-0.528,0.091-50.676,8.014-95.882-41.213
				L167.773,273.835z M119.344,282.977c0.948-3.619,3.951-7.023,7.837-8.888c0.004-0.002,0.009-0.005,0.013-0.007
				c2.198-1.053,4.555-1.558,6.887-1.558c4.626,0,9.149,1.992,12.105,5.66c27.222,33.771,57.342,46.853,77.816,51.881
				c3.075,0.755,6.031,1.357,8.843,1.834c-8.163,2.658-16.593,4.024-25.252,4.102h-1.203c-5.051-0.025-10.178-0.48-15.377-1.383
				c-33.494-5.819-60.201-28.266-69.167-41.048C119.296,289.936,118.454,286.372,119.344,282.977z M123.912,317.695
				c7.129,6.303,16.064,12.764,26.399,18.305h-44.704L123.912,317.695z M368.7,361.4c-3.1,4.133-8.034,6.6-13.2,6.6h-248
				c-5.166,0-10.1-2.467-13.2-6.6L86.5,351h290L368.7,361.4z"/>
			<path d="M219.5,287c6.341,0,11.5-5.159,11.5-11.5s-5.159-11.5-11.5-11.5s-11.5,5.159-11.5,11.5S213.159,287,219.5,287z"/>
			<path d="M299.5,327c6.341,0,11.5-5.159,11.5-11.5s-5.159-11.5-11.5-11.5s-11.5,5.159-11.5,11.5S293.159,327,299.5,327z"/>
			<path d="M247.46,303.08c4.142,0,7.54-3.398,7.54-7.54c0-4.142-3.398-7.54-7.54-7.54c-4.142,0-7.54,3.398-7.54,7.54
				C239.92,299.682,243.318,303.08,247.46,303.08z"/>
			<path d="M271.46,287.08c4.142,0,7.54-3.398,7.54-7.54c0-4.142-3.398-7.54-7.54-7.54c-4.142,0-7.54,3.398-7.54,7.54
				C263.92,283.682,267.318,287.08,271.46,287.08z"/>
			<path d="M200,167.535c0,12.625,5.348,19.305,9.646,24.672c3.689,4.608,6.354,7.937,6.354,15.297c0,4.142,3.358,7.5,7.5,7.5
				c4.142,0,7.5-3.358,7.5-7.5c0-12.625-5.348-19.304-9.645-24.672c-3.689-4.608-6.355-7.938-6.355-15.297
				c0-7.37,2.667-10.704,6.357-15.317c4.296-5.371,9.643-12.055,9.643-24.687c0-12.637-5.346-19.325-9.642-24.699
				C217.667,98.215,215,94.879,215,87.5c0-4.142-3.358-7.5-7.5-7.5c-4.142,0-7.5,3.358-7.5,7.5c0,12.637,5.346,19.325,9.642,24.699
				c3.691,4.618,6.358,7.954,6.358,15.333c0,7.37-2.667,10.704-6.357,15.317C205.347,148.219,200,154.904,200,167.535z"/>
			<path d="M240.484,175.027c2.381,0,4.504-1.111,5.879-2.842c5.412-6.766,16.636-20.823,16.636-44.654
				c0-9.68-1.861-18.805-5.532-27.123c-1.672-3.789-6.099-5.505-9.89-3.833c-3.79,1.672-5.505,6.1-3.833,9.89
				c2.823,6.397,4.255,13.485,4.255,21.066c0,18.514-8.295,28.964-13.303,35.226c-1.07,1.296-1.713,2.958-1.713,4.771
				C232.984,171.669,236.342,175.027,240.484,175.027z"/>
			<path d="M180.325,198.952c1.004,0,2.025-0.203,3.004-0.632c3.794-1.661,5.523-6.084,3.862-9.878
				C184.41,182.09,183,175.056,183,167.535c0-18.59,8.368-29.051,13.369-35.304c0.135-0.169,0.263-0.344,0.383-0.524
				c1.68-2.519,1.672-5.852-0.008-8.371c-2.297-3.446-6.955-4.377-10.4-2.08c-0.888,0.592-1.608,1.34-2.15,2.184
				C178.636,130.405,168,144.342,168,167.535c0,9.604,1.834,18.663,5.451,26.924C174.684,197.274,177.437,198.952,180.325,198.952z"
				/>
		</g>
	</g>
</g>
<g>
</g>
<g>
</g>
<g>
</g>
<g>
</g>
<g>
</g>
<g>
</g>
<g>
</g>
<g>
</g>
<g>
</g>
<g>
</g>
<g>
</g>
<g>
</g>
<g>
</g>
<g>
</g>
<g>
</g>
</svg>
