<?xml version="1.0" encoding="iso-8859-1"?>
<!-- Generator: Adobe Illustrator 19.0.0, SVG Export Plug-In . SVG Version: 6.00 Build 0)  -->
<svg xmlns="http://www.w3.org/2000/svg" xmlns:xlink="http://www.w3.org/1999/xlink" version="1.1" id="Layer_1" x="0px" y="0px" viewBox="0 0 463 463" style="enable-background:new 0 0 463 463;" xml:space="preserve" width="512px" height="512px">
<g>
	<g>
		<path d="M455.5,288h-41.221c-3.084-15.979-15.823-28.56-31.886-31.398c-1.01-5.693-3.278-11.1-6.619-15.843    c9.659-13.178,12.237-29.729,6.221-43.198c-0.753-1.687-2.102-3.036-3.789-3.789c-12.547-5.605-27.77-3.75-40.449,4.339    C332.011,189.455,322.212,184,311.5,184c-17.121,0-31.086,13.733-31.481,30.76c-4.752-7.744-11.667-14.072-19.926-18.066    c1.861-4.016,2.907-8.484,2.907-13.194c0-15.046-10.604-27.663-24.732-30.768C235.163,138.604,222.546,128,207.5,128    c-7.405,0-14.437,2.588-20,7.175c-5.563-4.587-12.595-7.175-20-7.175c-15.046,0-27.663,10.604-30.768,24.732    C122.604,155.837,112,168.454,112,183.5c0,17.369,14.131,31.5,31.5,31.5c8.413,0,16.25-3.412,21.995-9.073    c2.563,6.648,5.758,15.951,8.497,26.997c-2.661-0.617-5.192-0.925-7.723-0.925c-5.795,0-11.29,1.343-16.217,3.733    C141.213,223.405,127.035,216,111.5,216c-1.424,0-2.869,0.104-4.329,0.26c-0.664-4.336-2.345-9.108-5.814-13.445    c-2.588-3.235-7.307-3.76-10.542-1.171c-3.234,2.587-3.759,7.307-1.171,10.542c1.067,1.334,1.753,2.731,2.192,4.075    c-1.462-0.156-2.909-0.26-4.335-0.26C61.309,216,40,237.309,40,263.5c0,8.829,2.389,17.227,6.778,24.5H7.5    c-4.142,0-7.5,3.358-7.5,7.5c0,4.142,3.358,7.5,7.5,7.5h60.25l14.55,19.4c5.917,7.89,15.338,12.6,25.2,12.6h248    c9.862,0,19.283-4.71,25.2-12.6l14.55-19.4h60.25c4.142,0,7.5-3.358,7.5-7.5C463,291.358,459.642,288,455.5,288z M339.501,215.839    c8.479-8.48,20.32-12.095,29.808-9.381c2.716,9.487-0.9,21.329-9.379,29.809c-5.918,5.918-13.472,9.456-20.721,10.138l8.304-8.302    c2.929-2.929,2.93-7.678,0.001-10.607c-2.929-2.929-7.678-2.93-10.607-0.001l-7.322,7.32    C330.631,228.112,334.057,221.283,339.501,215.839z M311.5,199c6.285,0,11.967,3.585,14.739,9.095    c-2.974,3.448-5.422,7.19-7.317,11.094C314.076,217.093,308.854,216,303.5,216c-2.869,0-5.693,0.324-8.438,0.934    c-0.041-0.475-0.062-0.953-0.062-1.434C295,206.402,302.402,199,311.5,199z M268.204,224.301    c-1.557-0.196-3.126-0.301-4.704-0.301c-19.426,0-35.622,14.098-38.896,32.599c-1.375,0.242-2.734,0.563-4.076,0.951    c-3.606-9.824-10.902-17.783-20.135-22.076c2.86-12.131,6.356-22.371,9.118-29.54C215.255,211.59,223.089,215,231.5,215    c7.006,0,13.484-2.302,18.721-6.185C257.997,211.536,264.4,217.156,268.204,224.301z M172.169,184.936    c-1.817-2.071-4.622-2.978-7.311-2.365c-2.686,0.615-4.819,2.653-5.555,5.308C157.328,195.016,150.828,200,143.5,200    c-9.098,0-16.5-7.402-16.5-16.5s7.402-16.5,16.5-16.5c4.142,0,7.5-3.358,7.5-7.5c0-9.098,7.402-16.5,16.5-16.5    c5.533,0,10.673,2.77,13.75,7.408c1.39,2.095,3.736,3.355,6.25,3.355c2.514,0,4.861-1.26,6.25-3.355    c3.076-4.639,8.216-7.408,13.75-7.408c9.098,0,16.5,7.402,16.5,16.5c0,4.142,3.358,7.5,7.5,7.5c9.098,0,16.5,7.402,16.5,16.5    s-7.402,16.5-16.5,16.5c-7.328,0-13.828-4.984-15.805-12.121c-0.736-2.655-2.869-4.693-5.555-5.308    c-0.556-0.127-1.117-0.189-1.673-0.189c-2.132,0-4.196,0.911-5.638,2.554c-3.997,4.555-9.441,7.064-15.33,7.064    C181.61,192,176.166,189.491,172.169,184.936z M193.296,206.492c-1.885,5.319-3.907,11.627-5.796,18.719    c-1.888-7.092-3.911-13.4-5.796-18.719c1.905,0.323,3.84,0.508,5.796,0.508C189.455,207,191.39,206.815,193.296,206.492z     M166.269,247c1.428,0,2.903,0.187,4.508,0.571c3.135,0.75,6.313,0.75,9.446,0c1.605-0.384,3.081-0.571,4.508-0.571    C197.562,247,208,257.991,208,271.5c0,6.136-2.19,12.009-6.077,16.5h-52.846c-3.887-4.491-6.077-10.364-6.077-16.5    C143,257.991,153.438,247,166.269,247z M66.156,288C59.042,281.819,55,273.02,55,263.5c0-17.92,14.58-32.5,32.5-32.5    c3.008,0,6.102,0.536,9.738,1.686c1.473,0.466,3.052,0.466,4.524,0c3.636-1.15,6.73-1.686,9.738-1.686    c10.755,0,20.557,5.191,26.59,13.807c-6.26,7.035-10.09,16.41-10.09,26.693c0,5.757,1.228,11.377,3.511,16.5H66.156z M368.7,313.4    c-3.1,4.133-8.034,6.6-13.2,6.6h-248c-5.166,0-10.101-2.467-13.2-6.6L86.5,303h290L368.7,313.4z M219.489,288    c2.147-4.818,3.348-10.077,3.484-15.475c2.719-1.01,5.582-1.525,8.527-1.525c1.989,0,3.897-0.79,5.303-2.197    c1.407-1.406,2.197-3.314,2.197-5.303c0-13.509,10.991-24.5,24.5-24.5c3.939,0,7.847,1.04,11.614,3.091    c3.182,1.733,7.146,0.943,9.421-1.875c4.73-5.857,11.642-9.216,18.964-9.216c3.875,0,7.637,0.942,11.048,2.721    c-0.651,5.156-0.364,10.311,0.921,15.205l-9.272,9.27c-2.929,2.929-2.93,7.678-0.001,10.607c1.465,1.465,3.384,2.197,5.304,2.197    c1.919,0,3.838-0.732,5.303-2.196l8.848-8.845c3.579,1.068,7.31,1.602,11.094,1.602c9.683,0,19.685-3.421,28.216-9.842    c1.969,3.588,3.04,7.634,3.04,11.781c0,4.142,3.358,7.5,7.5,7.5c10.894,0,20.145,7.149,23.321,17H219.489z" fill="#FFFFFF"/>
	</g>
</g>
<g>
</g>
<g>
</g>
<g>
</g>
<g>
</g>
<g>
</g>
<g>
</g>
<g>
</g>
<g>
</g>
<g>
</g>
<g>
</g>
<g>
</g>
<g>
</g>
<g>
</g>
<g>
</g>
<g>
</g>
</svg>
