<?xml version="1.0" encoding="iso-8859-1"?>
<!-- Generator: Adobe Illustrator 19.0.0, SVG Export Plug-In . SVG Version: 6.00 Build 0)  -->
<svg xmlns="http://www.w3.org/2000/svg" xmlns:xlink="http://www.w3.org/1999/xlink" version="1.1" id="Layer_1" x="0px" y="0px" viewBox="0 0 463 463" style="enable-background:new 0 0 463 463;" xml:space="preserve" width="512px" height="512px">
<g>
	<g>
		<path d="M327.222,279.154l-8.84-88.4c-0.383-3.834-3.61-6.754-7.463-6.754H261.81c-1.346-8.385-4.916-16.328-10.4-22.909    l-21.458-25.749c-4.857-5.83-7.533-13.219-7.533-20.806V45.055c4.765-2.647,8-7.728,8-13.555v-16c0-8.547-6.953-15.5-15.5-15.5    h-32c-8.547,0-15.5,6.953-15.5,15.5v16c0,5.827,3.235,10.908,8,13.555v69.481c0,7.587-2.675,14.977-7.533,20.806l-21.458,25.749    c-7.1,8.52-11.009,19.319-11.009,30.409v248c0,12.958,10.542,23.5,23.5,23.5c0,0,66.486,0,67,0h58c4.142,0,7.5-3.358,7.5-7.5    c0-4.142-3.358-7.5-7.5-7.5c-11.855,0-21.5-9.645-21.5-21.5v-67c0-0.3-0.023-0.595-0.057-0.885    c17.749-1.827,34.369-10.163,46.444-23.506C322.547,319.925,329.26,299.53,327.222,279.154z M182.419,15.5    c0-0.276,0.224-0.5,0.5-0.5h32c0.276,0,0.5,0.224,0.5,0.5v16c0,0.276-0.224,0.5-0.5,0.5h-32c-0.276,0-0.5-0.224-0.5-0.5V15.5z     M150.419,191.5c0-7.588,2.676-14.977,7.533-20.806l21.458-25.749c7.1-8.52,11.009-19.319,11.009-30.409V47h17v67.536    c0,11.089,3.91,21.889,11.009,30.409l21.458,25.749c3.232,3.878,5.49,8.448,6.645,13.306h-47.612c-3.853,0-7.08,2.92-7.463,6.754    L187.332,232h-36.913V191.5z M150.42,247h35.412l-3.215,32.154c-2.038,20.376,4.675,40.771,18.416,55.954    c4.276,4.725,9.123,8.821,14.387,12.225V367.5c0,4.687-3.813,8.5-8.5,8.5h-56.5V247z M197.543,280.646L200.907,247h6.012    c4.687,0,8.5,3.813,8.5,8.5V288h-18.118C197.231,285.558,197.297,283.103,197.543,280.646z M247.419,359.5v67    c0,11.855-9.645,21.5-21.5,21.5c-0.514,0-67,0-67,0c-4.687,0-8.5-3.813-8.5-8.5V391h56.5c12.958,0,23.5-10.542,23.5-23.5v-12.779    c5.484,1.964,11.205,3.292,17.057,3.894C247.442,358.906,247.419,359.2,247.419,359.5z M297.685,325.043    C286.782,337.091,271.21,344,254.962,344h-0.086c-16.248,0-31.82-6.909-42.723-18.957c-5.782-6.389-9.977-13.947-12.418-22.043    h110.368C307.662,311.096,303.467,318.654,297.685,325.043z M312.538,288h-82.119v-32.5c0-12.958-10.542-23.5-23.5-23.5h-4.512    l3.3-33h98.425l8.164,81.646C312.542,283.102,312.608,285.557,312.538,288z" fill="#FFFFFF"/>
	</g>
</g>
<g>
</g>
<g>
</g>
<g>
</g>
<g>
</g>
<g>
</g>
<g>
</g>
<g>
</g>
<g>
</g>
<g>
</g>
<g>
</g>
<g>
</g>
<g>
</g>
<g>
</g>
<g>
</g>
<g>
</g>
</svg>
