<?xml version="1.0" encoding="iso-8859-1"?>
<!-- Generator: Adobe Illustrator 19.0.0, SVG Export Plug-In . SVG Version: 6.00 Build 0)  -->
<svg version="1.1" id="Layer_1" xmlns="http://www.w3.org/2000/svg" xmlns:xlink="http://www.w3.org/1999/xlink" x="0px" y="0px"
	 viewBox="0 0 512 512" style="enable-background:new 0 0 512 512;" xml:space="preserve">
<polyline style="fill:#FFFFFF;" points="360.49,328.098 31.347,328.098 31.347,6.269 481.698,6.269 481.698,328.098 
	440.947,328.098 "/>
<polyline style="fill:#FF4A51;" points="440.947,303.02 456.62,303.02 456.62,30.302 56.424,30.302 56.424,303.02 360.49,303.02 "/>
<polyline style="fill:#FF1D25;" points="232.272,303.08 320.72,30.302 56.424,30.302 56.424,303.02 360.49,303.02 "/>
<polygon style="fill:#FFFFFF;" points="272.718,134.792 208.98,134.792 208.98,70.008 152.555,70.008 152.555,134.792 
	87.771,134.792 87.771,190.171 152.555,190.171 152.555,254.955 208.98,254.955 208.98,190.171 272.718,190.171 "/>
<g>
	<rect x="312.696" y="102.4" style="fill:#FF931E;" width="24.074" height="112.682"/>
	<rect x="312.696" y="391.837" style="fill:#FF931E;" width="24.074" height="112.849"/>
</g>
<path style="fill:#BDCCD4;" d="M401.412,110.759h-64.955v96.131h40.751v192.261h-40.751v96.131h64.955
	c13.05,0,23.861-9.914,23.861-22.963V134.391C425.273,121.342,414.462,110.759,401.412,110.759z"/>
<path style="fill:#6B7E87;" d="M400.967,471.986c0,13.05-10.579,23.296-23.628,23.296h24.074c13.05,0,23.861-9.914,23.861-22.963
	V134.391c-0.001-13.049-10.813-23.631-23.862-23.631h-24.074c13.05,0,23.628,10.413,23.628,23.463"/>
<rect x="304.065" y="102.4" width="15.673" height="112.849"/>
<path d="M401.413,102.926h-56.597v-7.84h-15.673v127.478h15.673v-7.314h24.033v177.633h-24.033v-9.404h-15.673V512h15.673v-8.216
	h56.597c17.349,0,31.465-14.114,31.465-31.465V134.392C432.877,117.041,418.763,102.926,401.413,102.926z M417.204,472.319
	c0,8.707-7.084,15.792-15.792,15.792h-56.596v-79.555h39.706v-208.98h-39.706v-80.976h56.597c8.707,0,15.792,7.084,15.792,15.792
	v337.928H417.204z"/>
<rect x="304.065" y="391.837" width="15.673" height="112.849"/>
<polygon points="487.967,335.412 440.947,335.412 440.947,319.739 472.294,319.739 472.294,15.673 39.706,15.673 39.706,319.739 
	360.49,319.739 360.49,335.412 24.033,335.412 24.033,0 487.967,0 "/>
<path d="M215.249,263.314h-71.053v-63.739H79.412v-72.098h64.784V63.739h71.053v63.739h64.784v72.098h-64.784V263.314z
	 M159.869,247.641h39.706v-63.739h64.784v-40.751h-64.784V79.412h-39.706v63.739H95.086v40.751h64.784V247.641z"/>
<polygon points="464.98,312.424 440.947,312.424 440.947,296.751 449.306,296.751 449.306,38.661 62.694,38.661 62.694,296.751 
	360.49,296.751 360.49,312.424 47.02,312.424 47.02,22.988 464.98,22.988 "/>
<g>
</g>
<g>
</g>
<g>
</g>
<g>
</g>
<g>
</g>
<g>
</g>
<g>
</g>
<g>
</g>
<g>
</g>
<g>
</g>
<g>
</g>
<g>
</g>
<g>
</g>
<g>
</g>
<g>
</g>
</svg>
