<?xml version="1.0" encoding="iso-8859-1"?>
<!-- Generator: Adobe Illustrator 19.0.0, SVG Export Plug-In . SVG Version: 6.00 Build 0)  -->
<svg version="1.1" id="Layer_1" xmlns="http://www.w3.org/2000/svg" xmlns:xlink="http://www.w3.org/1999/xlink" x="0px" y="0px"
	 viewBox="0 0 512 512" style="enable-background:new 0 0 512 512;" xml:space="preserve">
<g>
	<path style="fill:#FCDE76;" d="M440.36,143.781c17.708,0,32.063-14.355,32.063-32.063c0,17.708,14.355,32.063,32.063,32.063
		c-17.708,0-32.063,14.355-32.063,32.063C472.423,158.136,458.068,143.781,440.36,143.781z"/>
	<path style="fill:#FCDE76;" d="M7.515,143.781c17.708,0,32.063-14.355,32.063-32.063c0,17.708,14.355,32.063,32.063,32.063
		c-17.708,0-32.063,14.355-32.063,32.063C39.577,158.136,25.222,143.781,7.515,143.781z"/>
	<path style="fill:#FCDE76;" d="M215.922,47.593C238.056,47.593,256,29.649,256,7.515c0,22.134,17.944,40.078,40.078,40.078
		C273.944,47.593,256,65.537,256,87.671C256,65.537,238.056,47.593,215.922,47.593z"/>
</g>
<path style="fill:#E6608D;" d="M439.358,280.047H70.638l-34.106,47.748c-3.885,5.438-5.973,11.953-5.973,18.636v93.928h448.877
	v-93.928c0-6.683-2.088-13.198-5.973-18.636L439.358,280.047z"/>
<path style="fill:#D4506F;" d="M439.358,280.047l-40.544-114.874c-4.525-12.819-16.641-21.392-30.235-21.392H141.416
	c-13.594,0-25.71,8.573-30.235,21.392L70.638,280.047H439.358z"/>
<path style="fill:#878493;" d="M104.625,256l29.232-82.825c1.128-3.198,4.166-5.347,7.559-5.347h227.163
	c3.393,0,6.43,2.149,7.559,5.348L405.37,256H104.625z"/>
<path style="fill:#787485;" d="M141.417,167.828c-3.393,0-6.43,2.149-7.559,5.347L104.625,256h94.798l83.453-88.172H141.417z"/>
<ellipse style="fill:#FCDE76;" cx="399.28" cy="384.25" rx="40.078" ry="24.047"/>
<path style="fill:#FCCF6F;" d="M415.311,400.282c-22.134,0-40.078-10.766-40.078-24.047c0-5.15,2.707-9.918,7.302-13.831
	c-13.77,3.805-23.334,12.154-23.334,21.847c0,13.281,17.944,24.047,40.078,24.047c13.55,0,25.522-4.039,32.776-10.216
	C426.959,399.49,421.291,400.282,415.311,400.282z"/>
<ellipse style="fill:#FCDE76;" cx="110.716" cy="384.25" rx="40.078" ry="24.047"/>
<path style="fill:#FCCF6F;" d="M126.748,400.282c-22.134,0-40.078-10.766-40.078-24.047c0-5.15,2.707-9.918,7.302-13.831
	c-13.77,3.805-23.334,12.154-23.334,21.847c0,13.281,17.944,24.047,40.078,24.047c13.55,0,25.522-4.039,32.776-10.216
	C138.395,399.49,132.727,400.282,126.748,400.282z"/>
<g>
	<path style="fill:#787485;" d="M102.701,504.485H54.607c-4.427,0-8.016-3.589-8.016-8.016v-24.047h64.125v24.047
		C110.716,500.896,107.127,504.485,102.701,504.485z"/>
	<path style="fill:#787485;" d="M407.296,504.485h48.094c4.427,0,8.016-3.589,8.016-8.016v-24.047H399.28v24.047
		C399.28,500.896,402.869,504.485,407.296,504.485z"/>
</g>
<g>
	<rect x="399.28" y="472.423" style="fill:#696578;" width="64.125" height="16.031"/>
	<rect x="46.591" y="472.423" style="fill:#696578;" width="64.125" height="16.031"/>
</g>
<path style="fill:#D2D1D6;" d="M327.139,440.36H182.857v-64.125c0-17.708,14.355-32.063,32.063-32.063h80.157
	c17.708,0,32.063,14.355,32.063,32.063V440.36z"/>
<g>
	<polygon style="fill:#E6608D;" points="495.468,280.047 447.374,280.047 455.389,247.984 495.468,247.984 	"/>
	<polygon style="fill:#E6608D;" points="14.528,280.047 62.622,280.047 54.607,247.984 14.528,247.984 	"/>
</g>
<path style="fill:#D4506F;" d="M447.374,472.423H62.622c-17.708,0-32.063-14.355-32.063-32.063l0,0h448.877l0,0
	C479.436,458.068,465.081,472.423,447.374,472.423z"/>
<g>
	<circle style="fill:#FDFAB6;" cx="110.716" cy="384.25" r="8.016"/>
	<circle style="fill:#FDFAB6;" cx="399.28" cy="384.25" r="8.016"/>
</g>
<path d="M504.485,136.266c-13.536,0-24.548-11.012-24.548-24.548c0-4.151-3.364-7.515-7.515-7.515s-7.515,3.364-7.515,7.515
	c0,13.536-11.012,24.548-24.548,24.548c-4.151,0-7.515,3.364-7.515,7.515s3.364,7.515,7.515,7.515
	c13.536,0,24.548,11.012,24.548,24.548c0,4.151,3.364,7.515,7.515,7.515s7.515-3.364,7.515-7.515
	c0-13.536,11.012-24.548,24.548-24.548c4.151,0,7.515-3.364,7.515-7.515S508.636,136.266,504.485,136.266z M472.423,152.665
	c-2.472-3.409-5.476-6.413-8.884-8.884c3.409-2.472,6.413-5.476,8.884-8.884c2.472,3.409,5.476,6.413,8.884,8.884
	C477.898,146.253,474.895,149.257,472.423,152.665z"/>
<path d="M32.063,175.843c0,4.151,3.365,7.515,7.515,7.515s7.515-3.364,7.515-7.515c0-13.536,11.013-24.548,24.548-24.548
	c4.15,0,7.515-3.364,7.515-7.515s-3.365-7.515-7.515-7.515c-13.535,0-24.548-11.012-24.548-24.548c0-4.151-3.365-7.515-7.515-7.515
	s-7.515,3.364-7.515,7.515c0,13.536-11.013,24.548-24.548,24.548c-4.15,0-7.515,3.364-7.515,7.515s3.365,7.515,7.515,7.515
	C21.05,151.296,32.063,162.307,32.063,175.843z M39.577,134.896c2.472,3.409,5.475,6.413,8.884,8.884
	c-3.409,2.472-6.413,5.476-8.884,8.884c-2.472-3.409-5.475-6.413-8.884-8.884C34.103,141.309,37.105,138.305,39.577,134.896z"/>
<path d="M215.922,55.108c17.955,0,32.564,14.608,32.564,32.564c0,4.151,3.365,7.515,7.515,7.515c4.151,0,7.515-3.364,7.515-7.515
	c0-17.956,14.608-32.564,32.564-32.564c4.151,0,7.515-3.364,7.515-7.515s-3.364-7.515-7.515-7.515
	c-17.956,0-32.564-14.608-32.564-32.564C263.515,3.364,260.151,0,256,0c-4.15,0-7.515,3.364-7.515,7.515
	c0,17.956-14.609,32.564-32.564,32.564c-4.15,0-7.515,3.364-7.515,7.515S211.772,55.108,215.922,55.108z M256,33.159
	c3.715,5.784,8.65,10.719,14.434,14.434c-5.784,3.715-10.719,8.65-14.434,14.434c-3.715-5.784-8.65-10.719-14.435-14.434
	C247.35,43.878,252.285,38.943,256,33.159z"/>
<path d="M411.504,260.34c1.409-1.991,1.764-4.542,0.952-6.841l-29.232-82.824c-2.187-6.198-8.073-10.362-14.645-10.362H141.417
	c-6.573,0-12.458,4.164-14.645,10.361l-29.232,82.825c-1.698,4.811,1.992,10.016,7.086,10.016h300.744
	C407.809,263.515,410.096,262.33,411.504,260.34z M115.247,248.485l25.697-72.809c0.068-0.193,0.267-0.334,0.472-0.334h227.163
	c0.205,0,0.404,0.141,0.473,0.335l25.697,72.808H115.247z"/>
<path d="M351.687,384.25c0,17.698,20.905,31.562,47.593,31.562s47.593-13.864,47.593-31.562s-20.905-31.562-47.593-31.562
	S351.687,366.553,351.687,384.25z M431.843,384.25c0,7.804-13.925,16.532-32.564,16.532s-32.564-8.728-32.564-16.532
	c0-7.804,13.925-16.532,32.564-16.532S431.843,376.446,431.843,384.25z"/>
<path d="M110.716,352.689c-26.688,0-47.593,13.864-47.593,31.562s20.905,31.562,47.593,31.562s47.593-13.864,47.593-31.562
	S137.404,352.689,110.716,352.689z M110.716,400.783c-18.637,0-32.564-8.728-32.564-16.532c0-7.804,13.926-16.532,32.564-16.532
	s32.564,8.728,32.564,16.532C143.28,392.055,129.354,400.783,110.716,400.783z"/>
<path d="M495.468,240.47h-40.078c-3.448,0-6.454,2.347-7.29,5.692l-5.279,21.115L405.9,162.671
	c-5.574-15.793-20.572-26.405-37.321-26.405H141.417c-16.749,0-31.747,10.612-37.321,26.406l-36.92,104.606l-5.279-21.116
	c-0.837-3.346-3.842-5.692-7.29-5.692H14.528c-4.15,0-7.515,3.364-7.515,7.515v32.063c0,4.151,3.365,7.515,7.515,7.515h41.507
	l-25.619,35.866c-4.822,6.751-7.371,14.707-7.371,23.004v93.928c0,13.015,6.317,24.581,16.044,31.798
	c-0.003,0.088-0.013,0.175-0.013,0.265v24.047c0,8.564,6.967,15.53,15.53,15.53h48.094c8.564,0,15.53-6.967,15.53-15.53v-16.532
	h273.534v16.532c0,8.564,6.967,15.53,15.53,15.53h48.094c8.564,0,15.53-6.967,15.53-15.53v-24.047c0-0.089-0.01-0.176-0.013-0.265
	c9.727-7.217,16.044-18.783,16.044-31.798v-93.928c0-8.298-2.55-16.254-7.372-23.004l-25.619-35.866h41.508
	c4.151,0,7.515-3.364,7.515-7.515v-32.063C502.982,243.833,499.619,240.47,495.468,240.47z M22.043,272.532v-17.033h26.696
	l4.258,17.033H22.043z M190.372,383.75h129.252v17.033H190.372V383.75z M191.553,368.72c3.182-9.871,12.451-17.033,23.367-17.033
	h80.157c10.915,0,20.185,7.162,23.367,17.033H191.553z M190.372,415.812h129.252v17.033H190.372V415.812z M470.74,447.875
	c-3.182,9.871-12.451,17.033-23.367,17.033H62.622c-10.915,0-20.185-7.162-23.367-17.033H470.74z M103.202,496.47
	c0,0.276-0.224,0.501-0.501,0.501H54.607c-0.277,0-0.501-0.225-0.501-0.501v-16.532h8.517h40.579V496.47z M455.89,479.937v16.532
	c0,0.276-0.225,0.501-0.501,0.501h-48.094c-0.276,0-0.501-0.225-0.501-0.501v-16.532h40.579H455.89z M471.922,346.432v86.414
	H334.654v-56.611c0-21.823-17.755-39.577-39.577-39.577H214.92c-21.823,0-39.577,17.755-39.577,39.577v56.611H38.074v-86.414
	c0-5.147,1.581-10.081,4.572-14.268l31.859-44.602h276.68c4.151,0,7.515-3.364,7.515-7.515s-3.364-7.515-7.515-7.515H81.259
	l37.009-104.859c3.458-9.795,12.76-16.378,23.149-16.378H368.58c10.388,0,19.69,6.582,23.149,16.378l37.008,104.859h-45.489
	c-4.151,0-7.515,3.364-7.515,7.515s3.364,7.515,7.515,7.515h52.243l31.858,44.602C470.341,336.351,471.922,341.285,471.922,346.432z
	 M487.953,272.532h-30.955l4.258-17.033h26.697V272.532z"/>
<path d="M86.669,343.671h48.094c4.15,0,7.515-3.364,7.515-7.515s-3.365-7.515-7.515-7.515H86.669c-4.15,0-7.515,3.364-7.515,7.515
	S82.519,343.671,86.669,343.671z"/>
<path d="M367.718,336.157c0,4.151,3.364,7.515,7.515,7.515h48.094c4.151,0,7.515-3.364,7.515-7.515s-3.364-7.515-7.515-7.515
	h-48.094C371.082,328.642,367.718,332.005,367.718,336.157z"/>
<g>
</g>
<g>
</g>
<g>
</g>
<g>
</g>
<g>
</g>
<g>
</g>
<g>
</g>
<g>
</g>
<g>
</g>
<g>
</g>
<g>
</g>
<g>
</g>
<g>
</g>
<g>
</g>
<g>
</g>
</svg>
