<?xml version="1.0" encoding="iso-8859-1"?>
<!-- Generator: Adobe Illustrator 21.0.0, SVG Export Plug-In . SVG Version: 6.00 Build 0)  -->
<svg version="1.1" id="Capa_1" xmlns="http://www.w3.org/2000/svg" xmlns:xlink="http://www.w3.org/1999/xlink" x="0px" y="0px"
	 viewBox="0 0 512 512" style="enable-background:new 0 0 512 512;" xml:space="preserve">
<linearGradient id="SVGID_1_" gradientUnits="userSpaceOnUse" x1="270.6306" y1="178.3437" x2="349.5606" y2="-52.4763" gradientTransform="matrix(1.0039 0 0 -1.0039 0.1922 516.5607)">
	<stop  offset="0" style="stop-color:#62E1FB"/>
	<stop  offset="1" style="stop-color:#00A2F3"/>
</linearGradient>
<path style="fill:url(#SVGID_1_);" d="M389.183,455.879L465.716,310.2l11.625-22.12c1.243-2.387,2.303-4.817,3.178-7.274
	c4.125-11.541,4.195-23.788,0.763-34.962c-4.195-13.703-13.645-25.808-27.348-33.012L185.447,71.783
	c-15.101-7.939-33.252-7.346-47.816,1.512L35.615,135.392c-5.566,3.39-10.283,7.797-13.985,12.882
	c-5.749,7.868-9.054,17.389-9.294,27.362c-0.014,0.48-0.028,0.961-0.028,1.427c0,0.889,0.028,1.78,0.085,2.683l0.113,1.78
	l5.494,91.704l1.483,24.889c1.031,16.965,10.82,32.165,25.878,40.075L313.95,479.296
	C341.184,493.608,374.873,483.127,389.183,455.879z M97.288,199.679c-0.339-0.339-0.635-0.678-0.961-1.003
	c-0.749-0.819-1.441-1.667-2.076-2.515c-9.506-12.685-8.489-30.71,3.037-42.222c12.628-12.642,33.083-12.642,45.74,0
	c10.227,10.227,12.163,25.582,5.834,37.758c-0.17,0.353-0.367,0.721-0.593,1.073c-0.184,0.353-0.396,0.692-0.621,1.045
	c-0.635,1.031-1.342,2.048-2.105,3.023c-0.226,0.297-0.481,0.607-0.735,0.889c-0.565,0.664-1.159,1.299-1.78,1.95
	C130.37,212.307,109.916,212.307,97.288,199.679z"/>
<linearGradient id="SVGID_2_" gradientUnits="userSpaceOnUse" x1="306.8554" y1="129.3319" x2="248.1354" y2="292.7619" gradientTransform="matrix(1.0039 0 0 -1.0039 0.1922 516.5607)">
	<stop  offset="0" style="stop-color:#00A2F3;stop-opacity:0"/>
	<stop  offset="1" style="stop-color:#0075CD"/>
</linearGradient>
<path style="fill:url(#SVGID_2_);" d="M389.183,455.879L465.716,310.2l11.625-22.12c1.243-2.387,2.303-4.817,3.178-7.274
	c4.125-11.541,4.195-23.788,0.763-34.962c-4.195-13.703-13.645-25.808-27.348-33.012L185.447,71.784
	c-15.101-7.939-33.252-7.346-47.816,1.511L35.615,135.392c-5.559,3.386-10.271,7.786-13.971,12.864l-2.423,4.04
	c-4.608,7.686-6.908,16.329-6.908,24.97c0.002,0.482,0.027,0.968,0.046,1.453c0.011,0.385,0.02,0.769,0.04,1.154l0.078,1.241
	c0.587,7.389,2.852,14.673,6.823,21.248l48.426,80.148l12.902,21.349c2.81,4.644,6.334,8.705,10.375,12.091l97.387,97.387
	l125.557,65.962C341.184,493.608,374.874,483.127,389.183,455.879z M148.861,191.698c-0.17,0.353-0.367,0.721-0.593,1.073
	c-0.184,0.353-0.396,0.692-0.621,1.045c-0.635,1.031-1.342,2.048-2.104,3.023c-0.226,0.296-0.481,0.607-0.735,0.889
	c-0.565,0.664-1.159,1.299-1.78,1.95c-12.656,12.628-33.111,12.628-45.74,0c-0.339-0.339-0.635-0.678-0.961-1.003
	c-0.749-0.819-1.441-1.667-2.076-2.514c-9.507-12.686-8.49-30.71,3.037-42.222c12.628-12.642,33.083-12.642,45.74,0
	C153.254,164.166,155.189,179.521,148.861,191.698z"/>
<linearGradient id="SVGID_3_" gradientUnits="userSpaceOnUse" x1="225.2866" y1="402.5412" x2="474.5166" y2="153.3012" gradientTransform="matrix(1.0039 0 0 -1.0039 0.1922 516.5607)">
	<stop  offset="0" style="stop-color:#FF4C54"/>
	<stop  offset="1" style="stop-color:#BE3F45"/>
</linearGradient>
<path style="fill:url(#SVGID_3_);" d="M122.167,327.291h334.12c30.767,0,55.713-24.944,55.713-55.713V82.027
	c0-30.783-24.944-55.729-55.713-55.729H122.278c-17.054,0-32.851,8.957-41.618,23.577l-61.44,102.42
	c-9.243,15.415-9.211,34.68,0.079,50.065l48.426,80.148l12.902,21.349C89.426,318.399,105.161,327.291,122.167,327.291z
	 M148.861,191.702c-0.175,0.35-0.365,0.716-0.588,1.066c-0.191,0.35-0.398,0.7-0.62,1.05c-0.636,1.034-1.352,2.052-2.116,3.023
	c-0.223,0.302-0.477,0.604-0.732,0.89c-0.557,0.669-1.162,1.304-1.782,1.941c-12.647,12.631-33.106,12.631-45.738,0
	c-0.334-0.334-0.636-0.669-0.955-1.002c-0.748-0.811-1.448-1.654-2.084-2.514c-9.497-12.68-8.479-30.704,3.039-42.222
	c12.631-12.631,33.09-12.631,45.738,0C153.252,164.163,155.193,179.515,148.861,191.702z"/>
<linearGradient id="SVGID_4_" gradientUnits="userSpaceOnUse" x1="306.3113" y1="231.026" x2="160.8714" y2="376.476" gradientTransform="matrix(1.0039 0 0 -1.0039 0.1922 516.5607)">
	<stop  offset="0" style="stop-color:#BE3F45;stop-opacity:0"/>
	<stop  offset="1" style="stop-color:#BE3F45"/>
</linearGradient>
<path style="fill:url(#SVGID_4_);" d="M432.84,327.296H268.131l-99.584-99.584c-4.089-3.221-6.144-6.525-6.144-9.915
	c0-2.034,0.752-4.078,2.257-6.123c1.504-2.034,3.221-3.061,5.158-3.061c1.176,0,2.595,0.699,4.269,2.065
	c1.663,1.377,3.305,2.87,4.915,4.459c1.61,1.599,4.046,3.093,7.331,4.47c3.273,1.377,6.949,2.055,11.038,2.055
	c6.123,0,11.038-1.452,14.746-4.364c1.843-1.462,3.242-3.252,4.163-5.392c-0.17-0.18-0.339-0.36-0.508-0.561l-39.713-39.713
	c-1.95-1.663-3.729-3.549-5.36-5.688c-3.602-4.757-5.392-10.699-5.392-17.828c0-5.678,1.101-10.603,3.305-14.788
	c2.193-4.173,5.18-7.394,8.94-9.64c3.761-2.257,7.701-3.888,11.843-4.904c4.131-1.017,8.506-1.525,13.135-1.525
	c2.892,0,5.932,0.18,9.1,0.561c3.167,0.37,6.314,0.975,9.428,1.832c3.114,0.847,5.688,2.065,7.733,3.665l34.946,35.02
	l166.138,166.519c0.519,0.318,1.017,0.657,1.473,1.017C431.928,326.333,432.426,326.81,432.84,327.296z"/>
<linearGradient id="SVGID_5_" gradientUnits="userSpaceOnUse" x1="372.1968" y1="236.0514" x2="227.3468" y2="380.9014" gradientTransform="matrix(1.0039 0 0 -1.0039 0.1922 516.5607)">
	<stop  offset="0" style="stop-color:#BE3F45;stop-opacity:0"/>
	<stop  offset="1" style="stop-color:#BE3F45"/>
</linearGradient>
<path style="fill:url(#SVGID_5_);" d="M490.888,315.241c-9.502,7.542-21.535,12.055-34.607,12.055H339.77l-93.864-93.864
	c-2.246-1.387-3.368-3.051-3.368-4.989c0-0.635,0.042-1.123,0.159-1.441l21.037-68.663l10.953-35.772
	c1.366-3.856,5.19-5.795,11.462-5.795c6.303,0,10.159,1.769,11.567,5.286l43.696,43.696L490.888,315.241z"/>
<linearGradient id="SVGID_6_" gradientUnits="userSpaceOnUse" x1="449.235" y1="237.6396" x2="329.215" y2="357.6595" gradientTransform="matrix(1.0039 0 0 -1.0039 0.1922 516.5607)">
	<stop  offset="0" style="stop-color:#BE3F45;stop-opacity:0"/>
	<stop  offset="1" style="stop-color:#BE3F45"/>
</linearGradient>
<path style="fill:url(#SVGID_6_);" d="M511.851,275.772c-0.985,13.093-6.493,24.946-14.967,33.95
	c-1.854,1.981-3.856,3.835-5.995,5.519c-9.502,7.542-21.535,12.055-34.607,12.055h-19.31l-93.301-93.302
	c-1.504-1.017-2.257-2.394-2.257-4.11V123.225c0-1.833,0.837-3.199,2.5-4.11c1.664-0.911,3.675-1.377,6.038-1.377
	s4.375,0.466,6.049,1.377l62.275,62.604L511.851,275.772z"/>
<linearGradient id="SVGID_7_" gradientUnits="userSpaceOnUse" x1="519.7711" y1="270.4857" x2="419.7711" y2="370.4757" gradientTransform="matrix(1.0039 0 0 -1.0039 0.1922 516.5607)">
	<stop  offset="0" style="stop-color:#BE3F45;stop-opacity:0"/>
	<stop  offset="1" style="stop-color:#BE3F45"/>
</linearGradient>
<path style="fill:url(#SVGID_7_);" d="M512,145.047v126.531c0,1.409-0.053,2.807-0.149,4.194
	c-0.985,13.093-6.493,24.946-14.967,33.95l-76.353-75.729c-1.504-1.017-2.256-2.394-2.256-4.11V123.384
	c0-1.716,0.752-3.093,2.256-4.11c1.504-1.017,3.273-1.536,5.318-1.536h57.36c1.822,0,3.221,0.752,4.184,2.256L512,145.047z"/>
<g>
	<path style="fill:#FFFFFF;" d="M162.403,217.802c0-2.04,0.75-4.082,2.256-6.123c1.503-2.039,3.223-3.061,5.156-3.061
		c1.181,0,2.603,0.691,4.271,2.067c1.665,1.377,3.303,2.862,4.914,4.458s4.053,3.084,7.332,4.461
		c3.276,1.377,6.953,2.064,11.037,2.064c6.123,0,11.037-1.458,14.744-4.373c3.705-2.915,5.559-7.182,5.559-12.799
		c0-5.181-1.8-9.501-5.397-12.959c-3.6-3.454-7.951-6.208-13.052-8.262c-5.103-2.051-10.232-4.265-15.387-6.641
		c-5.156-2.377-9.534-5.939-13.132-10.693c-3.6-4.751-5.397-10.69-5.397-17.82c0-5.68,1.1-10.609,3.303-14.789
		c2.201-4.179,5.181-7.394,8.943-9.645c3.759-2.251,7.706-3.884,11.843-4.902c4.133-1.017,8.511-1.528,13.131-1.528
		c2.9,0,5.934,0.187,9.105,0.559c3.167,0.371,6.31,0.982,9.426,1.833c3.115,0.851,5.693,2.071,7.734,3.665
		c2.039,1.594,3.061,3.398,3.061,5.418c0,2.02-0.645,4.053-1.934,6.105c-1.289,2.052-3.009,3.076-5.156,3.076
		c-1.074,0-2.525-0.511-4.35-1.538c-1.828-1.027-4.271-2.052-7.332-3.079c-3.061-1.025-6.582-1.538-10.554-1.538
		c-6.123,0-11.011,1.216-14.662,3.645c-3.653,2.431-5.477,6.131-5.477,11.097c0,3.24,0.967,6.022,2.9,8.344
		c1.934,2.321,4.431,4.24,7.492,5.749c3.062,1.513,6.47,2.999,10.232,4.456c3.759,1.458,7.492,3.156,11.198,5.101
		c3.705,1.944,7.089,4.186,10.152,6.724c3.061,2.538,5.559,6.022,7.492,10.448c1.934,4.428,2.9,9.559,2.9,15.39
		c0,11.1-3.359,19.559-10.071,25.375c-6.714,5.816-15.604,8.724-26.666,8.724c-9.885,0-18.288-2.067-25.216-6.203
		C165.868,226.478,162.403,222.208,162.403,217.802z"/>
	<path style="fill:#FFFFFF;" d="M242.533,228.448c0-0.642,0.053-1.125,0.162-1.448l31.996-104.43
		c1.367-3.862,5.186-5.796,11.455-5.796c6.382,0,10.257,1.8,11.626,5.4l31.904,104.41c0.214,0.675,0.322,1.181,0.322,1.518
		c0,2.025-1.254,3.769-3.756,5.229c-2.506,1.463-5.159,2.193-7.963,2.193c-3.391,0-5.495-1.168-6.315-3.507l-6.672-23.078h-39.607
		l-6.592,23.019c-0.75,2.379-2.735,3.567-5.949,3.567c-2.574,0-4.985-0.695-7.236-2.089
		C243.659,232.041,242.533,230.38,242.533,228.448z M269.563,195.405h31.984l-16.153-55.3L269.563,195.405z"/>
	<path style="fill:#FFFFFF;" d="M341.415,229.886V123.22c0-1.825,0.83-3.195,2.497-4.109c1.664-0.912,3.678-1.369,6.043-1.369
		c2.361,0,4.376,0.458,6.043,1.369c1.664,0.914,2.497,2.284,2.497,4.109v97.16h41.894c1.611,0,2.872,0.753,3.786,2.256
		c0.912,1.505,1.369,3.278,1.369,5.317c0,2.042-0.458,3.814-1.369,5.317c-0.914,1.505-2.174,2.255-3.786,2.255h-51.4
		c-2.042,0-3.814-0.509-5.317-1.53C342.165,232.975,341.415,231.606,341.415,229.886z"/>
	<path style="fill:#FFFFFF;" d="M418.271,229.886V123.381c0-1.717,0.75-3.087,2.255-4.108c1.504-1.02,3.276-1.531,5.317-1.531
		h57.362c1.825,0,3.223,0.753,4.189,2.256c0.967,1.506,1.45,3.223,1.45,5.156c0,2.15-0.511,3.976-1.531,5.478
		c-1.022,1.506-2.391,2.255-4.108,2.255h-47.855v36.899h24.814c1.717,0,3.087,0.673,4.109,2.014
		c1.019,1.344,1.531,2.981,1.531,4.915c0,1.719-0.483,3.25-1.451,4.592c-0.967,1.344-2.364,2.014-4.189,2.014h-24.814v37.06h47.855
		c1.717,0,3.087,0.753,4.108,2.256c1.02,1.505,1.531,3.33,1.531,5.477c0,1.934-0.483,3.653-1.45,5.156
		c-0.967,1.505-2.364,2.255-4.189,2.255h-57.361c-2.042,0-3.814-0.509-5.317-1.53C419.021,232.975,418.271,231.606,418.271,229.886z
		"/>
</g>
<linearGradient id="SVGID_8_" gradientUnits="userSpaceOnUse" x1="79.2982" y1="401.993" x2="46.3932" y2="369.083" gradientTransform="matrix(1.0039 0 0 -1.0039 0.1922 516.5607)">
	<stop  offset="0" style="stop-color:#FFF465"/>
	<stop  offset="1" style="stop-color:#FFE600"/>
</linearGradient>
<path style="fill:url(#SVGID_8_);" d="M127.855,183.84L127.855,183.84c-11.94,11.94-31.297,11.94-43.237,0L8.955,108.176
	c-11.94-11.94-11.94-31.297,0-43.237l0,0c11.94-11.94,31.297-11.94,43.237,0l75.664,75.664
	C139.795,152.543,139.795,171.9,127.855,183.84z"/>
<g>
</g>
<g>
</g>
<g>
</g>
<g>
</g>
<g>
</g>
<g>
</g>
<g>
</g>
<g>
</g>
<g>
</g>
<g>
</g>
<g>
</g>
<g>
</g>
<g>
</g>
<g>
</g>
<g>
</g>
</svg>
