<?xml version="1.0" encoding="utf-8"?>
<!-- Generator: Adobe Illustrator 21.1.0, SVG Export Plug-In . SVG Version: 6.00 Build 0)  -->
<svg version="1.1" id="Capa_1" xmlns="http://www.w3.org/2000/svg" xmlns:xlink="http://www.w3.org/1999/xlink" x="0px" y="0px"
	 viewBox="0 0 932.2 932.2" style="enable-background:new 0 0 932.2 932.2;" xml:space="preserve">
<style type="text/css">
	.st0{fill:#FFFFFF;}
</style>
<g>
	<path class="st0" d="M892.7,44l-19.4-16.3c-5.9-5.1-14.7-4.8-20.4,0.6l-10.7,10c-9-4.3-18.6-7.4-28.4-9.2l-3-14.7
		c-1.5-7.6-8.6-12.9-16.3-12.2l-25.1,2.2c-7.7,0.7-13.8,7-14.1,14.8l-0.5,15c-9.7,3.5-18.8,8.3-27.2,14.3l-12.8-8.4
		c-6.5-4.3-15.2-3.1-20.2,2.9l-16.3,19.4c-5.1,5.9-4.8,14.7,0.6,20.4L690,94.7c-3.9,8.7-6.6,17.9-8.2,27.3l-16,3.2
		c-7.6,1.5-12.9,8.6-12.2,16.3l2.1,25.2c0.7,7.7,7,13.8,14.8,14.1l17.2,0.6c3.2,8.2,7.3,16,12.2,23.3l-9.6,14.5
		c-4.3,6.5-3.1,15.2,2.9,20.2l19.4,16.3c5.9,5.1,14.7,4.8,20.4-0.6l12.6-11.9c8.3,3.9,17,6.7,25.9,8.4l3.5,17.3
		c1.5,7.6,8.6,12.9,16.3,12.2l25.2-2.1c7.7-0.7,13.8-7,14.1-14.8l0.6-16.9c9.2-3.2,17.9-7.7,25.9-13.1l13.9,9.2
		c6.5,4.3,15.2,3.1,20.2-2.9l16.3-19.4c5.1-5.9,4.8-14.7-0.6-20.4l-11.2-11.9c4.1-8.7,7.1-17.9,8.9-27.3l15.3-3.2
		c7.6-1.5,12.9-8.6,12.2-16.3l-2.1-25.2c-0.7-7.7-7-13.8-14.8-14.1L900,102c-3.2-8.9-7.5-17.4-12.8-25.3l8.3-12.5
		C899.8,57.8,898.6,49,892.7,44z M797.7,189.8c-27.3,2.3-51.3-18-53.6-45.2c-2.3-27.3,18-51.3,45.2-53.6c27.3-2.3,51.3,18,53.6,45.2
		S824.9,187.5,797.7,189.8z"/>
</g>
<g>
	<g>
		<path class="st0" d="M385.9,576.2c-147.6,17-187.6,141.7-189.2,147c-2.3,7.3,1.9,15,9.1,17.3c1.4,0.4,2.7,0.6,4.1,0.6
			c5.9,0,11.4-3.8,13.2-9.8c0.3-1.1,36.1-112.7,166-127.6c7.6-0.9,13-7.7,12.1-15.3C400.4,580.7,393.5,575.3,385.9,576.2z"/>
		<path class="st0" d="M620.5,835.5h-50.7v-39.2h71c6,0,11.3-3.9,13.2-9.6c5.5-17,8.1-33.6,8.1-50.7
			c0-110.8-101.7-199.4-237.5-213.2L447,466c15.2-7.5,25.6-21.7,25.6-38.1c0-24.2-22.4-43.9-49.9-43.9h-70.3
			c-27.5,0-50,19.7-50,43.9c0,16.1,10,30,24.6,37.7l22.9,57.8C220.4,538.7,113.8,631.4,113.8,736c0,17,2.6,34.5,7.5,50.5
			c1.8,5.8,7.1,9.8,13.2,9.8h61.9v39.2h-42.3c-30.5,0-55.3,21.7-55.3,48.4v17.3c0,17.4,18.2,31.1,41.5,31.1h494
			c23.3,0,41.5-13.7,41.5-31.1v-17.3C675.7,857.2,651,835.5,620.5,835.5z M352.4,411.5h70.3c12.1,0,22.3,7.5,22.3,16.3
			c0,8.8-10.2,16.3-22.3,16.3h-70.3c-12.1,0-22.3-7.5-22.3-16.3C330.1,419,340.3,411.5,352.4,411.5z M359.3,471.8h55.7l-19.5,49.3
			c-2.6-0.1-5.2-0.3-7.9-0.3c-2.9,0-5.8,0.3-8.7,0.4L359.3,471.8z M142.6,755.1c-0.8-6.3-1.2-12.7-1.2-19
			c0-99.9,115-187.6,246.1-187.6c138.4,0,246.8,82.4,246.8,187.6c0,6.5-0.4,12.8-1.3,19.1c-1.1,7.5-8.9,13.5-16.5,13.5H158.9
			C151.2,768.7,143.6,762.6,142.6,755.1z M224,796.3h318.1v39.2H224V796.3z M634.3,904.6h-494c-8.6,0-13.4-3.3-13.8-3.5v-17.3
			c0-11.2,12.7-20.7,27.6-20.7h466.4c15,0,27.6,9.5,27.6,20.7l0.2,16.2C647.6,901.2,642.9,904.6,634.3,904.6z"/>
		<path class="st0" d="M112.6,585.1c4.2,0,8.4-1.9,11.1-5.5c4.6-6.1,3.3-14.8-2.8-19.3l-94.4-70.6c-6.1-4.6-14.8-3.3-19.3,2.8
			s-3.3,14.8,2.8,19.3l94.4,70.6C106.8,584.2,109.7,585.1,112.6,585.1z"/>
		<path class="st0" d="M185.5,496c2.7,3.5,6.8,5.3,10.8,5.3c3,0,6-1,8.6-3c6-4.7,7-13.4,2.3-19.4l-73.1-92.5c-4.7-6-13.4-7-19.4-2.3
			c-6,4.7-7,13.4-2.3,19.4L185.5,496z"/>
		<path class="st0" d="M594.8,503.2c4.2,0,8.4-1.9,11.1-5.5l70.6-94.4c4.6-6.1,3.3-14.8-2.8-19.3c-6.1-4.6-14.8-3.3-19.3,2.8
			l-70.6,94.4c-4.6,6.1-3.3,14.8,2.8,19.3C589,502.3,591.9,503.2,594.8,503.2z"/>
		<path class="st0" d="M782,491.4c-4.7-6-13.4-7-19.4-2.3l-92.5,73.1c-6,4.7-7,13.4-2.3,19.4c2.7,3.5,6.8,5.3,10.9,5.3
			c3,0,6-1,8.6-3l92.5-73.1C785.7,506.1,786.8,497.4,782,491.4z"/>
	</g>
</g>
</svg>
