<?xml version="1.0" encoding="utf-8"?>
<!-- Generator: Adobe Illustrator 21.1.0, SVG Export Plug-In . SVG Version: 6.00 Build 0)  -->
<svg version="1.1" id="Capa_1" xmlns="http://www.w3.org/2000/svg" xmlns:xlink="http://www.w3.org/1999/xlink" x="0px" y="0px"
	 viewBox="0 0 932.2 932.2" style="enable-background:new 0 0 932.2 932.2;" xml:space="preserve">
<style type="text/css">
	.st0{fill:#FFFFFF;}
</style>
<g>
	<path class="st0" d="M878.2,59.3l-26.4-22.3c-8.1-6.9-20.1-6.5-27.8,0.8l-14.6,13.6c-12.3-5.9-25.4-10.1-38.8-12.6l-4.1-20.1
		c-2.1-10.4-11.7-17.6-22.3-16.7L709.9,5c-10.5,0.9-18.8,9.5-19.2,20.2l-0.7,20.4c-13.2,4.8-25.7,11.3-37.1,19.5l-17.4-11.5
		c-8.9-5.9-20.7-4.2-27.5,3.9L585.8,84c-6.9,8.1-6.5,20.1,0.8,27.8l15.2,16.2c-5.3,11.9-9,24.4-11.2,37.2l-21.8,4.4
		c-10.4,2.1-17.6,11.7-16.7,22.3l2.9,34.4c0.9,10.5,9.5,18.8,20.2,19.2l23.5,0.8c4.3,11.2,9.9,21.8,16.7,31.8l-13.1,19.8
		c-5.9,8.9-4.2,20.7,3.9,27.5l26.4,22.3c8.1,6.9,20.1,6.5,27.8-0.8l17.2-16.2c11.3,5.3,23.2,9.2,35.4,11.5l4.8,23.6
		c2.1,10.4,11.7,17.6,22.3,16.7l34.4-2.9c10.5-0.9,18.8-9.5,19.2-20.2l0.8-23.1c12.6-4.4,24.4-10.5,35.4-17.9l19,12.6
		c8.9,5.9,20.7,4.2,27.5-3.9l22.3-26.4c6.9-8.1,6.5-20.1-0.8-27.8l-15.3-16.2c5.6-11.9,9.7-24.4,12.1-37.3l20.9-4.3
		c10.4-2.1,17.6-11.7,16.7-22.3l-2.9-34.4c-0.9-10.5-9.5-18.8-20.2-19.2l-21-0.7c-4.4-12.2-10.2-23.8-17.5-34.5L882,87
		C888,78.1,886.3,66.2,878.2,59.3z M748.6,258.2c-37.2,3.2-70-24.5-73.1-61.7c-3.2-37.2,24.5-70,61.7-73.1
		c37.2-3.2,70,24.5,73.1,61.7C813.4,222.3,785.7,255.1,748.6,258.2z"/>
</g>
<g>
	<path class="st0" d="M376.6,446.9c-34.8-19.3-71.9-33.9-108.5-49.1c-21.3-8.8-41.6-19.1-59.6-33.4c-35.4-28.2-28.6-74.1,12.8-92.2
		c11.7-5.1,24-6.8,36.5-7.5c48-2.6,93.7,6.2,137.1,27.1c21.6,10.5,28.8,7.2,36.1-15.4c7.7-23.8,14.1-48,21.3-72.1
		c4.8-16.1-1.1-26.8-16.3-33.6c-27.9-12.3-56.5-21.1-86.5-25.9c-39.2-6.1-39.2-6.2-39.4-45.7c-0.2-55.6-0.2-55.6-55.9-55.6
		c-8.1,0-16.1-0.2-24.2,0c-26,0.7-30.4,5.3-31.2,31.5c-0.4,11.7,0,23.5-0.2,35.4c-0.2,34.8-0.4,34.3-33.7,46.4
		C84.1,186.3,34.3,241.3,29,329.4c-4.8,77.9,35.9,130.5,99.9,168.9c39.4,23.7,83.1,37.6,124.9,56.1c16.3,7.2,31.9,15.4,45.5,26.8
		c40.2,33.2,32.8,88.4-14.9,109.3c-25.5,11.2-52.4,13.9-80.1,10.5c-42.7-5.3-83.6-16.5-122.1-36.5c-22.6-11.7-29.2-8.6-36.9,15.8
		c-6.6,21.1-12.5,42.4-18.3,63.6c-7.9,28.6-5,35.4,22.4,48.8c34.8,16.9,72.1,25.5,110,31.5c29.7,4.8,30.6,6.1,31,36.9
		c0.2,13.9,0.2,28.1,0.4,42c0.2,17.6,8.6,27.9,26.8,28.2c20.5,0.4,41.3,0.4,61.8-0.2c16.9-0.4,25.5-9.5,25.5-26.6
		c0-19.1,0.9-38.3,0.2-57.4c-0.9-19.4,7.5-29.3,26.2-34.5c43.1-11.7,79.8-34.8,108-69.3C517.6,647.8,487.7,508.3,376.6,446.9z"/>
</g>
</svg>
