<?xml version="1.0" encoding="utf-8"?>
<!-- Generator: Adobe Illustrator 21.1.0, SVG Export Plug-In . SVG Version: 6.00 Build 0)  -->
<svg version="1.1" id="Capa_1" xmlns="http://www.w3.org/2000/svg" xmlns:xlink="http://www.w3.org/1999/xlink" x="0px" y="0px"
	 viewBox="0 0 932.2 932.2" style="enable-background:new 0 0 932.2 932.2;" xml:space="preserve">
<style type="text/css">
	.st0{fill:#FFFFFF;}
</style>
<g>
	<path class="st0" d="M878.2,59.3l-26.4-22.3c-8.1-6.9-20.1-6.5-27.8,0.8l-14.6,13.6c-12.3-5.9-25.4-10.1-38.8-12.6l-4.1-20.1
		c-2.1-10.4-11.7-17.6-22.3-16.7L709.9,5c-10.5,0.9-18.8,9.5-19.2,20.2l-0.7,20.4c-13.2,4.8-25.7,11.3-37.1,19.5l-17.4-11.5
		c-8.9-5.9-20.7-4.2-27.5,3.9L585.8,84c-6.9,8.1-6.5,20.1,0.8,27.8l15.2,16.2c-5.3,11.9-9,24.4-11.2,37.2l-21.8,4.4
		c-10.4,2.1-17.6,11.7-16.7,22.3l2.9,34.4c0.9,10.5,9.5,18.8,20.2,19.2l23.5,0.8c4.3,11.2,9.9,21.8,16.7,31.8l-13.1,19.8
		c-5.9,8.9-4.2,20.7,3.9,27.5l26.4,22.3c8.1,6.9,20.1,6.5,27.8-0.8l17.2-16.2c11.3,5.3,23.2,9.2,35.4,11.5l4.8,23.6
		c2.1,10.4,11.7,17.6,22.3,16.7l34.4-2.9c10.5-0.9,18.8-9.5,19.2-20.2l0.8-23.1c12.6-4.4,24.4-10.5,35.4-17.9l19,12.6
		c8.9,5.9,20.7,4.2,27.5-3.9l22.3-26.4c6.9-8.1,6.5-20.1-0.8-27.8l-15.3-16.2c5.6-11.9,9.7-24.4,12.1-37.3l20.9-4.3
		c10.4-2.1,17.6-11.7,16.7-22.3l-2.9-34.4c-0.9-10.5-9.5-18.8-20.2-19.2l-21-0.7c-4.4-12.2-10.2-23.8-17.5-34.5L882,87
		C888,78.1,886.3,66.2,878.2,59.3z M748.6,258.2c-37.2,3.2-70-24.5-73.1-61.7c-3.2-37.2,24.5-70,61.7-73.1
		c37.2-3.2,70,24.5,73.1,61.7C813.4,222.3,785.7,255.1,748.6,258.2z"/>
</g>
<g>
	<path class="st0" d="M528,636.1h-44.8c-13.4,0-22.4,9-22.4,22.4v100.8c0,6.7-4.5,11.2-11.2,11.2H113.7c-6.7,0-11.2-4.5-11.2-11.2
		V423.4c0-6.7,4.5-11.2,11.2-11.2h100.8c13.4,0,22.4-9,22.4-22.4V345c0-13.4-9-22.4-22.4-22.4H35.3c-13.4,0-22.4,9-22.4,22.4v492.7
		c0,13.4,9,22.4,22.4,22.4H528c13.4,0,22.4-9,22.4-22.4V658.5C550.4,645.1,541.5,636.1,528,636.1L528,636.1z"/>
	<path class="st0" d="M528,322.6H348.9c-13.4,0-22.4,9-22.4,22.4v44.8c0,13.4,9,22.4,22.4,22.4h22.4c9,0,15.7,11.2,9,20.2
		L201.1,611.5c-9,9-9,22.4,0,31.4l31.4,31.4c9,9,22.4,9,31.4,0L442.9,495c6.7-6.7,20.2-2.2,20.2,9v22.4c0,13.4,9,22.4,22.4,22.4
		h44.8c13.4,0,22.4-9,22.4-22.4V347.2C550.4,331.6,541.5,322.6,528,322.6L528,322.6z"/>
</g>
</svg>
